%
M48
M72
T01C0.0236
T02C0.0350
T03C0.0360
T04C0.0394
T05C0.0512
T06C0.0791
%
T01
X27069Y18998
X31793Y13289
X32580Y13289
X33368Y13289
X34155Y13289
X31006Y11911
X37305Y18407
X37305Y18998
X37305Y19588
X37305Y20179
T02
X6807Y16794
X7807Y16794
X15014Y16840
X16014Y16840
X23139Y16883
X24139Y16883
X30996Y16883
X31996Y16883
X32046Y8324
X31046Y8324
X24141Y8321
X23141Y8321
X16192Y8342
X15192Y8342
X7904Y8320
X6904Y8320
T03
X37581Y13313
X37581Y12313
X37581Y11313
T04
X12480Y22037
X13480Y22037
X14480Y22037
X15480Y22037
X16480Y22037
X17480Y22037
X18480Y22037
X19480Y22037
X21080Y22037
X22080Y22037
X23080Y22037
X24080Y22037
X25080Y22037
X26080Y22037
X27080Y22037
X28080Y22037
X28080Y3037
X27080Y3037
X26080Y3037
X25080Y3037
X24080Y3037
X23080Y3037
X21080Y3037
X20080Y3037
X19080Y3037
X18080Y3037
X17080Y3037
X16080Y3037
T05
X35769Y22187
X37698Y22423
X37698Y16242
X35769Y16478
T06
X8807Y18794
X4807Y14794
X8904Y10320
X13192Y6342
X17192Y10342
X21141Y6321
X25141Y10321
X29046Y6324
X33046Y10324
X28996Y14883
X25139Y18883
X21139Y14883
X17014Y18840
X13014Y14840
X4904Y6320
X32996Y18883
M30
