G75*
%MOIN*%
%OFA0B0*%
%FSLAX24Y24*%
%IPPOS*%
%LPD*%
%AMOC8*
5,1,8,0,0,1.08239X$1,22.5*
%
%ADD10C,0.0000*%
%ADD11C,0.0120*%
%ADD12C,0.0526*%
%ADD13C,0.1187*%
%ADD14C,0.0768*%
%ADD15OC8,0.0660*%
%ADD16C,0.0540*%
%ADD17R,0.0356X0.0356*%
%ADD18C,0.0160*%
%ADD19C,0.0100*%
D10*
X000100Y000100D02*
X000100Y031596D01*
X039470Y031596D01*
X039470Y000100D01*
X000100Y000100D01*
D11*
X003053Y002069D02*
X003053Y023131D01*
X038880Y023131D01*
X038880Y002069D01*
X003053Y002069D01*
X003273Y002289D02*
X003273Y022911D01*
X037562Y022911D01*
X037413Y022850D01*
X037271Y022708D01*
X037195Y022523D01*
X037195Y022323D01*
X037271Y022137D01*
X037413Y021996D01*
X037598Y021919D01*
X037799Y021919D01*
X037984Y021996D01*
X038126Y022137D01*
X038202Y022323D01*
X038202Y022523D01*
X038126Y022708D01*
X037984Y022850D01*
X037835Y022911D01*
X038660Y022911D01*
X038660Y002289D01*
X003273Y002289D01*
X003273Y002352D02*
X038660Y002352D01*
X038660Y002470D02*
X003273Y002470D01*
X003273Y002589D02*
X015892Y002589D01*
X015894Y002587D02*
X016267Y002587D01*
X016530Y002851D01*
X016530Y003223D01*
X016354Y003400D01*
X016807Y003400D01*
X016630Y003223D01*
X016630Y002851D01*
X016894Y002587D01*
X017267Y002587D01*
X017530Y002851D01*
X017530Y003223D01*
X017354Y003400D01*
X017807Y003400D01*
X017630Y003223D01*
X017630Y002851D01*
X017894Y002587D01*
X018267Y002587D01*
X018530Y002851D01*
X018530Y003223D01*
X018354Y003400D01*
X018807Y003400D01*
X018630Y003223D01*
X018630Y002851D01*
X018894Y002587D01*
X019267Y002587D01*
X019530Y002851D01*
X019530Y003223D01*
X019354Y003400D01*
X019807Y003400D01*
X019630Y003223D01*
X019630Y002851D01*
X019894Y002587D01*
X020267Y002587D01*
X020530Y002851D01*
X020530Y003223D01*
X020354Y003400D01*
X020807Y003400D01*
X020630Y003223D01*
X020630Y002851D01*
X020894Y002587D01*
X021267Y002587D01*
X021530Y002851D01*
X021530Y003223D01*
X021354Y003400D01*
X022807Y003400D01*
X022630Y003223D01*
X022630Y002851D01*
X022894Y002587D01*
X023267Y002587D01*
X023530Y002851D01*
X023530Y003223D01*
X023354Y003400D01*
X023807Y003400D01*
X023630Y003223D01*
X023630Y002851D01*
X023894Y002587D01*
X024267Y002587D01*
X024530Y002851D01*
X024530Y003223D01*
X024354Y003400D01*
X024807Y003400D01*
X024630Y003223D01*
X024630Y002851D01*
X024894Y002587D01*
X025267Y002587D01*
X025530Y002851D01*
X025530Y003223D01*
X025354Y003400D01*
X025807Y003400D01*
X025630Y003223D01*
X025630Y002851D01*
X025894Y002587D01*
X026267Y002587D01*
X026530Y002851D01*
X026530Y003223D01*
X026354Y003400D01*
X026807Y003400D01*
X026630Y003223D01*
X026630Y002851D01*
X026894Y002587D01*
X027267Y002587D01*
X027530Y002851D01*
X027530Y003223D01*
X027354Y003400D01*
X027807Y003400D01*
X027630Y003223D01*
X027630Y002851D01*
X027894Y002587D01*
X028267Y002587D01*
X028530Y002851D01*
X028530Y003223D01*
X028354Y003400D01*
X035183Y003400D01*
X035300Y003517D01*
X036800Y005017D01*
X036800Y016683D01*
X036683Y016800D01*
X035800Y017683D01*
X035800Y019683D01*
X035683Y019800D01*
X035683Y019800D01*
X034183Y021300D01*
X022683Y021300D01*
X022331Y021652D01*
X022530Y021851D01*
X022530Y022223D01*
X022267Y022487D01*
X021894Y022487D01*
X021630Y022223D01*
X021630Y021853D01*
X021530Y021953D01*
X021530Y022223D01*
X021267Y022487D01*
X020894Y022487D01*
X020630Y022223D01*
X020630Y021851D01*
X020894Y021587D01*
X021267Y021587D01*
X021298Y021619D01*
X022400Y020517D01*
X022517Y020400D01*
X034017Y020400D01*
X034900Y019517D01*
X034900Y016017D01*
X035900Y015017D01*
X035900Y005183D01*
X035017Y004300D01*
X016183Y004300D01*
X015300Y005183D01*
X015300Y007972D01*
X015409Y008017D01*
X015516Y008125D01*
X015575Y008266D01*
X015575Y008418D01*
X015516Y008559D01*
X015409Y008666D01*
X015268Y008725D01*
X015116Y008725D01*
X014975Y008666D01*
X014867Y008559D01*
X014809Y008418D01*
X014809Y008266D01*
X014867Y008125D01*
X014900Y008092D01*
X014900Y005017D01*
X015017Y004900D01*
X016017Y003900D01*
X035117Y003900D01*
X035017Y003800D01*
X008683Y003800D01*
X007300Y005183D01*
X007300Y008207D01*
X007280Y008227D01*
X007287Y008244D01*
X007287Y008397D01*
X007228Y008537D01*
X007121Y008645D01*
X006980Y008703D01*
X006828Y008703D01*
X006687Y008645D01*
X006579Y008537D01*
X006521Y008397D01*
X006521Y008244D01*
X006579Y008104D01*
X006687Y007996D01*
X006828Y007938D01*
X006900Y007938D01*
X006900Y005017D01*
X007017Y004900D01*
X008517Y003400D01*
X015807Y003400D01*
X015630Y003223D01*
X015630Y002851D01*
X015894Y002587D01*
X015774Y002707D02*
X003273Y002707D01*
X003273Y002826D02*
X015655Y002826D01*
X015630Y002944D02*
X003273Y002944D01*
X003273Y003063D02*
X015630Y003063D01*
X015630Y003181D02*
X003273Y003181D01*
X003273Y003300D02*
X015706Y003300D01*
X015907Y004011D02*
X008472Y004011D01*
X008354Y004129D02*
X015788Y004129D01*
X015670Y004248D02*
X008235Y004248D01*
X008117Y004366D02*
X015551Y004366D01*
X015433Y004485D02*
X007998Y004485D01*
X007880Y004603D02*
X015314Y004603D01*
X015196Y004722D02*
X007761Y004722D01*
X007643Y004840D02*
X015077Y004840D01*
X014959Y004959D02*
X007524Y004959D01*
X007406Y005077D02*
X014900Y005077D01*
X014900Y005196D02*
X007300Y005196D01*
X007300Y005314D02*
X014900Y005314D01*
X014900Y005433D02*
X007300Y005433D01*
X007300Y005551D02*
X014900Y005551D01*
X014900Y005670D02*
X013433Y005670D01*
X013334Y005628D02*
X013596Y005737D01*
X013797Y005938D01*
X013905Y006200D01*
X013905Y006484D01*
X013797Y006746D01*
X013596Y006947D01*
X013334Y007055D01*
X013050Y007055D01*
X012788Y006947D01*
X012587Y006746D01*
X012478Y006484D01*
X012478Y006200D01*
X012587Y005938D01*
X012788Y005737D01*
X013050Y005628D01*
X013334Y005628D01*
X013647Y005788D02*
X014900Y005788D01*
X014900Y005907D02*
X013766Y005907D01*
X013833Y006025D02*
X014900Y006025D01*
X014900Y006144D02*
X013882Y006144D01*
X013905Y006262D02*
X014900Y006262D01*
X014900Y006381D02*
X013905Y006381D01*
X013899Y006499D02*
X014900Y006499D01*
X014900Y006618D02*
X013850Y006618D01*
X013801Y006736D02*
X014900Y006736D01*
X014900Y006855D02*
X013688Y006855D01*
X013532Y006973D02*
X014900Y006973D01*
X014900Y007092D02*
X007300Y007092D01*
X007300Y007210D02*
X014900Y007210D01*
X014900Y007329D02*
X007300Y007329D01*
X007300Y007447D02*
X014900Y007447D01*
X014900Y007566D02*
X007300Y007566D01*
X007300Y007684D02*
X014900Y007684D01*
X014900Y007803D02*
X007300Y007803D01*
X007300Y007921D02*
X007765Y007921D01*
X007742Y007929D02*
X007805Y007908D01*
X007871Y007898D01*
X007876Y007898D01*
X007876Y008293D01*
X007481Y008293D01*
X007481Y008287D01*
X007492Y008221D01*
X007512Y008158D01*
X007300Y008158D01*
X007300Y008040D02*
X007587Y008040D01*
X007581Y008045D02*
X007629Y007998D01*
X007682Y007959D01*
X007742Y007929D01*
X007876Y007921D02*
X007932Y007921D01*
X007932Y007898D02*
X007937Y007898D01*
X008003Y007908D01*
X008066Y007929D01*
X008126Y007959D01*
X008179Y007998D01*
X008226Y008045D01*
X008266Y008099D01*
X008296Y008158D01*
X008316Y008221D01*
X008327Y008287D01*
X008327Y008293D01*
X007932Y008293D01*
X007932Y008348D01*
X008327Y008348D01*
X008327Y008354D01*
X008316Y008419D01*
X008296Y008483D01*
X008266Y008542D01*
X008226Y008596D01*
X008179Y008643D01*
X008126Y008682D01*
X008066Y008712D01*
X008003Y008733D01*
X007937Y008743D01*
X007932Y008743D01*
X007932Y008348D01*
X007876Y008348D01*
X007876Y008293D01*
X007932Y008293D01*
X007932Y007898D01*
X008043Y007921D02*
X014900Y007921D01*
X014900Y008040D02*
X008221Y008040D01*
X008296Y008158D02*
X014853Y008158D01*
X014809Y008277D02*
X008325Y008277D01*
X008320Y008395D02*
X014809Y008395D01*
X014849Y008514D02*
X008280Y008514D01*
X008190Y008632D02*
X014941Y008632D01*
X015443Y008632D02*
X015884Y008632D01*
X015869Y008617D02*
X015830Y008563D01*
X015800Y008504D01*
X015779Y008441D01*
X015769Y008375D01*
X015769Y008369D01*
X016164Y008369D01*
X016164Y008314D01*
X016219Y008314D01*
X016219Y007919D01*
X016225Y007919D01*
X016291Y007929D01*
X016354Y007950D01*
X016413Y007980D01*
X016467Y008019D01*
X016514Y008066D01*
X016553Y008120D01*
X016584Y008179D01*
X016604Y008243D01*
X016615Y008308D01*
X016615Y008314D01*
X016219Y008314D01*
X016219Y008369D01*
X016615Y008369D01*
X016615Y008375D01*
X016604Y008441D01*
X016584Y008504D01*
X016553Y008563D01*
X016514Y008617D01*
X016467Y008664D01*
X016413Y008703D01*
X016354Y008734D01*
X016291Y008754D01*
X016225Y008765D01*
X016219Y008765D01*
X016219Y008369D01*
X016164Y008369D01*
X016164Y008765D01*
X016158Y008765D01*
X016093Y008754D01*
X016029Y008734D01*
X015970Y008703D01*
X015916Y008664D01*
X015869Y008617D01*
X015805Y008514D02*
X015535Y008514D01*
X015575Y008395D02*
X015772Y008395D01*
X015769Y008314D02*
X015769Y008308D01*
X015779Y008243D01*
X015800Y008179D01*
X015830Y008120D01*
X015869Y008066D01*
X015916Y008019D01*
X015970Y007980D01*
X016029Y007950D01*
X016093Y007929D01*
X016158Y007919D01*
X016164Y007919D01*
X016164Y008314D01*
X015769Y008314D01*
X015774Y008277D02*
X015575Y008277D01*
X015530Y008158D02*
X015811Y008158D01*
X015896Y008040D02*
X015431Y008040D01*
X015300Y007921D02*
X016145Y007921D01*
X016164Y007921D02*
X016219Y007921D01*
X016238Y007921D02*
X022900Y007921D01*
X022900Y008021D02*
X022900Y005017D01*
X023017Y004900D01*
X023517Y004400D01*
X034683Y004400D01*
X034800Y004517D01*
X035800Y005517D01*
X035800Y014683D01*
X035683Y014800D01*
X034800Y015683D01*
X034800Y019183D01*
X034683Y019300D01*
X033683Y020300D01*
X021683Y020300D01*
X019930Y022053D01*
X019930Y022223D01*
X019667Y022487D01*
X019294Y022487D01*
X019030Y022223D01*
X019030Y021953D01*
X018930Y022053D01*
X018930Y022223D01*
X018667Y022487D01*
X018294Y022487D01*
X018030Y022223D01*
X018030Y021851D01*
X018294Y021587D01*
X018667Y021587D01*
X018748Y021669D01*
X021017Y019400D01*
X021183Y019400D01*
X021203Y019420D01*
X023808Y019420D01*
X023993Y019605D01*
X026207Y019605D01*
X026298Y019514D01*
X026403Y019408D01*
X031509Y019408D01*
X031900Y019017D01*
X031900Y018948D01*
X031579Y019269D01*
X031474Y019374D01*
X027191Y019374D01*
X027112Y019296D01*
X026841Y019296D01*
X026770Y019225D01*
X026770Y018770D01*
X026841Y018700D01*
X027296Y018700D01*
X027367Y018770D01*
X027367Y019014D01*
X031325Y019014D01*
X031613Y018726D01*
X031613Y018136D01*
X031718Y018030D01*
X032309Y017440D01*
X032899Y017440D01*
X033188Y017151D01*
X033188Y016316D01*
X030931Y014060D01*
X030826Y013954D01*
X030826Y012209D01*
X030778Y012209D01*
X030707Y012139D01*
X030707Y011683D01*
X030778Y011613D01*
X031233Y011613D01*
X031304Y011683D01*
X031304Y012139D01*
X031233Y012209D01*
X031186Y012209D01*
X031186Y013805D01*
X033442Y016062D01*
X033548Y016167D01*
X033548Y017301D01*
X033154Y017694D01*
X033049Y017800D01*
X032458Y017800D01*
X031973Y018285D01*
X031973Y018444D01*
X032400Y018017D01*
X032517Y017900D01*
X033517Y017900D01*
X033900Y017517D01*
X033900Y015017D01*
X034900Y014017D01*
X034900Y006183D01*
X034017Y005300D01*
X031683Y005300D01*
X031300Y005683D01*
X031300Y008037D01*
X031371Y008108D01*
X031429Y008248D01*
X031429Y008401D01*
X031371Y008541D01*
X031263Y008649D01*
X031122Y008707D01*
X030970Y008707D01*
X030829Y008649D01*
X030722Y008541D01*
X030664Y008401D01*
X030664Y008248D01*
X030722Y008108D01*
X030829Y008000D01*
X030900Y007971D01*
X030900Y005517D01*
X031017Y005400D01*
X031517Y004900D01*
X034183Y004900D01*
X034300Y005017D01*
X035300Y006017D01*
X035300Y014183D01*
X035183Y014300D01*
X034300Y015183D01*
X034300Y017683D01*
X034183Y017800D01*
X033683Y018300D01*
X033421Y018300D01*
X033601Y018479D01*
X033709Y018741D01*
X033709Y019025D01*
X033601Y019288D01*
X033400Y019488D01*
X033138Y019597D01*
X032854Y019597D01*
X032592Y019488D01*
X032391Y019288D01*
X032300Y019068D01*
X032300Y019183D01*
X032183Y019300D01*
X032183Y019300D01*
X031785Y019698D01*
X031683Y019800D01*
X031517Y019800D01*
X031485Y019768D01*
X026553Y019768D01*
X026421Y019900D01*
X033517Y019900D01*
X034400Y019017D01*
X034400Y015517D01*
X035400Y014517D01*
X035400Y005683D01*
X034517Y004800D01*
X023683Y004800D01*
X023300Y005183D01*
X023300Y007972D01*
X023358Y007996D01*
X023466Y008104D01*
X023524Y008245D01*
X023524Y008397D01*
X023466Y008538D01*
X023358Y008645D01*
X023217Y008704D01*
X023065Y008704D01*
X022924Y008645D01*
X022817Y008538D01*
X022758Y008397D01*
X022758Y008245D01*
X022817Y008104D01*
X022900Y008021D01*
X022881Y008040D02*
X016487Y008040D01*
X016573Y008158D02*
X022794Y008158D01*
X022758Y008277D02*
X016609Y008277D01*
X016611Y008395D02*
X022758Y008395D01*
X022807Y008514D02*
X016579Y008514D01*
X016499Y008632D02*
X022911Y008632D01*
X023371Y008632D02*
X023854Y008632D01*
X023866Y008643D02*
X023819Y008596D01*
X023779Y008542D01*
X023749Y008483D01*
X023729Y008420D01*
X023718Y008354D01*
X023718Y008348D01*
X024113Y008348D01*
X024113Y008293D01*
X023718Y008293D01*
X023718Y008288D01*
X023729Y008222D01*
X023749Y008159D01*
X023779Y008099D01*
X023819Y008045D01*
X023866Y007998D01*
X023920Y007959D01*
X023979Y007929D01*
X024042Y007908D01*
X024108Y007898D01*
X024114Y007898D01*
X024114Y008293D01*
X024169Y008293D01*
X024169Y008348D01*
X024564Y008348D01*
X024564Y008354D01*
X024553Y008420D01*
X024533Y008483D01*
X024503Y008542D01*
X024464Y008596D01*
X024417Y008643D01*
X024363Y008682D01*
X024303Y008713D01*
X024240Y008733D01*
X024174Y008744D01*
X024169Y008744D01*
X024169Y008348D01*
X024114Y008348D01*
X024114Y008744D01*
X024108Y008744D01*
X024042Y008733D01*
X023979Y008713D01*
X023920Y008682D01*
X023866Y008643D01*
X023765Y008514D02*
X023476Y008514D01*
X023524Y008395D02*
X023725Y008395D01*
X023720Y008277D02*
X023524Y008277D01*
X023488Y008158D02*
X023750Y008158D01*
X023825Y008040D02*
X023401Y008040D01*
X023300Y007921D02*
X024004Y007921D01*
X024114Y007921D02*
X024169Y007921D01*
X024169Y007898D02*
X024174Y007898D01*
X024240Y007908D01*
X024303Y007929D01*
X024363Y007959D01*
X024417Y007998D01*
X024464Y008045D01*
X024503Y008099D01*
X024533Y008159D01*
X024553Y008222D01*
X024564Y008288D01*
X024564Y008293D01*
X024169Y008293D01*
X024169Y007898D01*
X024279Y007921D02*
X030900Y007921D01*
X030900Y007803D02*
X023300Y007803D01*
X023300Y007684D02*
X030900Y007684D01*
X030900Y007566D02*
X023300Y007566D01*
X023300Y007447D02*
X030900Y007447D01*
X030900Y007329D02*
X023300Y007329D01*
X023300Y007210D02*
X030900Y007210D01*
X030900Y007092D02*
X023300Y007092D01*
X023300Y006973D02*
X028748Y006973D01*
X028642Y006929D02*
X028441Y006729D01*
X028333Y006466D01*
X028333Y006182D01*
X028441Y005920D01*
X028642Y005720D01*
X028904Y005611D01*
X029188Y005611D01*
X029450Y005720D01*
X029651Y005920D01*
X029760Y006182D01*
X029760Y006466D01*
X029651Y006729D01*
X029450Y006929D01*
X029188Y007038D01*
X028904Y007038D01*
X028642Y006929D01*
X028567Y006855D02*
X023300Y006855D01*
X023300Y006736D02*
X028449Y006736D01*
X028395Y006618D02*
X023300Y006618D01*
X023300Y006499D02*
X028346Y006499D01*
X028333Y006381D02*
X023300Y006381D01*
X023300Y006262D02*
X028333Y006262D01*
X028349Y006144D02*
X023300Y006144D01*
X023300Y006025D02*
X028398Y006025D01*
X028455Y005907D02*
X023300Y005907D01*
X023300Y005788D02*
X028574Y005788D01*
X028763Y005670D02*
X023300Y005670D01*
X023300Y005551D02*
X030900Y005551D01*
X030900Y005670D02*
X029330Y005670D01*
X029519Y005788D02*
X030900Y005788D01*
X030900Y005907D02*
X029637Y005907D01*
X029695Y006025D02*
X030900Y006025D01*
X030900Y006144D02*
X029744Y006144D01*
X029760Y006262D02*
X030900Y006262D01*
X030900Y006381D02*
X029760Y006381D01*
X029746Y006499D02*
X030900Y006499D01*
X030900Y006618D02*
X029697Y006618D01*
X029644Y006736D02*
X030900Y006736D01*
X030900Y006855D02*
X029525Y006855D01*
X029345Y006973D02*
X030900Y006973D01*
X031300Y006973D02*
X034900Y006973D01*
X034900Y006855D02*
X031300Y006855D01*
X031300Y006736D02*
X034900Y006736D01*
X034900Y006618D02*
X031300Y006618D01*
X031300Y006499D02*
X034900Y006499D01*
X034900Y006381D02*
X031300Y006381D01*
X031300Y006262D02*
X034900Y006262D01*
X034861Y006144D02*
X031300Y006144D01*
X031300Y006025D02*
X034742Y006025D01*
X034624Y005907D02*
X031300Y005907D01*
X031300Y005788D02*
X034505Y005788D01*
X034387Y005670D02*
X031313Y005670D01*
X031432Y005551D02*
X034268Y005551D01*
X034150Y005433D02*
X031550Y005433D01*
X031669Y005314D02*
X034031Y005314D01*
X034360Y005077D02*
X034794Y005077D01*
X034676Y004959D02*
X034241Y004959D01*
X034478Y005196D02*
X034913Y005196D01*
X035031Y005314D02*
X034597Y005314D01*
X034715Y005433D02*
X035150Y005433D01*
X035268Y005551D02*
X034834Y005551D01*
X034952Y005670D02*
X035387Y005670D01*
X035400Y005788D02*
X035071Y005788D01*
X035189Y005907D02*
X035400Y005907D01*
X035400Y006025D02*
X035300Y006025D01*
X035300Y006144D02*
X035400Y006144D01*
X035400Y006262D02*
X035300Y006262D01*
X035300Y006381D02*
X035400Y006381D01*
X035400Y006499D02*
X035300Y006499D01*
X035300Y006618D02*
X035400Y006618D01*
X035400Y006736D02*
X035300Y006736D01*
X035300Y006855D02*
X035400Y006855D01*
X035400Y006973D02*
X035300Y006973D01*
X035300Y007092D02*
X035400Y007092D01*
X035400Y007210D02*
X035300Y007210D01*
X035300Y007329D02*
X035400Y007329D01*
X035400Y007447D02*
X035300Y007447D01*
X035300Y007566D02*
X035400Y007566D01*
X035400Y007684D02*
X035300Y007684D01*
X035300Y007803D02*
X035400Y007803D01*
X035400Y007921D02*
X035300Y007921D01*
X035300Y008040D02*
X035400Y008040D01*
X035400Y008158D02*
X035300Y008158D01*
X035300Y008277D02*
X035400Y008277D01*
X035400Y008395D02*
X035300Y008395D01*
X035300Y008514D02*
X035400Y008514D01*
X035400Y008632D02*
X035300Y008632D01*
X035300Y008751D02*
X035400Y008751D01*
X035400Y008869D02*
X035300Y008869D01*
X035300Y008988D02*
X035400Y008988D01*
X035400Y009106D02*
X035300Y009106D01*
X035300Y009225D02*
X035400Y009225D01*
X035400Y009343D02*
X035300Y009343D01*
X035300Y009462D02*
X035400Y009462D01*
X035400Y009580D02*
X035300Y009580D01*
X035300Y009699D02*
X035400Y009699D01*
X035400Y009817D02*
X035300Y009817D01*
X035300Y009936D02*
X035400Y009936D01*
X035400Y010054D02*
X035300Y010054D01*
X035300Y010173D02*
X035400Y010173D01*
X035400Y010291D02*
X035300Y010291D01*
X035300Y010410D02*
X035400Y010410D01*
X035400Y010528D02*
X035300Y010528D01*
X035300Y010647D02*
X035400Y010647D01*
X035400Y010765D02*
X035300Y010765D01*
X035300Y010884D02*
X035400Y010884D01*
X035400Y011002D02*
X035300Y011002D01*
X035300Y011121D02*
X035400Y011121D01*
X035400Y011239D02*
X035300Y011239D01*
X035300Y011358D02*
X035400Y011358D01*
X035400Y011476D02*
X035300Y011476D01*
X035300Y011595D02*
X035400Y011595D01*
X035400Y011713D02*
X035300Y011713D01*
X035300Y011832D02*
X035400Y011832D01*
X035400Y011950D02*
X035300Y011950D01*
X035300Y012069D02*
X035400Y012069D01*
X035400Y012187D02*
X035300Y012187D01*
X035300Y012306D02*
X035400Y012306D01*
X035400Y012424D02*
X035300Y012424D01*
X035300Y012543D02*
X035400Y012543D01*
X035400Y012661D02*
X035300Y012661D01*
X035300Y012780D02*
X035400Y012780D01*
X035400Y012898D02*
X035300Y012898D01*
X035300Y013017D02*
X035400Y013017D01*
X035400Y013135D02*
X035300Y013135D01*
X035300Y013254D02*
X035400Y013254D01*
X035400Y013372D02*
X035300Y013372D01*
X035300Y013491D02*
X035400Y013491D01*
X035400Y013609D02*
X035300Y013609D01*
X035300Y013728D02*
X035400Y013728D01*
X035400Y013846D02*
X035300Y013846D01*
X035300Y013965D02*
X035400Y013965D01*
X035400Y014083D02*
X035300Y014083D01*
X035281Y014202D02*
X035400Y014202D01*
X035400Y014320D02*
X035163Y014320D01*
X035044Y014439D02*
X035400Y014439D01*
X035360Y014557D02*
X034926Y014557D01*
X034807Y014676D02*
X035242Y014676D01*
X035123Y014794D02*
X034689Y014794D01*
X034570Y014913D02*
X035005Y014913D01*
X034886Y015031D02*
X034452Y015031D01*
X034333Y015150D02*
X034768Y015150D01*
X034649Y015268D02*
X034300Y015268D01*
X034300Y015387D02*
X034531Y015387D01*
X034412Y015505D02*
X034300Y015505D01*
X034300Y015624D02*
X034400Y015624D01*
X034400Y015742D02*
X034300Y015742D01*
X034300Y015861D02*
X034400Y015861D01*
X034400Y015979D02*
X034300Y015979D01*
X034300Y016098D02*
X034400Y016098D01*
X034400Y016216D02*
X034300Y016216D01*
X034300Y016335D02*
X034400Y016335D01*
X034400Y016453D02*
X034300Y016453D01*
X034300Y016572D02*
X034400Y016572D01*
X034400Y016690D02*
X034300Y016690D01*
X034300Y016809D02*
X034400Y016809D01*
X034400Y016927D02*
X034300Y016927D01*
X034300Y017046D02*
X034400Y017046D01*
X034400Y017164D02*
X034300Y017164D01*
X034300Y017283D02*
X034400Y017283D01*
X034400Y017401D02*
X034300Y017401D01*
X034300Y017520D02*
X034400Y017520D01*
X034400Y017638D02*
X034300Y017638D01*
X034226Y017757D02*
X034400Y017757D01*
X034400Y017875D02*
X034108Y017875D01*
X033989Y017994D02*
X034400Y017994D01*
X034400Y018112D02*
X033871Y018112D01*
X033752Y018231D02*
X034400Y018231D01*
X034400Y018349D02*
X033470Y018349D01*
X033589Y018468D02*
X034400Y018468D01*
X034400Y018586D02*
X033645Y018586D01*
X033694Y018705D02*
X034400Y018705D01*
X034400Y018823D02*
X033709Y018823D01*
X033709Y018942D02*
X034400Y018942D01*
X034357Y019060D02*
X033695Y019060D01*
X033646Y019179D02*
X034239Y019179D01*
X034120Y019297D02*
X033591Y019297D01*
X033473Y019416D02*
X034002Y019416D01*
X033883Y019534D02*
X033289Y019534D01*
X033528Y019890D02*
X026431Y019890D01*
X026550Y019771D02*
X031488Y019771D01*
X031612Y019588D02*
X031702Y019498D01*
X031612Y019588D02*
X026478Y019588D01*
X026281Y019785D01*
X023919Y019785D01*
X023734Y019600D01*
X021100Y019600D01*
X021198Y019416D02*
X024662Y019416D01*
X024735Y019488D02*
X024534Y019288D01*
X024426Y019025D01*
X024426Y018741D01*
X024534Y018479D01*
X024735Y018279D01*
X024997Y018170D01*
X025281Y018170D01*
X025544Y018279D01*
X025744Y018479D01*
X025853Y018741D01*
X025853Y019025D01*
X025744Y019288D01*
X025544Y019488D01*
X025281Y019597D01*
X024997Y019597D01*
X024735Y019488D01*
X024846Y019534D02*
X023922Y019534D01*
X024544Y019297D02*
X017567Y019297D01*
X017619Y019244D02*
X017418Y019445D01*
X017156Y019554D01*
X016872Y019554D01*
X016811Y019529D01*
X017680Y020397D01*
X017680Y021601D01*
X017930Y021851D01*
X017930Y022223D01*
X017667Y022487D01*
X017294Y022487D01*
X017030Y022223D01*
X017030Y021851D01*
X017280Y021601D01*
X017280Y020563D01*
X016017Y019300D01*
X011017Y019300D01*
X009517Y017800D01*
X007530Y017800D01*
X006900Y017170D01*
X006883Y017177D01*
X006731Y017177D01*
X006590Y017118D01*
X006483Y017011D01*
X006424Y016870D01*
X006424Y016718D01*
X006483Y016577D01*
X006590Y016469D01*
X006731Y016411D01*
X006883Y016411D01*
X007024Y016469D01*
X007132Y016577D01*
X007190Y016718D01*
X007190Y016870D01*
X007183Y016887D01*
X007696Y017400D01*
X009683Y017400D01*
X009800Y017517D01*
X011183Y018900D01*
X016183Y018900D01*
X016300Y019017D01*
X016326Y019043D01*
X016301Y018982D01*
X016301Y018698D01*
X016409Y018436D01*
X016610Y018235D01*
X016872Y018127D01*
X017156Y018127D01*
X017418Y018235D01*
X017619Y018436D01*
X017728Y018698D01*
X017728Y018982D01*
X017619Y019244D01*
X017647Y019179D02*
X024489Y019179D01*
X024440Y019060D02*
X017696Y019060D01*
X017728Y018942D02*
X024426Y018942D01*
X024426Y018823D02*
X017728Y018823D01*
X017728Y018705D02*
X024441Y018705D01*
X024490Y018586D02*
X017681Y018586D01*
X017632Y018468D02*
X024546Y018468D01*
X024665Y018349D02*
X017532Y018349D01*
X017407Y018231D02*
X024851Y018231D01*
X025428Y018231D02*
X031613Y018231D01*
X031613Y018349D02*
X025614Y018349D01*
X025733Y018468D02*
X031613Y018468D01*
X031613Y018586D02*
X025788Y018586D01*
X025838Y018705D02*
X026836Y018705D01*
X026770Y018823D02*
X025853Y018823D01*
X025853Y018942D02*
X026770Y018942D01*
X026770Y019060D02*
X025838Y019060D01*
X025789Y019179D02*
X026770Y019179D01*
X027113Y019297D02*
X025735Y019297D01*
X025616Y019416D02*
X026396Y019416D01*
X026278Y019534D02*
X025433Y019534D01*
X027265Y019194D02*
X031399Y019194D01*
X031793Y018801D01*
X031793Y018210D01*
X032383Y017620D01*
X032974Y017620D01*
X033368Y017226D01*
X033368Y016242D01*
X031006Y013880D01*
X031006Y011911D01*
X031304Y011950D02*
X034900Y011950D01*
X034900Y011832D02*
X031304Y011832D01*
X031304Y011713D02*
X034900Y011713D01*
X034900Y011595D02*
X003273Y011595D01*
X003273Y011713D02*
X030707Y011713D01*
X030707Y011832D02*
X003273Y011832D01*
X003273Y011950D02*
X030707Y011950D01*
X030707Y012069D02*
X003273Y012069D01*
X003273Y012187D02*
X030756Y012187D01*
X030826Y012306D02*
X003273Y012306D01*
X003273Y012424D02*
X030826Y012424D01*
X030826Y012543D02*
X003273Y012543D01*
X003273Y012661D02*
X030826Y012661D01*
X030826Y012780D02*
X003273Y012780D01*
X003273Y012898D02*
X030826Y012898D01*
X030826Y013017D02*
X025799Y013017D01*
X025683Y012900D02*
X029183Y016400D01*
X030795Y016400D01*
X030903Y016508D01*
X030920Y016501D01*
X031072Y016501D01*
X031213Y016559D01*
X031320Y016667D01*
X031378Y016807D01*
X031378Y016960D01*
X031320Y017100D01*
X031213Y017208D01*
X031072Y017266D01*
X030920Y017266D01*
X030779Y017208D01*
X030671Y017100D01*
X030613Y016960D01*
X030613Y016807D01*
X030616Y016800D01*
X029017Y016800D01*
X028900Y016683D01*
X025517Y013300D01*
X012183Y013300D01*
X011183Y014300D01*
X006017Y014300D01*
X005900Y014183D01*
X005517Y013800D01*
X004183Y013800D01*
X003800Y014183D01*
X003800Y015017D01*
X005300Y016517D01*
X005300Y019017D01*
X006703Y020420D01*
X010234Y020420D01*
X010262Y020392D01*
X014147Y020392D01*
X014155Y020400D01*
X014183Y020400D01*
X014680Y020897D01*
X014680Y021601D01*
X014930Y021851D01*
X014930Y022223D01*
X014667Y022487D01*
X014294Y022487D01*
X014030Y022223D01*
X014030Y021851D01*
X014280Y021601D01*
X014280Y021063D01*
X013970Y020752D01*
X010411Y020752D01*
X010383Y020780D01*
X006703Y020780D01*
X006683Y020800D01*
X006517Y020800D01*
X005017Y019300D01*
X004900Y019183D01*
X004900Y016683D01*
X003517Y015300D01*
X003400Y015183D01*
X003400Y014017D01*
X003900Y013517D01*
X004017Y013400D01*
X005683Y013400D01*
X006183Y013900D01*
X011017Y013900D01*
X011900Y013017D01*
X012017Y012900D01*
X025683Y012900D01*
X025918Y013135D02*
X030826Y013135D01*
X030826Y013254D02*
X026036Y013254D01*
X026155Y013372D02*
X030826Y013372D01*
X030826Y013491D02*
X026273Y013491D01*
X026392Y013609D02*
X030826Y013609D01*
X030826Y013728D02*
X026510Y013728D01*
X026629Y013846D02*
X030826Y013846D01*
X030836Y013965D02*
X026747Y013965D01*
X026866Y014083D02*
X030954Y014083D01*
X030931Y014060D02*
X030931Y014060D01*
X031073Y014202D02*
X029214Y014202D01*
X029138Y014170D02*
X029400Y014279D01*
X029601Y014479D01*
X029709Y014741D01*
X029709Y015025D01*
X029601Y015288D01*
X029400Y015488D01*
X029138Y015597D01*
X028854Y015597D01*
X028592Y015488D01*
X028391Y015288D01*
X028282Y015025D01*
X028282Y014741D01*
X028391Y014479D01*
X028592Y014279D01*
X028854Y014170D01*
X029138Y014170D01*
X029441Y014320D02*
X031191Y014320D01*
X031310Y014439D02*
X029560Y014439D01*
X029633Y014557D02*
X031428Y014557D01*
X031547Y014676D02*
X029682Y014676D01*
X029709Y014794D02*
X031665Y014794D01*
X031784Y014913D02*
X029709Y014913D01*
X029707Y015031D02*
X031902Y015031D01*
X032021Y015150D02*
X029658Y015150D01*
X029609Y015268D02*
X032139Y015268D01*
X032258Y015387D02*
X029502Y015387D01*
X029359Y015505D02*
X032376Y015505D01*
X032495Y015624D02*
X028406Y015624D01*
X028525Y015742D02*
X032613Y015742D01*
X032732Y015861D02*
X028643Y015861D01*
X028762Y015979D02*
X032850Y015979D01*
X032969Y016098D02*
X028880Y016098D01*
X028999Y016216D02*
X033087Y016216D01*
X033188Y016335D02*
X029117Y016335D01*
X028789Y016572D02*
X024425Y016572D01*
X024415Y016561D02*
X024462Y016608D01*
X024501Y016662D01*
X024531Y016721D01*
X024552Y016784D01*
X024562Y016850D01*
X024562Y016856D01*
X024167Y016856D01*
X024167Y016911D01*
X024562Y016911D01*
X024562Y016917D01*
X024552Y016982D01*
X024531Y017046D01*
X024501Y017105D01*
X024462Y017159D01*
X024415Y017206D01*
X024361Y017245D01*
X024302Y017275D01*
X024238Y017296D01*
X024173Y017306D01*
X024167Y017306D01*
X024167Y016911D01*
X024112Y016911D01*
X024112Y017306D01*
X024106Y017306D01*
X024040Y017296D01*
X023977Y017275D01*
X023918Y017245D01*
X023864Y017206D01*
X023817Y017159D01*
X023778Y017105D01*
X023748Y017046D01*
X023727Y016982D01*
X023717Y016917D01*
X023717Y016911D01*
X024112Y016911D01*
X024112Y016856D01*
X024167Y016856D01*
X024167Y016461D01*
X024173Y016461D01*
X024238Y016471D01*
X024302Y016492D01*
X024361Y016522D01*
X024415Y016561D01*
X024515Y016690D02*
X028907Y016690D01*
X028670Y016453D02*
X022992Y016453D01*
X022939Y016400D02*
X023046Y016508D01*
X023063Y016501D01*
X023216Y016501D01*
X023356Y016559D01*
X023464Y016667D01*
X023522Y016807D01*
X023522Y016960D01*
X023464Y017100D01*
X023356Y017208D01*
X023216Y017266D01*
X023063Y017266D01*
X022923Y017208D01*
X022815Y017100D01*
X022757Y016960D01*
X022757Y016807D01*
X022760Y016800D01*
X021017Y016800D01*
X020900Y016683D01*
X018017Y013800D01*
X012683Y013800D01*
X011683Y014800D01*
X006683Y014800D01*
X005800Y015683D01*
X005800Y018517D01*
X007183Y019900D01*
X015183Y019900D01*
X015300Y020017D01*
X015680Y020397D01*
X015680Y021601D01*
X015930Y021851D01*
X015930Y022223D01*
X015667Y022487D01*
X015294Y022487D01*
X015030Y022223D01*
X015030Y021851D01*
X015280Y021601D01*
X015280Y020563D01*
X015017Y020300D01*
X007017Y020300D01*
X005517Y018800D01*
X005400Y018683D01*
X005400Y015517D01*
X006400Y014517D01*
X006517Y014400D01*
X011517Y014400D01*
X012400Y013517D01*
X012517Y013400D01*
X018183Y013400D01*
X021183Y016400D01*
X022939Y016400D01*
X023369Y016572D02*
X023853Y016572D01*
X023864Y016561D02*
X023918Y016522D01*
X023977Y016492D01*
X024040Y016471D01*
X024106Y016461D01*
X024112Y016461D01*
X024112Y016856D01*
X023717Y016856D01*
X023717Y016850D01*
X023727Y016784D01*
X023748Y016721D01*
X023778Y016662D01*
X023817Y016608D01*
X023864Y016561D01*
X023763Y016690D02*
X023474Y016690D01*
X023522Y016809D02*
X023723Y016809D01*
X023718Y016927D02*
X023522Y016927D01*
X023487Y017046D02*
X023748Y017046D01*
X023822Y017164D02*
X023400Y017164D01*
X024000Y017283D02*
X007579Y017283D01*
X007645Y017186D02*
X007585Y017155D01*
X007532Y017116D01*
X007485Y017069D01*
X007445Y017015D01*
X007415Y016956D01*
X007395Y016893D01*
X007384Y016827D01*
X007384Y016821D01*
X007779Y016821D01*
X007779Y016766D01*
X007384Y016766D01*
X007384Y016761D01*
X007395Y016695D01*
X007415Y016632D01*
X007445Y016572D01*
X007485Y016518D01*
X007532Y016471D01*
X007585Y016432D01*
X007645Y016402D01*
X007708Y016381D01*
X007774Y016371D01*
X007779Y016371D01*
X007779Y016766D01*
X007835Y016766D01*
X007835Y016821D01*
X008230Y016821D01*
X008230Y016827D01*
X008219Y016893D01*
X008199Y016956D01*
X008169Y017015D01*
X008130Y017069D01*
X008083Y017116D01*
X008029Y017155D01*
X007969Y017186D01*
X007906Y017206D01*
X007840Y017217D01*
X007835Y017217D01*
X007835Y016821D01*
X007779Y016821D01*
X007779Y017217D01*
X007774Y017217D01*
X007708Y017206D01*
X007645Y017186D01*
X007602Y017164D02*
X007460Y017164D01*
X007467Y017046D02*
X007342Y017046D01*
X007406Y016927D02*
X007223Y016927D01*
X007190Y016809D02*
X007779Y016809D01*
X007835Y016809D02*
X014632Y016809D01*
X014632Y016800D02*
X013017Y016800D01*
X012900Y016683D01*
X011517Y015300D01*
X007183Y015300D01*
X006300Y016183D01*
X006300Y018017D01*
X007683Y019400D01*
X008406Y019400D01*
X008403Y019399D01*
X008202Y019198D01*
X008094Y018936D01*
X008094Y018652D01*
X008202Y018390D01*
X008403Y018189D01*
X008665Y018080D01*
X008949Y018080D01*
X009211Y018189D01*
X009412Y018390D01*
X009521Y018652D01*
X009521Y018936D01*
X009412Y019198D01*
X009211Y019399D01*
X009208Y019400D01*
X015683Y019400D01*
X015800Y019517D01*
X016680Y020397D01*
X016680Y021601D01*
X016930Y021851D01*
X016930Y022223D01*
X016667Y022487D01*
X016294Y022487D01*
X016030Y022223D01*
X016030Y021851D01*
X016280Y021601D01*
X016280Y020563D01*
X015517Y019800D01*
X007517Y019800D01*
X006017Y018300D01*
X005900Y018183D01*
X005900Y016017D01*
X006900Y015017D01*
X007017Y014900D01*
X011683Y014900D01*
X013183Y016400D01*
X014857Y016400D01*
X014921Y016464D01*
X014938Y016458D01*
X015090Y016458D01*
X015231Y016516D01*
X015339Y016623D01*
X015397Y016764D01*
X015397Y016916D01*
X015339Y017057D01*
X015231Y017165D01*
X015090Y017223D01*
X014938Y017223D01*
X014797Y017165D01*
X014690Y017057D01*
X014632Y016916D01*
X014632Y016800D01*
X014636Y016927D02*
X008208Y016927D01*
X008147Y017046D02*
X014685Y017046D01*
X014797Y017164D02*
X008012Y017164D01*
X007835Y017164D02*
X007779Y017164D01*
X007779Y017046D02*
X007835Y017046D01*
X007835Y016927D02*
X007779Y016927D01*
X007835Y016766D02*
X008230Y016766D01*
X008230Y016761D01*
X008219Y016695D01*
X008199Y016632D01*
X008169Y016572D01*
X008130Y016518D01*
X008083Y016471D01*
X008029Y016432D01*
X007969Y016402D01*
X007906Y016381D01*
X007840Y016371D01*
X007835Y016371D01*
X007835Y016766D01*
X007835Y016690D02*
X007779Y016690D01*
X007779Y016572D02*
X007835Y016572D01*
X007835Y016453D02*
X007779Y016453D01*
X007557Y016453D02*
X006985Y016453D01*
X007126Y016572D02*
X007446Y016572D01*
X007396Y016690D02*
X007178Y016690D01*
X006630Y016453D02*
X006300Y016453D01*
X006300Y016335D02*
X012552Y016335D01*
X012670Y016453D02*
X008057Y016453D01*
X008168Y016572D02*
X012789Y016572D01*
X012907Y016690D02*
X008218Y016690D01*
X007368Y017638D02*
X006300Y017638D01*
X006300Y017520D02*
X007250Y017520D01*
X007131Y017401D02*
X006300Y017401D01*
X006300Y017283D02*
X007013Y017283D01*
X006700Y017164D02*
X006300Y017164D01*
X006300Y017046D02*
X006517Y017046D01*
X006448Y016927D02*
X006300Y016927D01*
X006300Y016809D02*
X006424Y016809D01*
X006436Y016690D02*
X006300Y016690D01*
X006300Y016572D02*
X006488Y016572D01*
X006300Y016216D02*
X012433Y016216D01*
X012315Y016098D02*
X006385Y016098D01*
X006504Y015979D02*
X012196Y015979D01*
X012078Y015861D02*
X006622Y015861D01*
X006741Y015742D02*
X011959Y015742D01*
X011841Y015624D02*
X006859Y015624D01*
X006978Y015505D02*
X011722Y015505D01*
X011604Y015387D02*
X007096Y015387D01*
X006768Y015150D02*
X006333Y015150D01*
X006215Y015268D02*
X006649Y015268D01*
X006531Y015387D02*
X006096Y015387D01*
X005978Y015505D02*
X006412Y015505D01*
X006294Y015624D02*
X005859Y015624D01*
X005800Y015742D02*
X006175Y015742D01*
X006057Y015861D02*
X005800Y015861D01*
X005800Y015979D02*
X005938Y015979D01*
X005900Y016098D02*
X005800Y016098D01*
X005800Y016216D02*
X005900Y016216D01*
X005900Y016335D02*
X005800Y016335D01*
X005800Y016453D02*
X005900Y016453D01*
X005900Y016572D02*
X005800Y016572D01*
X005800Y016690D02*
X005900Y016690D01*
X005900Y016809D02*
X005800Y016809D01*
X005800Y016927D02*
X005900Y016927D01*
X005900Y017046D02*
X005800Y017046D01*
X005800Y017164D02*
X005900Y017164D01*
X005900Y017283D02*
X005800Y017283D01*
X005800Y017401D02*
X005900Y017401D01*
X005900Y017520D02*
X005800Y017520D01*
X005800Y017638D02*
X005900Y017638D01*
X005900Y017757D02*
X005800Y017757D01*
X005800Y017875D02*
X005900Y017875D01*
X005900Y017994D02*
X005800Y017994D01*
X005800Y018112D02*
X005900Y018112D01*
X005948Y018231D02*
X005800Y018231D01*
X005800Y018349D02*
X006066Y018349D01*
X006185Y018468D02*
X005800Y018468D01*
X005869Y018586D02*
X006303Y018586D01*
X006422Y018705D02*
X005987Y018705D01*
X006106Y018823D02*
X006540Y018823D01*
X006659Y018942D02*
X006224Y018942D01*
X006343Y019060D02*
X006777Y019060D01*
X006896Y019179D02*
X006461Y019179D01*
X006580Y019297D02*
X007014Y019297D01*
X007133Y019416D02*
X006698Y019416D01*
X006817Y019534D02*
X007251Y019534D01*
X007370Y019653D02*
X006935Y019653D01*
X007054Y019771D02*
X007488Y019771D01*
X007172Y019890D02*
X015607Y019890D01*
X015725Y020008D02*
X015291Y020008D01*
X015409Y020127D02*
X015844Y020127D01*
X015962Y020245D02*
X015528Y020245D01*
X015646Y020364D02*
X016081Y020364D01*
X016199Y020482D02*
X015680Y020482D01*
X015680Y020601D02*
X016280Y020601D01*
X016280Y020719D02*
X015680Y020719D01*
X015680Y020838D02*
X016280Y020838D01*
X016280Y020956D02*
X015680Y020956D01*
X015680Y021075D02*
X016280Y021075D01*
X016280Y021193D02*
X015680Y021193D01*
X015680Y021312D02*
X016280Y021312D01*
X016280Y021430D02*
X015680Y021430D01*
X015680Y021549D02*
X016280Y021549D01*
X016214Y021667D02*
X015747Y021667D01*
X015865Y021786D02*
X016095Y021786D01*
X016030Y021904D02*
X015930Y021904D01*
X015930Y022023D02*
X016030Y022023D01*
X016030Y022141D02*
X015930Y022141D01*
X015894Y022260D02*
X016066Y022260D01*
X016185Y022378D02*
X015776Y022378D01*
X015185Y022378D02*
X014776Y022378D01*
X014894Y022260D02*
X015066Y022260D01*
X015030Y022141D02*
X014930Y022141D01*
X014930Y022023D02*
X015030Y022023D01*
X015030Y021904D02*
X014930Y021904D01*
X014865Y021786D02*
X015095Y021786D01*
X015214Y021667D02*
X014747Y021667D01*
X014680Y021549D02*
X015280Y021549D01*
X015280Y021430D02*
X014680Y021430D01*
X014680Y021312D02*
X015280Y021312D01*
X015280Y021193D02*
X014680Y021193D01*
X014680Y021075D02*
X015280Y021075D01*
X015280Y020956D02*
X014680Y020956D01*
X014620Y020838D02*
X015280Y020838D01*
X015280Y020719D02*
X014502Y020719D01*
X014383Y020601D02*
X015280Y020601D01*
X015199Y020482D02*
X014265Y020482D01*
X014100Y020600D02*
X014072Y020572D01*
X010336Y020572D01*
X010309Y020600D01*
X006600Y020600D01*
X006436Y020719D02*
X003273Y020719D01*
X003273Y020601D02*
X006318Y020601D01*
X006199Y020482D02*
X003273Y020482D01*
X003273Y020364D02*
X006081Y020364D01*
X005962Y020245D02*
X003273Y020245D01*
X003273Y020127D02*
X005844Y020127D01*
X005725Y020008D02*
X003273Y020008D01*
X003273Y019890D02*
X005607Y019890D01*
X005488Y019771D02*
X003273Y019771D01*
X003273Y019653D02*
X005370Y019653D01*
X005251Y019534D02*
X003273Y019534D01*
X003273Y019416D02*
X005133Y019416D01*
X005014Y019297D02*
X003273Y019297D01*
X003273Y019179D02*
X004900Y019179D01*
X004900Y019060D02*
X003273Y019060D01*
X003273Y018942D02*
X004900Y018942D01*
X004900Y018823D02*
X003273Y018823D01*
X003273Y018705D02*
X004900Y018705D01*
X004900Y018586D02*
X003273Y018586D01*
X003273Y018468D02*
X004900Y018468D01*
X004900Y018349D02*
X003273Y018349D01*
X003273Y018231D02*
X004900Y018231D01*
X004900Y018112D02*
X003273Y018112D01*
X003273Y017994D02*
X004900Y017994D01*
X004900Y017875D02*
X003273Y017875D01*
X003273Y017757D02*
X004900Y017757D01*
X004900Y017638D02*
X003273Y017638D01*
X003273Y017520D02*
X004900Y017520D01*
X004900Y017401D02*
X003273Y017401D01*
X003273Y017283D02*
X004900Y017283D01*
X004900Y017164D02*
X003273Y017164D01*
X003273Y017046D02*
X004900Y017046D01*
X004900Y016927D02*
X003273Y016927D01*
X003273Y016809D02*
X004900Y016809D01*
X004900Y016690D02*
X003273Y016690D01*
X003273Y016572D02*
X004789Y016572D01*
X004670Y016453D02*
X003273Y016453D01*
X003273Y016335D02*
X004552Y016335D01*
X004433Y016216D02*
X003273Y016216D01*
X003273Y016098D02*
X004315Y016098D01*
X004196Y015979D02*
X003273Y015979D01*
X003273Y015861D02*
X004078Y015861D01*
X003959Y015742D02*
X003273Y015742D01*
X003273Y015624D02*
X003841Y015624D01*
X003722Y015505D02*
X003273Y015505D01*
X003273Y015387D02*
X003604Y015387D01*
X003485Y015268D02*
X003273Y015268D01*
X003273Y015150D02*
X003400Y015150D01*
X003400Y015031D02*
X003273Y015031D01*
X003273Y014913D02*
X003400Y014913D01*
X003400Y014794D02*
X003273Y014794D01*
X003273Y014676D02*
X003400Y014676D01*
X003400Y014557D02*
X003273Y014557D01*
X003273Y014439D02*
X003400Y014439D01*
X003400Y014320D02*
X003273Y014320D01*
X003273Y014202D02*
X003400Y014202D01*
X003400Y014083D02*
X003273Y014083D01*
X003273Y013965D02*
X003453Y013965D01*
X003571Y013846D02*
X003273Y013846D01*
X003273Y013728D02*
X003690Y013728D01*
X003808Y013609D02*
X003273Y013609D01*
X003273Y013491D02*
X003927Y013491D01*
X004137Y013846D02*
X005563Y013846D01*
X005682Y013965D02*
X004018Y013965D01*
X003900Y014083D02*
X004659Y014083D01*
X004665Y014080D02*
X004949Y014080D01*
X005211Y014189D01*
X005412Y014390D01*
X005521Y014652D01*
X005521Y014936D01*
X005412Y015198D01*
X005211Y015399D01*
X004949Y015507D01*
X004665Y015507D01*
X004403Y015399D01*
X004202Y015198D01*
X004094Y014936D01*
X004094Y014652D01*
X004202Y014390D01*
X004403Y014189D01*
X004665Y014080D01*
X004955Y014083D02*
X005800Y014083D01*
X005919Y014202D02*
X005224Y014202D01*
X005342Y014320D02*
X011597Y014320D01*
X011716Y014202D02*
X011281Y014202D01*
X011400Y014083D02*
X011834Y014083D01*
X011953Y013965D02*
X011518Y013965D01*
X011637Y013846D02*
X012071Y013846D01*
X012190Y013728D02*
X011755Y013728D01*
X011874Y013609D02*
X012308Y013609D01*
X012427Y013491D02*
X011992Y013491D01*
X012111Y013372D02*
X025589Y013372D01*
X025708Y013491D02*
X018273Y013491D01*
X018392Y013609D02*
X025826Y013609D01*
X025945Y013728D02*
X018510Y013728D01*
X018629Y013846D02*
X026063Y013846D01*
X026182Y013965D02*
X018747Y013965D01*
X018866Y014083D02*
X026300Y014083D01*
X026419Y014202D02*
X021358Y014202D01*
X021281Y014170D02*
X021544Y014279D01*
X021744Y014479D01*
X021853Y014741D01*
X021853Y015025D01*
X021744Y015288D01*
X021544Y015488D01*
X021281Y015597D01*
X020997Y015597D01*
X020735Y015488D01*
X020534Y015288D01*
X020426Y015025D01*
X020426Y014741D01*
X020534Y014479D01*
X020735Y014279D01*
X020997Y014170D01*
X021281Y014170D01*
X021585Y014320D02*
X026537Y014320D01*
X026656Y014439D02*
X021704Y014439D01*
X021776Y014557D02*
X026774Y014557D01*
X026893Y014676D02*
X021826Y014676D01*
X021853Y014794D02*
X027011Y014794D01*
X027130Y014913D02*
X021853Y014913D01*
X021851Y015031D02*
X027248Y015031D01*
X027367Y015150D02*
X021801Y015150D01*
X021752Y015268D02*
X027485Y015268D01*
X027604Y015387D02*
X021645Y015387D01*
X021503Y015505D02*
X027722Y015505D01*
X027841Y015624D02*
X020406Y015624D01*
X020525Y015742D02*
X027959Y015742D01*
X028078Y015861D02*
X020643Y015861D01*
X020762Y015979D02*
X028196Y015979D01*
X028315Y016098D02*
X020880Y016098D01*
X020999Y016216D02*
X028433Y016216D01*
X028552Y016335D02*
X021117Y016335D01*
X020789Y016572D02*
X016342Y016572D01*
X016337Y016565D02*
X016376Y016619D01*
X016406Y016678D01*
X016427Y016741D01*
X016437Y016807D01*
X016437Y016813D01*
X016042Y016813D01*
X016042Y016868D01*
X015987Y016868D01*
X015987Y017263D01*
X015981Y017263D01*
X015915Y017253D01*
X015852Y017232D01*
X015793Y017202D01*
X015739Y017163D01*
X015692Y017116D01*
X015653Y017062D01*
X015623Y017003D01*
X015602Y016939D01*
X015592Y016874D01*
X015592Y016868D01*
X015987Y016868D01*
X015987Y016813D01*
X016042Y016813D01*
X016042Y016418D01*
X016048Y016418D01*
X016113Y016428D01*
X016177Y016448D01*
X016236Y016479D01*
X016290Y016518D01*
X016337Y016565D01*
X016410Y016690D02*
X020907Y016690D01*
X020670Y016453D02*
X016186Y016453D01*
X016042Y016453D02*
X015987Y016453D01*
X015987Y016418D02*
X015987Y016813D01*
X015592Y016813D01*
X015592Y016807D01*
X015602Y016741D01*
X015623Y016678D01*
X015653Y016619D01*
X015692Y016565D01*
X015739Y016518D01*
X015793Y016479D01*
X015852Y016448D01*
X015915Y016428D01*
X015981Y016418D01*
X015987Y016418D01*
X015843Y016453D02*
X014910Y016453D01*
X015287Y016572D02*
X015687Y016572D01*
X015619Y016690D02*
X015366Y016690D01*
X015397Y016809D02*
X015592Y016809D01*
X015600Y016927D02*
X015393Y016927D01*
X015344Y017046D02*
X015644Y017046D01*
X015741Y017164D02*
X015232Y017164D01*
X015987Y017164D02*
X016042Y017164D01*
X016048Y017263D02*
X016042Y017263D01*
X016042Y016868D01*
X016437Y016868D01*
X016437Y016874D01*
X016427Y016939D01*
X016406Y017003D01*
X016376Y017062D01*
X016337Y017116D01*
X016290Y017163D01*
X016236Y017202D01*
X016177Y017232D01*
X016113Y017253D01*
X016048Y017263D01*
X016042Y017046D02*
X015987Y017046D01*
X015987Y016927D02*
X016042Y016927D01*
X016042Y016809D02*
X015987Y016809D01*
X015987Y016690D02*
X016042Y016690D01*
X016042Y016572D02*
X015987Y016572D01*
X016437Y016809D02*
X022757Y016809D01*
X022757Y016927D02*
X016429Y016927D01*
X016384Y017046D02*
X022792Y017046D01*
X022879Y017164D02*
X016288Y017164D01*
X016622Y018231D02*
X010513Y018231D01*
X010632Y018349D02*
X016497Y018349D01*
X016396Y018468D02*
X010750Y018468D01*
X010869Y018586D02*
X016347Y018586D01*
X016301Y018705D02*
X010987Y018705D01*
X011106Y018823D02*
X016301Y018823D01*
X016301Y018942D02*
X016224Y018942D01*
X016133Y019416D02*
X015698Y019416D01*
X015817Y019534D02*
X016251Y019534D01*
X016370Y019653D02*
X015935Y019653D01*
X016054Y019771D02*
X016488Y019771D01*
X016607Y019890D02*
X016172Y019890D01*
X016291Y020008D02*
X016725Y020008D01*
X016844Y020127D02*
X016409Y020127D01*
X016528Y020245D02*
X016962Y020245D01*
X017081Y020364D02*
X016646Y020364D01*
X016680Y020482D02*
X017199Y020482D01*
X017280Y020601D02*
X016680Y020601D01*
X016680Y020719D02*
X017280Y020719D01*
X017280Y020838D02*
X016680Y020838D01*
X016680Y020956D02*
X017280Y020956D01*
X017280Y021075D02*
X016680Y021075D01*
X016680Y021193D02*
X017280Y021193D01*
X017280Y021312D02*
X016680Y021312D01*
X016680Y021430D02*
X017280Y021430D01*
X017280Y021549D02*
X016680Y021549D01*
X016747Y021667D02*
X017214Y021667D01*
X017095Y021786D02*
X016865Y021786D01*
X016930Y021904D02*
X017030Y021904D01*
X017030Y022023D02*
X016930Y022023D01*
X016930Y022141D02*
X017030Y022141D01*
X017066Y022260D02*
X016894Y022260D01*
X016776Y022378D02*
X017185Y022378D01*
X017776Y022378D02*
X018185Y022378D01*
X018066Y022260D02*
X017894Y022260D01*
X017930Y022141D02*
X018030Y022141D01*
X018030Y022023D02*
X017930Y022023D01*
X017930Y021904D02*
X018030Y021904D01*
X018095Y021786D02*
X017865Y021786D01*
X017747Y021667D02*
X018214Y021667D01*
X017680Y021549D02*
X018869Y021549D01*
X018750Y021667D02*
X018747Y021667D01*
X018987Y021430D02*
X017680Y021430D01*
X017680Y021312D02*
X019106Y021312D01*
X019224Y021193D02*
X017680Y021193D01*
X017680Y021075D02*
X019343Y021075D01*
X019461Y020956D02*
X017680Y020956D01*
X017680Y020838D02*
X019580Y020838D01*
X019698Y020719D02*
X017680Y020719D01*
X017680Y020601D02*
X019817Y020601D01*
X019935Y020482D02*
X017680Y020482D01*
X017646Y020364D02*
X020054Y020364D01*
X020172Y020245D02*
X017528Y020245D01*
X017409Y020127D02*
X020291Y020127D01*
X020409Y020008D02*
X017291Y020008D01*
X017172Y019890D02*
X020528Y019890D01*
X020646Y019771D02*
X017054Y019771D01*
X016935Y019653D02*
X020765Y019653D01*
X020883Y019534D02*
X017204Y019534D01*
X017448Y019416D02*
X021002Y019416D01*
X021619Y020364D02*
X034054Y020364D01*
X034172Y020245D02*
X033738Y020245D01*
X033856Y020127D02*
X034291Y020127D01*
X034409Y020008D02*
X033975Y020008D01*
X034093Y019890D02*
X034528Y019890D01*
X034646Y019771D02*
X034212Y019771D01*
X034330Y019653D02*
X034765Y019653D01*
X034883Y019534D02*
X034449Y019534D01*
X034567Y019416D02*
X034900Y019416D01*
X034900Y019297D02*
X034686Y019297D01*
X034800Y019179D02*
X034900Y019179D01*
X034900Y019060D02*
X034800Y019060D01*
X034800Y018942D02*
X034900Y018942D01*
X034900Y018823D02*
X034800Y018823D01*
X034800Y018705D02*
X034900Y018705D01*
X034900Y018586D02*
X034800Y018586D01*
X034800Y018468D02*
X034900Y018468D01*
X034900Y018349D02*
X034800Y018349D01*
X034800Y018231D02*
X034900Y018231D01*
X034900Y018112D02*
X034800Y018112D01*
X034800Y017994D02*
X034900Y017994D01*
X034900Y017875D02*
X034800Y017875D01*
X034800Y017757D02*
X034900Y017757D01*
X034900Y017638D02*
X034800Y017638D01*
X034800Y017520D02*
X034900Y017520D01*
X034900Y017401D02*
X034800Y017401D01*
X034800Y017283D02*
X034900Y017283D01*
X034900Y017164D02*
X034800Y017164D01*
X034800Y017046D02*
X034900Y017046D01*
X034900Y016927D02*
X034800Y016927D01*
X034800Y016809D02*
X034900Y016809D01*
X034900Y016690D02*
X034800Y016690D01*
X034800Y016572D02*
X034900Y016572D01*
X034900Y016453D02*
X034800Y016453D01*
X034800Y016335D02*
X034900Y016335D01*
X034900Y016216D02*
X034800Y016216D01*
X034800Y016098D02*
X034900Y016098D01*
X034938Y015979D02*
X034800Y015979D01*
X034800Y015861D02*
X035057Y015861D01*
X035175Y015742D02*
X034800Y015742D01*
X034859Y015624D02*
X035294Y015624D01*
X035412Y015505D02*
X034978Y015505D01*
X035096Y015387D02*
X035531Y015387D01*
X035649Y015268D02*
X035215Y015268D01*
X035333Y015150D02*
X035768Y015150D01*
X035886Y015031D02*
X035452Y015031D01*
X035570Y014913D02*
X035900Y014913D01*
X035900Y014794D02*
X035689Y014794D01*
X035800Y014676D02*
X035900Y014676D01*
X035900Y014557D02*
X035800Y014557D01*
X035800Y014439D02*
X035900Y014439D01*
X035900Y014320D02*
X035800Y014320D01*
X035800Y014202D02*
X035900Y014202D01*
X035900Y014083D02*
X035800Y014083D01*
X035800Y013965D02*
X035900Y013965D01*
X035900Y013846D02*
X035800Y013846D01*
X035800Y013728D02*
X035900Y013728D01*
X035900Y013609D02*
X035800Y013609D01*
X035800Y013491D02*
X035900Y013491D01*
X035900Y013372D02*
X035800Y013372D01*
X035800Y013254D02*
X035900Y013254D01*
X035900Y013135D02*
X035800Y013135D01*
X035800Y013017D02*
X035900Y013017D01*
X035900Y012898D02*
X035800Y012898D01*
X035800Y012780D02*
X035900Y012780D01*
X035900Y012661D02*
X035800Y012661D01*
X035800Y012543D02*
X035900Y012543D01*
X035900Y012424D02*
X035800Y012424D01*
X035800Y012306D02*
X035900Y012306D01*
X035900Y012187D02*
X035800Y012187D01*
X035800Y012069D02*
X035900Y012069D01*
X035900Y011950D02*
X035800Y011950D01*
X035800Y011832D02*
X035900Y011832D01*
X035900Y011713D02*
X035800Y011713D01*
X035800Y011595D02*
X035900Y011595D01*
X035900Y011476D02*
X035800Y011476D01*
X035800Y011358D02*
X035900Y011358D01*
X035900Y011239D02*
X035800Y011239D01*
X035800Y011121D02*
X035900Y011121D01*
X035900Y011002D02*
X035800Y011002D01*
X035800Y010884D02*
X035900Y010884D01*
X035900Y010765D02*
X035800Y010765D01*
X035800Y010647D02*
X035900Y010647D01*
X035900Y010528D02*
X035800Y010528D01*
X035800Y010410D02*
X035900Y010410D01*
X035900Y010291D02*
X035800Y010291D01*
X035800Y010173D02*
X035900Y010173D01*
X035900Y010054D02*
X035800Y010054D01*
X035800Y009936D02*
X035900Y009936D01*
X035900Y009817D02*
X035800Y009817D01*
X035800Y009699D02*
X035900Y009699D01*
X035900Y009580D02*
X035800Y009580D01*
X035800Y009462D02*
X035900Y009462D01*
X035900Y009343D02*
X035800Y009343D01*
X035800Y009225D02*
X035900Y009225D01*
X035900Y009106D02*
X035800Y009106D01*
X035800Y008988D02*
X035900Y008988D01*
X035900Y008869D02*
X035800Y008869D01*
X035800Y008751D02*
X035900Y008751D01*
X035900Y008632D02*
X035800Y008632D01*
X035800Y008514D02*
X035900Y008514D01*
X035900Y008395D02*
X035800Y008395D01*
X035800Y008277D02*
X035900Y008277D01*
X035900Y008158D02*
X035800Y008158D01*
X035800Y008040D02*
X035900Y008040D01*
X035900Y007921D02*
X035800Y007921D01*
X035800Y007803D02*
X035900Y007803D01*
X035900Y007684D02*
X035800Y007684D01*
X035800Y007566D02*
X035900Y007566D01*
X035900Y007447D02*
X035800Y007447D01*
X035800Y007329D02*
X035900Y007329D01*
X035900Y007210D02*
X035800Y007210D01*
X035800Y007092D02*
X035900Y007092D01*
X035900Y006973D02*
X035800Y006973D01*
X035800Y006855D02*
X035900Y006855D01*
X035900Y006736D02*
X035800Y006736D01*
X035800Y006618D02*
X035900Y006618D01*
X035900Y006499D02*
X035800Y006499D01*
X035800Y006381D02*
X035900Y006381D01*
X035900Y006262D02*
X035800Y006262D01*
X035800Y006144D02*
X035900Y006144D01*
X035900Y006025D02*
X035800Y006025D01*
X035800Y005907D02*
X035900Y005907D01*
X035900Y005788D02*
X035800Y005788D01*
X035800Y005670D02*
X035900Y005670D01*
X035900Y005551D02*
X035800Y005551D01*
X035715Y005433D02*
X035900Y005433D01*
X035900Y005314D02*
X035597Y005314D01*
X035478Y005196D02*
X035900Y005196D01*
X035794Y005077D02*
X035360Y005077D01*
X035241Y004959D02*
X035676Y004959D01*
X035557Y004840D02*
X035123Y004840D01*
X035004Y004722D02*
X035439Y004722D01*
X035320Y004603D02*
X034886Y004603D01*
X034767Y004485D02*
X035202Y004485D01*
X035083Y004366D02*
X016117Y004366D01*
X015998Y004485D02*
X023433Y004485D01*
X023314Y004603D02*
X015880Y004603D01*
X015761Y004722D02*
X023196Y004722D01*
X023077Y004840D02*
X015643Y004840D01*
X015524Y004959D02*
X022959Y004959D01*
X022900Y005077D02*
X015406Y005077D01*
X015300Y005196D02*
X022900Y005196D01*
X022900Y005314D02*
X015300Y005314D01*
X015300Y005433D02*
X022900Y005433D01*
X022900Y005551D02*
X015300Y005551D01*
X015300Y005670D02*
X020849Y005670D01*
X020737Y005716D02*
X020999Y005607D01*
X021283Y005607D01*
X021545Y005716D01*
X021746Y005917D01*
X021855Y006179D01*
X021855Y006463D01*
X021746Y006725D01*
X021545Y006926D01*
X021283Y007034D01*
X020999Y007034D01*
X020737Y006926D01*
X020536Y006725D01*
X020428Y006463D01*
X020428Y006179D01*
X020536Y005917D01*
X020737Y005716D01*
X020665Y005788D02*
X015300Y005788D01*
X015300Y005907D02*
X020546Y005907D01*
X020491Y006025D02*
X015300Y006025D01*
X015300Y006144D02*
X020442Y006144D01*
X020428Y006262D02*
X015300Y006262D01*
X015300Y006381D02*
X020428Y006381D01*
X020443Y006499D02*
X015300Y006499D01*
X015300Y006618D02*
X020492Y006618D01*
X020547Y006736D02*
X015300Y006736D01*
X015300Y006855D02*
X020666Y006855D01*
X020851Y006973D02*
X015300Y006973D01*
X015300Y007092D02*
X022900Y007092D01*
X022900Y007210D02*
X015300Y007210D01*
X015300Y007329D02*
X022900Y007329D01*
X022900Y007447D02*
X015300Y007447D01*
X015300Y007566D02*
X022900Y007566D01*
X022900Y007684D02*
X015300Y007684D01*
X015300Y007803D02*
X022900Y007803D01*
X022900Y006973D02*
X021431Y006973D01*
X021616Y006855D02*
X022900Y006855D01*
X022900Y006736D02*
X021735Y006736D01*
X021791Y006618D02*
X022900Y006618D01*
X022900Y006499D02*
X021840Y006499D01*
X021855Y006381D02*
X022900Y006381D01*
X022900Y006262D02*
X021855Y006262D01*
X021840Y006144D02*
X022900Y006144D01*
X022900Y006025D02*
X021791Y006025D01*
X021736Y005907D02*
X022900Y005907D01*
X022900Y005788D02*
X021617Y005788D01*
X021433Y005670D02*
X022900Y005670D01*
X023300Y005433D02*
X030985Y005433D01*
X031103Y005314D02*
X023300Y005314D01*
X023300Y005196D02*
X031222Y005196D01*
X031340Y005077D02*
X023406Y005077D01*
X023524Y004959D02*
X031459Y004959D01*
X031300Y007092D02*
X034900Y007092D01*
X034900Y007210D02*
X031300Y007210D01*
X031300Y007329D02*
X034900Y007329D01*
X034900Y007447D02*
X031300Y007447D01*
X031300Y007566D02*
X034900Y007566D01*
X034900Y007684D02*
X031300Y007684D01*
X031300Y007803D02*
X034900Y007803D01*
X034900Y007921D02*
X032173Y007921D01*
X032145Y007912D02*
X032209Y007933D01*
X032268Y007963D01*
X032322Y008002D01*
X032369Y008049D01*
X032408Y008103D01*
X032438Y008162D01*
X032459Y008225D01*
X032469Y008291D01*
X032469Y008297D01*
X032074Y008297D01*
X032074Y008352D01*
X032469Y008352D01*
X032469Y008358D01*
X032459Y008423D01*
X032438Y008487D01*
X032408Y008546D01*
X032369Y008600D01*
X032322Y008647D01*
X032268Y008686D01*
X032209Y008716D01*
X032145Y008737D01*
X032080Y008747D01*
X032074Y008747D01*
X032074Y008352D01*
X032019Y008352D01*
X032019Y008747D01*
X032013Y008747D01*
X031947Y008737D01*
X031884Y008716D01*
X031825Y008686D01*
X031771Y008647D01*
X031724Y008600D01*
X031685Y008546D01*
X031654Y008487D01*
X031634Y008423D01*
X031624Y008358D01*
X031624Y008352D01*
X032019Y008352D01*
X032019Y008297D01*
X032074Y008297D01*
X032074Y007902D01*
X032080Y007902D01*
X032145Y007912D01*
X032074Y007921D02*
X032019Y007921D01*
X032019Y007902D02*
X032019Y008297D01*
X031624Y008297D01*
X031624Y008291D01*
X031634Y008225D01*
X031654Y008162D01*
X031685Y008103D01*
X031724Y008049D01*
X031771Y008002D01*
X031825Y007963D01*
X031884Y007933D01*
X031947Y007912D01*
X032013Y007902D01*
X032019Y007902D01*
X031920Y007921D02*
X031300Y007921D01*
X031303Y008040D02*
X031733Y008040D01*
X031657Y008158D02*
X031392Y008158D01*
X031429Y008277D02*
X031626Y008277D01*
X031629Y008395D02*
X031429Y008395D01*
X031382Y008514D02*
X031668Y008514D01*
X031756Y008632D02*
X031280Y008632D01*
X030813Y008632D02*
X024428Y008632D01*
X024517Y008514D02*
X030710Y008514D01*
X030664Y008395D02*
X024557Y008395D01*
X024562Y008277D02*
X030664Y008277D01*
X030701Y008158D02*
X024533Y008158D01*
X024458Y008040D02*
X030790Y008040D01*
X032019Y008040D02*
X032074Y008040D01*
X032074Y008158D02*
X032019Y008158D01*
X032019Y008277D02*
X032074Y008277D01*
X032074Y008395D02*
X032019Y008395D01*
X032019Y008514D02*
X032074Y008514D01*
X032074Y008632D02*
X032019Y008632D01*
X032337Y008632D02*
X034900Y008632D01*
X034900Y008514D02*
X032424Y008514D01*
X032463Y008395D02*
X034900Y008395D01*
X034900Y008277D02*
X032467Y008277D01*
X032436Y008158D02*
X034900Y008158D01*
X034900Y008040D02*
X032359Y008040D01*
X032904Y009611D02*
X032642Y009720D01*
X032441Y009920D01*
X032333Y010182D01*
X032333Y010466D01*
X032441Y010729D01*
X032642Y010929D01*
X032904Y011038D01*
X033188Y011038D01*
X033450Y010929D01*
X033651Y010729D01*
X033760Y010466D01*
X033760Y010182D01*
X033651Y009920D01*
X033450Y009720D01*
X033188Y009611D01*
X032904Y009611D01*
X032693Y009699D02*
X025503Y009699D01*
X025545Y009716D02*
X025746Y009917D01*
X025855Y010179D01*
X025855Y010463D01*
X025746Y010725D01*
X025545Y010926D01*
X025283Y011034D01*
X024999Y011034D01*
X024737Y010926D01*
X024536Y010725D01*
X024428Y010463D01*
X024428Y010179D01*
X024536Y009917D01*
X024737Y009716D01*
X024999Y009607D01*
X025283Y009607D01*
X025545Y009716D01*
X025646Y009817D02*
X032545Y009817D01*
X032435Y009936D02*
X025754Y009936D01*
X025803Y010054D02*
X032386Y010054D01*
X032337Y010173D02*
X025852Y010173D01*
X025855Y010291D02*
X032333Y010291D01*
X032333Y010410D02*
X025855Y010410D01*
X025828Y010528D02*
X032358Y010528D01*
X032407Y010647D02*
X025779Y010647D01*
X025706Y010765D02*
X032478Y010765D01*
X032596Y010884D02*
X025587Y010884D01*
X025361Y011002D02*
X032818Y011002D01*
X033275Y011002D02*
X034900Y011002D01*
X034900Y010884D02*
X033496Y010884D01*
X033615Y010765D02*
X034900Y010765D01*
X034900Y010647D02*
X033685Y010647D01*
X033734Y010528D02*
X034900Y010528D01*
X034900Y010410D02*
X033760Y010410D01*
X033760Y010291D02*
X034900Y010291D01*
X034900Y010173D02*
X033756Y010173D01*
X033707Y010054D02*
X034900Y010054D01*
X034900Y009936D02*
X033658Y009936D01*
X033548Y009817D02*
X034900Y009817D01*
X034900Y009699D02*
X033400Y009699D01*
X034900Y009580D02*
X003273Y009580D01*
X003273Y009462D02*
X034900Y009462D01*
X034900Y009343D02*
X003273Y009343D01*
X003273Y009225D02*
X034900Y009225D01*
X034900Y009106D02*
X003273Y009106D01*
X003273Y008988D02*
X034900Y008988D01*
X034900Y008869D02*
X003273Y008869D01*
X003273Y008751D02*
X016082Y008751D01*
X016164Y008751D02*
X016219Y008751D01*
X016302Y008751D02*
X034900Y008751D01*
X036800Y008751D02*
X038660Y008751D01*
X038660Y008869D02*
X036800Y008869D01*
X036800Y008988D02*
X038660Y008988D01*
X038660Y009106D02*
X036800Y009106D01*
X036800Y009225D02*
X038660Y009225D01*
X038660Y009343D02*
X036800Y009343D01*
X036800Y009462D02*
X038660Y009462D01*
X038660Y009580D02*
X036800Y009580D01*
X036800Y009699D02*
X038660Y009699D01*
X038660Y009817D02*
X036800Y009817D01*
X036800Y009936D02*
X038660Y009936D01*
X038660Y010054D02*
X036800Y010054D01*
X036800Y010173D02*
X038660Y010173D01*
X038660Y010291D02*
X036800Y010291D01*
X036800Y010410D02*
X038660Y010410D01*
X038660Y010528D02*
X036800Y010528D01*
X036800Y010647D02*
X038660Y010647D01*
X038660Y010765D02*
X036800Y010765D01*
X036800Y010884D02*
X037272Y010884D01*
X037277Y010883D02*
X037551Y010883D01*
X037551Y011283D01*
X036881Y011283D01*
X036881Y011279D01*
X036892Y011212D01*
X036913Y011148D01*
X036944Y011087D01*
X036983Y011032D01*
X037031Y010985D01*
X037086Y010945D01*
X037146Y010914D01*
X037211Y010893D01*
X037277Y010883D01*
X037551Y010884D02*
X037611Y010884D01*
X037611Y010883D02*
X037885Y010883D01*
X037952Y010893D01*
X038016Y010914D01*
X038077Y010945D01*
X038131Y010985D01*
X038179Y011032D01*
X038219Y011087D01*
X038250Y011148D01*
X038271Y011212D01*
X038281Y011279D01*
X038281Y011283D01*
X037611Y011283D01*
X037611Y011343D01*
X037551Y011343D01*
X037551Y011743D01*
X037277Y011743D01*
X037211Y011732D01*
X037146Y011711D01*
X037086Y011680D01*
X037031Y011641D01*
X036983Y011593D01*
X036944Y011538D01*
X036913Y011478D01*
X036892Y011413D01*
X036881Y011346D01*
X036881Y011343D01*
X037551Y011343D01*
X037551Y011283D01*
X037611Y011283D01*
X037611Y010883D01*
X037611Y011002D02*
X037551Y011002D01*
X037551Y011121D02*
X037611Y011121D01*
X037611Y011239D02*
X037551Y011239D01*
X037551Y011358D02*
X037611Y011358D01*
X037611Y011343D02*
X037611Y011743D01*
X037885Y011743D01*
X037952Y011732D01*
X038016Y011711D01*
X038077Y011680D01*
X038131Y011641D01*
X038179Y011593D01*
X038219Y011538D01*
X038250Y011478D01*
X038271Y011413D01*
X038281Y011346D01*
X038281Y011343D01*
X037611Y011343D01*
X037611Y011476D02*
X037551Y011476D01*
X037551Y011595D02*
X037611Y011595D01*
X037611Y011713D02*
X037551Y011713D01*
X037234Y011923D02*
X037090Y011982D01*
X036981Y012092D01*
X036921Y012235D01*
X036921Y012390D01*
X036981Y012534D01*
X037090Y012643D01*
X037234Y012703D01*
X037929Y012703D01*
X038072Y012643D01*
X038182Y012534D01*
X038241Y012390D01*
X038241Y012235D01*
X038182Y012092D01*
X038072Y011982D01*
X037929Y011923D01*
X037234Y011923D01*
X037168Y011950D02*
X036800Y011950D01*
X036800Y011832D02*
X038660Y011832D01*
X038660Y011950D02*
X037995Y011950D01*
X038159Y012069D02*
X038660Y012069D01*
X038660Y012187D02*
X038221Y012187D01*
X038241Y012306D02*
X038660Y012306D01*
X038660Y012424D02*
X038227Y012424D01*
X038173Y012543D02*
X038660Y012543D01*
X038660Y012661D02*
X038029Y012661D01*
X037929Y012923D02*
X038072Y012982D01*
X038182Y013092D01*
X038241Y013235D01*
X038241Y013390D01*
X038182Y013534D01*
X038072Y013643D01*
X037929Y013703D01*
X037234Y013703D01*
X037090Y013643D01*
X036981Y013534D01*
X036921Y013390D01*
X036921Y013235D01*
X036981Y013092D01*
X037090Y012982D01*
X037234Y012923D01*
X037929Y012923D01*
X038107Y013017D02*
X038660Y013017D01*
X038660Y013135D02*
X038200Y013135D01*
X038241Y013254D02*
X038660Y013254D01*
X038660Y013372D02*
X038241Y013372D01*
X038200Y013491D02*
X038660Y013491D01*
X038660Y013609D02*
X038106Y013609D01*
X038660Y013728D02*
X036800Y013728D01*
X036800Y013846D02*
X038660Y013846D01*
X038660Y013965D02*
X036800Y013965D01*
X036800Y014083D02*
X038660Y014083D01*
X038660Y014202D02*
X036800Y014202D01*
X036800Y014320D02*
X038660Y014320D01*
X038660Y014439D02*
X036800Y014439D01*
X036800Y014557D02*
X038660Y014557D01*
X038660Y014676D02*
X036800Y014676D01*
X036800Y014794D02*
X038660Y014794D01*
X038660Y014913D02*
X036800Y014913D01*
X036800Y015031D02*
X038660Y015031D01*
X038660Y015150D02*
X036800Y015150D01*
X036800Y015268D02*
X038660Y015268D01*
X038660Y015387D02*
X036800Y015387D01*
X036800Y015505D02*
X038660Y015505D01*
X038660Y015624D02*
X036800Y015624D01*
X036800Y015742D02*
X037588Y015742D01*
X037598Y015738D02*
X037799Y015738D01*
X037984Y015815D01*
X038126Y015956D01*
X038202Y016142D01*
X038202Y016342D01*
X038126Y016527D01*
X037984Y016669D01*
X037799Y016746D01*
X037598Y016746D01*
X037413Y016669D01*
X037271Y016527D01*
X037195Y016342D01*
X037195Y016142D01*
X037271Y015956D01*
X037413Y015815D01*
X037598Y015738D01*
X037809Y015742D02*
X038660Y015742D01*
X038660Y015861D02*
X038030Y015861D01*
X038135Y015979D02*
X038660Y015979D01*
X038660Y016098D02*
X038184Y016098D01*
X038202Y016216D02*
X038660Y016216D01*
X038660Y016335D02*
X038202Y016335D01*
X038156Y016453D02*
X038660Y016453D01*
X038660Y016572D02*
X038081Y016572D01*
X037933Y016690D02*
X038660Y016690D01*
X038660Y016809D02*
X036674Y016809D01*
X036556Y016927D02*
X038660Y016927D01*
X038660Y017046D02*
X036437Y017046D01*
X036319Y017164D02*
X038660Y017164D01*
X038660Y017283D02*
X036200Y017283D01*
X036082Y017401D02*
X038660Y017401D01*
X038660Y017520D02*
X035963Y017520D01*
X035845Y017638D02*
X038660Y017638D01*
X038660Y017757D02*
X035800Y017757D01*
X035800Y017875D02*
X038660Y017875D01*
X038660Y017994D02*
X035800Y017994D01*
X035800Y018112D02*
X038660Y018112D01*
X038660Y018231D02*
X035800Y018231D01*
X035800Y018349D02*
X038660Y018349D01*
X038660Y018468D02*
X035800Y018468D01*
X035800Y018586D02*
X038660Y018586D01*
X038660Y018705D02*
X035800Y018705D01*
X035800Y018823D02*
X038660Y018823D01*
X038660Y018942D02*
X035800Y018942D01*
X035800Y019060D02*
X038660Y019060D01*
X038660Y019179D02*
X035800Y019179D01*
X035800Y019297D02*
X038660Y019297D01*
X038660Y019416D02*
X035800Y019416D01*
X035800Y019534D02*
X038660Y019534D01*
X038660Y019653D02*
X035800Y019653D01*
X035712Y019771D02*
X038660Y019771D01*
X038660Y019890D02*
X035593Y019890D01*
X035475Y020008D02*
X038660Y020008D01*
X038660Y020127D02*
X035356Y020127D01*
X035238Y020245D02*
X038660Y020245D01*
X038660Y020364D02*
X035119Y020364D01*
X035001Y020482D02*
X038660Y020482D01*
X038660Y020601D02*
X034882Y020601D01*
X034764Y020719D02*
X038660Y020719D01*
X038660Y020838D02*
X034645Y020838D01*
X034527Y020956D02*
X038660Y020956D01*
X038660Y021075D02*
X034408Y021075D01*
X034290Y021193D02*
X038660Y021193D01*
X038660Y021312D02*
X022671Y021312D01*
X022553Y021430D02*
X038660Y021430D01*
X038660Y021549D02*
X022434Y021549D01*
X022347Y021667D02*
X022814Y021667D01*
X022894Y021587D02*
X023267Y021587D01*
X023530Y021851D01*
X023530Y022223D01*
X023267Y022487D01*
X022894Y022487D01*
X022630Y022223D01*
X022630Y021851D01*
X022894Y021587D01*
X022695Y021786D02*
X022465Y021786D01*
X022530Y021904D02*
X022630Y021904D01*
X022630Y022023D02*
X022530Y022023D01*
X022530Y022141D02*
X022630Y022141D01*
X022666Y022260D02*
X022494Y022260D01*
X022376Y022378D02*
X022785Y022378D01*
X023376Y022378D02*
X023785Y022378D01*
X023894Y022487D02*
X023630Y022223D01*
X023630Y021851D01*
X023894Y021587D01*
X024267Y021587D01*
X024530Y021851D01*
X024530Y022223D01*
X024267Y022487D01*
X023894Y022487D01*
X023666Y022260D02*
X023494Y022260D01*
X023530Y022141D02*
X023630Y022141D01*
X023630Y022023D02*
X023530Y022023D01*
X023530Y021904D02*
X023630Y021904D01*
X023695Y021786D02*
X023465Y021786D01*
X023347Y021667D02*
X023814Y021667D01*
X024347Y021667D02*
X024814Y021667D01*
X024894Y021587D02*
X025267Y021587D01*
X025530Y021851D01*
X025530Y022223D01*
X025267Y022487D01*
X024894Y022487D01*
X024630Y022223D01*
X024630Y021851D01*
X024894Y021587D01*
X024695Y021786D02*
X024465Y021786D01*
X024530Y021904D02*
X024630Y021904D01*
X024630Y022023D02*
X024530Y022023D01*
X024530Y022141D02*
X024630Y022141D01*
X024666Y022260D02*
X024494Y022260D01*
X024376Y022378D02*
X024785Y022378D01*
X025376Y022378D02*
X025785Y022378D01*
X025894Y022487D02*
X025630Y022223D01*
X025630Y021851D01*
X025894Y021587D01*
X026267Y021587D01*
X026530Y021851D01*
X026530Y022223D01*
X026267Y022487D01*
X025894Y022487D01*
X025666Y022260D02*
X025494Y022260D01*
X025530Y022141D02*
X025630Y022141D01*
X025630Y022023D02*
X025530Y022023D01*
X025530Y021904D02*
X025630Y021904D01*
X025695Y021786D02*
X025465Y021786D01*
X025347Y021667D02*
X025814Y021667D01*
X026347Y021667D02*
X026814Y021667D01*
X026894Y021587D02*
X027267Y021587D01*
X027530Y021851D01*
X027530Y022223D01*
X027267Y022487D01*
X026894Y022487D01*
X026630Y022223D01*
X026630Y021851D01*
X026894Y021587D01*
X026695Y021786D02*
X026465Y021786D01*
X026530Y021904D02*
X026630Y021904D01*
X026630Y022023D02*
X026530Y022023D01*
X026530Y022141D02*
X026630Y022141D01*
X026666Y022260D02*
X026494Y022260D01*
X026376Y022378D02*
X026785Y022378D01*
X027376Y022378D02*
X027785Y022378D01*
X027894Y022487D02*
X027630Y022223D01*
X027630Y021851D01*
X027894Y021587D01*
X028267Y021587D01*
X028530Y021851D01*
X028530Y022223D01*
X028267Y022487D01*
X027894Y022487D01*
X027666Y022260D02*
X027494Y022260D01*
X027530Y022141D02*
X027630Y022141D01*
X027630Y022023D02*
X027530Y022023D01*
X027530Y021904D02*
X027630Y021904D01*
X027695Y021786D02*
X027465Y021786D01*
X027347Y021667D02*
X027814Y021667D01*
X028347Y021667D02*
X038660Y021667D01*
X038660Y021786D02*
X036081Y021786D01*
X036055Y021759D02*
X036196Y021901D01*
X036273Y022086D01*
X036273Y022287D01*
X036196Y022472D01*
X036055Y022614D01*
X035870Y022690D01*
X035669Y022690D01*
X035484Y022614D01*
X035342Y022472D01*
X035265Y022287D01*
X035265Y022086D01*
X035342Y021901D01*
X035484Y021759D01*
X035669Y021683D01*
X035870Y021683D01*
X036055Y021759D01*
X036198Y021904D02*
X038660Y021904D01*
X038660Y022023D02*
X038011Y022023D01*
X038127Y022141D02*
X038660Y022141D01*
X038660Y022260D02*
X038176Y022260D01*
X038202Y022378D02*
X038660Y022378D01*
X038660Y022497D02*
X038202Y022497D01*
X038164Y022615D02*
X038660Y022615D01*
X038660Y022734D02*
X038100Y022734D01*
X037979Y022852D02*
X038660Y022852D01*
X037418Y022852D02*
X003273Y022852D01*
X003273Y022734D02*
X037297Y022734D01*
X037233Y022615D02*
X036052Y022615D01*
X036172Y022497D02*
X037195Y022497D01*
X037195Y022378D02*
X036235Y022378D01*
X036273Y022260D02*
X037221Y022260D01*
X037270Y022141D02*
X036273Y022141D01*
X036247Y022023D02*
X037386Y022023D01*
X035458Y021786D02*
X028465Y021786D01*
X028530Y021904D02*
X035341Y021904D01*
X035292Y022023D02*
X028530Y022023D01*
X028530Y022141D02*
X035265Y022141D01*
X035265Y022260D02*
X028494Y022260D01*
X028376Y022378D02*
X035303Y022378D01*
X035367Y022497D02*
X013714Y022497D01*
X013683Y022527D02*
X013519Y022527D01*
X013519Y022075D01*
X013970Y022075D01*
X013970Y022240D01*
X013683Y022527D01*
X013519Y022497D02*
X013442Y022497D01*
X013442Y022527D02*
X013442Y022075D01*
X013442Y021999D01*
X012990Y021999D01*
X012990Y021834D01*
X013277Y021547D01*
X013442Y021547D01*
X013442Y021999D01*
X013519Y021999D01*
X013519Y022075D01*
X013442Y022075D01*
X012990Y022075D01*
X012990Y022240D01*
X013277Y022527D01*
X013442Y022527D01*
X013442Y022378D02*
X013519Y022378D01*
X013519Y022260D02*
X013442Y022260D01*
X013442Y022141D02*
X013519Y022141D01*
X013519Y022023D02*
X014030Y022023D01*
X013970Y021999D02*
X013519Y021999D01*
X013519Y021547D01*
X013683Y021547D01*
X013970Y021834D01*
X013970Y021999D01*
X013970Y021904D02*
X014030Y021904D01*
X014095Y021786D02*
X013922Y021786D01*
X013803Y021667D02*
X014214Y021667D01*
X014280Y021549D02*
X013685Y021549D01*
X013519Y021549D02*
X013442Y021549D01*
X013442Y021667D02*
X013519Y021667D01*
X013519Y021786D02*
X013442Y021786D01*
X013442Y021904D02*
X013519Y021904D01*
X013442Y022023D02*
X012930Y022023D01*
X012930Y022141D02*
X012990Y022141D01*
X012930Y022223D02*
X012667Y022487D01*
X012294Y022487D01*
X012030Y022223D01*
X012030Y021851D01*
X012294Y021587D01*
X012667Y021587D01*
X012930Y021851D01*
X012930Y022223D01*
X012894Y022260D02*
X013010Y022260D01*
X013128Y022378D02*
X012776Y022378D01*
X013247Y022497D02*
X003273Y022497D01*
X003273Y022615D02*
X035487Y022615D01*
X033646Y019771D02*
X031712Y019771D01*
X031785Y019698D02*
X031785Y019698D01*
X031830Y019653D02*
X033765Y019653D01*
X032702Y019534D02*
X031949Y019534D01*
X032067Y019416D02*
X032519Y019416D01*
X032400Y019297D02*
X032186Y019297D01*
X032300Y019179D02*
X032346Y019179D01*
X031857Y019060D02*
X031788Y019060D01*
X031739Y019179D02*
X031670Y019179D01*
X031620Y019297D02*
X031551Y019297D01*
X031398Y018942D02*
X027367Y018942D01*
X027367Y018823D02*
X031516Y018823D01*
X031613Y018705D02*
X027301Y018705D01*
X024531Y017046D02*
X030648Y017046D01*
X030613Y016927D02*
X024561Y016927D01*
X024556Y016809D02*
X030613Y016809D01*
X030735Y017164D02*
X024457Y017164D01*
X024279Y017283D02*
X031856Y017283D01*
X031833Y017275D02*
X031774Y017245D01*
X031720Y017206D01*
X031673Y017159D01*
X031634Y017105D01*
X031604Y017046D01*
X031583Y016982D01*
X031573Y016917D01*
X031573Y016911D01*
X031968Y016911D01*
X031968Y016856D01*
X031573Y016856D01*
X031573Y016850D01*
X031583Y016784D01*
X031604Y016721D01*
X031634Y016662D01*
X031673Y016608D01*
X031720Y016561D01*
X031774Y016522D01*
X031833Y016492D01*
X031897Y016471D01*
X031962Y016461D01*
X031968Y016461D01*
X031968Y016856D01*
X032023Y016856D01*
X032023Y016461D01*
X032029Y016461D01*
X032095Y016471D01*
X032158Y016492D01*
X032217Y016522D01*
X032271Y016561D01*
X032318Y016608D01*
X032357Y016662D01*
X032387Y016721D01*
X032408Y016784D01*
X032418Y016850D01*
X032418Y016856D01*
X032023Y016856D01*
X032023Y016911D01*
X031968Y016911D01*
X031968Y017306D01*
X031962Y017306D01*
X031897Y017296D01*
X031833Y017275D01*
X031968Y017283D02*
X032023Y017283D01*
X032029Y017306D02*
X032023Y017306D01*
X032023Y016911D01*
X032418Y016911D01*
X032418Y016917D01*
X032408Y016982D01*
X032387Y017046D01*
X032357Y017105D01*
X032318Y017159D01*
X032271Y017206D01*
X032217Y017245D01*
X032158Y017275D01*
X032095Y017296D01*
X032029Y017306D01*
X032135Y017283D02*
X033057Y017283D01*
X032938Y017401D02*
X009684Y017401D01*
X009802Y017520D02*
X032229Y017520D01*
X032111Y017638D02*
X009921Y017638D01*
X010039Y017757D02*
X031992Y017757D01*
X031874Y017875D02*
X010158Y017875D01*
X010276Y017994D02*
X031755Y017994D01*
X031637Y018112D02*
X010395Y018112D01*
X010066Y018349D02*
X009371Y018349D01*
X009444Y018468D02*
X010185Y018468D01*
X010303Y018586D02*
X009493Y018586D01*
X009521Y018705D02*
X010422Y018705D01*
X010540Y018823D02*
X009521Y018823D01*
X009518Y018942D02*
X010659Y018942D01*
X010777Y019060D02*
X009469Y019060D01*
X009420Y019179D02*
X010896Y019179D01*
X011014Y019297D02*
X009313Y019297D01*
X008301Y019297D02*
X007580Y019297D01*
X007461Y019179D02*
X008194Y019179D01*
X008145Y019060D02*
X007343Y019060D01*
X007224Y018942D02*
X008096Y018942D01*
X008094Y018823D02*
X007106Y018823D01*
X006987Y018705D02*
X008094Y018705D01*
X008121Y018586D02*
X006869Y018586D01*
X006750Y018468D02*
X008170Y018468D01*
X008243Y018349D02*
X006632Y018349D01*
X006513Y018231D02*
X008361Y018231D01*
X008589Y018112D02*
X006395Y018112D01*
X006300Y017994D02*
X009711Y017994D01*
X009829Y018112D02*
X009025Y018112D01*
X009253Y018231D02*
X009948Y018231D01*
X009592Y017875D02*
X006300Y017875D01*
X006300Y017757D02*
X007487Y017757D01*
X006014Y019297D02*
X005580Y019297D01*
X005698Y019416D02*
X006133Y019416D01*
X006251Y019534D02*
X005817Y019534D01*
X005935Y019653D02*
X006370Y019653D01*
X006488Y019771D02*
X006054Y019771D01*
X006172Y019890D02*
X006607Y019890D01*
X006725Y020008D02*
X006291Y020008D01*
X006409Y020127D02*
X006844Y020127D01*
X006962Y020245D02*
X006528Y020245D01*
X006646Y020364D02*
X015081Y020364D01*
X014280Y021075D02*
X003273Y021075D01*
X003273Y021193D02*
X014280Y021193D01*
X014280Y021312D02*
X003273Y021312D01*
X003273Y021430D02*
X014280Y021430D01*
X014173Y020956D02*
X003273Y020956D01*
X003273Y020838D02*
X014055Y020838D01*
X013276Y021549D02*
X003273Y021549D01*
X003273Y021667D02*
X012214Y021667D01*
X012095Y021786D02*
X003273Y021786D01*
X003273Y021904D02*
X012030Y021904D01*
X012030Y022023D02*
X003273Y022023D01*
X003273Y022141D02*
X012030Y022141D01*
X012066Y022260D02*
X003273Y022260D01*
X003273Y022378D02*
X012185Y022378D01*
X012930Y021904D02*
X012990Y021904D01*
X013039Y021786D02*
X012865Y021786D01*
X012747Y021667D02*
X013157Y021667D01*
X013970Y022141D02*
X014030Y022141D01*
X014066Y022260D02*
X013951Y022260D01*
X013832Y022378D02*
X014185Y022378D01*
X016817Y019534D02*
X016825Y019534D01*
X018960Y022023D02*
X019030Y022023D01*
X019030Y022141D02*
X018930Y022141D01*
X018894Y022260D02*
X019066Y022260D01*
X019185Y022378D02*
X018776Y022378D01*
X019776Y022378D02*
X020785Y022378D01*
X020666Y022260D02*
X019894Y022260D01*
X019930Y022141D02*
X020630Y022141D01*
X020630Y022023D02*
X019960Y022023D01*
X020079Y021904D02*
X020630Y021904D01*
X020695Y021786D02*
X020197Y021786D01*
X020316Y021667D02*
X020814Y021667D01*
X020553Y021430D02*
X021487Y021430D01*
X021369Y021549D02*
X020434Y021549D01*
X020671Y021312D02*
X021606Y021312D01*
X021724Y021193D02*
X020790Y021193D01*
X020908Y021075D02*
X021843Y021075D01*
X021961Y020956D02*
X021027Y020956D01*
X021145Y020838D02*
X022080Y020838D01*
X022198Y020719D02*
X021264Y020719D01*
X021382Y020601D02*
X022317Y020601D01*
X022435Y020482D02*
X021501Y020482D01*
X021579Y021904D02*
X021630Y021904D01*
X021630Y022023D02*
X021530Y022023D01*
X021530Y022141D02*
X021630Y022141D01*
X021666Y022260D02*
X021494Y022260D01*
X021376Y022378D02*
X021785Y022378D01*
X024112Y017283D02*
X024167Y017283D01*
X024167Y017164D02*
X024112Y017164D01*
X024112Y017046D02*
X024167Y017046D01*
X024167Y016927D02*
X024112Y016927D01*
X024112Y016809D02*
X024167Y016809D01*
X024167Y016690D02*
X024112Y016690D01*
X024112Y016572D02*
X024167Y016572D01*
X020776Y015505D02*
X020288Y015505D01*
X020169Y015387D02*
X020633Y015387D01*
X020526Y015268D02*
X020051Y015268D01*
X019932Y015150D02*
X020477Y015150D01*
X020428Y015031D02*
X019814Y015031D01*
X019695Y014913D02*
X020426Y014913D01*
X020426Y014794D02*
X019577Y014794D01*
X019458Y014676D02*
X020453Y014676D01*
X020502Y014557D02*
X019340Y014557D01*
X019221Y014439D02*
X020575Y014439D01*
X020694Y014320D02*
X019103Y014320D01*
X018984Y014202D02*
X020921Y014202D01*
X019722Y015505D02*
X013274Y015505D01*
X013156Y015554D02*
X013418Y015445D01*
X013619Y015244D01*
X013728Y014982D01*
X013728Y014698D01*
X013619Y014436D01*
X013418Y014235D01*
X013156Y014127D01*
X012872Y014127D01*
X012610Y014235D01*
X012409Y014436D01*
X012301Y014698D01*
X012301Y014982D01*
X012409Y015244D01*
X012610Y015445D01*
X012872Y015554D01*
X013156Y015554D01*
X013477Y015387D02*
X019604Y015387D01*
X019485Y015268D02*
X013596Y015268D01*
X013659Y015150D02*
X019367Y015150D01*
X019248Y015031D02*
X013708Y015031D01*
X013728Y014913D02*
X019130Y014913D01*
X019011Y014794D02*
X013728Y014794D01*
X013718Y014676D02*
X018893Y014676D01*
X018774Y014557D02*
X013669Y014557D01*
X013620Y014439D02*
X018656Y014439D01*
X018537Y014320D02*
X013503Y014320D01*
X013337Y014202D02*
X018419Y014202D01*
X018300Y014083D02*
X012400Y014083D01*
X012518Y013965D02*
X018182Y013965D01*
X018063Y013846D02*
X012637Y013846D01*
X012692Y014202D02*
X012281Y014202D01*
X012163Y014320D02*
X012526Y014320D01*
X012408Y014439D02*
X012044Y014439D01*
X011926Y014557D02*
X012359Y014557D01*
X012310Y014676D02*
X011807Y014676D01*
X011689Y014794D02*
X012301Y014794D01*
X012301Y014913D02*
X011695Y014913D01*
X011814Y015031D02*
X012321Y015031D01*
X012370Y015150D02*
X011932Y015150D01*
X012051Y015268D02*
X012433Y015268D01*
X012552Y015387D02*
X012169Y015387D01*
X012288Y015505D02*
X012755Y015505D01*
X012525Y015742D02*
X019959Y015742D01*
X019841Y015624D02*
X012406Y015624D01*
X012643Y015861D02*
X020078Y015861D01*
X020196Y015979D02*
X012762Y015979D01*
X012880Y016098D02*
X020315Y016098D01*
X020433Y016216D02*
X012999Y016216D01*
X013117Y016335D02*
X020552Y016335D01*
X017596Y010947D02*
X017334Y011055D01*
X017050Y011055D01*
X016788Y010947D01*
X016587Y010746D01*
X016478Y010484D01*
X016478Y010200D01*
X016587Y009938D01*
X016788Y009737D01*
X017050Y009628D01*
X017334Y009628D01*
X017596Y009737D01*
X017797Y009938D01*
X017905Y010200D01*
X017905Y010484D01*
X017797Y010746D01*
X017596Y010947D01*
X017659Y010884D02*
X024695Y010884D01*
X024576Y010765D02*
X017777Y010765D01*
X017838Y010647D02*
X024504Y010647D01*
X024455Y010528D02*
X017887Y010528D01*
X017905Y010410D02*
X024428Y010410D01*
X024428Y010291D02*
X017905Y010291D01*
X017894Y010173D02*
X024430Y010173D01*
X024479Y010054D02*
X017845Y010054D01*
X017795Y009936D02*
X024528Y009936D01*
X024636Y009817D02*
X017676Y009817D01*
X017503Y009699D02*
X024779Y009699D01*
X024169Y008632D02*
X024114Y008632D01*
X024114Y008514D02*
X024169Y008514D01*
X024169Y008395D02*
X024114Y008395D01*
X024114Y008277D02*
X024169Y008277D01*
X024169Y008158D02*
X024114Y008158D01*
X024114Y008040D02*
X024169Y008040D01*
X024921Y011002D02*
X017462Y011002D01*
X016921Y011002D02*
X009123Y011002D01*
X009046Y011034D02*
X009308Y010925D01*
X009509Y010725D01*
X009617Y010462D01*
X009617Y010179D01*
X009509Y009916D01*
X009308Y009716D01*
X009046Y009607D01*
X008762Y009607D01*
X008500Y009716D01*
X008299Y009916D01*
X008190Y010179D01*
X008190Y010462D01*
X008299Y010725D01*
X008500Y010925D01*
X008762Y011034D01*
X009046Y011034D01*
X009350Y010884D02*
X016724Y010884D01*
X016606Y010765D02*
X009468Y010765D01*
X009541Y010647D02*
X016546Y010647D01*
X016497Y010528D02*
X009590Y010528D01*
X009617Y010410D02*
X016478Y010410D01*
X016478Y010291D02*
X009617Y010291D01*
X009615Y010173D02*
X016490Y010173D01*
X016539Y010054D02*
X009566Y010054D01*
X009517Y009936D02*
X016589Y009936D01*
X016707Y009817D02*
X009410Y009817D01*
X009267Y009699D02*
X016880Y009699D01*
X016219Y008632D02*
X016164Y008632D01*
X016164Y008514D02*
X016219Y008514D01*
X016219Y008395D02*
X016164Y008395D01*
X016164Y008277D02*
X016219Y008277D01*
X016219Y008158D02*
X016164Y008158D01*
X016164Y008040D02*
X016219Y008040D01*
X012851Y006973D02*
X007300Y006973D01*
X007300Y006855D02*
X012695Y006855D01*
X012583Y006736D02*
X007300Y006736D01*
X007300Y006618D02*
X012534Y006618D01*
X012485Y006499D02*
X007300Y006499D01*
X007300Y006381D02*
X012478Y006381D01*
X012478Y006262D02*
X007300Y006262D01*
X007300Y006144D02*
X012502Y006144D01*
X012551Y006025D02*
X007300Y006025D01*
X007300Y005907D02*
X012618Y005907D01*
X012736Y005788D02*
X007300Y005788D01*
X007300Y005670D02*
X012950Y005670D01*
X016454Y003300D02*
X016706Y003300D01*
X016630Y003181D02*
X016530Y003181D01*
X016530Y003063D02*
X016630Y003063D01*
X016630Y002944D02*
X016530Y002944D01*
X016505Y002826D02*
X016655Y002826D01*
X016774Y002707D02*
X016387Y002707D01*
X016268Y002589D02*
X016892Y002589D01*
X017268Y002589D02*
X017892Y002589D01*
X017774Y002707D02*
X017387Y002707D01*
X017505Y002826D02*
X017655Y002826D01*
X017630Y002944D02*
X017530Y002944D01*
X017530Y003063D02*
X017630Y003063D01*
X017630Y003181D02*
X017530Y003181D01*
X017454Y003300D02*
X017706Y003300D01*
X018454Y003300D02*
X018706Y003300D01*
X018630Y003181D02*
X018530Y003181D01*
X018530Y003063D02*
X018630Y003063D01*
X018630Y002944D02*
X018530Y002944D01*
X018505Y002826D02*
X018655Y002826D01*
X018774Y002707D02*
X018387Y002707D01*
X018268Y002589D02*
X018892Y002589D01*
X019268Y002589D02*
X019892Y002589D01*
X019774Y002707D02*
X019387Y002707D01*
X019505Y002826D02*
X019655Y002826D01*
X019630Y002944D02*
X019530Y002944D01*
X019530Y003063D02*
X019630Y003063D01*
X019630Y003181D02*
X019530Y003181D01*
X019454Y003300D02*
X019706Y003300D01*
X020454Y003300D02*
X020706Y003300D01*
X020630Y003181D02*
X020530Y003181D01*
X020530Y003063D02*
X020630Y003063D01*
X020630Y002944D02*
X020530Y002944D01*
X020505Y002826D02*
X020655Y002826D01*
X020774Y002707D02*
X020387Y002707D01*
X020268Y002589D02*
X020892Y002589D01*
X021268Y002589D02*
X022892Y002589D01*
X022774Y002707D02*
X021387Y002707D01*
X021505Y002826D02*
X022655Y002826D01*
X022630Y002944D02*
X021530Y002944D01*
X021530Y003063D02*
X022630Y003063D01*
X022630Y003181D02*
X021530Y003181D01*
X021454Y003300D02*
X022706Y003300D01*
X023454Y003300D02*
X023706Y003300D01*
X023630Y003181D02*
X023530Y003181D01*
X023530Y003063D02*
X023630Y003063D01*
X023630Y002944D02*
X023530Y002944D01*
X023505Y002826D02*
X023655Y002826D01*
X023774Y002707D02*
X023387Y002707D01*
X023268Y002589D02*
X023892Y002589D01*
X024268Y002589D02*
X024892Y002589D01*
X024774Y002707D02*
X024387Y002707D01*
X024505Y002826D02*
X024655Y002826D01*
X024630Y002944D02*
X024530Y002944D01*
X024530Y003063D02*
X024630Y003063D01*
X024630Y003181D02*
X024530Y003181D01*
X024454Y003300D02*
X024706Y003300D01*
X025454Y003300D02*
X025706Y003300D01*
X025630Y003181D02*
X025530Y003181D01*
X025530Y003063D02*
X025630Y003063D01*
X025630Y002944D02*
X025530Y002944D01*
X025505Y002826D02*
X025655Y002826D01*
X025774Y002707D02*
X025387Y002707D01*
X025268Y002589D02*
X025892Y002589D01*
X026268Y002589D02*
X026892Y002589D01*
X026774Y002707D02*
X026387Y002707D01*
X026505Y002826D02*
X026655Y002826D01*
X026630Y002944D02*
X026530Y002944D01*
X026530Y003063D02*
X026630Y003063D01*
X026630Y003181D02*
X026530Y003181D01*
X026454Y003300D02*
X026706Y003300D01*
X027454Y003300D02*
X027706Y003300D01*
X027630Y003181D02*
X027530Y003181D01*
X027530Y003063D02*
X027630Y003063D01*
X027630Y002944D02*
X027530Y002944D01*
X027505Y002826D02*
X027655Y002826D01*
X027774Y002707D02*
X027387Y002707D01*
X027268Y002589D02*
X027892Y002589D01*
X028268Y002589D02*
X038660Y002589D01*
X038660Y002707D02*
X028387Y002707D01*
X028505Y002826D02*
X038660Y002826D01*
X038660Y002944D02*
X028530Y002944D01*
X028530Y003063D02*
X038660Y003063D01*
X038660Y003181D02*
X028530Y003181D01*
X028454Y003300D02*
X038660Y003300D01*
X038660Y003418D02*
X035201Y003418D01*
X035319Y003537D02*
X038660Y003537D01*
X038660Y003655D02*
X035438Y003655D01*
X035556Y003774D02*
X038660Y003774D01*
X038660Y003892D02*
X035675Y003892D01*
X035793Y004011D02*
X038660Y004011D01*
X038660Y004129D02*
X035912Y004129D01*
X036030Y004248D02*
X038660Y004248D01*
X038660Y004366D02*
X036149Y004366D01*
X036267Y004485D02*
X038660Y004485D01*
X038660Y004603D02*
X036386Y004603D01*
X036504Y004722D02*
X038660Y004722D01*
X038660Y004840D02*
X036623Y004840D01*
X036741Y004959D02*
X038660Y004959D01*
X038660Y005077D02*
X036800Y005077D01*
X036800Y005196D02*
X038660Y005196D01*
X038660Y005314D02*
X036800Y005314D01*
X036800Y005433D02*
X038660Y005433D01*
X038660Y005551D02*
X036800Y005551D01*
X036800Y005670D02*
X038660Y005670D01*
X038660Y005788D02*
X036800Y005788D01*
X036800Y005907D02*
X038660Y005907D01*
X038660Y006025D02*
X036800Y006025D01*
X036800Y006144D02*
X038660Y006144D01*
X038660Y006262D02*
X036800Y006262D01*
X036800Y006381D02*
X038660Y006381D01*
X038660Y006499D02*
X036800Y006499D01*
X036800Y006618D02*
X038660Y006618D01*
X038660Y006736D02*
X036800Y006736D01*
X036800Y006855D02*
X038660Y006855D01*
X038660Y006973D02*
X036800Y006973D01*
X036800Y007092D02*
X038660Y007092D01*
X038660Y007210D02*
X036800Y007210D01*
X036800Y007329D02*
X038660Y007329D01*
X038660Y007447D02*
X036800Y007447D01*
X036800Y007566D02*
X038660Y007566D01*
X038660Y007684D02*
X036800Y007684D01*
X036800Y007803D02*
X038660Y007803D01*
X038660Y007921D02*
X036800Y007921D01*
X036800Y008040D02*
X038660Y008040D01*
X038660Y008158D02*
X036800Y008158D01*
X036800Y008277D02*
X038660Y008277D01*
X038660Y008395D02*
X036800Y008395D01*
X036800Y008514D02*
X038660Y008514D01*
X038660Y008632D02*
X036800Y008632D01*
X036800Y011002D02*
X037014Y011002D01*
X036927Y011121D02*
X036800Y011121D01*
X036800Y011239D02*
X036888Y011239D01*
X036883Y011358D02*
X036800Y011358D01*
X036800Y011476D02*
X036912Y011476D01*
X036985Y011595D02*
X036800Y011595D01*
X036800Y011713D02*
X037152Y011713D01*
X037004Y012069D02*
X036800Y012069D01*
X036800Y012187D02*
X036941Y012187D01*
X036921Y012306D02*
X036800Y012306D01*
X036800Y012424D02*
X036935Y012424D01*
X036990Y012543D02*
X036800Y012543D01*
X036800Y012661D02*
X037133Y012661D01*
X036800Y012780D02*
X038660Y012780D01*
X038660Y012898D02*
X036800Y012898D01*
X036800Y013017D02*
X037056Y013017D01*
X036963Y013135D02*
X036800Y013135D01*
X036800Y013254D02*
X036921Y013254D01*
X036921Y013372D02*
X036800Y013372D01*
X036800Y013491D02*
X036963Y013491D01*
X037056Y013609D02*
X036800Y013609D01*
X034900Y013609D02*
X031186Y013609D01*
X031186Y013491D02*
X034900Y013491D01*
X034900Y013372D02*
X031186Y013372D01*
X031186Y013254D02*
X034900Y013254D01*
X034900Y013135D02*
X031186Y013135D01*
X031186Y013017D02*
X034900Y013017D01*
X034900Y012898D02*
X031186Y012898D01*
X031186Y012780D02*
X034900Y012780D01*
X034900Y012661D02*
X031186Y012661D01*
X031186Y012543D02*
X034900Y012543D01*
X034900Y012424D02*
X031186Y012424D01*
X031186Y012306D02*
X034900Y012306D01*
X034900Y012187D02*
X031255Y012187D01*
X031304Y012069D02*
X034900Y012069D01*
X034900Y011476D02*
X003273Y011476D01*
X003273Y011358D02*
X034900Y011358D01*
X034900Y011239D02*
X003273Y011239D01*
X003273Y011121D02*
X034900Y011121D01*
X037891Y010884D02*
X038660Y010884D01*
X038660Y011002D02*
X038149Y011002D01*
X038236Y011121D02*
X038660Y011121D01*
X038660Y011239D02*
X038275Y011239D01*
X038280Y011358D02*
X038660Y011358D01*
X038660Y011476D02*
X038250Y011476D01*
X038177Y011595D02*
X038660Y011595D01*
X038660Y011713D02*
X038010Y011713D01*
X034900Y013728D02*
X031186Y013728D01*
X031227Y013846D02*
X034900Y013846D01*
X034900Y013965D02*
X031345Y013965D01*
X031464Y014083D02*
X034834Y014083D01*
X034716Y014202D02*
X031582Y014202D01*
X031701Y014320D02*
X034597Y014320D01*
X034479Y014439D02*
X031819Y014439D01*
X031938Y014557D02*
X034360Y014557D01*
X034242Y014676D02*
X032056Y014676D01*
X032175Y014794D02*
X034123Y014794D01*
X034005Y014913D02*
X032293Y014913D01*
X032412Y015031D02*
X033900Y015031D01*
X033900Y015150D02*
X032530Y015150D01*
X032649Y015268D02*
X033900Y015268D01*
X033900Y015387D02*
X032767Y015387D01*
X032886Y015505D02*
X033900Y015505D01*
X033900Y015624D02*
X033004Y015624D01*
X033123Y015742D02*
X033900Y015742D01*
X033900Y015861D02*
X033241Y015861D01*
X033360Y015979D02*
X033900Y015979D01*
X033900Y016098D02*
X033478Y016098D01*
X033548Y016216D02*
X033900Y016216D01*
X033900Y016335D02*
X033548Y016335D01*
X033548Y016453D02*
X033900Y016453D01*
X033900Y016572D02*
X033548Y016572D01*
X033548Y016690D02*
X033900Y016690D01*
X033900Y016809D02*
X033548Y016809D01*
X033548Y016927D02*
X033900Y016927D01*
X033900Y017046D02*
X033548Y017046D01*
X033548Y017164D02*
X033900Y017164D01*
X033900Y017283D02*
X033548Y017283D01*
X033447Y017401D02*
X033900Y017401D01*
X033898Y017520D02*
X033329Y017520D01*
X033210Y017638D02*
X033779Y017638D01*
X033661Y017757D02*
X033092Y017757D01*
X033542Y017875D02*
X032383Y017875D01*
X032424Y017994D02*
X032264Y017994D01*
X032305Y018112D02*
X032146Y018112D01*
X032187Y018231D02*
X032027Y018231D01*
X032068Y018349D02*
X031973Y018349D01*
X031968Y017164D02*
X032023Y017164D01*
X032023Y017046D02*
X031968Y017046D01*
X031968Y016927D02*
X032023Y016927D01*
X032023Y016809D02*
X031968Y016809D01*
X031968Y016690D02*
X032023Y016690D01*
X032023Y016572D02*
X031968Y016572D01*
X031710Y016572D02*
X031225Y016572D01*
X031330Y016690D02*
X031620Y016690D01*
X031579Y016809D02*
X031378Y016809D01*
X031378Y016927D02*
X031575Y016927D01*
X031604Y017046D02*
X031343Y017046D01*
X031256Y017164D02*
X031678Y017164D01*
X032313Y017164D02*
X033175Y017164D01*
X033188Y017046D02*
X032388Y017046D01*
X032417Y016927D02*
X033188Y016927D01*
X033188Y016809D02*
X032412Y016809D01*
X032372Y016690D02*
X033188Y016690D01*
X033188Y016572D02*
X032282Y016572D01*
X033188Y016453D02*
X030848Y016453D01*
X028632Y015505D02*
X028288Y015505D01*
X028169Y015387D02*
X028490Y015387D01*
X028383Y015268D02*
X028051Y015268D01*
X027932Y015150D02*
X028334Y015150D01*
X028285Y015031D02*
X027814Y015031D01*
X027695Y014913D02*
X028282Y014913D01*
X028282Y014794D02*
X027577Y014794D01*
X027458Y014676D02*
X028309Y014676D01*
X028359Y014557D02*
X027340Y014557D01*
X027221Y014439D02*
X028431Y014439D01*
X028550Y014320D02*
X027103Y014320D01*
X026984Y014202D02*
X028777Y014202D01*
X036800Y015861D02*
X037367Y015861D01*
X037262Y015979D02*
X036800Y015979D01*
X036800Y016098D02*
X037213Y016098D01*
X037195Y016216D02*
X036800Y016216D01*
X036800Y016335D02*
X037195Y016335D01*
X037241Y016453D02*
X036800Y016453D01*
X036800Y016572D02*
X037316Y016572D01*
X037464Y016690D02*
X036793Y016690D01*
X034557Y004840D02*
X023643Y004840D01*
X035109Y003892D02*
X008591Y003892D01*
X008262Y003655D02*
X003273Y003655D01*
X003273Y003537D02*
X008381Y003537D01*
X008499Y003418D02*
X003273Y003418D01*
X003273Y003774D02*
X008144Y003774D01*
X008025Y003892D02*
X003273Y003892D01*
X003273Y004011D02*
X007907Y004011D01*
X007788Y004129D02*
X003273Y004129D01*
X003273Y004248D02*
X007670Y004248D01*
X007551Y004366D02*
X003273Y004366D01*
X003273Y004485D02*
X007433Y004485D01*
X007314Y004603D02*
X003273Y004603D01*
X003273Y004722D02*
X007196Y004722D01*
X007077Y004840D02*
X003273Y004840D01*
X003273Y004959D02*
X006959Y004959D01*
X006900Y005077D02*
X003273Y005077D01*
X003273Y005196D02*
X006900Y005196D01*
X006900Y005314D02*
X003273Y005314D01*
X003273Y005433D02*
X006900Y005433D01*
X006900Y005551D02*
X003273Y005551D01*
X003273Y005670D02*
X004611Y005670D01*
X004500Y005716D02*
X004299Y005916D01*
X004190Y006179D01*
X004190Y006462D01*
X004299Y006725D01*
X004500Y006925D01*
X004762Y007034D01*
X005046Y007034D01*
X005308Y006925D01*
X005509Y006725D01*
X005617Y006462D01*
X005617Y006179D01*
X005509Y005916D01*
X005308Y005716D01*
X005046Y005607D01*
X004762Y005607D01*
X004500Y005716D01*
X004427Y005788D02*
X003273Y005788D01*
X003273Y005907D02*
X004309Y005907D01*
X004254Y006025D02*
X003273Y006025D01*
X003273Y006144D02*
X004205Y006144D01*
X004190Y006262D02*
X003273Y006262D01*
X003273Y006381D02*
X004190Y006381D01*
X004206Y006499D02*
X003273Y006499D01*
X003273Y006618D02*
X004255Y006618D01*
X004310Y006736D02*
X003273Y006736D01*
X003273Y006855D02*
X004429Y006855D01*
X004615Y006973D02*
X003273Y006973D01*
X003273Y007092D02*
X006900Y007092D01*
X006900Y007210D02*
X003273Y007210D01*
X003273Y007329D02*
X006900Y007329D01*
X006900Y007447D02*
X003273Y007447D01*
X003273Y007566D02*
X006900Y007566D01*
X006900Y007684D02*
X003273Y007684D01*
X003273Y007803D02*
X006900Y007803D01*
X006900Y007921D02*
X003273Y007921D01*
X003273Y008040D02*
X006644Y008040D01*
X006557Y008158D02*
X003273Y008158D01*
X003273Y008277D02*
X006521Y008277D01*
X006521Y008395D02*
X003273Y008395D01*
X003273Y008514D02*
X006570Y008514D01*
X006674Y008632D02*
X003273Y008632D01*
X003273Y009699D02*
X008541Y009699D01*
X008398Y009817D02*
X003273Y009817D01*
X003273Y009936D02*
X008291Y009936D01*
X008242Y010054D02*
X003273Y010054D01*
X003273Y010173D02*
X008193Y010173D01*
X008190Y010291D02*
X003273Y010291D01*
X003273Y010410D02*
X008190Y010410D01*
X008218Y010528D02*
X003273Y010528D01*
X003273Y010647D02*
X008267Y010647D01*
X008339Y010765D02*
X003273Y010765D01*
X003273Y010884D02*
X008458Y010884D01*
X008685Y011002D02*
X003273Y011002D01*
X003273Y013017D02*
X011901Y013017D01*
X011782Y013135D02*
X003273Y013135D01*
X003273Y013254D02*
X011664Y013254D01*
X011545Y013372D02*
X003273Y013372D01*
X003800Y014202D02*
X004390Y014202D01*
X004272Y014320D02*
X003800Y014320D01*
X003800Y014439D02*
X004182Y014439D01*
X004133Y014557D02*
X003800Y014557D01*
X003800Y014676D02*
X004094Y014676D01*
X004094Y014794D02*
X003800Y014794D01*
X003800Y014913D02*
X004094Y014913D01*
X004133Y015031D02*
X003814Y015031D01*
X003932Y015150D02*
X004182Y015150D01*
X004272Y015268D02*
X004051Y015268D01*
X004169Y015387D02*
X004391Y015387D01*
X004288Y015505D02*
X004660Y015505D01*
X004525Y015742D02*
X005400Y015742D01*
X005400Y015624D02*
X004406Y015624D01*
X004643Y015861D02*
X005400Y015861D01*
X005400Y015979D02*
X004762Y015979D01*
X004880Y016098D02*
X005400Y016098D01*
X005400Y016216D02*
X004999Y016216D01*
X005117Y016335D02*
X005400Y016335D01*
X005400Y016453D02*
X005236Y016453D01*
X005300Y016572D02*
X005400Y016572D01*
X005400Y016690D02*
X005300Y016690D01*
X005300Y016809D02*
X005400Y016809D01*
X005400Y016927D02*
X005300Y016927D01*
X005300Y017046D02*
X005400Y017046D01*
X005400Y017164D02*
X005300Y017164D01*
X005300Y017283D02*
X005400Y017283D01*
X005400Y017401D02*
X005300Y017401D01*
X005300Y017520D02*
X005400Y017520D01*
X005400Y017638D02*
X005300Y017638D01*
X005300Y017757D02*
X005400Y017757D01*
X005400Y017875D02*
X005300Y017875D01*
X005300Y017994D02*
X005400Y017994D01*
X005400Y018112D02*
X005300Y018112D01*
X005300Y018231D02*
X005400Y018231D01*
X005400Y018349D02*
X005300Y018349D01*
X005300Y018468D02*
X005400Y018468D01*
X005400Y018586D02*
X005300Y018586D01*
X005300Y018705D02*
X005422Y018705D01*
X005540Y018823D02*
X005300Y018823D01*
X005300Y018942D02*
X005659Y018942D01*
X005777Y019060D02*
X005343Y019060D01*
X005461Y019179D02*
X005896Y019179D01*
X005412Y015505D02*
X004955Y015505D01*
X005223Y015387D02*
X005531Y015387D01*
X005649Y015268D02*
X005342Y015268D01*
X005432Y015150D02*
X005768Y015150D01*
X005886Y015031D02*
X005481Y015031D01*
X005521Y014913D02*
X006005Y014913D01*
X006123Y014794D02*
X005521Y014794D01*
X005521Y014676D02*
X006242Y014676D01*
X006360Y014557D02*
X005481Y014557D01*
X005432Y014439D02*
X006479Y014439D01*
X006570Y014913D02*
X007005Y014913D01*
X006886Y015031D02*
X006452Y015031D01*
X006129Y013846D02*
X011071Y013846D01*
X011190Y013728D02*
X006010Y013728D01*
X005892Y013609D02*
X011308Y013609D01*
X011427Y013491D02*
X005773Y013491D01*
X007134Y008632D02*
X007618Y008632D01*
X007629Y008643D02*
X007581Y008596D01*
X007542Y008542D01*
X007512Y008483D01*
X007492Y008419D01*
X007481Y008354D01*
X007481Y008348D01*
X007876Y008348D01*
X007876Y008743D01*
X007871Y008743D01*
X007805Y008733D01*
X007742Y008712D01*
X007682Y008682D01*
X007629Y008643D01*
X007528Y008514D02*
X007238Y008514D01*
X007287Y008395D02*
X007488Y008395D01*
X007483Y008277D02*
X007287Y008277D01*
X007512Y008158D02*
X007542Y008099D01*
X007581Y008045D01*
X007876Y008040D02*
X007932Y008040D01*
X007932Y008158D02*
X007876Y008158D01*
X007876Y008277D02*
X007932Y008277D01*
X007932Y008395D02*
X007876Y008395D01*
X007876Y008514D02*
X007932Y008514D01*
X007932Y008632D02*
X007876Y008632D01*
X006900Y006973D02*
X005193Y006973D01*
X005379Y006855D02*
X006900Y006855D01*
X006900Y006736D02*
X005497Y006736D01*
X005553Y006618D02*
X006900Y006618D01*
X006900Y006499D02*
X005602Y006499D01*
X005617Y006381D02*
X006900Y006381D01*
X006900Y006262D02*
X005617Y006262D01*
X005603Y006144D02*
X006900Y006144D01*
X006900Y006025D02*
X005554Y006025D01*
X005499Y005907D02*
X006900Y005907D01*
X006900Y005788D02*
X005381Y005788D01*
X005197Y005670D02*
X006900Y005670D01*
D12*
X006904Y008320D03*
X007904Y008320D03*
X015192Y008342D03*
X016192Y008342D03*
X023141Y008321D03*
X024141Y008321D03*
X031046Y008324D03*
X032046Y008324D03*
X031996Y016883D03*
X030996Y016883D03*
X024139Y016883D03*
X023139Y016883D03*
X016014Y016840D03*
X015014Y016840D03*
X007807Y016794D03*
X006807Y016794D03*
D13*
X004807Y014794D03*
X008807Y018794D03*
X013014Y014840D03*
X017014Y018840D03*
X021139Y014883D03*
X025139Y018883D03*
X028996Y014883D03*
X032996Y018883D03*
X033046Y010324D03*
X029046Y006324D03*
X025141Y010321D03*
X021141Y006321D03*
X017192Y010342D03*
X013192Y006342D03*
X008904Y010320D03*
X004904Y006320D03*
D14*
X035769Y016478D03*
X037698Y016242D03*
X035769Y022187D03*
X037698Y022423D03*
D15*
X028080Y022037D03*
X027080Y022037D03*
X026080Y022037D03*
X025080Y022037D03*
X024080Y022037D03*
X023080Y022037D03*
X022080Y022037D03*
X021080Y022037D03*
X019480Y022037D03*
X018480Y022037D03*
X017480Y022037D03*
X016480Y022037D03*
X015480Y022037D03*
X014480Y022037D03*
X013480Y022037D03*
X012480Y022037D03*
X016080Y003037D03*
X017080Y003037D03*
X018080Y003037D03*
X019080Y003037D03*
X020080Y003037D03*
X021080Y003037D03*
X023080Y003037D03*
X024080Y003037D03*
X025080Y003037D03*
X026080Y003037D03*
X027080Y003037D03*
X028080Y003037D03*
D16*
X037311Y011313D02*
X037851Y011313D01*
X037851Y012313D02*
X037311Y012313D01*
X037311Y013313D02*
X037851Y013313D01*
D17*
X034155Y013289D03*
X033368Y013289D03*
X032580Y013289D03*
X031793Y013289D03*
X031006Y011911D03*
X037305Y018407D03*
X037305Y018998D03*
X037305Y019588D03*
X037305Y020179D03*
X027069Y018998D03*
D18*
X029100Y016600D02*
X030712Y016600D01*
X030996Y016883D01*
X032600Y018100D02*
X033600Y018100D01*
X034100Y017600D01*
X034100Y015100D01*
X035100Y014100D01*
X035100Y006100D01*
X034100Y005100D01*
X031600Y005100D01*
X031100Y005600D01*
X031100Y008271D01*
X031046Y008324D01*
X034600Y004600D02*
X035600Y005600D01*
X035600Y014600D01*
X034600Y015600D01*
X034600Y019100D01*
X033600Y020100D01*
X021600Y020100D01*
X019663Y022037D01*
X019480Y022037D01*
X018663Y022037D02*
X021100Y019600D01*
X022600Y020600D02*
X034100Y020600D01*
X035100Y019600D01*
X035100Y016100D01*
X036100Y015100D01*
X036100Y005100D01*
X035100Y004100D01*
X016100Y004100D01*
X015100Y005100D01*
X015100Y008250D01*
X015192Y008342D01*
X012100Y013100D02*
X025600Y013100D01*
X029100Y016600D01*
X032100Y018600D02*
X032600Y018100D01*
X032100Y018600D02*
X032100Y019100D01*
X031702Y019498D01*
X031600Y019600D01*
X034100Y021100D02*
X035600Y019600D01*
X035600Y017600D01*
X036600Y016600D01*
X036600Y005100D01*
X035100Y003600D01*
X008600Y003600D01*
X007100Y005100D01*
X007100Y008124D01*
X006904Y008320D01*
X012100Y013100D02*
X011100Y014100D01*
X006100Y014100D01*
X005600Y013600D01*
X004100Y013600D01*
X003600Y014100D01*
X003600Y015100D01*
X005100Y016600D01*
X005100Y019100D01*
X006600Y020600D01*
X007100Y020100D02*
X005600Y018600D01*
X005600Y015600D01*
X006600Y014600D01*
X011600Y014600D01*
X012600Y013600D01*
X018100Y013600D01*
X021100Y016600D01*
X022856Y016600D01*
X023139Y016883D01*
X022600Y020600D02*
X021163Y022037D01*
X021080Y022037D01*
X022080Y022037D02*
X022080Y021620D01*
X022600Y021100D01*
X034100Y021100D01*
X018663Y022037D02*
X018480Y022037D01*
X017480Y022037D02*
X017480Y020480D01*
X016100Y019100D01*
X011100Y019100D01*
X009600Y017600D01*
X007613Y017600D01*
X006807Y016794D01*
X006100Y016100D02*
X007100Y015100D01*
X011600Y015100D01*
X013100Y016600D01*
X014774Y016600D01*
X015014Y016840D01*
X015600Y019600D02*
X007600Y019600D01*
X006100Y018100D01*
X006100Y016100D01*
X007100Y020100D02*
X015100Y020100D01*
X015480Y020480D01*
X015480Y022037D01*
X016480Y022037D02*
X016480Y020480D01*
X015600Y019600D01*
X014480Y020980D02*
X014100Y020600D01*
X014480Y020980D02*
X014480Y022037D01*
X023141Y008321D02*
X023100Y008280D01*
X023100Y005100D01*
X023600Y004600D01*
X034600Y004600D01*
D19*
X027069Y018998D02*
X027265Y019194D01*
M02*
