G75*
%MOIN*%
%OFA0B0*%
%FSLAX24Y24*%
%IPPOS*%
%LPD*%
%AMOC8*
5,1,8,0,0,1.08239X$1,22.5*
%
%ADD10C,0.0000*%
%ADD11C,0.0120*%
%ADD12C,0.0566*%
%ADD13C,0.1227*%
%ADD14R,0.0788X0.0158*%
%ADD15C,0.0808*%
%ADD16R,0.0390X0.0460*%
%ADD17OC8,0.0700*%
%ADD18C,0.0580*%
%ADD19R,0.0512X0.0512*%
D10*
X000100Y000100D02*
X000100Y031596D01*
X039470Y031596D01*
X039470Y000100D01*
X000100Y000100D01*
D11*
X003053Y002069D02*
X003053Y023131D01*
X038880Y023131D01*
X038880Y002069D01*
X003053Y002069D01*
D12*
X006904Y008320D03*
X007904Y008320D03*
X015192Y008342D03*
X016192Y008342D03*
X023141Y008321D03*
X024141Y008321D03*
X031046Y008324D03*
X032046Y008324D03*
X031996Y016883D03*
X030996Y016883D03*
X024139Y016883D03*
X023139Y016883D03*
X016014Y016840D03*
X015014Y016840D03*
X007807Y016794D03*
X006807Y016794D03*
D13*
X004807Y014794D03*
X008807Y018794D03*
X013014Y014840D03*
X017014Y018840D03*
X021139Y014883D03*
X025139Y018883D03*
X028996Y014883D03*
X032996Y018883D03*
X033046Y010324D03*
X029046Y006324D03*
X025141Y010321D03*
X021141Y006321D03*
X017192Y010342D03*
X013192Y006342D03*
X008904Y010320D03*
X004904Y006320D03*
D14*
X035395Y017659D03*
X035395Y017856D03*
X035395Y018053D03*
X035395Y018250D03*
X035395Y018446D03*
X035395Y018643D03*
X035395Y018840D03*
X035395Y019037D03*
X035395Y019234D03*
X035395Y019431D03*
X035395Y019628D03*
X035395Y019824D03*
X035395Y020021D03*
X035395Y020218D03*
X035395Y020415D03*
X035395Y020612D03*
X035395Y020809D03*
X035395Y021006D03*
X035395Y021202D03*
D15*
X035769Y022187D03*
X037698Y022423D03*
X037698Y016242D03*
X035769Y016478D03*
D16*
X030825Y020581D03*
X030145Y020581D03*
X022805Y020581D03*
X022125Y020581D03*
X014621Y020589D03*
X013941Y020589D03*
X006708Y020612D03*
X006028Y020612D03*
X006055Y004458D03*
X006735Y004458D03*
X013630Y002714D03*
X014310Y002714D03*
X014330Y004554D03*
X015010Y004554D03*
X022073Y004438D03*
X022753Y004438D03*
X030220Y004445D03*
X030900Y004445D03*
D17*
X028080Y003037D03*
X027080Y003037D03*
X026080Y003037D03*
X025080Y003037D03*
X024080Y003037D03*
X023080Y003037D03*
X021080Y003037D03*
X020080Y003037D03*
X019080Y003037D03*
X018080Y003037D03*
X017080Y003037D03*
X016080Y003037D03*
X016480Y022037D03*
X015480Y022037D03*
X014480Y022037D03*
X013480Y022037D03*
X012480Y022037D03*
X017480Y022037D03*
X018480Y022037D03*
X019480Y022037D03*
X021080Y022037D03*
X022080Y022037D03*
X023080Y022037D03*
X024080Y022037D03*
X025080Y022037D03*
X026080Y022037D03*
X027080Y022037D03*
X028080Y022037D03*
D18*
X037311Y013313D02*
X037851Y013313D01*
X037851Y012313D02*
X037311Y012313D01*
X037311Y011313D02*
X037851Y011313D01*
D19*
X033113Y004400D03*
X032287Y004400D03*
X024913Y004400D03*
X024087Y004400D03*
X017413Y004500D03*
X016587Y004500D03*
X011100Y003513D03*
X011100Y002687D03*
X009113Y004400D03*
X008287Y004400D03*
X015787Y020600D03*
X016613Y020600D03*
X008813Y020700D03*
X007987Y020700D03*
X024287Y020600D03*
X025113Y020600D03*
X032187Y020600D03*
X033013Y020600D03*
M02*
