G75*
%MOIN*%
%OFA0B0*%
%FSLAX24Y24*%
%IPPOS*%
%LPD*%
%AMOC8*
5,1,8,0,0,1.08239X$1,22.5*
%
%ADD10C,0.0000*%
%ADD11C,0.0030*%
%ADD12C,0.0040*%
%ADD13C,0.0080*%
%ADD14C,0.0060*%
%ADD15C,0.0120*%
%ADD16C,0.0050*%
%ADD17R,0.0120X0.0320*%
%ADD18R,0.0010X0.0040*%
%ADD19R,0.0010X0.0050*%
%ADD20R,0.0010X0.0070*%
%ADD21R,0.0010X0.0120*%
%ADD22R,0.0010X0.0100*%
%ADD23R,0.0010X0.0150*%
%ADD24R,0.0010X0.0170*%
%ADD25R,0.0010X0.0200*%
%ADD26R,0.0010X0.0210*%
%ADD27R,0.0010X0.0230*%
%ADD28R,0.0010X0.0240*%
%ADD29R,0.0010X0.0250*%
%ADD30R,0.0010X0.0140*%
%ADD31R,0.0010X0.0130*%
%ADD32R,0.0010X0.0290*%
%ADD33R,0.0010X0.0110*%
%ADD34R,0.0010X0.0340*%
%ADD35R,0.0010X0.0180*%
%ADD36R,0.0010X0.0360*%
%ADD37R,0.0010X0.0090*%
%ADD38R,0.0010X0.0220*%
%ADD39R,0.0010X0.0380*%
%ADD40R,0.0010X0.0280*%
%ADD41R,0.0010X0.0400*%
%ADD42R,0.0010X0.0310*%
%ADD43R,0.0010X0.0410*%
%ADD44R,0.0010X0.0330*%
%ADD45R,0.0010X0.0430*%
%ADD46R,0.0010X0.0350*%
%ADD47R,0.0010X0.0440*%
%ADD48R,0.0010X0.0370*%
%ADD49R,0.0010X0.0450*%
%ADD50R,0.0010X0.0390*%
%ADD51R,0.0010X0.0460*%
%ADD52R,0.0010X0.0470*%
%ADD53R,0.0010X0.0420*%
%ADD54R,0.0010X0.0190*%
%ADD55R,0.0010X0.0160*%
%ADD56R,0.0010X0.0060*%
%ADD57R,0.0010X0.0010*%
%ADD58R,0.0010X0.0030*%
%ADD59R,0.0010X0.0490*%
%ADD60R,0.0010X0.0500*%
%ADD61R,0.0010X0.0510*%
%ADD62R,0.0010X0.0080*%
%ADD63R,0.0010X0.0260*%
%ADD64R,0.0010X0.0320*%
%ADD65R,0.0240X0.0240*%
%ADD66R,0.0118X0.0059*%
%ADD67R,0.0118X0.0118*%
%ADD68R,0.0236X0.0531*%
%ADD69R,0.0059X0.0118*%
%ADD70R,0.0531X0.0236*%
D10*
X000100Y000100D02*
X000100Y031596D01*
X039470Y031596D01*
X039470Y000100D01*
X000100Y000100D01*
X028580Y023037D02*
X034080Y023037D01*
X034080Y002037D01*
X029080Y002037D01*
D11*
X027347Y002234D02*
X027347Y002419D01*
X027285Y002481D01*
X027100Y002481D01*
X027100Y002234D01*
X026978Y002234D02*
X026855Y002234D01*
X026916Y002234D02*
X026916Y002604D01*
X026855Y002604D02*
X026978Y002604D01*
X026365Y002481D02*
X026365Y002172D01*
X026303Y002111D01*
X026242Y002111D01*
X026180Y002234D02*
X026118Y002296D01*
X026118Y002419D01*
X026180Y002481D01*
X026365Y002481D01*
X026365Y002234D02*
X026180Y002234D01*
X025997Y002296D02*
X025997Y002419D01*
X025935Y002481D01*
X025811Y002481D01*
X025750Y002419D01*
X025750Y002296D01*
X025811Y002234D01*
X025935Y002234D01*
X025997Y002296D01*
X025628Y002234D02*
X025504Y002234D01*
X025566Y002234D02*
X025566Y002604D01*
X025504Y002604D01*
X025321Y002481D02*
X025383Y002419D01*
X025383Y002234D01*
X025198Y002234D01*
X025136Y002296D01*
X025198Y002357D01*
X025383Y002357D01*
X025321Y002481D02*
X025198Y002481D01*
X025014Y002419D02*
X025014Y002234D01*
X025014Y002419D02*
X024953Y002481D01*
X024768Y002481D01*
X024768Y002234D01*
X024646Y002234D02*
X024646Y002481D01*
X024523Y002604D01*
X024399Y002481D01*
X024399Y002234D01*
X024399Y002419D02*
X024646Y002419D01*
X024945Y003552D02*
X025192Y003799D01*
X025192Y003861D01*
X025130Y003922D01*
X025007Y003922D01*
X024945Y003861D01*
X024945Y003552D02*
X025192Y003552D01*
X025945Y003614D02*
X026007Y003552D01*
X026130Y003552D01*
X026192Y003614D01*
X026192Y003675D01*
X026130Y003737D01*
X026069Y003737D01*
X026130Y003737D02*
X026192Y003799D01*
X026192Y003861D01*
X026130Y003922D01*
X026007Y003922D01*
X025945Y003861D01*
X026945Y003737D02*
X027192Y003737D01*
X027130Y003552D02*
X027130Y003922D01*
X026945Y003737D01*
X027945Y003737D02*
X028069Y003799D01*
X028130Y003799D01*
X028192Y003737D01*
X028192Y003614D01*
X028130Y003552D01*
X028007Y003552D01*
X027945Y003614D01*
X027945Y003737D02*
X027945Y003922D01*
X028192Y003922D01*
X024192Y003552D02*
X023945Y003552D01*
X024069Y003552D02*
X024069Y003922D01*
X023945Y003799D01*
X023192Y003861D02*
X023192Y003614D01*
X023130Y003552D01*
X023007Y003552D01*
X022945Y003614D01*
X023192Y003861D01*
X023130Y003922D01*
X023007Y003922D01*
X022945Y003861D01*
X022945Y003614D01*
X021588Y003552D02*
X021588Y003737D01*
X021526Y003799D01*
X021341Y003799D01*
X021341Y003552D01*
X021219Y003552D02*
X021096Y003552D01*
X021157Y003552D02*
X021157Y003799D01*
X021096Y003799D01*
X021157Y003922D02*
X021157Y003984D01*
X020974Y003922D02*
X020974Y003675D01*
X020851Y003552D01*
X020727Y003675D01*
X020727Y003922D01*
X020133Y003922D02*
X020133Y003552D01*
X019948Y003552D01*
X019886Y003614D01*
X019886Y003737D01*
X019948Y003799D01*
X020133Y003799D01*
X019764Y003737D02*
X019764Y003552D01*
X019764Y003737D02*
X019703Y003799D01*
X019518Y003799D01*
X019518Y003552D01*
X019396Y003614D02*
X019396Y003737D01*
X019273Y003737D01*
X019396Y003614D02*
X019334Y003552D01*
X019211Y003552D01*
X019149Y003614D01*
X019149Y003861D01*
X019211Y003922D01*
X019334Y003922D01*
X019396Y003861D01*
X018493Y003799D02*
X018369Y003552D01*
X018246Y003799D01*
X018124Y003737D02*
X018124Y003614D01*
X018062Y003552D01*
X017939Y003552D01*
X017877Y003614D01*
X017877Y003737D02*
X018001Y003799D01*
X018062Y003799D01*
X018124Y003737D01*
X018124Y003922D02*
X017877Y003922D01*
X017877Y003737D01*
X017393Y003799D02*
X017269Y003552D01*
X017146Y003799D01*
X017024Y003799D02*
X017024Y003861D01*
X016962Y003922D01*
X016839Y003922D01*
X016777Y003861D01*
X016901Y003737D02*
X016962Y003737D01*
X017024Y003675D01*
X017024Y003614D01*
X016962Y003552D01*
X016839Y003552D01*
X016777Y003614D01*
X016962Y003737D02*
X017024Y003799D01*
X016375Y003922D02*
X016128Y003922D01*
X016251Y003922D02*
X016251Y003552D01*
X016007Y003614D02*
X015945Y003552D01*
X015821Y003552D01*
X015760Y003614D01*
X015638Y003552D02*
X015515Y003675D01*
X015576Y003675D02*
X015391Y003675D01*
X015391Y003552D02*
X015391Y003922D01*
X015576Y003922D01*
X015638Y003861D01*
X015638Y003737D01*
X015576Y003675D01*
X015760Y003799D02*
X015821Y003737D01*
X015945Y003737D01*
X016007Y003675D01*
X016007Y003614D01*
X016007Y003861D02*
X015945Y003922D01*
X015821Y003922D01*
X015760Y003861D01*
X015760Y003799D01*
X037067Y009879D02*
X037357Y009879D01*
X037357Y010072D01*
X037357Y010173D02*
X037067Y010173D01*
X037067Y010367D01*
X037067Y010468D02*
X037067Y010613D01*
X037115Y010662D01*
X037309Y010662D01*
X037357Y010613D01*
X037357Y010468D01*
X037067Y010468D01*
X037212Y010270D02*
X037212Y010173D01*
X037357Y010173D02*
X037357Y010367D01*
X037547Y010367D02*
X037837Y010367D01*
X037547Y010173D01*
X037837Y010173D01*
X037789Y010072D02*
X037595Y010072D01*
X037547Y010024D01*
X037547Y009927D01*
X037595Y009879D01*
X037789Y009879D01*
X037837Y009927D01*
X037837Y010024D01*
X037789Y010072D01*
X038215Y009454D02*
X038360Y009454D01*
X038360Y009358D02*
X038215Y009358D01*
X038167Y009406D01*
X038215Y009454D01*
X038215Y009358D02*
X038167Y009309D01*
X038167Y009261D01*
X038360Y009261D01*
X038312Y009160D02*
X038215Y009160D01*
X038167Y009111D01*
X038167Y009015D01*
X038215Y008966D01*
X038312Y008966D01*
X038360Y009015D01*
X038360Y009111D01*
X038312Y009160D01*
X038360Y008865D02*
X038360Y008720D01*
X038312Y008672D01*
X038215Y008672D01*
X038167Y008720D01*
X038167Y008865D01*
X038312Y008573D02*
X038360Y008573D01*
X038360Y008524D01*
X038312Y008524D01*
X038312Y008573D01*
X038312Y008423D02*
X038263Y008375D01*
X038263Y008278D01*
X038215Y008230D01*
X038167Y008278D01*
X038167Y008423D01*
X038312Y008423D02*
X038360Y008375D01*
X038360Y008230D01*
X038360Y008128D02*
X038360Y007983D01*
X038312Y007935D01*
X038167Y007935D01*
X038215Y007834D02*
X038360Y007834D01*
X038215Y007834D02*
X038167Y007785D01*
X038167Y007689D01*
X038215Y007640D01*
X038215Y007539D02*
X038312Y007539D01*
X038360Y007491D01*
X038360Y007346D01*
X038457Y007346D02*
X038167Y007346D01*
X038167Y007491D01*
X038215Y007539D01*
X038070Y007640D02*
X038360Y007640D01*
X038457Y008032D02*
X038457Y008080D01*
X038409Y008128D01*
X038167Y008128D01*
X037880Y008080D02*
X037880Y007983D01*
X037832Y007935D01*
X037638Y008128D01*
X037832Y008128D01*
X037880Y008080D01*
X037880Y008230D02*
X037880Y008423D01*
X037880Y008326D02*
X037590Y008326D01*
X037687Y008230D01*
X037638Y008128D02*
X037590Y008080D01*
X037590Y007983D01*
X037638Y007935D01*
X037832Y007935D01*
X037880Y007834D02*
X037880Y007640D01*
X037687Y007834D01*
X037638Y007834D01*
X037590Y007785D01*
X037590Y007689D01*
X037638Y007640D01*
X037687Y007244D02*
X037929Y007244D01*
X037977Y007196D01*
X037977Y007148D01*
X037880Y007099D02*
X037880Y007244D01*
X037880Y007099D02*
X037832Y007051D01*
X037687Y007051D01*
X037590Y006903D02*
X037880Y006903D01*
X037880Y006855D02*
X037880Y006951D01*
X037880Y006753D02*
X037687Y006753D01*
X037590Y006855D02*
X037590Y006903D01*
X037880Y006753D02*
X037880Y006608D01*
X037832Y006560D01*
X037687Y006560D01*
X037590Y006459D02*
X037590Y006362D01*
X037590Y006410D02*
X037832Y006410D01*
X037880Y006362D01*
X037880Y006314D01*
X037832Y006265D01*
X038167Y006312D02*
X038215Y006360D01*
X038263Y006360D01*
X038263Y006167D01*
X038215Y006167D02*
X038167Y006215D01*
X038167Y006312D01*
X038167Y006462D02*
X038167Y006607D01*
X038215Y006655D01*
X038360Y006655D01*
X038215Y006756D02*
X038215Y006950D01*
X038215Y007051D02*
X038167Y007099D01*
X038167Y007196D01*
X038215Y007244D01*
X038263Y007244D01*
X038263Y007051D01*
X038215Y007051D02*
X038312Y007051D01*
X038360Y007099D01*
X038360Y007196D01*
X038360Y006462D02*
X038167Y006462D01*
X038360Y006312D02*
X038360Y006215D01*
X038312Y006167D01*
X038215Y006167D01*
X038215Y006066D02*
X038312Y006066D01*
X038360Y006017D01*
X038360Y005872D01*
X038457Y005872D02*
X038167Y005872D01*
X038167Y006017D01*
X038215Y006066D01*
X038215Y005771D02*
X038167Y005723D01*
X038167Y005626D01*
X038215Y005578D01*
X038312Y005578D01*
X038360Y005626D01*
X038360Y005723D01*
X038312Y005771D01*
X038215Y005771D01*
X037977Y005774D02*
X037880Y005871D01*
X037880Y005822D01*
X037832Y005822D01*
X037832Y005871D01*
X037880Y005871D01*
X037832Y005673D02*
X037638Y005673D01*
X037832Y005479D01*
X037880Y005528D01*
X037880Y005625D01*
X037832Y005673D01*
X037832Y005479D02*
X037638Y005479D01*
X037590Y005528D01*
X037590Y005625D01*
X037638Y005673D01*
X037832Y005381D02*
X037880Y005381D01*
X037880Y005332D01*
X037832Y005332D01*
X037832Y005381D01*
X037880Y005231D02*
X037880Y005037D01*
X037880Y005134D02*
X037590Y005134D01*
X037687Y005037D01*
X037735Y004642D02*
X037880Y004642D01*
X037735Y004642D02*
X037687Y004593D01*
X037687Y004448D01*
X037880Y004448D01*
X037832Y004347D02*
X037735Y004347D01*
X037687Y004299D01*
X037687Y004202D01*
X037735Y004154D01*
X037832Y004154D01*
X037880Y004202D01*
X037880Y004299D01*
X037832Y004347D01*
X037880Y004054D02*
X037880Y003957D01*
X037880Y004005D02*
X037687Y004005D01*
X037687Y003957D01*
X037687Y003856D02*
X037687Y003711D01*
X037735Y003662D01*
X037783Y003711D01*
X037783Y003808D01*
X037832Y003856D01*
X037880Y003808D01*
X037880Y003662D01*
X038022Y003760D02*
X038070Y003760D01*
X038167Y003760D02*
X038360Y003760D01*
X038360Y003712D02*
X038360Y003808D01*
X038312Y003908D02*
X038360Y003956D01*
X038360Y004101D01*
X038409Y004101D02*
X038167Y004101D01*
X038167Y003956D01*
X038215Y003908D01*
X038312Y003908D01*
X038457Y004005D02*
X038457Y004053D01*
X038409Y004101D01*
X038360Y004203D02*
X038167Y004203D01*
X038167Y004348D01*
X038215Y004396D01*
X038360Y004396D01*
X038312Y004792D02*
X038263Y004840D01*
X038263Y004985D01*
X038215Y004985D02*
X038360Y004985D01*
X038360Y004840D01*
X038312Y004792D01*
X038167Y004840D02*
X038167Y004937D01*
X038215Y004985D01*
X038167Y005087D02*
X038167Y005183D01*
X038118Y005135D02*
X038312Y005135D01*
X038360Y005183D01*
X037590Y004005D02*
X037542Y004005D01*
X037687Y003562D02*
X037687Y003514D01*
X037783Y003417D01*
X037687Y003417D02*
X037880Y003417D01*
X037783Y003316D02*
X037783Y003122D01*
X037735Y003122D02*
X037687Y003171D01*
X037687Y003267D01*
X037735Y003316D01*
X037783Y003316D01*
X037880Y003267D02*
X037880Y003171D01*
X037832Y003122D01*
X037735Y003122D01*
X037687Y003021D02*
X037880Y002924D01*
X037687Y002828D01*
X038070Y003021D02*
X038360Y003021D01*
X038360Y002876D01*
X038312Y002828D01*
X038215Y002828D01*
X038167Y002876D01*
X038167Y003021D01*
X038215Y003122D02*
X038167Y003171D01*
X038167Y003267D01*
X038215Y003316D01*
X038263Y003316D01*
X038263Y003122D01*
X038215Y003122D02*
X038312Y003122D01*
X038360Y003171D01*
X038360Y003267D01*
X038360Y003417D02*
X038360Y003562D01*
X038312Y003610D01*
X038263Y003562D01*
X038263Y003465D01*
X038215Y003417D01*
X038167Y003465D01*
X038167Y003610D01*
X038167Y003712D02*
X038167Y003760D01*
X037735Y008524D02*
X037735Y008718D01*
X037880Y008669D02*
X037590Y008669D01*
X037735Y008524D01*
X037789Y014028D02*
X037595Y014028D01*
X037547Y014077D01*
X037547Y014174D01*
X037595Y014222D01*
X037789Y014222D01*
X037837Y014174D01*
X037837Y014077D01*
X037789Y014028D01*
X037837Y014323D02*
X037547Y014323D01*
X037547Y014517D01*
X037547Y014618D02*
X037547Y014811D01*
X037692Y014714D02*
X037692Y014618D01*
X037837Y014618D02*
X037547Y014618D01*
X037357Y014618D02*
X037357Y014763D01*
X037309Y014811D01*
X037115Y014811D01*
X037067Y014763D01*
X037067Y014618D01*
X037357Y014618D01*
X037357Y014517D02*
X037357Y014323D01*
X037067Y014323D01*
X037067Y014517D01*
X037212Y014420D02*
X037212Y014323D01*
X037357Y014222D02*
X037357Y014028D01*
X037067Y014028D01*
X037692Y014323D02*
X037692Y014420D01*
X028224Y021214D02*
X028162Y021152D01*
X028039Y021152D01*
X027977Y021214D01*
X028224Y021461D01*
X028224Y021214D01*
X028224Y021461D02*
X028162Y021522D01*
X028039Y021522D01*
X027977Y021461D01*
X027977Y021214D01*
X027224Y021152D02*
X026977Y021152D01*
X027100Y021152D02*
X027100Y021522D01*
X026977Y021399D01*
X026224Y021399D02*
X026224Y021461D01*
X026162Y021522D01*
X026039Y021522D01*
X025977Y021461D01*
X026224Y021399D02*
X025977Y021152D01*
X026224Y021152D01*
X025224Y021214D02*
X025162Y021152D01*
X025039Y021152D01*
X024977Y021214D01*
X025100Y021337D02*
X025162Y021337D01*
X025224Y021275D01*
X025224Y021214D01*
X025162Y021337D02*
X025224Y021399D01*
X025224Y021461D01*
X025162Y021522D01*
X025039Y021522D01*
X024977Y021461D01*
X024224Y021337D02*
X023977Y021337D01*
X024162Y021522D01*
X024162Y021152D01*
X023224Y021214D02*
X023162Y021152D01*
X023039Y021152D01*
X022977Y021214D01*
X022977Y021337D02*
X023100Y021399D01*
X023162Y021399D01*
X023224Y021337D01*
X023224Y021214D01*
X022977Y021337D02*
X022977Y021522D01*
X023224Y021522D01*
X022224Y021522D02*
X022100Y021461D01*
X021977Y021337D01*
X022162Y021337D01*
X022224Y021275D01*
X022224Y021214D01*
X022162Y021152D01*
X022039Y021152D01*
X021977Y021214D01*
X021977Y021337D01*
X021224Y021461D02*
X020977Y021214D01*
X020977Y021152D01*
X020977Y021522D02*
X021224Y021522D01*
X021224Y021461D01*
X019624Y021461D02*
X019624Y021399D01*
X019562Y021337D01*
X019439Y021337D01*
X019377Y021399D01*
X019377Y021461D01*
X019439Y021522D01*
X019562Y021522D01*
X019624Y021461D01*
X019562Y021337D02*
X019624Y021275D01*
X019624Y021214D01*
X019562Y021152D01*
X019439Y021152D01*
X019377Y021214D01*
X019377Y021275D01*
X019439Y021337D01*
X018624Y021337D02*
X018439Y021337D01*
X018377Y021399D01*
X018377Y021461D01*
X018439Y021522D01*
X018562Y021522D01*
X018624Y021461D01*
X018624Y021214D01*
X018562Y021152D01*
X018439Y021152D01*
X018377Y021214D01*
X017824Y021214D02*
X017762Y021152D01*
X017639Y021152D01*
X017577Y021214D01*
X017824Y021461D01*
X017824Y021214D01*
X017824Y021461D02*
X017762Y021522D01*
X017639Y021522D01*
X017577Y021461D01*
X017577Y021214D01*
X017456Y021152D02*
X017209Y021152D01*
X017332Y021152D02*
X017332Y021522D01*
X017209Y021399D01*
X016824Y021152D02*
X016577Y021152D01*
X016456Y021152D02*
X016209Y021152D01*
X016332Y021152D02*
X016332Y021522D01*
X016209Y021399D01*
X016577Y021399D02*
X016700Y021522D01*
X016700Y021152D01*
X015824Y021152D02*
X015577Y021152D01*
X015824Y021399D01*
X015824Y021461D01*
X015762Y021522D01*
X015639Y021522D01*
X015577Y021461D01*
X015332Y021522D02*
X015332Y021152D01*
X015209Y021152D02*
X015456Y021152D01*
X015209Y021399D02*
X015332Y021522D01*
X014824Y021461D02*
X014824Y021399D01*
X014762Y021337D01*
X014824Y021275D01*
X014824Y021214D01*
X014762Y021152D01*
X014639Y021152D01*
X014577Y021214D01*
X014456Y021152D02*
X014209Y021152D01*
X014332Y021152D02*
X014332Y021522D01*
X014209Y021399D01*
X013974Y021399D02*
X013789Y021399D01*
X013727Y021337D01*
X013727Y021214D01*
X013789Y021152D01*
X013974Y021152D01*
X013974Y021522D01*
X013606Y021337D02*
X013606Y021152D01*
X013606Y021337D02*
X013544Y021399D01*
X013359Y021399D01*
X013359Y021152D01*
X013237Y021152D02*
X013052Y021152D01*
X012990Y021214D01*
X012990Y021337D01*
X013052Y021399D01*
X013237Y021399D01*
X013237Y021090D01*
X013176Y021029D01*
X013114Y021029D01*
X012723Y021337D02*
X012600Y021337D01*
X012478Y021337D02*
X012478Y021275D01*
X012231Y021275D01*
X012231Y021214D02*
X012231Y021337D01*
X012293Y021399D01*
X012417Y021399D01*
X012478Y021337D01*
X012417Y021152D02*
X012293Y021152D01*
X012231Y021214D01*
X012110Y021152D02*
X011987Y021275D01*
X012048Y021275D02*
X011863Y021275D01*
X011863Y021152D02*
X011863Y021522D01*
X012048Y021522D01*
X012110Y021461D01*
X012110Y021337D01*
X012048Y021275D01*
X011742Y021337D02*
X011495Y021337D01*
X011495Y021399D02*
X011618Y021522D01*
X011742Y021399D01*
X011742Y021152D01*
X011495Y021152D02*
X011495Y021399D01*
X012661Y021461D02*
X012661Y021152D01*
X012661Y021461D02*
X012723Y021522D01*
X014577Y021461D02*
X014639Y021522D01*
X014762Y021522D01*
X014824Y021461D01*
X014762Y021337D02*
X014700Y021337D01*
X015545Y022552D02*
X015730Y022552D01*
X015792Y022614D01*
X015792Y022861D01*
X015730Y022922D01*
X015545Y022922D01*
X015545Y022552D01*
X015914Y022552D02*
X016037Y022552D01*
X015975Y022552D02*
X015975Y022799D01*
X015914Y022799D01*
X015975Y022922D02*
X015975Y022984D01*
X016221Y022799D02*
X016159Y022737D01*
X016159Y022614D01*
X016221Y022552D01*
X016406Y022552D01*
X016406Y022490D02*
X016406Y022799D01*
X016221Y022799D01*
X016527Y022799D02*
X016589Y022799D01*
X016589Y022552D01*
X016527Y022552D02*
X016651Y022552D01*
X016835Y022614D02*
X016896Y022552D01*
X016835Y022614D02*
X016835Y022861D01*
X016896Y022799D02*
X016773Y022799D01*
X016589Y022922D02*
X016589Y022984D01*
X017019Y022614D02*
X017080Y022675D01*
X017265Y022675D01*
X017265Y022737D02*
X017265Y022552D01*
X017080Y022552D01*
X017019Y022614D01*
X017080Y022799D02*
X017204Y022799D01*
X017265Y022737D01*
X017387Y022552D02*
X017510Y022552D01*
X017449Y022552D02*
X017449Y022922D01*
X017387Y022922D01*
X018001Y022922D02*
X018124Y022922D01*
X018062Y022922D02*
X018062Y022552D01*
X018001Y022552D02*
X018124Y022552D01*
X018246Y022552D02*
X018493Y022922D01*
X018615Y022861D02*
X018615Y022614D01*
X018676Y022552D01*
X018800Y022552D01*
X018861Y022614D01*
X018861Y022861D01*
X018800Y022922D01*
X018676Y022922D01*
X018615Y022861D01*
X016406Y022490D02*
X016344Y022429D01*
X016283Y022429D01*
X023145Y022552D02*
X023330Y022552D01*
X023392Y022614D01*
X023392Y022861D01*
X023330Y022922D01*
X023145Y022922D01*
X023145Y022552D01*
X023514Y022552D02*
X023637Y022552D01*
X023575Y022552D02*
X023575Y022799D01*
X023514Y022799D01*
X023575Y022922D02*
X023575Y022984D01*
X023821Y022799D02*
X023759Y022737D01*
X023759Y022614D01*
X023821Y022552D01*
X024006Y022552D01*
X024006Y022490D02*
X024006Y022799D01*
X023821Y022799D01*
X024127Y022799D02*
X024189Y022799D01*
X024189Y022552D01*
X024127Y022552D02*
X024251Y022552D01*
X024435Y022614D02*
X024496Y022552D01*
X024435Y022614D02*
X024435Y022861D01*
X024496Y022799D02*
X024373Y022799D01*
X024189Y022922D02*
X024189Y022984D01*
X024680Y022799D02*
X024804Y022799D01*
X024865Y022737D01*
X024865Y022552D01*
X024680Y022552D01*
X024619Y022614D01*
X024680Y022675D01*
X024865Y022675D01*
X024987Y022552D02*
X025110Y022552D01*
X025049Y022552D02*
X025049Y022922D01*
X024987Y022922D01*
X025601Y022922D02*
X025724Y022922D01*
X025662Y022922D02*
X025662Y022552D01*
X025601Y022552D02*
X025724Y022552D01*
X025846Y022552D02*
X026093Y022922D01*
X026215Y022861D02*
X026215Y022614D01*
X026276Y022552D01*
X026400Y022552D01*
X026461Y022614D01*
X026461Y022861D01*
X026400Y022922D01*
X026276Y022922D01*
X026215Y022861D01*
X024006Y022490D02*
X023944Y022429D01*
X023883Y022429D01*
D12*
X024523Y020846D02*
X024877Y020846D01*
X024877Y020354D02*
X024513Y020354D01*
X022765Y020421D02*
X022165Y020421D01*
X022165Y020741D02*
X022765Y020741D01*
X016377Y020846D02*
X016023Y020846D01*
X016013Y020354D02*
X016377Y020354D01*
X014581Y020429D02*
X013981Y020429D01*
X013981Y020749D02*
X014581Y020749D01*
X008577Y020946D02*
X008223Y020946D01*
X008213Y020454D02*
X008577Y020454D01*
X006668Y020452D02*
X006068Y020452D01*
X006068Y020772D02*
X006668Y020772D01*
X006695Y004618D02*
X006095Y004618D01*
X006095Y004298D02*
X006695Y004298D01*
X008513Y004154D02*
X008877Y004154D01*
X008877Y004646D02*
X008523Y004646D01*
X010239Y003499D02*
X010760Y003499D01*
X010239Y003152D01*
X010760Y003152D01*
X010854Y003277D02*
X010854Y002923D01*
X010760Y002897D02*
X010673Y002983D01*
X010326Y002983D01*
X010239Y002897D01*
X010239Y002723D01*
X010326Y002636D01*
X010673Y002636D01*
X010760Y002723D01*
X010760Y002897D01*
X011346Y002913D02*
X011346Y003277D01*
X013670Y002874D02*
X014270Y002874D01*
X014270Y002554D02*
X013670Y002554D01*
X014370Y004394D02*
X014970Y004394D01*
X014970Y004714D02*
X014370Y004714D01*
X016823Y004746D02*
X017177Y004746D01*
X017177Y004254D02*
X016813Y004254D01*
X022113Y004278D02*
X022713Y004278D01*
X022713Y004598D02*
X022113Y004598D01*
X024323Y004646D02*
X024677Y004646D01*
X024677Y004154D02*
X024313Y004154D01*
X030260Y004285D02*
X030860Y004285D01*
X030860Y004605D02*
X030260Y004605D01*
X032523Y004646D02*
X032877Y004646D01*
X032877Y004154D02*
X032513Y004154D01*
X036722Y003947D02*
X036722Y003774D01*
X036808Y003687D01*
X037155Y003687D01*
X037242Y003774D01*
X037242Y003947D01*
X037155Y004034D01*
X036808Y004034D01*
X036722Y003947D01*
X036722Y003518D02*
X037242Y003171D01*
X037242Y003001D02*
X037242Y002828D01*
X037242Y002914D02*
X036722Y002914D01*
X036722Y002828D02*
X036722Y003001D01*
X036808Y004718D02*
X036895Y004718D01*
X036982Y004805D01*
X036982Y004979D01*
X037068Y005065D01*
X037155Y005065D01*
X037242Y004979D01*
X037242Y004805D01*
X037155Y004718D01*
X036808Y004718D02*
X036722Y004805D01*
X036722Y004979D01*
X036808Y005065D01*
X036722Y005234D02*
X037242Y005234D01*
X036982Y005234D02*
X036895Y005321D01*
X036895Y005494D01*
X036982Y005581D01*
X037242Y005581D01*
X037242Y005750D02*
X037242Y005923D01*
X037242Y005836D02*
X036895Y005836D01*
X036895Y005750D01*
X036722Y005836D02*
X036635Y005836D01*
X036895Y006180D02*
X036895Y006354D01*
X036982Y006440D01*
X037068Y006440D01*
X037068Y006093D01*
X036982Y006093D02*
X036895Y006180D01*
X036982Y006093D02*
X037155Y006093D01*
X037242Y006180D01*
X037242Y006354D01*
X037242Y006609D02*
X037242Y006782D01*
X037242Y006696D02*
X036722Y006696D01*
X036722Y006609D01*
X036982Y006953D02*
X036895Y007040D01*
X036895Y007300D01*
X036722Y007300D02*
X037242Y007300D01*
X037242Y007040D01*
X037155Y006953D01*
X036982Y006953D01*
X032777Y020354D02*
X032413Y020354D01*
X032423Y020846D02*
X032777Y020846D01*
X030785Y020741D02*
X030185Y020741D01*
X030185Y020421D02*
X030785Y020421D01*
D13*
X029064Y020456D02*
X028910Y020303D01*
X028757Y020303D01*
X028604Y020456D01*
X028604Y020763D01*
X028757Y020916D01*
X028910Y020916D01*
X029064Y020763D01*
X029064Y020456D01*
X028604Y020456D02*
X028450Y020303D01*
X028297Y020303D01*
X028143Y020456D01*
X028143Y020763D01*
X028297Y020916D01*
X028450Y020916D01*
X028604Y020763D01*
X021314Y020319D02*
X021161Y020319D01*
X020547Y020933D01*
X020393Y020933D01*
X020393Y020319D01*
X012965Y020398D02*
X012811Y020244D01*
X012504Y020244D01*
X012504Y020705D01*
X012658Y020858D01*
X012811Y020858D01*
X012965Y020705D01*
X012965Y020398D01*
X012504Y020244D02*
X012197Y020551D01*
X012044Y020858D01*
X004920Y020817D02*
X004920Y020510D01*
X004766Y020357D01*
X004459Y020357D02*
X004306Y020664D01*
X004306Y020817D01*
X004459Y020971D01*
X004766Y020971D01*
X004920Y020817D01*
X004459Y020357D02*
X003999Y020357D01*
X003999Y020971D01*
X005062Y004798D02*
X005062Y004185D01*
X005062Y004491D02*
X004141Y004491D01*
X004448Y004185D01*
X012414Y004228D02*
X012568Y004074D01*
X012414Y004228D02*
X012414Y004535D01*
X012568Y004688D01*
X012721Y004688D01*
X013335Y004074D01*
X013335Y004688D01*
X020384Y004489D02*
X020384Y004182D01*
X020537Y004029D01*
X020844Y004336D02*
X020844Y004489D01*
X020998Y004643D01*
X021151Y004643D01*
X021305Y004489D01*
X021305Y004182D01*
X021151Y004029D01*
X020844Y004489D02*
X020691Y004643D01*
X020537Y004643D01*
X020384Y004489D01*
X028168Y004657D02*
X028628Y004196D01*
X028628Y004810D01*
X028168Y004657D02*
X029089Y004657D01*
D14*
X029090Y009031D02*
X028663Y009031D01*
X028557Y009138D01*
X028557Y009351D01*
X028663Y009458D01*
X028557Y009676D02*
X029197Y009676D01*
X029090Y009458D02*
X029197Y009351D01*
X029197Y009138D01*
X029090Y009031D01*
X028877Y009676D02*
X028877Y010103D01*
X028877Y010320D02*
X028877Y010747D01*
X029197Y010640D02*
X028557Y010640D01*
X028877Y010320D01*
X028557Y010103D02*
X029197Y010103D01*
X037081Y010913D02*
X037081Y011713D01*
X037181Y011813D01*
X037081Y011913D01*
X037081Y012713D01*
X037181Y012813D01*
X037081Y012913D01*
X037081Y013713D01*
X037181Y013813D01*
X037981Y013813D01*
X038081Y013713D01*
X038081Y012913D01*
X037981Y012813D01*
X038081Y012713D01*
X038081Y011913D01*
X037981Y011813D01*
X038081Y011713D01*
X038081Y010913D01*
X037981Y010813D01*
X037181Y010813D01*
X037081Y010913D01*
X029300Y017852D02*
X029193Y017746D01*
X028766Y017746D01*
X028659Y017852D01*
X028659Y018066D01*
X028766Y018173D01*
X028659Y018390D02*
X029300Y018390D01*
X029193Y018173D02*
X029300Y018066D01*
X029300Y017852D01*
X028979Y018390D02*
X028979Y018817D01*
X028872Y019035D02*
X028766Y019035D01*
X028659Y019141D01*
X028659Y019355D01*
X028766Y019462D01*
X028872Y019462D01*
X028979Y019355D01*
X028979Y019141D01*
X028872Y019035D01*
X028979Y019141D02*
X029086Y019035D01*
X029193Y019035D01*
X029300Y019141D01*
X029300Y019355D01*
X029193Y019462D01*
X029086Y019462D01*
X028979Y019355D01*
X028659Y018817D02*
X029300Y018817D01*
X021300Y018986D02*
X020659Y018986D01*
X020659Y019204D02*
X020659Y019631D01*
X020766Y019631D01*
X021193Y019204D01*
X021300Y019204D01*
X020979Y018986D02*
X020979Y018559D01*
X020766Y018342D02*
X020659Y018235D01*
X020659Y018022D01*
X020766Y017915D01*
X021193Y017915D01*
X021300Y018022D01*
X021300Y018235D01*
X021193Y018342D01*
X021300Y018559D02*
X020659Y018559D01*
X013225Y018372D02*
X012584Y018372D01*
X012691Y018155D02*
X012584Y018048D01*
X012584Y017835D01*
X012691Y017728D01*
X013118Y017728D01*
X013225Y017835D01*
X013225Y018048D01*
X013118Y018155D01*
X012904Y018372D02*
X012904Y018799D01*
X012904Y019017D02*
X012904Y019337D01*
X013011Y019444D01*
X013118Y019444D01*
X013225Y019337D01*
X013225Y019124D01*
X013118Y019017D01*
X012904Y019017D01*
X012691Y019230D01*
X012584Y019444D01*
X012584Y018799D02*
X013225Y018799D01*
X004951Y018640D02*
X004311Y018640D01*
X004311Y018857D02*
X004631Y018857D01*
X004524Y019071D01*
X004524Y019178D01*
X004631Y019285D01*
X004844Y019285D01*
X004951Y019178D01*
X004951Y018964D01*
X004844Y018857D01*
X004631Y018640D02*
X004631Y018213D01*
X004844Y017995D02*
X004951Y017889D01*
X004951Y017675D01*
X004844Y017568D01*
X004417Y017568D01*
X004311Y017675D01*
X004311Y017889D01*
X004417Y017995D01*
X004311Y018213D02*
X004951Y018213D01*
X004311Y018857D02*
X004311Y019285D01*
X004837Y010570D02*
X004837Y010143D01*
X004837Y010356D02*
X004196Y010356D01*
X004410Y010143D01*
X004517Y009925D02*
X004517Y009498D01*
X004730Y009281D02*
X004837Y009174D01*
X004837Y008961D01*
X004730Y008854D01*
X004303Y008854D01*
X004196Y008961D01*
X004196Y009174D01*
X004303Y009281D01*
X004196Y009498D02*
X004837Y009498D01*
X004837Y009925D02*
X004196Y009925D01*
X012427Y009982D02*
X013067Y009982D01*
X013067Y010200D02*
X012640Y010627D01*
X012533Y010627D01*
X012427Y010520D01*
X012427Y010307D01*
X012533Y010200D01*
X012747Y009982D02*
X012747Y009555D01*
X012960Y009338D02*
X013067Y009231D01*
X013067Y009018D01*
X012960Y008911D01*
X012533Y008911D01*
X012427Y009018D01*
X012427Y009231D01*
X012533Y009338D01*
X012427Y009555D02*
X013067Y009555D01*
X013067Y010200D02*
X013067Y010627D01*
X020608Y010453D02*
X020715Y010560D01*
X020821Y010560D01*
X020928Y010453D01*
X021035Y010560D01*
X021142Y010560D01*
X021248Y010453D01*
X021248Y010240D01*
X021142Y010133D01*
X021248Y009916D02*
X020608Y009916D01*
X020715Y010133D02*
X020608Y010240D01*
X020608Y010453D01*
X020928Y010453D02*
X020928Y010347D01*
X020928Y009916D02*
X020928Y009489D01*
X020715Y009271D02*
X020608Y009164D01*
X020608Y008951D01*
X020715Y008844D01*
X021142Y008844D01*
X021248Y008951D01*
X021248Y009164D01*
X021142Y009271D01*
X021248Y009489D02*
X020608Y009489D01*
X037815Y018366D02*
X038456Y018366D01*
X038136Y018366D02*
X038136Y018793D01*
X038456Y018793D02*
X037815Y018793D01*
X037815Y019011D02*
X037815Y019331D01*
X037922Y019438D01*
X038349Y019438D01*
X038456Y019331D01*
X038456Y019011D01*
X037815Y019011D01*
X037815Y019655D02*
X038029Y019869D01*
X037815Y020082D01*
X038456Y020082D01*
X038456Y020300D02*
X038456Y020513D01*
X038456Y020407D02*
X037815Y020407D01*
X037815Y020513D02*
X037815Y020300D01*
X037815Y019655D02*
X038456Y019655D01*
D15*
X038880Y023131D02*
X038880Y002069D01*
X003053Y002069D01*
X003053Y023131D01*
X038880Y023131D01*
D16*
X038919Y022285D02*
X037935Y022285D01*
X037935Y022482D01*
X037541Y022482D01*
X037541Y022285D01*
X035376Y022285D01*
X035376Y021891D01*
X038919Y021891D01*
X038919Y022285D01*
X038919Y021891D02*
X038919Y016773D01*
X035376Y016773D01*
X035376Y016380D01*
X037541Y016380D01*
X037541Y016183D01*
X037935Y016183D01*
X037935Y016380D01*
X038919Y016380D01*
X038919Y016773D01*
X038427Y017265D02*
X037344Y017265D01*
X036645Y017178D01*
X036628Y017177D01*
X036612Y017181D01*
X036596Y017187D01*
X036583Y017197D01*
X036571Y017209D01*
X036563Y017224D01*
X036558Y017239D01*
X036556Y017256D01*
X036557Y017256D02*
X036557Y017295D01*
X036556Y017295D02*
X036558Y017311D01*
X036562Y017326D01*
X036570Y017340D01*
X036581Y017353D01*
X036594Y017362D01*
X036608Y017369D01*
X036624Y017373D01*
X037246Y017462D01*
X037738Y017462D01*
X037738Y017856D01*
X037246Y017856D01*
X036624Y017945D01*
X036608Y017949D01*
X036594Y017956D01*
X036581Y017965D01*
X036570Y017978D01*
X036562Y017992D01*
X036558Y018007D01*
X036556Y018023D01*
X036557Y018023D02*
X036557Y018062D01*
X036556Y018062D02*
X036558Y018079D01*
X036563Y018094D01*
X036571Y018109D01*
X036583Y018121D01*
X036596Y018131D01*
X036612Y018137D01*
X036628Y018141D01*
X036645Y018140D01*
X037344Y018053D01*
X038427Y018053D01*
X038453Y018051D01*
X038478Y018046D01*
X038502Y018038D01*
X038526Y018027D01*
X038547Y018012D01*
X038566Y017995D01*
X038583Y017976D01*
X038598Y017955D01*
X038609Y017931D01*
X038617Y017907D01*
X038622Y017882D01*
X038624Y017856D01*
X038624Y017462D01*
X038427Y017462D02*
X038427Y017856D01*
X038328Y017856D01*
X038328Y017462D01*
X038427Y017462D01*
X038427Y017265D02*
X038453Y017267D01*
X038478Y017272D01*
X038502Y017280D01*
X038526Y017291D01*
X038547Y017306D01*
X038566Y017323D01*
X038583Y017342D01*
X038598Y017364D01*
X038609Y017387D01*
X038617Y017411D01*
X038622Y017436D01*
X038624Y017462D01*
X038328Y017462D02*
X038131Y017462D01*
X038131Y017856D01*
X038033Y017856D01*
X038033Y017462D01*
X038131Y017462D01*
X038033Y017462D02*
X037738Y017462D01*
X037738Y017856D02*
X038033Y017856D01*
X038131Y017856D02*
X038328Y017856D01*
X036754Y017915D02*
X036754Y017403D01*
X035966Y017364D02*
X035966Y017561D01*
X035964Y017587D01*
X035959Y017612D01*
X035951Y017636D01*
X035940Y017660D01*
X035925Y017681D01*
X035908Y017700D01*
X035889Y017717D01*
X035868Y017732D01*
X035844Y017743D01*
X035820Y017751D01*
X035795Y017756D01*
X035769Y017758D01*
X035769Y017757D02*
X035572Y017757D01*
X035376Y017954D01*
X035376Y018348D01*
X035494Y018348D01*
X035509Y018350D01*
X035524Y018354D01*
X035538Y018361D01*
X035550Y018371D01*
X035560Y018383D01*
X035567Y018397D01*
X035571Y018412D01*
X035573Y018427D01*
X035572Y018427D02*
X035572Y018466D01*
X035573Y018466D02*
X035571Y018481D01*
X035567Y018496D01*
X035560Y018510D01*
X035550Y018522D01*
X035538Y018532D01*
X035524Y018539D01*
X035509Y018543D01*
X035494Y018545D01*
X035376Y018545D01*
X035376Y020120D01*
X035494Y020120D01*
X035494Y020119D02*
X035509Y020121D01*
X035524Y020125D01*
X035538Y020132D01*
X035550Y020142D01*
X035560Y020154D01*
X035567Y020168D01*
X035571Y020183D01*
X035573Y020198D01*
X035572Y020198D02*
X035572Y020238D01*
X035573Y020238D02*
X035571Y020253D01*
X035567Y020268D01*
X035560Y020282D01*
X035550Y020294D01*
X035538Y020304D01*
X035524Y020311D01*
X035509Y020315D01*
X035494Y020317D01*
X035376Y020317D01*
X035376Y020710D01*
X035572Y020907D01*
X035769Y020907D01*
X035795Y020909D01*
X035820Y020914D01*
X035844Y020922D01*
X035868Y020933D01*
X035889Y020948D01*
X035908Y020965D01*
X035925Y020984D01*
X035940Y021006D01*
X035951Y021029D01*
X035959Y021053D01*
X035964Y021078D01*
X035966Y021104D01*
X035966Y021301D01*
X035964Y021327D01*
X035959Y021352D01*
X035951Y021376D01*
X035940Y021400D01*
X035925Y021421D01*
X035908Y021440D01*
X035889Y021457D01*
X035868Y021472D01*
X035844Y021483D01*
X035820Y021491D01*
X035795Y021496D01*
X035769Y021498D01*
X035572Y021498D01*
X035376Y021694D01*
X035376Y021891D01*
X034982Y021301D02*
X034982Y017561D01*
X035572Y017167D02*
X035769Y017167D01*
X035572Y017167D02*
X035376Y016970D01*
X035376Y016773D01*
X035769Y017167D02*
X035795Y017169D01*
X035820Y017174D01*
X035844Y017182D01*
X035868Y017193D01*
X035889Y017208D01*
X035908Y017225D01*
X035925Y017244D01*
X035940Y017266D01*
X035951Y017289D01*
X035959Y017313D01*
X035964Y017338D01*
X035966Y017364D01*
X037541Y016380D02*
X037935Y016380D01*
X038323Y013564D02*
X038379Y013564D01*
X038436Y013508D01*
X038493Y013564D01*
X038550Y013564D01*
X038606Y013508D01*
X038606Y013394D01*
X038550Y013338D01*
X038436Y013451D02*
X038436Y013508D01*
X038323Y013564D02*
X038266Y013508D01*
X038266Y013394D01*
X038323Y013338D01*
X038323Y012564D02*
X038266Y012508D01*
X038266Y012394D01*
X038323Y012338D01*
X038323Y012564D02*
X038379Y012564D01*
X038606Y012338D01*
X038606Y012564D01*
X038606Y011564D02*
X038606Y011338D01*
X038606Y011451D02*
X038266Y011451D01*
X038379Y011338D01*
X034157Y011041D02*
X034157Y005214D01*
X027936Y005214D01*
X027936Y011041D01*
X027938Y011080D01*
X027944Y011118D01*
X027953Y011155D01*
X027966Y011192D01*
X027983Y011227D01*
X028002Y011260D01*
X028025Y011291D01*
X028051Y011320D01*
X028080Y011346D01*
X028111Y011369D01*
X028144Y011388D01*
X028179Y011405D01*
X028216Y011418D01*
X028253Y011427D01*
X028291Y011433D01*
X028330Y011435D01*
X033763Y011435D01*
X033802Y011433D01*
X033840Y011427D01*
X033877Y011418D01*
X033914Y011405D01*
X033949Y011388D01*
X033982Y011369D01*
X034013Y011346D01*
X034042Y011320D01*
X034068Y011291D01*
X034091Y011260D01*
X034110Y011227D01*
X034127Y011192D01*
X034140Y011155D01*
X034149Y011118D01*
X034155Y011080D01*
X034157Y011041D01*
X032306Y010529D02*
X029786Y010529D01*
X029786Y010528D02*
X029700Y010477D01*
X029617Y010422D01*
X029535Y010364D01*
X029456Y010303D01*
X029379Y010239D01*
X029305Y010172D01*
X029233Y010102D01*
X029164Y010029D01*
X029099Y009953D01*
X029036Y009875D01*
X028976Y009795D01*
X028920Y009712D01*
X028867Y009627D01*
X028817Y009540D01*
X028771Y009451D01*
X028728Y009361D01*
X028689Y009269D01*
X028654Y009175D01*
X028622Y009080D01*
X028594Y008984D01*
X028570Y008887D01*
X028550Y008789D01*
X028534Y008690D01*
X028521Y008591D01*
X028512Y008491D01*
X028508Y008391D01*
X028507Y008291D01*
X028511Y008191D01*
X028518Y008091D01*
X028529Y007991D01*
X028544Y007892D01*
X028563Y007794D01*
X028586Y007697D01*
X028612Y007600D01*
X028643Y007505D01*
X028677Y007411D01*
X028715Y007318D01*
X028756Y007227D01*
X028801Y007137D01*
X028850Y007050D01*
X028902Y006964D01*
X028957Y006881D01*
X029016Y006799D01*
X029077Y006721D01*
X029142Y006644D01*
X029210Y006570D01*
X029280Y006499D01*
X029354Y006431D01*
X029430Y006366D01*
X029508Y006304D01*
X029589Y006245D01*
X029672Y006189D01*
X029757Y006136D01*
X029844Y006087D01*
X029934Y006042D01*
X030024Y006000D01*
X030117Y005961D01*
X030211Y005926D01*
X030306Y005895D01*
X030402Y005868D01*
X030500Y005844D01*
X030598Y005825D01*
X030697Y005809D01*
X030796Y005797D01*
X030896Y005789D01*
X030996Y005785D01*
X031096Y005785D01*
X031196Y005789D01*
X031296Y005797D01*
X031395Y005809D01*
X031494Y005825D01*
X031592Y005844D01*
X031690Y005868D01*
X031786Y005895D01*
X031881Y005926D01*
X031975Y005961D01*
X032068Y006000D01*
X032158Y006042D01*
X032248Y006087D01*
X032335Y006136D01*
X032420Y006189D01*
X032503Y006245D01*
X032584Y006304D01*
X032662Y006366D01*
X032738Y006431D01*
X032812Y006499D01*
X032882Y006570D01*
X032950Y006644D01*
X033015Y006721D01*
X033076Y006799D01*
X033135Y006881D01*
X033190Y006964D01*
X033242Y007050D01*
X033291Y007137D01*
X033336Y007227D01*
X033377Y007318D01*
X033415Y007411D01*
X033449Y007505D01*
X033480Y007600D01*
X033506Y007697D01*
X033529Y007794D01*
X033548Y007892D01*
X033563Y007991D01*
X033574Y008091D01*
X033581Y008191D01*
X033585Y008291D01*
X033584Y008391D01*
X033580Y008491D01*
X033571Y008591D01*
X033558Y008690D01*
X033542Y008789D01*
X033522Y008887D01*
X033498Y008984D01*
X033470Y009080D01*
X033438Y009175D01*
X033403Y009269D01*
X033364Y009361D01*
X033321Y009451D01*
X033275Y009540D01*
X033225Y009627D01*
X033172Y009712D01*
X033116Y009795D01*
X033056Y009875D01*
X032993Y009953D01*
X032928Y010029D01*
X032859Y010102D01*
X032787Y010172D01*
X032713Y010239D01*
X032636Y010303D01*
X032557Y010364D01*
X032475Y010422D01*
X032392Y010477D01*
X032306Y010528D01*
X032180Y007616D02*
X031865Y007616D01*
X031204Y007616D02*
X030889Y007616D01*
X031046Y007773D02*
X031046Y007458D01*
X031160Y004745D02*
X029960Y004745D01*
X029960Y004145D01*
X031160Y004145D01*
X031160Y004745D01*
X026251Y005211D02*
X020031Y005211D01*
X020031Y011037D01*
X020033Y011076D01*
X020039Y011114D01*
X020048Y011151D01*
X020061Y011188D01*
X020078Y011223D01*
X020097Y011256D01*
X020120Y011287D01*
X020146Y011316D01*
X020175Y011342D01*
X020206Y011365D01*
X020239Y011384D01*
X020274Y011401D01*
X020311Y011414D01*
X020348Y011423D01*
X020386Y011429D01*
X020425Y011431D01*
X025858Y011431D01*
X025897Y011429D01*
X025935Y011423D01*
X025972Y011414D01*
X026009Y011401D01*
X026044Y011384D01*
X026077Y011365D01*
X026108Y011342D01*
X026137Y011316D01*
X026163Y011287D01*
X026186Y011256D01*
X026205Y011223D01*
X026222Y011188D01*
X026235Y011151D01*
X026244Y011114D01*
X026250Y011076D01*
X026252Y011037D01*
X026251Y011037D02*
X026251Y005211D01*
X024275Y007612D02*
X023960Y007612D01*
X023299Y007612D02*
X022984Y007612D01*
X023141Y007770D02*
X023141Y007455D01*
X021881Y010525D02*
X021795Y010474D01*
X021712Y010419D01*
X021630Y010361D01*
X021551Y010300D01*
X021474Y010236D01*
X021400Y010169D01*
X021328Y010099D01*
X021259Y010026D01*
X021194Y009950D01*
X021131Y009872D01*
X021071Y009792D01*
X021015Y009709D01*
X020962Y009624D01*
X020912Y009537D01*
X020866Y009448D01*
X020823Y009358D01*
X020784Y009266D01*
X020749Y009172D01*
X020717Y009077D01*
X020689Y008981D01*
X020665Y008884D01*
X020645Y008786D01*
X020629Y008687D01*
X020616Y008588D01*
X020607Y008488D01*
X020603Y008388D01*
X020602Y008288D01*
X020606Y008188D01*
X020613Y008088D01*
X020624Y007988D01*
X020639Y007889D01*
X020658Y007791D01*
X020681Y007694D01*
X020707Y007597D01*
X020738Y007502D01*
X020772Y007408D01*
X020810Y007315D01*
X020851Y007224D01*
X020896Y007134D01*
X020945Y007047D01*
X020997Y006961D01*
X021052Y006878D01*
X021111Y006796D01*
X021172Y006718D01*
X021237Y006641D01*
X021305Y006567D01*
X021375Y006496D01*
X021449Y006428D01*
X021525Y006363D01*
X021603Y006301D01*
X021684Y006242D01*
X021767Y006186D01*
X021852Y006133D01*
X021939Y006084D01*
X022029Y006039D01*
X022119Y005997D01*
X022212Y005958D01*
X022306Y005923D01*
X022401Y005892D01*
X022497Y005865D01*
X022595Y005841D01*
X022693Y005822D01*
X022792Y005806D01*
X022891Y005794D01*
X022991Y005786D01*
X023091Y005782D01*
X023191Y005782D01*
X023291Y005786D01*
X023391Y005794D01*
X023490Y005806D01*
X023589Y005822D01*
X023687Y005841D01*
X023785Y005865D01*
X023881Y005892D01*
X023976Y005923D01*
X024070Y005958D01*
X024163Y005997D01*
X024253Y006039D01*
X024343Y006084D01*
X024430Y006133D01*
X024515Y006186D01*
X024598Y006242D01*
X024679Y006301D01*
X024757Y006363D01*
X024833Y006428D01*
X024907Y006496D01*
X024977Y006567D01*
X025045Y006641D01*
X025110Y006718D01*
X025171Y006796D01*
X025230Y006878D01*
X025285Y006961D01*
X025337Y007047D01*
X025386Y007134D01*
X025431Y007224D01*
X025472Y007315D01*
X025510Y007408D01*
X025544Y007502D01*
X025575Y007597D01*
X025601Y007694D01*
X025624Y007791D01*
X025643Y007889D01*
X025658Y007988D01*
X025669Y008088D01*
X025676Y008188D01*
X025680Y008288D01*
X025679Y008388D01*
X025675Y008488D01*
X025666Y008588D01*
X025653Y008687D01*
X025637Y008786D01*
X025617Y008884D01*
X025593Y008981D01*
X025565Y009077D01*
X025533Y009172D01*
X025498Y009266D01*
X025459Y009358D01*
X025416Y009448D01*
X025370Y009537D01*
X025320Y009624D01*
X025267Y009709D01*
X025211Y009792D01*
X025151Y009872D01*
X025088Y009950D01*
X025023Y010026D01*
X024954Y010099D01*
X024882Y010169D01*
X024808Y010236D01*
X024731Y010300D01*
X024652Y010361D01*
X024570Y010419D01*
X024487Y010474D01*
X024401Y010525D01*
X024401Y010526D02*
X021881Y010526D01*
X018302Y011058D02*
X018302Y005231D01*
X012081Y005231D01*
X012081Y011058D01*
X012083Y011097D01*
X012089Y011135D01*
X012098Y011172D01*
X012111Y011209D01*
X012128Y011244D01*
X012147Y011277D01*
X012170Y011308D01*
X012196Y011337D01*
X012225Y011363D01*
X012256Y011386D01*
X012289Y011405D01*
X012324Y011422D01*
X012361Y011435D01*
X012398Y011444D01*
X012436Y011450D01*
X012475Y011452D01*
X017908Y011452D01*
X017947Y011450D01*
X017985Y011444D01*
X018022Y011435D01*
X018059Y011422D01*
X018094Y011405D01*
X018127Y011386D01*
X018158Y011363D01*
X018187Y011337D01*
X018213Y011308D01*
X018236Y011277D01*
X018255Y011244D01*
X018272Y011209D01*
X018285Y011172D01*
X018294Y011135D01*
X018300Y011097D01*
X018302Y011058D01*
X016452Y010546D02*
X013932Y010546D01*
X013846Y010495D01*
X013763Y010440D01*
X013681Y010382D01*
X013602Y010321D01*
X013525Y010257D01*
X013451Y010190D01*
X013379Y010120D01*
X013310Y010047D01*
X013245Y009971D01*
X013182Y009893D01*
X013122Y009813D01*
X013066Y009730D01*
X013013Y009645D01*
X012963Y009558D01*
X012917Y009469D01*
X012874Y009379D01*
X012835Y009287D01*
X012800Y009193D01*
X012768Y009098D01*
X012740Y009002D01*
X012716Y008905D01*
X012696Y008807D01*
X012680Y008708D01*
X012667Y008609D01*
X012658Y008509D01*
X012654Y008409D01*
X012653Y008309D01*
X012657Y008209D01*
X012664Y008109D01*
X012675Y008009D01*
X012690Y007910D01*
X012709Y007812D01*
X012732Y007715D01*
X012758Y007618D01*
X012789Y007523D01*
X012823Y007429D01*
X012861Y007336D01*
X012902Y007245D01*
X012947Y007155D01*
X012996Y007068D01*
X013048Y006982D01*
X013103Y006899D01*
X013162Y006817D01*
X013223Y006739D01*
X013288Y006662D01*
X013356Y006588D01*
X013426Y006517D01*
X013500Y006449D01*
X013576Y006384D01*
X013654Y006322D01*
X013735Y006263D01*
X013818Y006207D01*
X013903Y006154D01*
X013990Y006105D01*
X014080Y006060D01*
X014170Y006018D01*
X014263Y005979D01*
X014357Y005944D01*
X014452Y005913D01*
X014548Y005886D01*
X014646Y005862D01*
X014744Y005843D01*
X014843Y005827D01*
X014942Y005815D01*
X015042Y005807D01*
X015142Y005803D01*
X015242Y005803D01*
X015342Y005807D01*
X015442Y005815D01*
X015541Y005827D01*
X015640Y005843D01*
X015738Y005862D01*
X015836Y005886D01*
X015932Y005913D01*
X016027Y005944D01*
X016121Y005979D01*
X016214Y006018D01*
X016304Y006060D01*
X016394Y006105D01*
X016481Y006154D01*
X016566Y006207D01*
X016649Y006263D01*
X016730Y006322D01*
X016808Y006384D01*
X016884Y006449D01*
X016958Y006517D01*
X017028Y006588D01*
X017096Y006662D01*
X017161Y006739D01*
X017222Y006817D01*
X017281Y006899D01*
X017336Y006982D01*
X017388Y007068D01*
X017437Y007155D01*
X017482Y007245D01*
X017523Y007336D01*
X017561Y007429D01*
X017595Y007523D01*
X017626Y007618D01*
X017652Y007715D01*
X017675Y007812D01*
X017694Y007910D01*
X017709Y008009D01*
X017720Y008109D01*
X017727Y008209D01*
X017731Y008309D01*
X017730Y008409D01*
X017726Y008509D01*
X017717Y008609D01*
X017704Y008708D01*
X017688Y008807D01*
X017668Y008905D01*
X017644Y009002D01*
X017616Y009098D01*
X017584Y009193D01*
X017549Y009287D01*
X017510Y009379D01*
X017467Y009469D01*
X017421Y009558D01*
X017371Y009645D01*
X017318Y009730D01*
X017262Y009813D01*
X017202Y009893D01*
X017139Y009971D01*
X017074Y010047D01*
X017005Y010120D01*
X016933Y010190D01*
X016859Y010257D01*
X016782Y010321D01*
X016703Y010382D01*
X016621Y010440D01*
X016538Y010495D01*
X016452Y010546D01*
X016326Y007633D02*
X016011Y007633D01*
X015349Y007633D02*
X015034Y007633D01*
X015192Y007476D02*
X015192Y007791D01*
X015270Y004854D02*
X014070Y004854D01*
X014070Y004254D01*
X015270Y004254D01*
X015270Y004854D01*
X014570Y003014D02*
X013370Y003014D01*
X013370Y002414D01*
X014570Y002414D01*
X014570Y003014D01*
X010014Y005210D02*
X003794Y005210D01*
X003794Y011037D01*
X003793Y011037D02*
X003795Y011076D01*
X003801Y011114D01*
X003810Y011151D01*
X003823Y011188D01*
X003840Y011223D01*
X003859Y011256D01*
X003882Y011287D01*
X003908Y011316D01*
X003937Y011342D01*
X003968Y011365D01*
X004001Y011384D01*
X004036Y011401D01*
X004073Y011414D01*
X004110Y011423D01*
X004148Y011429D01*
X004187Y011431D01*
X009620Y011431D01*
X009659Y011429D01*
X009697Y011423D01*
X009734Y011414D01*
X009771Y011401D01*
X009806Y011384D01*
X009839Y011365D01*
X009870Y011342D01*
X009899Y011316D01*
X009925Y011287D01*
X009948Y011256D01*
X009967Y011223D01*
X009984Y011188D01*
X009997Y011151D01*
X010006Y011114D01*
X010012Y011076D01*
X010014Y011037D01*
X010014Y005210D01*
X006995Y004758D02*
X006995Y004158D01*
X005795Y004158D01*
X005795Y004758D01*
X006995Y004758D01*
X006904Y007454D02*
X006904Y007769D01*
X006746Y007612D02*
X007061Y007612D01*
X007723Y007612D02*
X008038Y007612D01*
X008164Y010524D02*
X008250Y010473D01*
X008333Y010418D01*
X008415Y010360D01*
X008494Y010299D01*
X008571Y010235D01*
X008645Y010168D01*
X008717Y010098D01*
X008786Y010025D01*
X008851Y009949D01*
X008914Y009871D01*
X008974Y009791D01*
X009030Y009708D01*
X009083Y009623D01*
X009133Y009536D01*
X009179Y009447D01*
X009222Y009357D01*
X009261Y009265D01*
X009296Y009171D01*
X009328Y009076D01*
X009356Y008980D01*
X009380Y008883D01*
X009400Y008785D01*
X009416Y008686D01*
X009429Y008587D01*
X009438Y008487D01*
X009442Y008387D01*
X009443Y008287D01*
X009439Y008187D01*
X009432Y008087D01*
X009421Y007987D01*
X009406Y007888D01*
X009387Y007790D01*
X009364Y007693D01*
X009338Y007596D01*
X009307Y007501D01*
X009273Y007407D01*
X009235Y007314D01*
X009194Y007223D01*
X009149Y007133D01*
X009100Y007046D01*
X009048Y006960D01*
X008993Y006877D01*
X008934Y006795D01*
X008873Y006717D01*
X008808Y006640D01*
X008740Y006566D01*
X008670Y006495D01*
X008596Y006427D01*
X008520Y006362D01*
X008442Y006300D01*
X008361Y006241D01*
X008278Y006185D01*
X008193Y006132D01*
X008106Y006083D01*
X008016Y006038D01*
X007926Y005996D01*
X007833Y005957D01*
X007739Y005922D01*
X007644Y005891D01*
X007548Y005864D01*
X007450Y005840D01*
X007352Y005821D01*
X007253Y005805D01*
X007154Y005793D01*
X007054Y005785D01*
X006954Y005781D01*
X006854Y005781D01*
X006754Y005785D01*
X006654Y005793D01*
X006555Y005805D01*
X006456Y005821D01*
X006358Y005840D01*
X006260Y005864D01*
X006164Y005891D01*
X006069Y005922D01*
X005975Y005957D01*
X005882Y005996D01*
X005792Y006038D01*
X005702Y006083D01*
X005615Y006132D01*
X005530Y006185D01*
X005447Y006241D01*
X005366Y006300D01*
X005288Y006362D01*
X005212Y006427D01*
X005138Y006495D01*
X005068Y006566D01*
X005000Y006640D01*
X004935Y006717D01*
X004874Y006795D01*
X004815Y006877D01*
X004760Y006960D01*
X004708Y007046D01*
X004659Y007133D01*
X004614Y007223D01*
X004573Y007314D01*
X004535Y007407D01*
X004501Y007501D01*
X004470Y007596D01*
X004444Y007693D01*
X004421Y007790D01*
X004402Y007888D01*
X004387Y007987D01*
X004376Y008087D01*
X004369Y008187D01*
X004365Y008287D01*
X004366Y008387D01*
X004370Y008487D01*
X004379Y008587D01*
X004392Y008686D01*
X004408Y008785D01*
X004428Y008883D01*
X004452Y008980D01*
X004480Y009076D01*
X004512Y009171D01*
X004547Y009265D01*
X004586Y009357D01*
X004629Y009447D01*
X004675Y009536D01*
X004725Y009623D01*
X004778Y009708D01*
X004834Y009791D01*
X004894Y009871D01*
X004957Y009949D01*
X005022Y010025D01*
X005091Y010098D01*
X005163Y010168D01*
X005237Y010235D01*
X005314Y010299D01*
X005393Y010360D01*
X005475Y010418D01*
X005558Y010473D01*
X005644Y010524D01*
X005644Y010525D02*
X008164Y010525D01*
X009917Y013684D02*
X003697Y013684D01*
X003697Y019510D01*
X003699Y019549D01*
X003705Y019587D01*
X003714Y019624D01*
X003727Y019661D01*
X003744Y019696D01*
X003763Y019729D01*
X003786Y019760D01*
X003812Y019789D01*
X003841Y019815D01*
X003872Y019838D01*
X003905Y019857D01*
X003940Y019874D01*
X003977Y019887D01*
X004014Y019896D01*
X004052Y019902D01*
X004091Y019904D01*
X009524Y019904D01*
X009563Y019902D01*
X009601Y019896D01*
X009638Y019887D01*
X009675Y019874D01*
X009710Y019857D01*
X009743Y019838D01*
X009774Y019815D01*
X009803Y019789D01*
X009829Y019760D01*
X009852Y019729D01*
X009871Y019696D01*
X009888Y019661D01*
X009901Y019624D01*
X009910Y019587D01*
X009916Y019549D01*
X009918Y019510D01*
X009917Y019510D02*
X009917Y013684D01*
X011904Y013730D02*
X018125Y013730D01*
X018125Y019557D01*
X018123Y019596D01*
X018117Y019634D01*
X018108Y019671D01*
X018095Y019708D01*
X018078Y019743D01*
X018059Y019776D01*
X018036Y019807D01*
X018010Y019836D01*
X017981Y019862D01*
X017950Y019885D01*
X017917Y019904D01*
X017882Y019921D01*
X017845Y019934D01*
X017808Y019943D01*
X017770Y019949D01*
X017731Y019951D01*
X012298Y019951D01*
X012259Y019949D01*
X012221Y019943D01*
X012184Y019934D01*
X012147Y019921D01*
X012112Y019904D01*
X012079Y019885D01*
X012048Y019862D01*
X012019Y019836D01*
X011993Y019807D01*
X011970Y019776D01*
X011951Y019743D01*
X011934Y019708D01*
X011921Y019671D01*
X011912Y019634D01*
X011906Y019596D01*
X011904Y019557D01*
X011904Y013730D01*
X014857Y016132D02*
X015172Y016132D01*
X015014Y016289D02*
X015014Y015974D01*
X015833Y016132D02*
X016148Y016132D01*
X016274Y019044D02*
X016360Y018993D01*
X016443Y018938D01*
X016525Y018880D01*
X016604Y018819D01*
X016681Y018755D01*
X016755Y018688D01*
X016827Y018618D01*
X016896Y018545D01*
X016961Y018469D01*
X017024Y018391D01*
X017084Y018311D01*
X017140Y018228D01*
X017193Y018143D01*
X017243Y018056D01*
X017289Y017967D01*
X017332Y017877D01*
X017371Y017785D01*
X017406Y017691D01*
X017438Y017596D01*
X017466Y017500D01*
X017490Y017403D01*
X017510Y017305D01*
X017526Y017206D01*
X017539Y017107D01*
X017548Y017007D01*
X017552Y016907D01*
X017553Y016807D01*
X017549Y016707D01*
X017542Y016607D01*
X017531Y016507D01*
X017516Y016408D01*
X017497Y016310D01*
X017474Y016213D01*
X017448Y016116D01*
X017417Y016021D01*
X017383Y015927D01*
X017345Y015834D01*
X017304Y015743D01*
X017259Y015653D01*
X017210Y015566D01*
X017158Y015480D01*
X017103Y015397D01*
X017044Y015315D01*
X016983Y015237D01*
X016918Y015160D01*
X016850Y015086D01*
X016780Y015015D01*
X016706Y014947D01*
X016630Y014882D01*
X016552Y014820D01*
X016471Y014761D01*
X016388Y014705D01*
X016303Y014652D01*
X016216Y014603D01*
X016126Y014558D01*
X016036Y014516D01*
X015943Y014477D01*
X015849Y014442D01*
X015754Y014411D01*
X015658Y014384D01*
X015560Y014360D01*
X015462Y014341D01*
X015363Y014325D01*
X015264Y014313D01*
X015164Y014305D01*
X015064Y014301D01*
X014964Y014301D01*
X014864Y014305D01*
X014764Y014313D01*
X014665Y014325D01*
X014566Y014341D01*
X014468Y014360D01*
X014370Y014384D01*
X014274Y014411D01*
X014179Y014442D01*
X014085Y014477D01*
X013992Y014516D01*
X013902Y014558D01*
X013812Y014603D01*
X013725Y014652D01*
X013640Y014705D01*
X013557Y014761D01*
X013476Y014820D01*
X013398Y014882D01*
X013322Y014947D01*
X013248Y015015D01*
X013178Y015086D01*
X013110Y015160D01*
X013045Y015237D01*
X012984Y015315D01*
X012925Y015397D01*
X012870Y015480D01*
X012818Y015566D01*
X012769Y015653D01*
X012724Y015743D01*
X012683Y015834D01*
X012645Y015927D01*
X012611Y016021D01*
X012580Y016116D01*
X012554Y016213D01*
X012531Y016310D01*
X012512Y016408D01*
X012497Y016507D01*
X012486Y016607D01*
X012479Y016707D01*
X012475Y016807D01*
X012476Y016907D01*
X012480Y017007D01*
X012489Y017107D01*
X012502Y017206D01*
X012518Y017305D01*
X012538Y017403D01*
X012562Y017500D01*
X012590Y017596D01*
X012622Y017691D01*
X012657Y017785D01*
X012696Y017877D01*
X012739Y017967D01*
X012785Y018056D01*
X012835Y018143D01*
X012888Y018228D01*
X012944Y018311D01*
X013004Y018391D01*
X013067Y018469D01*
X013132Y018545D01*
X013201Y018618D01*
X013273Y018688D01*
X013347Y018755D01*
X013424Y018819D01*
X013503Y018880D01*
X013585Y018938D01*
X013668Y018993D01*
X013754Y019044D01*
X013754Y019045D02*
X016274Y019045D01*
X014881Y020289D02*
X014881Y020889D01*
X013681Y020889D01*
X013681Y020289D01*
X014881Y020289D01*
X020029Y019600D02*
X020029Y013773D01*
X026250Y013773D01*
X026250Y019600D01*
X026248Y019639D01*
X026242Y019677D01*
X026233Y019714D01*
X026220Y019751D01*
X026203Y019786D01*
X026184Y019819D01*
X026161Y019850D01*
X026135Y019879D01*
X026106Y019905D01*
X026075Y019928D01*
X026042Y019947D01*
X026007Y019964D01*
X025970Y019977D01*
X025933Y019986D01*
X025895Y019992D01*
X025856Y019994D01*
X020423Y019994D01*
X020384Y019992D01*
X020346Y019986D01*
X020309Y019977D01*
X020272Y019964D01*
X020237Y019947D01*
X020204Y019928D01*
X020173Y019905D01*
X020144Y019879D01*
X020118Y019850D01*
X020095Y019819D01*
X020076Y019786D01*
X020059Y019751D01*
X020046Y019714D01*
X020037Y019677D01*
X020031Y019639D01*
X020029Y019600D01*
X021880Y019088D02*
X024399Y019088D01*
X023065Y020281D02*
X023065Y020881D01*
X021865Y020881D01*
X021865Y020281D01*
X023065Y020281D01*
X021879Y019087D02*
X021793Y019036D01*
X021710Y018981D01*
X021628Y018923D01*
X021549Y018862D01*
X021472Y018798D01*
X021398Y018731D01*
X021326Y018661D01*
X021257Y018588D01*
X021192Y018512D01*
X021129Y018434D01*
X021069Y018354D01*
X021013Y018271D01*
X020960Y018186D01*
X020910Y018099D01*
X020864Y018010D01*
X020821Y017920D01*
X020782Y017828D01*
X020747Y017734D01*
X020715Y017639D01*
X020687Y017543D01*
X020663Y017446D01*
X020643Y017348D01*
X020627Y017249D01*
X020614Y017150D01*
X020605Y017050D01*
X020601Y016950D01*
X020600Y016850D01*
X020604Y016750D01*
X020611Y016650D01*
X020622Y016550D01*
X020637Y016451D01*
X020656Y016353D01*
X020679Y016256D01*
X020705Y016159D01*
X020736Y016064D01*
X020770Y015970D01*
X020808Y015877D01*
X020849Y015786D01*
X020894Y015696D01*
X020943Y015609D01*
X020995Y015523D01*
X021050Y015440D01*
X021109Y015358D01*
X021170Y015280D01*
X021235Y015203D01*
X021303Y015129D01*
X021373Y015058D01*
X021447Y014990D01*
X021523Y014925D01*
X021601Y014863D01*
X021682Y014804D01*
X021765Y014748D01*
X021850Y014695D01*
X021937Y014646D01*
X022027Y014601D01*
X022117Y014559D01*
X022210Y014520D01*
X022304Y014485D01*
X022399Y014454D01*
X022495Y014427D01*
X022593Y014403D01*
X022691Y014384D01*
X022790Y014368D01*
X022889Y014356D01*
X022989Y014348D01*
X023089Y014344D01*
X023189Y014344D01*
X023289Y014348D01*
X023389Y014356D01*
X023488Y014368D01*
X023587Y014384D01*
X023685Y014403D01*
X023783Y014427D01*
X023879Y014454D01*
X023974Y014485D01*
X024068Y014520D01*
X024161Y014559D01*
X024251Y014601D01*
X024341Y014646D01*
X024428Y014695D01*
X024513Y014748D01*
X024596Y014804D01*
X024677Y014863D01*
X024755Y014925D01*
X024831Y014990D01*
X024905Y015058D01*
X024975Y015129D01*
X025043Y015203D01*
X025108Y015280D01*
X025169Y015358D01*
X025228Y015440D01*
X025283Y015523D01*
X025335Y015609D01*
X025384Y015696D01*
X025429Y015786D01*
X025470Y015877D01*
X025508Y015970D01*
X025542Y016064D01*
X025573Y016159D01*
X025599Y016256D01*
X025622Y016353D01*
X025641Y016451D01*
X025656Y016550D01*
X025667Y016650D01*
X025674Y016750D01*
X025678Y016850D01*
X025677Y016950D01*
X025673Y017050D01*
X025664Y017150D01*
X025651Y017249D01*
X025635Y017348D01*
X025615Y017446D01*
X025591Y017543D01*
X025563Y017639D01*
X025531Y017734D01*
X025496Y017828D01*
X025457Y017920D01*
X025414Y018010D01*
X025368Y018099D01*
X025318Y018186D01*
X025265Y018271D01*
X025209Y018354D01*
X025149Y018434D01*
X025086Y018512D01*
X025021Y018588D01*
X024952Y018661D01*
X024880Y018731D01*
X024806Y018798D01*
X024729Y018862D01*
X024650Y018923D01*
X024568Y018981D01*
X024485Y019036D01*
X024399Y019087D01*
X024273Y016175D02*
X023958Y016175D01*
X023297Y016175D02*
X022982Y016175D01*
X023139Y016332D02*
X023139Y016017D01*
X027885Y013773D02*
X034106Y013773D01*
X034106Y019600D01*
X034104Y019639D01*
X034098Y019677D01*
X034089Y019714D01*
X034076Y019751D01*
X034059Y019786D01*
X034040Y019819D01*
X034017Y019850D01*
X033991Y019879D01*
X033962Y019905D01*
X033931Y019928D01*
X033898Y019947D01*
X033863Y019964D01*
X033826Y019977D01*
X033789Y019986D01*
X033751Y019992D01*
X033712Y019994D01*
X028279Y019994D01*
X028240Y019992D01*
X028202Y019986D01*
X028165Y019977D01*
X028128Y019964D01*
X028093Y019947D01*
X028060Y019928D01*
X028029Y019905D01*
X028000Y019879D01*
X027974Y019850D01*
X027951Y019819D01*
X027932Y019786D01*
X027915Y019751D01*
X027902Y019714D01*
X027893Y019677D01*
X027887Y019639D01*
X027885Y019600D01*
X027885Y013773D01*
X030838Y016175D02*
X031153Y016175D01*
X030996Y016332D02*
X030996Y016017D01*
X031815Y016175D02*
X032130Y016175D01*
X032256Y019087D02*
X032342Y019036D01*
X032425Y018981D01*
X032507Y018923D01*
X032586Y018862D01*
X032663Y018798D01*
X032737Y018731D01*
X032809Y018661D01*
X032878Y018588D01*
X032943Y018512D01*
X033006Y018434D01*
X033066Y018354D01*
X033122Y018271D01*
X033175Y018186D01*
X033225Y018099D01*
X033271Y018010D01*
X033314Y017920D01*
X033353Y017828D01*
X033388Y017734D01*
X033420Y017639D01*
X033448Y017543D01*
X033472Y017446D01*
X033492Y017348D01*
X033508Y017249D01*
X033521Y017150D01*
X033530Y017050D01*
X033534Y016950D01*
X033535Y016850D01*
X033531Y016750D01*
X033524Y016650D01*
X033513Y016550D01*
X033498Y016451D01*
X033479Y016353D01*
X033456Y016256D01*
X033430Y016159D01*
X033399Y016064D01*
X033365Y015970D01*
X033327Y015877D01*
X033286Y015786D01*
X033241Y015696D01*
X033192Y015609D01*
X033140Y015523D01*
X033085Y015440D01*
X033026Y015358D01*
X032965Y015280D01*
X032900Y015203D01*
X032832Y015129D01*
X032762Y015058D01*
X032688Y014990D01*
X032612Y014925D01*
X032534Y014863D01*
X032453Y014804D01*
X032370Y014748D01*
X032285Y014695D01*
X032198Y014646D01*
X032108Y014601D01*
X032018Y014559D01*
X031925Y014520D01*
X031831Y014485D01*
X031736Y014454D01*
X031640Y014427D01*
X031542Y014403D01*
X031444Y014384D01*
X031345Y014368D01*
X031246Y014356D01*
X031146Y014348D01*
X031046Y014344D01*
X030946Y014344D01*
X030846Y014348D01*
X030746Y014356D01*
X030647Y014368D01*
X030548Y014384D01*
X030450Y014403D01*
X030352Y014427D01*
X030256Y014454D01*
X030161Y014485D01*
X030067Y014520D01*
X029974Y014559D01*
X029884Y014601D01*
X029794Y014646D01*
X029707Y014695D01*
X029622Y014748D01*
X029539Y014804D01*
X029458Y014863D01*
X029380Y014925D01*
X029304Y014990D01*
X029230Y015058D01*
X029160Y015129D01*
X029092Y015203D01*
X029027Y015280D01*
X028966Y015358D01*
X028907Y015440D01*
X028852Y015523D01*
X028800Y015609D01*
X028751Y015696D01*
X028706Y015786D01*
X028665Y015877D01*
X028627Y015970D01*
X028593Y016064D01*
X028562Y016159D01*
X028536Y016256D01*
X028513Y016353D01*
X028494Y016451D01*
X028479Y016550D01*
X028468Y016650D01*
X028461Y016750D01*
X028457Y016850D01*
X028458Y016950D01*
X028462Y017050D01*
X028471Y017150D01*
X028484Y017249D01*
X028500Y017348D01*
X028520Y017446D01*
X028544Y017543D01*
X028572Y017639D01*
X028604Y017734D01*
X028639Y017828D01*
X028678Y017920D01*
X028721Y018010D01*
X028767Y018099D01*
X028817Y018186D01*
X028870Y018271D01*
X028926Y018354D01*
X028986Y018434D01*
X029049Y018512D01*
X029114Y018588D01*
X029183Y018661D01*
X029255Y018731D01*
X029329Y018798D01*
X029406Y018862D01*
X029485Y018923D01*
X029567Y018981D01*
X029650Y019036D01*
X029736Y019087D01*
X029736Y019088D02*
X032256Y019088D01*
X031085Y020281D02*
X031085Y020881D01*
X029885Y020881D01*
X029885Y020281D01*
X031085Y020281D01*
X036576Y020642D02*
X036576Y020681D01*
X036578Y020697D01*
X036582Y020712D01*
X036590Y020726D01*
X036601Y020739D01*
X036614Y020748D01*
X036628Y020755D01*
X036644Y020759D01*
X037265Y020848D01*
X037757Y020848D01*
X037757Y021242D01*
X037265Y021242D01*
X036644Y021330D01*
X036628Y021334D01*
X036614Y021341D01*
X036601Y021350D01*
X036590Y021363D01*
X036582Y021377D01*
X036578Y021392D01*
X036576Y021408D01*
X036576Y021448D01*
X036578Y021465D01*
X036583Y021480D01*
X036591Y021495D01*
X036603Y021507D01*
X036616Y021517D01*
X036632Y021523D01*
X036648Y021527D01*
X036665Y021526D01*
X037364Y021439D01*
X038446Y021439D01*
X038472Y021437D01*
X038497Y021432D01*
X038521Y021424D01*
X038545Y021413D01*
X038566Y021398D01*
X038585Y021381D01*
X038602Y021362D01*
X038617Y021341D01*
X038628Y021317D01*
X038636Y021293D01*
X038641Y021268D01*
X038643Y021242D01*
X038643Y020848D01*
X038641Y020822D01*
X038636Y020797D01*
X038628Y020773D01*
X038617Y020750D01*
X038602Y020728D01*
X038585Y020709D01*
X038566Y020692D01*
X038545Y020677D01*
X038521Y020666D01*
X038497Y020658D01*
X038472Y020653D01*
X038446Y020651D01*
X037364Y020651D01*
X036665Y020564D01*
X036648Y020563D01*
X036632Y020567D01*
X036616Y020573D01*
X036603Y020583D01*
X036591Y020595D01*
X036583Y020610D01*
X036578Y020625D01*
X036576Y020642D01*
X036773Y020789D02*
X036773Y021301D01*
X037757Y021242D02*
X038053Y021242D01*
X038053Y020848D01*
X038151Y020848D01*
X038151Y021242D01*
X038053Y021242D01*
X038151Y021242D02*
X038348Y021242D01*
X038348Y020848D01*
X038446Y020848D01*
X038446Y021242D01*
X038348Y021242D01*
X038348Y020848D02*
X038151Y020848D01*
X038053Y020848D02*
X037757Y020848D01*
X037935Y022285D02*
X037541Y022285D01*
X023013Y004738D02*
X021813Y004738D01*
X021813Y004138D01*
X023013Y004138D01*
X023013Y004738D01*
X007941Y016085D02*
X007626Y016085D01*
X006965Y016085D02*
X006650Y016085D01*
X006807Y016243D02*
X006807Y015928D01*
X005547Y018998D02*
X005461Y018947D01*
X005378Y018892D01*
X005296Y018834D01*
X005217Y018773D01*
X005140Y018709D01*
X005066Y018642D01*
X004994Y018572D01*
X004925Y018499D01*
X004860Y018423D01*
X004797Y018345D01*
X004737Y018265D01*
X004681Y018182D01*
X004628Y018097D01*
X004578Y018010D01*
X004532Y017921D01*
X004489Y017831D01*
X004450Y017739D01*
X004415Y017645D01*
X004383Y017550D01*
X004355Y017454D01*
X004331Y017357D01*
X004311Y017259D01*
X004295Y017160D01*
X004282Y017061D01*
X004273Y016961D01*
X004269Y016861D01*
X004268Y016761D01*
X004272Y016661D01*
X004279Y016561D01*
X004290Y016461D01*
X004305Y016362D01*
X004324Y016264D01*
X004347Y016167D01*
X004373Y016070D01*
X004404Y015975D01*
X004438Y015881D01*
X004476Y015788D01*
X004517Y015697D01*
X004562Y015607D01*
X004611Y015520D01*
X004663Y015434D01*
X004718Y015351D01*
X004777Y015269D01*
X004838Y015191D01*
X004903Y015114D01*
X004971Y015040D01*
X005041Y014969D01*
X005115Y014901D01*
X005191Y014836D01*
X005269Y014774D01*
X005350Y014715D01*
X005433Y014659D01*
X005518Y014606D01*
X005605Y014557D01*
X005695Y014512D01*
X005785Y014470D01*
X005878Y014431D01*
X005972Y014396D01*
X006067Y014365D01*
X006163Y014338D01*
X006261Y014314D01*
X006359Y014295D01*
X006458Y014279D01*
X006557Y014267D01*
X006657Y014259D01*
X006757Y014255D01*
X006857Y014255D01*
X006957Y014259D01*
X007057Y014267D01*
X007156Y014279D01*
X007255Y014295D01*
X007353Y014314D01*
X007451Y014338D01*
X007547Y014365D01*
X007642Y014396D01*
X007736Y014431D01*
X007829Y014470D01*
X007919Y014512D01*
X008009Y014557D01*
X008096Y014606D01*
X008181Y014659D01*
X008264Y014715D01*
X008345Y014774D01*
X008423Y014836D01*
X008499Y014901D01*
X008573Y014969D01*
X008643Y015040D01*
X008711Y015114D01*
X008776Y015191D01*
X008837Y015269D01*
X008896Y015351D01*
X008951Y015434D01*
X009003Y015520D01*
X009052Y015607D01*
X009097Y015697D01*
X009138Y015788D01*
X009176Y015881D01*
X009210Y015975D01*
X009241Y016070D01*
X009267Y016167D01*
X009290Y016264D01*
X009309Y016362D01*
X009324Y016461D01*
X009335Y016561D01*
X009342Y016661D01*
X009346Y016761D01*
X009345Y016861D01*
X009341Y016961D01*
X009332Y017061D01*
X009319Y017160D01*
X009303Y017259D01*
X009283Y017357D01*
X009259Y017454D01*
X009231Y017550D01*
X009199Y017645D01*
X009164Y017739D01*
X009125Y017831D01*
X009082Y017921D01*
X009036Y018010D01*
X008986Y018097D01*
X008933Y018182D01*
X008877Y018265D01*
X008817Y018345D01*
X008754Y018423D01*
X008689Y018499D01*
X008620Y018572D01*
X008548Y018642D01*
X008474Y018709D01*
X008397Y018773D01*
X008318Y018834D01*
X008236Y018892D01*
X008153Y018947D01*
X008067Y018998D01*
X008067Y018999D02*
X005547Y018999D01*
X005768Y020312D02*
X005768Y020912D01*
X006968Y020912D01*
X006968Y020312D01*
X005768Y020312D01*
D17*
X006108Y020612D03*
X006628Y020612D03*
X014021Y020589D03*
X014541Y020589D03*
X022205Y020581D03*
X022725Y020581D03*
X030225Y020581D03*
X030745Y020581D03*
X030820Y004445D03*
X030300Y004445D03*
X022673Y004438D03*
X022153Y004438D03*
X014930Y004554D03*
X014410Y004554D03*
X014230Y002714D03*
X013710Y002714D03*
X006655Y004458D03*
X006135Y004458D03*
D18*
X034463Y007755D03*
X035773Y007755D03*
X035773Y008155D03*
X036173Y006985D03*
X035773Y005475D03*
X035773Y005075D03*
X036173Y003565D03*
D19*
X036173Y008440D03*
X035063Y009570D03*
D20*
X035583Y009230D03*
X034873Y008460D03*
X034473Y007760D03*
X035763Y007760D03*
X035763Y008160D03*
X036163Y006980D03*
X035773Y006420D03*
X034863Y006420D03*
X035763Y005470D03*
X035763Y005070D03*
X035773Y004520D03*
X034863Y004520D03*
X036163Y003560D03*
X035773Y002990D03*
X034863Y002990D03*
D21*
X035043Y002805D03*
X035053Y002805D03*
X035063Y002795D03*
X035073Y002795D03*
X035083Y002795D03*
X035093Y002795D03*
X035543Y002795D03*
X035553Y002795D03*
X035563Y002795D03*
X035573Y002795D03*
X035583Y002805D03*
X035593Y002805D03*
X035593Y003175D03*
X035583Y003175D03*
X035573Y003185D03*
X035563Y003185D03*
X035553Y003185D03*
X035553Y003565D03*
X035543Y003565D03*
X035533Y003565D03*
X035523Y003565D03*
X035513Y003565D03*
X035503Y003565D03*
X035493Y003565D03*
X035483Y003565D03*
X035473Y003565D03*
X035463Y003565D03*
X035453Y003565D03*
X035443Y003565D03*
X035433Y003565D03*
X035423Y003565D03*
X035413Y003565D03*
X035403Y003565D03*
X035393Y003565D03*
X035383Y003565D03*
X035373Y003565D03*
X035363Y003565D03*
X035353Y003565D03*
X035343Y003565D03*
X035333Y003565D03*
X035323Y003565D03*
X035313Y003565D03*
X035303Y003565D03*
X035293Y003565D03*
X035283Y003565D03*
X035273Y003565D03*
X035263Y003565D03*
X035253Y003565D03*
X035243Y003565D03*
X035233Y003565D03*
X035223Y003565D03*
X035213Y003565D03*
X035203Y003565D03*
X035193Y003565D03*
X035183Y003565D03*
X035173Y003565D03*
X035163Y003565D03*
X035153Y003565D03*
X035143Y003565D03*
X035133Y003565D03*
X035123Y003565D03*
X035113Y003565D03*
X035103Y003565D03*
X035093Y003565D03*
X035083Y003565D03*
X035073Y003565D03*
X035063Y003565D03*
X035053Y003565D03*
X035043Y003565D03*
X035033Y003565D03*
X035023Y003565D03*
X035013Y003565D03*
X035003Y003565D03*
X034993Y003565D03*
X035043Y003945D03*
X035063Y003955D03*
X035073Y003955D03*
X035103Y003965D03*
X035113Y003965D03*
X035123Y003965D03*
X035133Y003965D03*
X035143Y003965D03*
X035153Y003965D03*
X035163Y003965D03*
X035173Y003965D03*
X035183Y003965D03*
X035193Y003965D03*
X035203Y003965D03*
X035213Y003965D03*
X035223Y003965D03*
X035233Y003965D03*
X035243Y003965D03*
X035253Y003965D03*
X035263Y003965D03*
X035273Y003965D03*
X035283Y003965D03*
X035293Y003965D03*
X035303Y003965D03*
X035313Y003965D03*
X035323Y003965D03*
X035333Y003965D03*
X035343Y003965D03*
X035353Y003965D03*
X035363Y003965D03*
X035373Y003965D03*
X035383Y003965D03*
X035393Y003965D03*
X035403Y003965D03*
X035413Y003965D03*
X035423Y003965D03*
X035433Y003965D03*
X035443Y003965D03*
X035453Y003965D03*
X035463Y003965D03*
X035473Y003965D03*
X035483Y003965D03*
X035493Y003965D03*
X035503Y003965D03*
X035513Y003965D03*
X035523Y003965D03*
X035533Y003965D03*
X035543Y003965D03*
X035573Y003955D03*
X035583Y003955D03*
X035603Y003945D03*
X035603Y003565D03*
X035593Y003565D03*
X035583Y003565D03*
X035573Y003565D03*
X035563Y003565D03*
X035613Y003565D03*
X035623Y003565D03*
X035633Y003565D03*
X035643Y003565D03*
X035653Y003565D03*
X035783Y003565D03*
X035793Y003565D03*
X035803Y003565D03*
X035813Y003565D03*
X035823Y003565D03*
X035833Y003565D03*
X035843Y003565D03*
X035853Y003565D03*
X035863Y003565D03*
X035873Y003565D03*
X035883Y003565D03*
X035893Y003565D03*
X035903Y003565D03*
X035913Y003565D03*
X035923Y003565D03*
X035933Y003565D03*
X035943Y003565D03*
X035953Y003565D03*
X035963Y003565D03*
X035973Y003565D03*
X035983Y003565D03*
X035993Y003565D03*
X036003Y003565D03*
X036013Y003565D03*
X036023Y003565D03*
X036033Y003565D03*
X036043Y003565D03*
X036053Y003565D03*
X036063Y003565D03*
X036073Y003565D03*
X036083Y003565D03*
X036093Y003565D03*
X036103Y003565D03*
X036113Y003565D03*
X036123Y003565D03*
X036133Y003565D03*
X035593Y004335D03*
X035583Y004335D03*
X035573Y004325D03*
X035563Y004325D03*
X035553Y004325D03*
X035543Y004325D03*
X035643Y004655D03*
X035083Y004715D03*
X035073Y004715D03*
X035063Y004715D03*
X035053Y004705D03*
X035043Y004705D03*
X035043Y004335D03*
X035053Y004335D03*
X035063Y004325D03*
X035073Y004325D03*
X035083Y004325D03*
X035093Y004325D03*
X035093Y005075D03*
X035083Y005075D03*
X035073Y005075D03*
X035063Y005075D03*
X035053Y005075D03*
X035043Y005075D03*
X035033Y005075D03*
X035023Y005075D03*
X035013Y005075D03*
X035003Y005075D03*
X034993Y005075D03*
X035103Y005075D03*
X035113Y005075D03*
X035123Y005075D03*
X035133Y005075D03*
X035143Y005075D03*
X035153Y005075D03*
X035163Y005075D03*
X035173Y005075D03*
X035183Y005075D03*
X035193Y005075D03*
X035203Y005075D03*
X035213Y005075D03*
X035223Y005075D03*
X035233Y005075D03*
X035243Y005075D03*
X035253Y005075D03*
X035263Y005075D03*
X035273Y005075D03*
X035283Y005075D03*
X035293Y005075D03*
X035303Y005075D03*
X035313Y005075D03*
X035323Y005075D03*
X035333Y005075D03*
X035343Y005075D03*
X035353Y005075D03*
X035363Y005075D03*
X035373Y005075D03*
X035383Y005075D03*
X035393Y005075D03*
X035403Y005075D03*
X035413Y005075D03*
X035423Y005075D03*
X035433Y005075D03*
X035443Y005075D03*
X035453Y005075D03*
X035463Y005075D03*
X035473Y005075D03*
X035483Y005075D03*
X035493Y005075D03*
X035503Y005075D03*
X035513Y005075D03*
X035523Y005075D03*
X035533Y005075D03*
X035543Y005075D03*
X035553Y005075D03*
X035563Y005075D03*
X035573Y005075D03*
X035583Y005075D03*
X035593Y005075D03*
X035603Y005075D03*
X035613Y005075D03*
X035623Y005075D03*
X035633Y005075D03*
X035643Y005075D03*
X035653Y005075D03*
X035663Y005075D03*
X035673Y005075D03*
X035683Y005075D03*
X035693Y005075D03*
X035703Y005075D03*
X035713Y005075D03*
X035723Y005075D03*
X035733Y005075D03*
X035733Y005475D03*
X035723Y005475D03*
X035713Y005475D03*
X035703Y005475D03*
X035693Y005475D03*
X035683Y005475D03*
X035673Y005475D03*
X035663Y005475D03*
X035653Y005475D03*
X035643Y005475D03*
X035633Y005475D03*
X035623Y005475D03*
X035613Y005475D03*
X035603Y005475D03*
X035593Y005475D03*
X035583Y005475D03*
X035573Y005475D03*
X035563Y005475D03*
X035553Y005475D03*
X035543Y005475D03*
X035533Y005475D03*
X035523Y005475D03*
X035513Y005475D03*
X035503Y005475D03*
X035493Y005475D03*
X035483Y005475D03*
X035473Y005475D03*
X035463Y005475D03*
X035453Y005475D03*
X035443Y005475D03*
X035433Y005475D03*
X035423Y005475D03*
X035413Y005475D03*
X035403Y005475D03*
X035393Y005475D03*
X035383Y005475D03*
X035373Y005475D03*
X035363Y005475D03*
X035353Y005475D03*
X035343Y005475D03*
X035333Y005475D03*
X035323Y005475D03*
X035313Y005475D03*
X035303Y005475D03*
X035293Y005475D03*
X035283Y005475D03*
X035273Y005475D03*
X035263Y005475D03*
X035253Y005475D03*
X035243Y005475D03*
X035233Y005475D03*
X035223Y005475D03*
X035213Y005475D03*
X035203Y005475D03*
X035193Y005475D03*
X035183Y005475D03*
X035173Y005475D03*
X035163Y005475D03*
X035153Y005475D03*
X035143Y005475D03*
X035133Y005475D03*
X035123Y005475D03*
X035113Y005475D03*
X035103Y005475D03*
X035073Y005465D03*
X035063Y005465D03*
X035043Y005455D03*
X035063Y006225D03*
X035073Y006225D03*
X035083Y006225D03*
X035093Y006225D03*
X035053Y006235D03*
X035043Y006235D03*
X035043Y006605D03*
X035053Y006605D03*
X035063Y006615D03*
X035073Y006615D03*
X035083Y006615D03*
X035643Y006555D03*
X035593Y006235D03*
X035583Y006235D03*
X035573Y006225D03*
X035563Y006225D03*
X035553Y006225D03*
X035543Y006225D03*
X035543Y006985D03*
X035533Y006985D03*
X035523Y006985D03*
X035513Y006985D03*
X035503Y006985D03*
X035493Y006985D03*
X035483Y006985D03*
X035473Y006985D03*
X035463Y006985D03*
X035453Y006985D03*
X035443Y006985D03*
X035433Y006985D03*
X035423Y006985D03*
X035413Y006985D03*
X035403Y006985D03*
X035393Y006985D03*
X035383Y006985D03*
X035373Y006985D03*
X035363Y006985D03*
X035353Y006985D03*
X035343Y006985D03*
X035333Y006985D03*
X035323Y006985D03*
X035313Y006985D03*
X035303Y006985D03*
X035293Y006985D03*
X035283Y006985D03*
X035273Y006985D03*
X035263Y006985D03*
X035253Y006985D03*
X035243Y006985D03*
X035233Y006985D03*
X035223Y006985D03*
X035213Y006985D03*
X035203Y006985D03*
X035193Y006985D03*
X035183Y006985D03*
X035173Y006985D03*
X035163Y006985D03*
X035153Y006985D03*
X035143Y006985D03*
X035133Y006985D03*
X035123Y006985D03*
X035113Y006985D03*
X035103Y006985D03*
X035093Y006985D03*
X035083Y006985D03*
X035073Y006985D03*
X035063Y006985D03*
X035053Y006985D03*
X035043Y006985D03*
X035033Y006985D03*
X035023Y006985D03*
X035013Y006985D03*
X035003Y006985D03*
X034993Y006985D03*
X035043Y007365D03*
X035063Y007375D03*
X035073Y007375D03*
X035103Y007385D03*
X035113Y007385D03*
X035123Y007385D03*
X035133Y007385D03*
X035143Y007385D03*
X035153Y007385D03*
X035163Y007385D03*
X035173Y007385D03*
X035183Y007385D03*
X035193Y007385D03*
X035203Y007385D03*
X035213Y007385D03*
X035223Y007385D03*
X035233Y007385D03*
X035243Y007385D03*
X035253Y007385D03*
X035263Y007385D03*
X035273Y007385D03*
X035283Y007385D03*
X035293Y007385D03*
X035303Y007385D03*
X035313Y007385D03*
X035323Y007385D03*
X035333Y007385D03*
X035343Y007385D03*
X035353Y007385D03*
X035363Y007385D03*
X035373Y007385D03*
X035383Y007385D03*
X035393Y007385D03*
X035403Y007385D03*
X035413Y007385D03*
X035423Y007385D03*
X035433Y007385D03*
X035443Y007385D03*
X035453Y007385D03*
X035463Y007385D03*
X035473Y007385D03*
X035483Y007385D03*
X035493Y007385D03*
X035503Y007385D03*
X035513Y007385D03*
X035523Y007385D03*
X035533Y007385D03*
X035543Y007385D03*
X035573Y007375D03*
X035583Y007375D03*
X035603Y007365D03*
X035603Y006985D03*
X035593Y006985D03*
X035583Y006985D03*
X035573Y006985D03*
X035563Y006985D03*
X035553Y006985D03*
X035613Y006985D03*
X035623Y006985D03*
X035633Y006985D03*
X035643Y006985D03*
X035653Y006985D03*
X035783Y006985D03*
X035793Y006985D03*
X035803Y006985D03*
X035813Y006985D03*
X035823Y006985D03*
X035833Y006985D03*
X035843Y006985D03*
X035853Y006985D03*
X035863Y006985D03*
X035873Y006985D03*
X035883Y006985D03*
X035893Y006985D03*
X035903Y006985D03*
X035913Y006985D03*
X035923Y006985D03*
X035933Y006985D03*
X035943Y006985D03*
X035953Y006985D03*
X035963Y006985D03*
X035973Y006985D03*
X035983Y006985D03*
X035993Y006985D03*
X036003Y006985D03*
X036013Y006985D03*
X036023Y006985D03*
X036033Y006985D03*
X036043Y006985D03*
X036053Y006985D03*
X036063Y006985D03*
X036073Y006985D03*
X036083Y006985D03*
X036093Y006985D03*
X036103Y006985D03*
X036113Y006985D03*
X036123Y006985D03*
X036133Y006985D03*
X035733Y007755D03*
X035723Y007755D03*
X035713Y007755D03*
X035703Y007755D03*
X035693Y007755D03*
X035683Y007755D03*
X035673Y007755D03*
X035663Y007755D03*
X035653Y007755D03*
X035643Y007755D03*
X035633Y007755D03*
X035623Y007755D03*
X035613Y007755D03*
X035603Y007755D03*
X035593Y007755D03*
X035583Y007755D03*
X035573Y007755D03*
X035563Y007755D03*
X035553Y007755D03*
X035543Y007755D03*
X035533Y007755D03*
X035523Y007755D03*
X035513Y007755D03*
X035503Y007755D03*
X035493Y007755D03*
X035483Y007755D03*
X035473Y007755D03*
X035463Y007755D03*
X035453Y007755D03*
X035443Y007755D03*
X035433Y007755D03*
X035423Y007755D03*
X035413Y007755D03*
X035403Y007755D03*
X035393Y007755D03*
X035383Y007755D03*
X035373Y007755D03*
X035363Y007755D03*
X035353Y007755D03*
X035343Y007755D03*
X035333Y007755D03*
X035323Y007755D03*
X035313Y007755D03*
X035303Y007755D03*
X035293Y007755D03*
X035283Y007755D03*
X035273Y007755D03*
X035263Y007755D03*
X035253Y007755D03*
X035243Y007755D03*
X035233Y007755D03*
X035223Y007755D03*
X035213Y007755D03*
X035203Y007755D03*
X035193Y007755D03*
X035183Y007755D03*
X035173Y007755D03*
X035163Y007755D03*
X035153Y007755D03*
X035143Y007755D03*
X035133Y007755D03*
X035123Y007755D03*
X035113Y007755D03*
X035103Y007755D03*
X035093Y007755D03*
X035083Y007755D03*
X035073Y007755D03*
X035063Y007755D03*
X035053Y007755D03*
X035043Y007755D03*
X035033Y007755D03*
X035023Y007755D03*
X035013Y007755D03*
X035003Y007755D03*
X034993Y007755D03*
X034863Y007755D03*
X034853Y007755D03*
X034843Y007755D03*
X034833Y007755D03*
X034823Y007755D03*
X034813Y007755D03*
X034803Y007755D03*
X034793Y007755D03*
X034783Y007755D03*
X034773Y007755D03*
X034763Y007755D03*
X034753Y007755D03*
X034743Y007755D03*
X034733Y007755D03*
X034723Y007755D03*
X034713Y007755D03*
X034703Y007755D03*
X034693Y007755D03*
X034683Y007755D03*
X034673Y007755D03*
X034663Y007755D03*
X034653Y007755D03*
X034643Y007755D03*
X034633Y007755D03*
X034623Y007755D03*
X034613Y007755D03*
X034603Y007755D03*
X034593Y007755D03*
X034583Y007755D03*
X034573Y007755D03*
X034563Y007755D03*
X034553Y007755D03*
X034543Y007755D03*
X034533Y007755D03*
X034523Y007755D03*
X034513Y007755D03*
X034503Y007755D03*
X035043Y008135D03*
X035063Y008145D03*
X035073Y008145D03*
X035093Y008155D03*
X035103Y008155D03*
X035113Y008155D03*
X035123Y008155D03*
X035133Y008155D03*
X035143Y008155D03*
X035153Y008155D03*
X035163Y008155D03*
X035173Y008155D03*
X035183Y008155D03*
X035193Y008155D03*
X035203Y008155D03*
X035213Y008155D03*
X035223Y008155D03*
X035233Y008155D03*
X035243Y008155D03*
X035253Y008155D03*
X035263Y008155D03*
X035273Y008155D03*
X035283Y008155D03*
X035293Y008155D03*
X035303Y008155D03*
X035313Y008155D03*
X035323Y008155D03*
X035333Y008155D03*
X035343Y008155D03*
X035353Y008155D03*
X035363Y008155D03*
X035373Y008155D03*
X035383Y008155D03*
X035393Y008155D03*
X035403Y008155D03*
X035413Y008155D03*
X035423Y008155D03*
X035433Y008155D03*
X035443Y008155D03*
X035453Y008155D03*
X035463Y008155D03*
X035473Y008155D03*
X035483Y008155D03*
X035493Y008155D03*
X035503Y008155D03*
X035513Y008155D03*
X035523Y008155D03*
X035533Y008155D03*
X035543Y008155D03*
X035553Y008155D03*
X035563Y008155D03*
X035573Y008155D03*
X035583Y008155D03*
X035593Y008155D03*
X035603Y008155D03*
X035613Y008155D03*
X035623Y008155D03*
X035633Y008155D03*
X035643Y008155D03*
X035653Y008155D03*
X035663Y008155D03*
X035673Y008155D03*
X035683Y008155D03*
X035693Y008155D03*
X035703Y008155D03*
X035713Y008155D03*
X035723Y008155D03*
X035733Y008155D03*
X036163Y008455D03*
X036003Y008615D03*
X035983Y008625D03*
X035973Y008625D03*
X035963Y008635D03*
X035953Y008635D03*
X035943Y008635D03*
X035933Y008635D03*
X035923Y008645D03*
X035913Y008645D03*
X035903Y008645D03*
X035893Y008655D03*
X035883Y008655D03*
X035873Y008655D03*
X035863Y008665D03*
X035853Y008665D03*
X035843Y008665D03*
X035833Y008665D03*
X035823Y008675D03*
X035813Y008675D03*
X035803Y008675D03*
X035793Y008685D03*
X035783Y008685D03*
X035773Y008685D03*
X035753Y008695D03*
X035743Y008695D03*
X035733Y008695D03*
X035723Y008705D03*
X035713Y008705D03*
X035503Y008765D03*
X035493Y008775D03*
X035483Y008775D03*
X035473Y008775D03*
X035453Y008785D03*
X035443Y008785D03*
X035433Y008785D03*
X035423Y008795D03*
X035413Y008795D03*
X035403Y008795D03*
X035393Y008805D03*
X035383Y008805D03*
X035373Y008805D03*
X035353Y008815D03*
X035343Y008815D03*
X035333Y008815D03*
X035323Y008825D03*
X035313Y008825D03*
X035303Y008825D03*
X035293Y008835D03*
X035283Y008835D03*
X035273Y008835D03*
X035253Y008845D03*
X035243Y008845D03*
X035233Y008845D03*
X035223Y008855D03*
X035213Y008855D03*
X035203Y008855D03*
X035193Y008865D03*
X035183Y008865D03*
X035173Y008865D03*
X035153Y008875D03*
X035143Y008875D03*
X035133Y008875D03*
X035123Y008885D03*
X035113Y008885D03*
X035103Y008885D03*
X035093Y008895D03*
X035083Y008895D03*
X035073Y008895D03*
X035053Y008905D03*
X035043Y008905D03*
X035023Y008915D03*
X035013Y008915D03*
X035003Y008915D03*
X034993Y008925D03*
X034983Y008925D03*
X034973Y008925D03*
X034953Y008935D03*
X034943Y008935D03*
X034923Y008945D03*
X034913Y008945D03*
X035043Y009245D03*
X035053Y009245D03*
X035083Y009235D03*
X035093Y009235D03*
X035103Y009235D03*
X035113Y009235D03*
X035143Y009245D03*
X035153Y009245D03*
X035163Y009245D03*
X035173Y009255D03*
X034873Y009415D03*
X035463Y009565D03*
X035473Y009565D03*
X035483Y009575D03*
X035493Y009575D03*
X035503Y009575D03*
X035573Y009575D03*
X035583Y009575D03*
X035603Y009565D03*
X035623Y009235D03*
X035503Y008635D03*
X035493Y008635D03*
X035483Y008635D03*
X035463Y008625D03*
X035453Y008625D03*
X035433Y008615D03*
X035423Y008615D03*
X035413Y008615D03*
X035403Y008605D03*
X035393Y008605D03*
X035383Y008605D03*
X035363Y008595D03*
X035353Y008595D03*
X035333Y008585D03*
X035323Y008585D03*
X035313Y008585D03*
X035293Y008575D03*
X035283Y008575D03*
X035263Y008565D03*
X035253Y008565D03*
X035243Y008565D03*
X035233Y008555D03*
X035223Y008555D03*
X035213Y008555D03*
X035193Y008545D03*
X035183Y008545D03*
X035163Y008535D03*
X035153Y008535D03*
X035143Y008535D03*
X035133Y008525D03*
X035123Y008525D03*
X035113Y008525D03*
X035093Y008515D03*
X035083Y008515D03*
X035063Y008505D03*
X035053Y008505D03*
X035043Y008505D03*
X035033Y008495D03*
X035023Y008495D03*
X035013Y008495D03*
X034993Y008485D03*
X034983Y008485D03*
X034963Y008475D03*
X034953Y008475D03*
X034943Y008475D03*
X034933Y008465D03*
X034923Y008465D03*
X034913Y008465D03*
X035063Y003185D03*
X035073Y003185D03*
X035083Y003185D03*
X035053Y003175D03*
X035043Y003175D03*
D22*
X036143Y003565D03*
X036153Y003565D03*
X035743Y005075D03*
X035743Y005475D03*
X036143Y006985D03*
X036153Y006985D03*
X035743Y007755D03*
X035743Y008155D03*
X034893Y008465D03*
X034893Y008945D03*
X035043Y009575D03*
X034493Y007755D03*
D23*
X035003Y008100D03*
X035003Y007330D03*
X035643Y007330D03*
X035763Y006420D03*
X035643Y006270D03*
X034993Y006270D03*
X034873Y006420D03*
X034993Y006570D03*
X035003Y006580D03*
X035003Y005420D03*
X035003Y004680D03*
X034993Y004670D03*
X034873Y004520D03*
X034993Y004370D03*
X035003Y003910D03*
X035643Y003910D03*
X035643Y004370D03*
X035763Y004520D03*
X035643Y003140D03*
X035763Y002990D03*
X035643Y002840D03*
X034993Y002840D03*
X034873Y002990D03*
X034993Y003140D03*
X036153Y008460D03*
X036043Y008580D03*
X035663Y008700D03*
X034993Y009280D03*
X034993Y009550D03*
X035423Y009540D03*
X035643Y009540D03*
D24*
X034983Y009300D03*
X035633Y008700D03*
X036053Y008570D03*
X036143Y008470D03*
X034993Y008090D03*
X034993Y007320D03*
X035653Y007320D03*
X035653Y006290D03*
X034983Y006290D03*
X034993Y005410D03*
X034983Y004390D03*
X034993Y003900D03*
X035653Y003900D03*
X035653Y004390D03*
X035653Y003120D03*
X035653Y002860D03*
X034983Y002860D03*
D25*
X036133Y008475D03*
X035593Y008705D03*
X035583Y008705D03*
X035573Y008705D03*
X035283Y009365D03*
X035293Y009375D03*
X035303Y009395D03*
X035313Y009405D03*
X035333Y009435D03*
X035343Y009445D03*
D26*
X035563Y008700D03*
X036123Y008480D03*
X035753Y006420D03*
X034883Y006420D03*
X034883Y004520D03*
X035753Y004520D03*
X035753Y002990D03*
X034883Y002990D03*
D27*
X036113Y008490D03*
X036063Y008530D03*
X035533Y008700D03*
D28*
X035523Y008705D03*
X035513Y008705D03*
X036073Y008515D03*
X036093Y008505D03*
X036103Y008495D03*
D29*
X036083Y008510D03*
X035743Y009390D03*
X034873Y007090D03*
X034893Y006420D03*
X035743Y006420D03*
X034873Y005180D03*
X034893Y004520D03*
X035743Y004520D03*
X034873Y003670D03*
X034893Y002990D03*
X035743Y002990D03*
D30*
X035633Y002835D03*
X035623Y002825D03*
X035633Y003145D03*
X035623Y003155D03*
X035013Y003155D03*
X035003Y003145D03*
X035003Y002835D03*
X035013Y002825D03*
X035013Y003925D03*
X035013Y004355D03*
X035003Y004365D03*
X035013Y004685D03*
X035653Y004645D03*
X035633Y004365D03*
X035623Y004355D03*
X035633Y003925D03*
X035013Y005435D03*
X035013Y006255D03*
X035003Y006265D03*
X035013Y006585D03*
X035653Y006545D03*
X035633Y006265D03*
X035623Y006255D03*
X035633Y007345D03*
X035013Y007345D03*
X035013Y008115D03*
X035673Y008705D03*
X035683Y008705D03*
X035693Y008705D03*
X036033Y008595D03*
X035643Y009245D03*
X035633Y009545D03*
X035623Y009555D03*
X035433Y009545D03*
X035203Y009275D03*
X035193Y009265D03*
X035013Y009265D03*
X035003Y009275D03*
D31*
X035023Y009260D03*
X035033Y009250D03*
X035183Y009260D03*
X035003Y009560D03*
X035013Y009570D03*
X035443Y009550D03*
X035453Y009560D03*
X035613Y009560D03*
X035633Y009240D03*
X035703Y008700D03*
X035993Y008620D03*
X036013Y008610D03*
X036023Y008600D03*
X035053Y008140D03*
X035033Y008130D03*
X035023Y008120D03*
X035053Y007370D03*
X035033Y007360D03*
X035023Y007350D03*
X035593Y007370D03*
X035613Y007360D03*
X035623Y007350D03*
X035033Y006600D03*
X035023Y006590D03*
X035023Y006250D03*
X035033Y006240D03*
X035603Y006240D03*
X035613Y006250D03*
X035053Y005460D03*
X035033Y005450D03*
X035023Y005440D03*
X035033Y004700D03*
X035023Y004690D03*
X035023Y004350D03*
X035033Y004340D03*
X035053Y003950D03*
X035033Y003940D03*
X035023Y003930D03*
X035593Y003950D03*
X035613Y003940D03*
X035623Y003930D03*
X035603Y004340D03*
X035613Y004350D03*
X035603Y003170D03*
X035613Y003160D03*
X035613Y002820D03*
X035603Y002810D03*
X035033Y002810D03*
X035023Y002820D03*
X035023Y003160D03*
X035033Y003170D03*
D32*
X035773Y003650D03*
X035733Y004520D03*
X035733Y006420D03*
X035773Y007070D03*
X034873Y007840D03*
X035733Y009390D03*
D33*
X035773Y009390D03*
X035613Y009230D03*
X035603Y009230D03*
X035593Y009570D03*
X035563Y009580D03*
X035553Y009580D03*
X035543Y009580D03*
X035533Y009580D03*
X035523Y009580D03*
X035513Y009580D03*
X035033Y009570D03*
X035023Y009570D03*
X035063Y009240D03*
X035073Y009240D03*
X035123Y009240D03*
X035133Y009240D03*
X035033Y008910D03*
X035063Y008900D03*
X034963Y008930D03*
X034933Y008940D03*
X034903Y008940D03*
X035163Y008870D03*
X035263Y008840D03*
X035363Y008810D03*
X035463Y008780D03*
X035473Y008630D03*
X035443Y008620D03*
X035373Y008600D03*
X035343Y008590D03*
X035303Y008580D03*
X035273Y008570D03*
X035203Y008550D03*
X035173Y008540D03*
X035103Y008520D03*
X035073Y008510D03*
X035003Y008490D03*
X034973Y008480D03*
X034903Y008460D03*
X035083Y008150D03*
X035083Y007380D03*
X035093Y007380D03*
X035553Y007380D03*
X035563Y007380D03*
X035253Y006620D03*
X035243Y006620D03*
X035233Y006620D03*
X035223Y006620D03*
X035213Y006620D03*
X035203Y006620D03*
X035193Y006620D03*
X035183Y006620D03*
X035173Y006620D03*
X035163Y006620D03*
X035153Y006620D03*
X035143Y006620D03*
X035133Y006620D03*
X035123Y006620D03*
X035113Y006620D03*
X035103Y006620D03*
X035093Y006620D03*
X035103Y006220D03*
X035113Y006220D03*
X035123Y006220D03*
X035133Y006220D03*
X035143Y006220D03*
X035153Y006220D03*
X035163Y006220D03*
X035173Y006220D03*
X035183Y006220D03*
X035193Y006220D03*
X035203Y006220D03*
X035213Y006220D03*
X035223Y006220D03*
X035233Y006220D03*
X035243Y006220D03*
X035253Y006220D03*
X035383Y006220D03*
X035393Y006220D03*
X035403Y006220D03*
X035413Y006220D03*
X035423Y006220D03*
X035433Y006220D03*
X035443Y006220D03*
X035453Y006220D03*
X035463Y006220D03*
X035473Y006220D03*
X035483Y006220D03*
X035493Y006220D03*
X035503Y006220D03*
X035513Y006220D03*
X035523Y006220D03*
X035533Y006220D03*
X035633Y006560D03*
X035093Y005470D03*
X035083Y005470D03*
X035093Y004720D03*
X035103Y004720D03*
X035113Y004720D03*
X035123Y004720D03*
X035133Y004720D03*
X035143Y004720D03*
X035153Y004720D03*
X035163Y004720D03*
X035173Y004720D03*
X035183Y004720D03*
X035193Y004720D03*
X035203Y004720D03*
X035213Y004720D03*
X035223Y004720D03*
X035233Y004720D03*
X035243Y004720D03*
X035253Y004720D03*
X035633Y004660D03*
X035533Y004320D03*
X035523Y004320D03*
X035513Y004320D03*
X035503Y004320D03*
X035493Y004320D03*
X035483Y004320D03*
X035473Y004320D03*
X035463Y004320D03*
X035453Y004320D03*
X035443Y004320D03*
X035433Y004320D03*
X035423Y004320D03*
X035413Y004320D03*
X035403Y004320D03*
X035393Y004320D03*
X035383Y004320D03*
X035253Y004320D03*
X035243Y004320D03*
X035233Y004320D03*
X035223Y004320D03*
X035213Y004320D03*
X035203Y004320D03*
X035193Y004320D03*
X035183Y004320D03*
X035173Y004320D03*
X035163Y004320D03*
X035153Y004320D03*
X035143Y004320D03*
X035133Y004320D03*
X035123Y004320D03*
X035113Y004320D03*
X035103Y004320D03*
X035093Y003960D03*
X035083Y003960D03*
X035553Y003960D03*
X035563Y003960D03*
X035543Y003190D03*
X035533Y003190D03*
X035523Y003190D03*
X035513Y003190D03*
X035503Y003190D03*
X035493Y003190D03*
X035483Y003190D03*
X035473Y003190D03*
X035463Y003190D03*
X035453Y003190D03*
X035443Y003190D03*
X035433Y003190D03*
X035423Y003190D03*
X035413Y003190D03*
X035403Y003190D03*
X035393Y003190D03*
X035383Y003190D03*
X035373Y003190D03*
X035363Y003190D03*
X035353Y003190D03*
X035343Y003190D03*
X035333Y003190D03*
X035323Y003190D03*
X035313Y003190D03*
X035303Y003190D03*
X035293Y003190D03*
X035283Y003190D03*
X035273Y003190D03*
X035263Y003190D03*
X035253Y003190D03*
X035243Y003190D03*
X035233Y003190D03*
X035223Y003190D03*
X035213Y003190D03*
X035203Y003190D03*
X035193Y003190D03*
X035183Y003190D03*
X035173Y003190D03*
X035163Y003190D03*
X035153Y003190D03*
X035143Y003190D03*
X035133Y003190D03*
X035123Y003190D03*
X035113Y003190D03*
X035103Y003190D03*
X035093Y003190D03*
X035103Y002790D03*
X035113Y002790D03*
X035123Y002790D03*
X035133Y002790D03*
X035143Y002790D03*
X035153Y002790D03*
X035163Y002790D03*
X035173Y002790D03*
X035183Y002790D03*
X035193Y002790D03*
X035203Y002790D03*
X035213Y002790D03*
X035223Y002790D03*
X035233Y002790D03*
X035243Y002790D03*
X035253Y002790D03*
X035263Y002790D03*
X035273Y002790D03*
X035283Y002790D03*
X035293Y002790D03*
X035303Y002790D03*
X035313Y002790D03*
X035323Y002790D03*
X035333Y002790D03*
X035343Y002790D03*
X035353Y002790D03*
X035363Y002790D03*
X035373Y002790D03*
X035383Y002790D03*
X035393Y002790D03*
X035403Y002790D03*
X035413Y002790D03*
X035423Y002790D03*
X035433Y002790D03*
X035443Y002790D03*
X035453Y002790D03*
X035463Y002790D03*
X035473Y002790D03*
X035483Y002790D03*
X035493Y002790D03*
X035503Y002790D03*
X035513Y002790D03*
X035523Y002790D03*
X035533Y002790D03*
X035763Y008690D03*
D34*
X034883Y007865D03*
X035763Y007095D03*
X035763Y003675D03*
D35*
X035623Y008705D03*
X035613Y008705D03*
X035763Y009395D03*
X035663Y009505D03*
X035393Y009505D03*
X035383Y009495D03*
X035373Y009485D03*
X035253Y009325D03*
X035243Y009315D03*
X035233Y009305D03*
X034983Y009535D03*
X034883Y009415D03*
D36*
X034893Y007875D03*
X035753Y007105D03*
X035753Y003685D03*
D37*
X035623Y004660D03*
X035753Y005070D03*
X035753Y005470D03*
X035623Y006560D03*
X035753Y007760D03*
X035753Y008160D03*
X034883Y008460D03*
X034883Y008940D03*
X035593Y009230D03*
X034483Y007760D03*
D38*
X035543Y008705D03*
X035553Y008705D03*
X035753Y009395D03*
X034893Y009415D03*
D39*
X034963Y009415D03*
X034903Y007885D03*
X035743Y007115D03*
X035743Y003695D03*
D40*
X035733Y002995D03*
X034903Y002995D03*
X034903Y004525D03*
X034903Y006425D03*
X034913Y009415D03*
D41*
X034973Y009415D03*
X035673Y009395D03*
X034913Y007895D03*
X034913Y007125D03*
X035733Y007125D03*
X035673Y006415D03*
X034913Y005215D03*
X035673Y004515D03*
X035733Y003705D03*
X034913Y003705D03*
D42*
X034913Y002990D03*
X035723Y002990D03*
X035723Y004520D03*
X034913Y004520D03*
X034913Y006420D03*
X035723Y006420D03*
X035723Y009390D03*
X034923Y009420D03*
D43*
X034923Y007900D03*
X034923Y007130D03*
X034963Y006420D03*
X035723Y007130D03*
X034923Y005220D03*
X034963Y004520D03*
X034923Y003710D03*
X034963Y002990D03*
X035673Y002990D03*
X035723Y003710D03*
D44*
X035713Y002990D03*
X034923Y002990D03*
X034923Y004520D03*
X035713Y004520D03*
X035713Y006420D03*
X034923Y006420D03*
X034933Y009420D03*
X035713Y009390D03*
D45*
X034933Y007910D03*
X034933Y007140D03*
X034973Y006420D03*
X035713Y007140D03*
X034933Y005230D03*
X034973Y004520D03*
X034933Y003720D03*
X034973Y002990D03*
X035663Y002990D03*
X035713Y003720D03*
D46*
X035703Y002990D03*
X034933Y002990D03*
X034893Y003690D03*
X034933Y004520D03*
X034893Y005200D03*
X035703Y004520D03*
X035703Y006420D03*
X034933Y006420D03*
X034893Y007110D03*
X034943Y009420D03*
X035703Y009390D03*
D47*
X034943Y007915D03*
X034943Y007145D03*
X035703Y007145D03*
X034943Y005235D03*
X034943Y003725D03*
X035703Y003725D03*
D48*
X035693Y002990D03*
X034943Y002990D03*
X034903Y003700D03*
X034943Y004520D03*
X034903Y005210D03*
X035693Y004520D03*
X035693Y006420D03*
X034943Y006420D03*
X034903Y007120D03*
X034953Y009420D03*
X035693Y009390D03*
D49*
X034953Y007920D03*
X034953Y007150D03*
X034963Y007150D03*
X035683Y007150D03*
X035693Y007150D03*
X034953Y005240D03*
X034953Y003730D03*
X034963Y003730D03*
X035683Y003730D03*
X035693Y003730D03*
D50*
X035683Y002990D03*
X034953Y002990D03*
X034953Y004520D03*
X035683Y004520D03*
X035683Y006420D03*
X034953Y006420D03*
X035683Y009390D03*
D51*
X034973Y007925D03*
X034963Y007925D03*
X034973Y007155D03*
X035673Y007155D03*
X034973Y005245D03*
X034963Y005245D03*
X034973Y003735D03*
X035673Y003735D03*
D52*
X035663Y003740D03*
X034983Y003740D03*
X035373Y004500D03*
X034983Y005250D03*
X035373Y006400D03*
X035663Y007160D03*
X034983Y007160D03*
X034983Y007930D03*
D53*
X035663Y006415D03*
X035663Y004515D03*
D54*
X035603Y008700D03*
X035663Y009280D03*
X035363Y009470D03*
X035353Y009460D03*
X035323Y009420D03*
X035273Y009350D03*
X035263Y009340D03*
D55*
X035223Y009295D03*
X035213Y009285D03*
X035403Y009515D03*
X035413Y009525D03*
X035653Y009525D03*
X035653Y009255D03*
X035653Y008705D03*
X035643Y008705D03*
X034983Y006555D03*
X034983Y004655D03*
X034983Y003125D03*
D56*
X035613Y004665D03*
X035613Y006565D03*
X034873Y008945D03*
D57*
X035603Y006560D03*
X035603Y004660D03*
D58*
X034863Y008460D03*
X034863Y008950D03*
X035573Y009230D03*
D59*
X035363Y006410D03*
X035363Y004510D03*
D60*
X035353Y004515D03*
X035353Y006415D03*
D61*
X035343Y006420D03*
X035333Y006420D03*
X035323Y006420D03*
X035313Y006420D03*
X035303Y006420D03*
X035293Y006420D03*
X035283Y006420D03*
X035273Y006420D03*
X035263Y006420D03*
X035263Y004520D03*
X035273Y004520D03*
X035283Y004520D03*
X035293Y004520D03*
X035303Y004520D03*
X035313Y004520D03*
X035323Y004520D03*
X035333Y004520D03*
X035343Y004520D03*
D62*
X035053Y009575D03*
D63*
X034903Y009415D03*
D64*
X034883Y007105D03*
X034883Y005195D03*
X034883Y003685D03*
D65*
X037581Y011313D03*
X037581Y012313D03*
X037581Y013313D03*
D66*
X032659Y020364D03*
X032659Y020836D03*
X024759Y020836D03*
X024759Y020364D03*
X016259Y020364D03*
X016259Y020836D03*
X008459Y020936D03*
X008459Y020464D03*
X008759Y004636D03*
X008759Y004164D03*
X017059Y004264D03*
X017059Y004736D03*
X024559Y004636D03*
X024559Y004164D03*
X032759Y004164D03*
X032759Y004636D03*
D67*
X032759Y004400D03*
X024559Y004400D03*
X017059Y004500D03*
X011100Y003159D03*
X008759Y004400D03*
X016259Y020600D03*
X008459Y020700D03*
X024759Y020600D03*
X032659Y020600D03*
D68*
X032895Y020600D03*
X032305Y020600D03*
X024995Y020600D03*
X024405Y020600D03*
X016495Y020600D03*
X015905Y020600D03*
X008695Y020700D03*
X008105Y020700D03*
X016705Y004500D03*
X017295Y004500D03*
X024205Y004400D03*
X024795Y004400D03*
X032405Y004400D03*
X032995Y004400D03*
X008995Y004400D03*
X008405Y004400D03*
D69*
X010864Y003159D03*
X011336Y003159D03*
D70*
X011100Y003395D03*
X011100Y002805D03*
M02*
