G75*
%MOIN*%
%OFA0B0*%
%FSLAX24Y24*%
%IPPOS*%
%LPD*%
%AMOC8*
5,1,8,0,0,1.08239X$1,22.5*
%
%ADD10C,0.0000*%
%ADD11C,0.0120*%
%ADD12C,0.0526*%
%ADD13C,0.1187*%
%ADD14R,0.0748X0.0118*%
%ADD15C,0.0768*%
%ADD16R,0.0350X0.0420*%
%ADD17OC8,0.0660*%
%ADD18C,0.0540*%
%ADD19R,0.0472X0.0472*%
%ADD20R,0.0356X0.0356*%
%ADD21C,0.0160*%
%ADD22C,0.0100*%
D10*
X000100Y000100D02*
X000100Y031596D01*
X039470Y031596D01*
X039470Y000100D01*
X000100Y000100D01*
D11*
X003053Y002069D02*
X003053Y023131D01*
X038880Y023131D01*
X038880Y002069D01*
X003053Y002069D01*
X003273Y002289D02*
X003273Y022911D01*
X037562Y022911D01*
X037413Y022850D01*
X037271Y022708D01*
X037195Y022523D01*
X037195Y022323D01*
X037271Y022137D01*
X037413Y021996D01*
X037598Y021919D01*
X037799Y021919D01*
X037984Y021996D01*
X038126Y022137D01*
X038202Y022323D01*
X038202Y022523D01*
X038126Y022708D01*
X037984Y022850D01*
X037835Y022911D01*
X038660Y022911D01*
X038660Y002289D01*
X017586Y002289D01*
X017889Y002592D01*
X017894Y002587D01*
X018267Y002587D01*
X018530Y002851D01*
X018530Y003223D01*
X018267Y003487D01*
X017894Y003487D01*
X017630Y003223D01*
X017630Y002851D01*
X017635Y002846D01*
X017399Y002611D01*
X017290Y002611D01*
X017530Y002851D01*
X017530Y003223D01*
X017267Y003487D01*
X016894Y003487D01*
X016630Y003223D01*
X016630Y002851D01*
X016870Y002611D01*
X016290Y002611D01*
X016530Y002851D01*
X016530Y003223D01*
X016267Y003487D01*
X015894Y003487D01*
X015630Y003223D01*
X015630Y002851D01*
X015870Y002611D01*
X015556Y002611D01*
X015273Y002894D01*
X014605Y002894D01*
X014605Y002974D01*
X014535Y003044D01*
X014085Y003044D01*
X014015Y002974D01*
X014015Y002454D01*
X014085Y002384D01*
X014535Y002384D01*
X014605Y002454D01*
X014605Y002534D01*
X015124Y002534D01*
X015302Y002356D01*
X015370Y002289D01*
X013459Y002289D01*
X013555Y002384D01*
X013855Y002384D01*
X013925Y002454D01*
X013925Y002974D01*
X013855Y003044D01*
X013405Y003044D01*
X013335Y002974D01*
X013335Y002674D01*
X013141Y002480D01*
X011475Y002480D01*
X011456Y002498D01*
X011456Y002973D01*
X011386Y003043D01*
X010814Y003043D01*
X010744Y002973D01*
X010744Y002401D01*
X010814Y002330D01*
X011115Y002330D01*
X011157Y002289D01*
X003273Y002289D01*
X003273Y002352D02*
X010793Y002352D01*
X010744Y002470D02*
X003273Y002470D01*
X003273Y002589D02*
X010744Y002589D01*
X010744Y002707D02*
X003273Y002707D01*
X003273Y002826D02*
X010744Y002826D01*
X010744Y002944D02*
X003273Y002944D01*
X003273Y003063D02*
X015630Y003063D01*
X015630Y003181D02*
X011410Y003181D01*
X011386Y003157D02*
X011456Y003227D01*
X011456Y003615D01*
X011658Y003817D01*
X011658Y004397D01*
X011678Y004417D01*
X011678Y004582D01*
X011043Y005217D01*
X010959Y005301D01*
X010959Y011731D01*
X018424Y011731D01*
X018424Y004899D01*
X018205Y004680D01*
X017770Y004680D01*
X017770Y004786D01*
X017699Y004856D01*
X017127Y004856D01*
X017057Y004786D01*
X017057Y004214D01*
X017127Y004144D01*
X017699Y004144D01*
X017770Y004214D01*
X017770Y004320D01*
X018354Y004320D01*
X018678Y004644D01*
X018784Y004750D01*
X018784Y011731D01*
X026446Y011731D01*
X026446Y005204D01*
X025822Y004580D01*
X025270Y004580D01*
X025270Y004686D01*
X025199Y004756D01*
X024627Y004756D01*
X024557Y004686D01*
X024557Y004114D01*
X024627Y004044D01*
X025199Y004044D01*
X025270Y004114D01*
X025270Y004220D01*
X025971Y004220D01*
X026700Y004950D01*
X026806Y005055D01*
X026806Y011731D01*
X030707Y011731D01*
X030707Y011683D01*
X030778Y011613D01*
X031233Y011613D01*
X031304Y011683D01*
X031304Y011731D01*
X034369Y011731D01*
X034369Y005144D01*
X034379Y005134D01*
X034379Y004712D01*
X034247Y004580D01*
X033470Y004580D01*
X033470Y004686D01*
X033399Y004756D01*
X032827Y004756D01*
X032757Y004686D01*
X032757Y004114D01*
X032827Y004044D01*
X033399Y004044D01*
X033470Y004114D01*
X033470Y004220D01*
X034396Y004220D01*
X034729Y004553D01*
X034729Y004702D01*
X034719Y004712D01*
X034719Y005134D01*
X034729Y005144D01*
X034729Y011731D01*
X035430Y011731D01*
X035450Y011711D01*
X036010Y011711D01*
X036403Y012105D01*
X036975Y012105D01*
X036981Y012092D01*
X037090Y011982D01*
X037234Y011923D01*
X037929Y011923D01*
X038072Y011982D01*
X038182Y012092D01*
X038241Y012235D01*
X038241Y012390D01*
X038182Y012534D01*
X038072Y012643D01*
X037929Y012703D01*
X037234Y012703D01*
X037090Y012643D01*
X036981Y012534D01*
X036969Y012505D01*
X036238Y012505D01*
X036120Y012388D01*
X035844Y012111D01*
X035450Y012111D01*
X035430Y012091D01*
X031304Y012091D01*
X031304Y012139D01*
X031233Y012209D01*
X030778Y012209D01*
X030707Y012139D01*
X030707Y012091D01*
X018784Y012091D01*
X018784Y018162D01*
X021396Y015549D01*
X021281Y015597D01*
X020997Y015597D01*
X020735Y015488D01*
X020534Y015288D01*
X020426Y015025D01*
X020426Y014741D01*
X020534Y014479D01*
X020735Y014279D01*
X020997Y014170D01*
X021281Y014170D01*
X021544Y014279D01*
X021744Y014479D01*
X021853Y014741D01*
X021853Y015025D01*
X021766Y015235D01*
X027840Y015235D01*
X028030Y015045D01*
X028030Y014356D01*
X028136Y014251D01*
X028687Y013700D01*
X029387Y013700D01*
X029493Y013805D01*
X029975Y014287D01*
X029975Y015045D01*
X030214Y015284D01*
X032625Y015284D01*
X032731Y015390D01*
X033420Y016079D01*
X033420Y016354D01*
X034729Y017663D01*
X034729Y018726D01*
X034860Y018857D01*
X034901Y018857D01*
X034901Y018612D01*
X034893Y018604D01*
X034872Y018567D01*
X034861Y018527D01*
X034861Y018446D01*
X034861Y018366D01*
X034866Y018348D01*
X034861Y018330D01*
X034861Y018250D01*
X034940Y018250D01*
X034940Y018250D01*
X034940Y018250D01*
X034861Y018250D01*
X034861Y018169D01*
X034866Y018151D01*
X034861Y018133D01*
X034861Y018053D01*
X034940Y018053D01*
X034940Y018053D01*
X034940Y018053D01*
X034861Y018053D01*
X034861Y017973D01*
X034866Y017954D01*
X034861Y017936D01*
X034861Y017856D01*
X034940Y017856D01*
X034861Y017856D01*
X034861Y017776D01*
X034872Y017735D01*
X034893Y017699D01*
X034901Y017691D01*
X034901Y017550D01*
X034972Y017480D01*
X035819Y017480D01*
X035889Y017550D01*
X035889Y017691D01*
X035897Y017699D01*
X035918Y017735D01*
X035929Y017776D01*
X035929Y017856D01*
X035929Y017936D01*
X035924Y017954D01*
X035929Y017973D01*
X035929Y018053D01*
X035929Y018133D01*
X035924Y018151D01*
X035929Y018169D01*
X035929Y018250D01*
X035929Y018330D01*
X035924Y018348D01*
X035929Y018366D01*
X035929Y018446D01*
X035851Y018446D01*
X035851Y018446D01*
X035929Y018446D01*
X035929Y018527D01*
X035918Y018567D01*
X035897Y018604D01*
X035889Y018612D01*
X035889Y019069D01*
X035897Y019077D01*
X035918Y019113D01*
X035929Y019154D01*
X035929Y019234D01*
X035929Y019314D01*
X035918Y019355D01*
X035897Y019391D01*
X035889Y019399D01*
X035889Y019659D01*
X035897Y019667D01*
X035918Y019704D01*
X035929Y019744D01*
X035929Y019824D01*
X035395Y019824D01*
X034861Y019824D01*
X034861Y019808D01*
X034432Y019808D01*
X034466Y019841D01*
X034861Y019841D01*
X034861Y019824D01*
X035395Y019824D01*
X035395Y019824D01*
X035887Y019824D01*
X036517Y019194D01*
X037108Y019194D01*
X037305Y018998D01*
X037108Y018604D02*
X037305Y018407D01*
X037108Y018604D02*
X036517Y018604D01*
X035887Y019234D01*
X035395Y019234D01*
X035395Y019234D01*
X034861Y019234D01*
X034861Y019251D01*
X034663Y019251D01*
X034532Y019120D01*
X034532Y019038D01*
X034605Y019112D01*
X034605Y019112D01*
X034710Y019217D01*
X034861Y019217D01*
X034861Y019234D01*
X035395Y019234D01*
X035929Y019234D01*
X035395Y019234D01*
X035395Y019234D01*
X035395Y019431D02*
X034588Y019431D01*
X034352Y019194D01*
X034352Y017817D01*
X033033Y016498D01*
X033033Y016222D01*
X032511Y015700D01*
X021800Y015700D01*
X018800Y018700D01*
X018800Y019800D01*
X017400Y021200D01*
X015900Y021200D01*
X015480Y021620D01*
X015480Y022037D01*
X015930Y022023D02*
X016030Y022023D01*
X016030Y022141D02*
X015930Y022141D01*
X015930Y022223D02*
X015667Y022487D01*
X015294Y022487D01*
X015030Y022223D01*
X015030Y021851D01*
X015294Y021587D01*
X015300Y021587D01*
X015300Y021554D01*
X014930Y021924D01*
X014930Y022223D01*
X014667Y022487D01*
X014294Y022487D01*
X014030Y022223D01*
X014030Y021851D01*
X014294Y021587D01*
X014667Y021587D01*
X014713Y021633D01*
X015420Y020925D01*
X015445Y020900D01*
X015430Y020886D01*
X015430Y020769D01*
X014916Y020769D01*
X014916Y020849D01*
X014846Y020919D01*
X014397Y020919D01*
X014326Y020849D01*
X014326Y020330D01*
X014397Y020259D01*
X014846Y020259D01*
X014916Y020330D01*
X014916Y020409D01*
X015430Y020409D01*
X015430Y020314D01*
X015501Y020244D01*
X016073Y020244D01*
X016143Y020314D01*
X016143Y020820D01*
X016257Y020820D01*
X016257Y020314D01*
X016327Y020244D01*
X016899Y020244D01*
X016970Y020314D01*
X016970Y020420D01*
X017225Y020420D01*
X018120Y019525D01*
X018120Y018440D01*
X018424Y018136D01*
X018424Y012091D01*
X010959Y012091D01*
X010959Y020017D01*
X010890Y020086D01*
X010890Y020155D01*
X010785Y020260D01*
X010771Y020260D01*
X010402Y020629D01*
X010402Y020643D01*
X010165Y020880D01*
X009170Y020880D01*
X009170Y020986D01*
X009099Y021056D01*
X008527Y021056D01*
X008457Y020986D01*
X008457Y020414D01*
X008527Y020344D01*
X009099Y020344D01*
X009170Y020414D01*
X009170Y020520D01*
X010016Y020520D01*
X010147Y020389D01*
X010161Y020389D01*
X010530Y020020D01*
X010530Y019937D01*
X010599Y019868D01*
X010599Y005301D01*
X010579Y005281D01*
X010579Y005125D01*
X010034Y004580D01*
X009470Y004580D01*
X009470Y004686D01*
X009399Y004756D01*
X008827Y004756D01*
X008757Y004686D01*
X008757Y004114D01*
X008827Y004044D01*
X009399Y004044D01*
X009470Y004114D01*
X009470Y004220D01*
X010183Y004220D01*
X010289Y004325D01*
X010829Y004866D01*
X011298Y004397D01*
X011298Y003966D01*
X011202Y003870D01*
X010814Y003870D01*
X010744Y003799D01*
X010744Y003227D01*
X010814Y003157D01*
X011386Y003157D01*
X011456Y003300D02*
X015706Y003300D01*
X015825Y003418D02*
X011456Y003418D01*
X011456Y003537D02*
X038660Y003537D01*
X038660Y003655D02*
X011496Y003655D01*
X011615Y003774D02*
X038660Y003774D01*
X038660Y003892D02*
X011658Y003892D01*
X011658Y004011D02*
X038660Y004011D01*
X038660Y004129D02*
X033470Y004129D01*
X033113Y004400D02*
X034321Y004400D01*
X034549Y004628D01*
X034729Y004603D02*
X038660Y004603D01*
X038660Y004485D02*
X034660Y004485D01*
X034542Y004366D02*
X038660Y004366D01*
X038660Y004248D02*
X034423Y004248D01*
X034270Y004603D02*
X033470Y004603D01*
X033434Y004722D02*
X034379Y004722D01*
X034379Y004840D02*
X030420Y004840D01*
X030420Y004775D02*
X030420Y007415D01*
X030953Y007949D01*
X030970Y007942D01*
X031122Y007942D01*
X031263Y008000D01*
X031371Y008108D01*
X031429Y008248D01*
X031429Y008401D01*
X031371Y008541D01*
X031263Y008649D01*
X031122Y008707D01*
X030970Y008707D01*
X030829Y008649D01*
X030722Y008541D01*
X030664Y008401D01*
X030664Y008248D01*
X030670Y008231D01*
X030020Y007581D01*
X030020Y004775D01*
X029995Y004775D01*
X029925Y004705D01*
X029925Y004186D01*
X029995Y004115D01*
X030444Y004115D01*
X030515Y004186D01*
X030515Y004705D01*
X030444Y004775D01*
X030420Y004775D01*
X030498Y004722D02*
X030621Y004722D01*
X030605Y004705D02*
X030605Y004186D01*
X030675Y004115D01*
X031124Y004115D01*
X031195Y004186D01*
X031195Y004220D01*
X031930Y004220D01*
X031930Y004114D01*
X032001Y004044D01*
X032573Y004044D01*
X032643Y004114D01*
X032643Y004686D01*
X032573Y004756D01*
X032001Y004756D01*
X031930Y004686D01*
X031930Y004580D01*
X031195Y004580D01*
X031195Y004705D01*
X031124Y004775D01*
X030675Y004775D01*
X030605Y004705D01*
X030605Y004603D02*
X030515Y004603D01*
X030515Y004485D02*
X030605Y004485D01*
X030605Y004366D02*
X030515Y004366D01*
X030515Y004248D02*
X030605Y004248D01*
X030661Y004129D02*
X030458Y004129D01*
X029981Y004129D02*
X025270Y004129D01*
X024913Y004400D02*
X025896Y004400D01*
X026626Y005130D01*
X026626Y011911D01*
X031006Y011911D01*
X034549Y011911D01*
X035533Y011911D01*
X035448Y011713D02*
X034729Y011713D01*
X034729Y011595D02*
X036985Y011595D01*
X036983Y011593D02*
X036944Y011538D01*
X036913Y011478D01*
X036892Y011413D01*
X036881Y011346D01*
X036881Y011343D01*
X037551Y011343D01*
X037551Y011743D01*
X037277Y011743D01*
X037211Y011732D01*
X037146Y011711D01*
X037086Y011680D01*
X037031Y011641D01*
X036983Y011593D01*
X036912Y011476D02*
X034729Y011476D01*
X034729Y011358D02*
X036883Y011358D01*
X036881Y011283D02*
X036881Y011279D01*
X036892Y011212D01*
X036913Y011148D01*
X036944Y011087D01*
X036983Y011032D01*
X037031Y010985D01*
X037086Y010945D01*
X037146Y010914D01*
X037211Y010893D01*
X037277Y010883D01*
X037551Y010883D01*
X037551Y011283D01*
X036881Y011283D01*
X036888Y011239D02*
X034729Y011239D01*
X034729Y011121D02*
X036927Y011121D01*
X037014Y011002D02*
X034729Y011002D01*
X034729Y010884D02*
X037272Y010884D01*
X037551Y010884D02*
X037611Y010884D01*
X037611Y010883D02*
X037885Y010883D01*
X037952Y010893D01*
X038016Y010914D01*
X038077Y010945D01*
X038131Y010985D01*
X038179Y011032D01*
X038219Y011087D01*
X038250Y011148D01*
X038271Y011212D01*
X038281Y011279D01*
X038281Y011283D01*
X037611Y011283D01*
X037611Y011343D01*
X037551Y011343D01*
X037551Y011283D01*
X037611Y011283D01*
X037611Y010883D01*
X037611Y011002D02*
X037551Y011002D01*
X037551Y011121D02*
X037611Y011121D01*
X037611Y011239D02*
X037551Y011239D01*
X037551Y011358D02*
X037611Y011358D01*
X037611Y011343D02*
X037611Y011743D01*
X037885Y011743D01*
X037952Y011732D01*
X038016Y011711D01*
X038077Y011680D01*
X038131Y011641D01*
X038179Y011593D01*
X038219Y011538D01*
X038250Y011478D01*
X038271Y011413D01*
X038281Y011346D01*
X038281Y011343D01*
X037611Y011343D01*
X037611Y011476D02*
X037551Y011476D01*
X037551Y011595D02*
X037611Y011595D01*
X037611Y011713D02*
X037551Y011713D01*
X037152Y011713D02*
X036012Y011713D01*
X036130Y011832D02*
X038660Y011832D01*
X038660Y011950D02*
X037995Y011950D01*
X038159Y012069D02*
X038660Y012069D01*
X038660Y012187D02*
X038221Y012187D01*
X038241Y012306D02*
X038660Y012306D01*
X038660Y012424D02*
X038227Y012424D01*
X038173Y012543D02*
X038660Y012543D01*
X038660Y012661D02*
X038029Y012661D01*
X037929Y012923D02*
X038072Y012982D01*
X038182Y013092D01*
X038241Y013235D01*
X038241Y013390D01*
X038182Y013534D01*
X038072Y013643D01*
X037929Y013703D01*
X037234Y013703D01*
X037090Y013643D01*
X036981Y013534D01*
X036921Y013390D01*
X036921Y013235D01*
X036981Y013092D01*
X037090Y012982D01*
X037234Y012923D01*
X037929Y012923D01*
X038107Y013017D02*
X038660Y013017D01*
X038660Y013135D02*
X038200Y013135D01*
X038241Y013254D02*
X038660Y013254D01*
X038660Y013372D02*
X038241Y013372D01*
X038200Y013491D02*
X038660Y013491D01*
X038660Y013609D02*
X038106Y013609D01*
X038660Y013728D02*
X029415Y013728D01*
X029534Y013846D02*
X038660Y013846D01*
X038660Y013965D02*
X029652Y013965D01*
X029771Y014083D02*
X038660Y014083D01*
X038660Y014202D02*
X029889Y014202D01*
X029975Y014320D02*
X038660Y014320D01*
X038660Y014439D02*
X029975Y014439D01*
X029975Y014557D02*
X038660Y014557D01*
X038660Y014676D02*
X029975Y014676D01*
X029975Y014794D02*
X038660Y014794D01*
X038660Y014913D02*
X029975Y014913D01*
X029975Y015031D02*
X038660Y015031D01*
X038660Y015150D02*
X030079Y015150D01*
X030198Y015268D02*
X038660Y015268D01*
X038660Y015387D02*
X032728Y015387D01*
X032846Y015505D02*
X038660Y015505D01*
X038660Y015624D02*
X032965Y015624D01*
X033083Y015742D02*
X037588Y015742D01*
X037598Y015738D02*
X037799Y015738D01*
X037984Y015815D01*
X038126Y015956D01*
X038202Y016142D01*
X038202Y016342D01*
X038126Y016527D01*
X037984Y016669D01*
X037799Y016746D01*
X037598Y016746D01*
X037413Y016669D01*
X037271Y016527D01*
X037195Y016342D01*
X037195Y016142D01*
X037271Y015956D01*
X037413Y015815D01*
X037598Y015738D01*
X037809Y015742D02*
X038660Y015742D01*
X038660Y015861D02*
X038030Y015861D01*
X038135Y015979D02*
X038660Y015979D01*
X038660Y016098D02*
X038184Y016098D01*
X038202Y016216D02*
X038660Y016216D01*
X038660Y016335D02*
X038202Y016335D01*
X038156Y016453D02*
X038660Y016453D01*
X038660Y016572D02*
X038081Y016572D01*
X037933Y016690D02*
X038660Y016690D01*
X038660Y016809D02*
X036151Y016809D01*
X036196Y016763D02*
X036055Y016905D01*
X035870Y016982D01*
X035669Y016982D01*
X035484Y016905D01*
X035342Y016763D01*
X035265Y016578D01*
X035265Y016378D01*
X035342Y016193D01*
X035484Y016051D01*
X035669Y015974D01*
X035870Y015974D01*
X036055Y016051D01*
X036196Y016193D01*
X036273Y016378D01*
X036273Y016578D01*
X036196Y016763D01*
X036227Y016690D02*
X037464Y016690D01*
X037316Y016572D02*
X036273Y016572D01*
X036273Y016453D02*
X037241Y016453D01*
X037195Y016335D02*
X036255Y016335D01*
X036320Y016242D02*
X035927Y015848D01*
X033368Y015848D01*
X031793Y014273D01*
X031793Y013289D01*
X032580Y013289D02*
X032580Y014667D01*
X033565Y015651D01*
X036124Y015651D01*
X036517Y016045D01*
X036517Y017817D01*
X036281Y018053D01*
X035395Y018053D01*
X035395Y018250D01*
X035395Y018446D01*
X035395Y018446D01*
X035395Y018250D01*
X035395Y018250D01*
X036478Y018250D01*
X036714Y018013D01*
X036714Y015848D01*
X036320Y015454D01*
X033958Y015454D01*
X033368Y014864D01*
X033368Y013289D01*
X034155Y013289D02*
X034155Y014864D01*
X034549Y015257D01*
X036517Y015257D01*
X036911Y015651D01*
X036911Y018210D01*
X036675Y018446D01*
X035395Y018446D01*
X035395Y018349D02*
X035395Y018349D01*
X035395Y018250D02*
X035395Y018053D01*
X035395Y018053D01*
X035395Y018053D01*
X035395Y017856D01*
X035395Y017856D01*
X036084Y017856D01*
X036320Y017620D01*
X036320Y016242D01*
X036206Y016216D02*
X037195Y016216D01*
X037213Y016098D02*
X036101Y016098D01*
X035881Y015979D02*
X037262Y015979D01*
X037367Y015861D02*
X033202Y015861D01*
X033320Y015979D02*
X035657Y015979D01*
X035437Y016098D02*
X033420Y016098D01*
X033420Y016216D02*
X035332Y016216D01*
X035283Y016335D02*
X033420Y016335D01*
X033519Y016453D02*
X035265Y016453D01*
X035265Y016572D02*
X033637Y016572D01*
X033756Y016690D02*
X035312Y016690D01*
X035387Y016809D02*
X033874Y016809D01*
X033993Y016927D02*
X035537Y016927D01*
X036002Y016927D02*
X038660Y016927D01*
X038660Y017046D02*
X034111Y017046D01*
X034230Y017164D02*
X038660Y017164D01*
X038660Y017283D02*
X034348Y017283D01*
X034467Y017401D02*
X038660Y017401D01*
X038660Y017520D02*
X035859Y017520D01*
X035889Y017638D02*
X038660Y017638D01*
X038660Y017757D02*
X035924Y017757D01*
X035929Y017856D02*
X035851Y017856D01*
X035929Y017856D01*
X035929Y017875D02*
X038660Y017875D01*
X038660Y017994D02*
X035929Y017994D01*
X035929Y018053D02*
X035851Y018053D01*
X035929Y018053D01*
X035929Y018112D02*
X038660Y018112D01*
X038660Y018231D02*
X035929Y018231D01*
X035929Y018250D02*
X035851Y018250D01*
X035929Y018250D01*
X035851Y018250D02*
X035851Y018250D01*
X035851Y018250D01*
X035925Y018349D02*
X038660Y018349D01*
X038660Y018468D02*
X035929Y018468D01*
X035908Y018586D02*
X038660Y018586D01*
X038660Y018705D02*
X035889Y018705D01*
X035889Y018823D02*
X038660Y018823D01*
X038660Y018942D02*
X035889Y018942D01*
X035889Y019060D02*
X038660Y019060D01*
X038660Y019179D02*
X035929Y019179D01*
X035929Y019297D02*
X038660Y019297D01*
X038660Y019416D02*
X035889Y019416D01*
X035889Y019534D02*
X038660Y019534D01*
X038660Y019653D02*
X035889Y019653D01*
X035929Y019771D02*
X038660Y019771D01*
X038660Y019890D02*
X035929Y019890D01*
X035929Y019905D02*
X035918Y019945D01*
X035897Y019982D01*
X035889Y019990D01*
X035889Y020250D01*
X035897Y020258D01*
X035918Y020294D01*
X035929Y020335D01*
X035929Y020415D01*
X035929Y020495D01*
X035918Y020536D01*
X035897Y020572D01*
X035889Y020580D01*
X035889Y020840D01*
X035897Y020848D01*
X035918Y020885D01*
X035929Y020925D01*
X035929Y021006D01*
X035929Y021086D01*
X035918Y021126D01*
X035897Y021163D01*
X035889Y021171D01*
X035889Y021311D01*
X035819Y021381D01*
X035471Y021381D01*
X035470Y021382D01*
X034672Y021382D01*
X033480Y022575D01*
X033375Y022680D01*
X032893Y022680D01*
X032852Y022721D01*
X022510Y022721D01*
X022271Y022482D01*
X022267Y022487D01*
X021894Y022487D01*
X021630Y022223D01*
X021630Y021851D01*
X021744Y021737D01*
X021635Y021737D01*
X021526Y021846D01*
X021530Y021851D01*
X021530Y022223D01*
X021267Y022487D01*
X020894Y022487D01*
X020630Y022223D01*
X020630Y021851D01*
X020894Y021587D01*
X021267Y021587D01*
X021271Y021592D01*
X021323Y021540D01*
X020415Y021540D01*
X019947Y022007D01*
X019947Y022007D01*
X019930Y022024D01*
X019930Y022223D01*
X019667Y022487D01*
X019294Y022487D01*
X019030Y022223D01*
X019030Y021851D01*
X019294Y021587D01*
X019667Y021587D01*
X019763Y021683D01*
X020160Y021285D01*
X020266Y021180D01*
X027421Y021180D01*
X026994Y020752D01*
X026970Y020729D01*
X026896Y020802D01*
X026747Y020802D01*
X026725Y020780D01*
X025470Y020780D01*
X025470Y020886D01*
X025399Y020956D01*
X024827Y020956D01*
X024573Y020956D01*
X024001Y020956D01*
X023930Y020886D01*
X023930Y020780D01*
X023100Y020780D01*
X023100Y020841D01*
X023029Y020911D01*
X022580Y020911D01*
X022510Y020841D01*
X022510Y020321D01*
X022580Y020251D01*
X023029Y020251D01*
X023100Y020321D01*
X023100Y020420D01*
X023930Y020420D01*
X023930Y020314D01*
X024001Y020244D01*
X024573Y020244D01*
X024643Y020314D01*
X024643Y020886D01*
X024573Y020956D01*
X024643Y020838D02*
X024757Y020838D01*
X024757Y020886D02*
X024757Y020314D01*
X024827Y020244D01*
X025399Y020244D01*
X025470Y020314D01*
X025470Y020420D01*
X026770Y020420D01*
X026889Y020301D01*
X026889Y019296D01*
X026841Y019296D01*
X026770Y019225D01*
X026770Y018770D01*
X026841Y018700D01*
X027296Y018700D01*
X027367Y018770D01*
X027367Y019225D01*
X027296Y019296D01*
X027249Y019296D01*
X027249Y020498D01*
X027734Y020983D01*
X028718Y020983D01*
X029308Y021574D01*
X032872Y021574D01*
X033520Y020925D01*
X033520Y020780D01*
X033370Y020780D01*
X033370Y020886D01*
X033299Y020956D01*
X032727Y020956D01*
X032473Y020956D01*
X031901Y020956D01*
X031830Y020886D01*
X031830Y020780D01*
X031120Y020780D01*
X031120Y020841D01*
X031050Y020911D01*
X030600Y020911D01*
X030530Y020841D01*
X030530Y020321D01*
X030600Y020251D01*
X031050Y020251D01*
X031120Y020321D01*
X031120Y020420D01*
X031830Y020420D01*
X031830Y020314D01*
X031901Y020244D01*
X032473Y020244D01*
X032543Y020314D01*
X032543Y020886D01*
X032473Y020956D01*
X032543Y020838D02*
X032657Y020838D01*
X032657Y020886D02*
X032657Y020314D01*
X032727Y020244D01*
X033299Y020244D01*
X033370Y020314D01*
X033370Y020420D01*
X033775Y020420D01*
X033880Y020525D01*
X033880Y020865D01*
X034113Y020633D01*
X034113Y020537D01*
X034218Y020432D01*
X034861Y020432D01*
X034861Y020415D01*
X035395Y020415D01*
X035395Y020415D01*
X034861Y020415D01*
X034861Y020398D01*
X034199Y020398D01*
X033647Y019847D01*
X033542Y019741D01*
X033542Y019346D01*
X033400Y019488D01*
X033138Y019597D01*
X032854Y019597D01*
X032592Y019488D01*
X032391Y019288D01*
X032282Y019025D01*
X032282Y018741D01*
X032391Y018479D01*
X032592Y018279D01*
X032854Y018170D01*
X033138Y018170D01*
X033400Y018279D01*
X033542Y018421D01*
X033542Y018088D01*
X032412Y016958D01*
X032408Y016982D01*
X032387Y017046D01*
X032357Y017105D01*
X032318Y017159D01*
X032271Y017206D01*
X032217Y017245D01*
X032158Y017275D01*
X032095Y017296D01*
X032029Y017306D01*
X032023Y017306D01*
X032023Y016911D01*
X031968Y016911D01*
X031968Y016856D01*
X031573Y016856D01*
X031573Y016850D01*
X031583Y016784D01*
X031604Y016721D01*
X031634Y016662D01*
X031673Y016608D01*
X031720Y016561D01*
X031774Y016522D01*
X031833Y016492D01*
X031869Y016480D01*
X024266Y016480D01*
X024302Y016492D01*
X024361Y016522D01*
X024415Y016561D01*
X024462Y016608D01*
X024501Y016662D01*
X024531Y016721D01*
X024552Y016784D01*
X024562Y016850D01*
X024562Y016856D01*
X024167Y016856D01*
X024167Y016911D01*
X024562Y016911D01*
X024562Y016917D01*
X024552Y016982D01*
X024531Y017046D01*
X024501Y017105D01*
X024462Y017159D01*
X024415Y017206D01*
X024361Y017245D01*
X024302Y017275D01*
X024238Y017296D01*
X024173Y017306D01*
X024167Y017306D01*
X024167Y016911D01*
X024112Y016911D01*
X024112Y017306D01*
X024106Y017306D01*
X024040Y017296D01*
X023977Y017275D01*
X023918Y017245D01*
X023864Y017206D01*
X023817Y017159D01*
X023778Y017105D01*
X023748Y017046D01*
X023727Y016982D01*
X023717Y016917D01*
X023717Y016911D01*
X024112Y016911D01*
X024112Y016856D01*
X023717Y016856D01*
X023717Y016850D01*
X023727Y016784D01*
X023748Y016721D01*
X023778Y016662D01*
X023817Y016608D01*
X023864Y016561D01*
X023918Y016522D01*
X023977Y016492D01*
X024013Y016480D01*
X022175Y016480D01*
X019680Y018975D01*
X019680Y020275D01*
X019575Y020380D01*
X018694Y021261D01*
X018694Y021614D01*
X018930Y021851D01*
X018930Y022223D01*
X018667Y022487D01*
X018294Y022487D01*
X018030Y022223D01*
X018030Y021851D01*
X018294Y021587D01*
X018334Y021587D01*
X018334Y021121D01*
X017767Y021687D01*
X017930Y021851D01*
X017930Y022223D01*
X017667Y022487D01*
X017294Y022487D01*
X017030Y022223D01*
X017030Y021851D01*
X017294Y021587D01*
X017358Y021587D01*
X017365Y021580D01*
X017175Y021580D01*
X016917Y021837D01*
X016930Y021851D01*
X016930Y022223D01*
X016667Y022487D01*
X016294Y022487D01*
X016030Y022223D01*
X016030Y021851D01*
X016294Y021587D01*
X016658Y021587D01*
X016865Y021380D01*
X015975Y021380D01*
X015717Y021637D01*
X015930Y021851D01*
X015930Y022223D01*
X015894Y022260D02*
X016066Y022260D01*
X016185Y022378D02*
X015776Y022378D01*
X015930Y021904D02*
X016030Y021904D01*
X016095Y021786D02*
X015865Y021786D01*
X015747Y021667D02*
X016214Y021667D01*
X015925Y021430D02*
X016815Y021430D01*
X016697Y021549D02*
X015806Y021549D01*
X015600Y021000D02*
X017300Y021000D01*
X018600Y019700D01*
X018600Y018600D01*
X021785Y015415D01*
X027915Y015415D01*
X028210Y015120D01*
X028210Y014431D01*
X028761Y013880D01*
X029313Y013880D01*
X029795Y014362D01*
X029795Y015120D01*
X030139Y015464D01*
X032551Y015464D01*
X033240Y016153D01*
X033240Y016429D01*
X034549Y017738D01*
X034549Y018801D01*
X034785Y019037D01*
X035395Y019037D01*
X034901Y018823D02*
X034826Y018823D01*
X034901Y018705D02*
X034729Y018705D01*
X034729Y018586D02*
X034883Y018586D01*
X034861Y018468D02*
X034729Y018468D01*
X034729Y018349D02*
X034866Y018349D01*
X034861Y018446D02*
X034940Y018446D01*
X034940Y018446D01*
X034861Y018446D01*
X034861Y018231D02*
X034729Y018231D01*
X034729Y018112D02*
X034861Y018112D01*
X034861Y017994D02*
X034729Y017994D01*
X034729Y017875D02*
X034861Y017875D01*
X034940Y017856D02*
X034940Y017856D01*
X034866Y017757D02*
X034729Y017757D01*
X034704Y017638D02*
X034901Y017638D01*
X034932Y017520D02*
X034585Y017520D01*
X034155Y017895D02*
X034155Y019391D01*
X034391Y019628D01*
X035395Y019628D01*
X035395Y019824D02*
X035395Y019824D01*
X035929Y019824D01*
X035929Y019905D01*
X035889Y020008D02*
X038660Y020008D01*
X038660Y020127D02*
X035889Y020127D01*
X035889Y020245D02*
X038660Y020245D01*
X038660Y020364D02*
X035929Y020364D01*
X035929Y020415D02*
X035395Y020415D01*
X035887Y020415D01*
X036517Y019785D01*
X037108Y019785D01*
X037305Y019588D01*
X037305Y020179D02*
X037108Y020376D01*
X036517Y020376D01*
X035887Y021006D01*
X035395Y021006D01*
X035395Y021006D01*
X034861Y021006D01*
X034861Y021022D01*
X034672Y021022D01*
X034632Y021022D01*
X034666Y020989D01*
X034861Y020989D01*
X034861Y021006D01*
X035395Y021006D01*
X035929Y021006D01*
X035395Y021006D01*
X035395Y021006D01*
X035395Y021202D02*
X034598Y021202D01*
X033300Y022500D01*
X032818Y022500D01*
X032777Y022541D01*
X022584Y022541D01*
X022080Y022037D01*
X021630Y022023D02*
X021530Y022023D01*
X021530Y022141D02*
X021630Y022141D01*
X021666Y022260D02*
X021494Y022260D01*
X021376Y022378D02*
X021785Y022378D01*
X021630Y021904D02*
X021530Y021904D01*
X021586Y021786D02*
X021695Y021786D01*
X021561Y021557D02*
X021080Y022037D01*
X020630Y022023D02*
X019932Y022023D01*
X019930Y022141D02*
X020630Y022141D01*
X020666Y022260D02*
X019894Y022260D01*
X019776Y022378D02*
X020785Y022378D01*
X020630Y021904D02*
X020051Y021904D01*
X020169Y021786D02*
X020695Y021786D01*
X020814Y021667D02*
X020288Y021667D01*
X020406Y021549D02*
X021314Y021549D01*
X021561Y021557D02*
X028250Y021557D01*
X028840Y022147D01*
X033253Y022147D01*
X034578Y020822D01*
X034578Y020809D01*
X035395Y020809D01*
X035395Y020612D02*
X034293Y020612D01*
X034293Y020707D01*
X033050Y021950D01*
X029037Y021950D01*
X028446Y021360D01*
X020340Y021360D01*
X019767Y021933D01*
X019585Y021933D01*
X019480Y022037D01*
X019030Y022023D02*
X018930Y022023D01*
X018930Y022141D02*
X019030Y022141D01*
X019066Y022260D02*
X018894Y022260D01*
X018776Y022378D02*
X019185Y022378D01*
X019030Y021904D02*
X018930Y021904D01*
X018865Y021786D02*
X019095Y021786D01*
X019214Y021667D02*
X018747Y021667D01*
X018694Y021549D02*
X019897Y021549D01*
X019778Y021667D02*
X019747Y021667D01*
X020015Y021430D02*
X018694Y021430D01*
X018694Y021312D02*
X020134Y021312D01*
X020160Y021285D02*
X020160Y021285D01*
X020252Y021193D02*
X018762Y021193D01*
X018880Y021075D02*
X027316Y021075D01*
X027198Y020956D02*
X025399Y020956D01*
X025470Y020838D02*
X027079Y020838D01*
X027069Y020572D02*
X027069Y020376D01*
X026822Y020622D01*
X026800Y020600D01*
X025113Y020600D01*
X024757Y020601D02*
X024643Y020601D01*
X024643Y020719D02*
X024757Y020719D01*
X024757Y020886D02*
X024827Y020956D01*
X024757Y020482D02*
X024643Y020482D01*
X024643Y020364D02*
X024757Y020364D01*
X024826Y020245D02*
X024574Y020245D01*
X024287Y020600D02*
X022823Y020600D01*
X022805Y020581D01*
X022510Y020601D02*
X022420Y020601D01*
X022420Y020719D02*
X022510Y020719D01*
X022510Y020838D02*
X022420Y020838D01*
X022420Y020841D02*
X022349Y020911D01*
X021900Y020911D01*
X021830Y020841D01*
X021830Y020321D01*
X021900Y020251D01*
X021925Y020251D01*
X021925Y017815D01*
X022764Y016976D01*
X022757Y016960D01*
X022757Y016807D01*
X022778Y016756D01*
X022778Y016639D01*
X022895Y016522D01*
X023012Y016522D01*
X023063Y016501D01*
X023216Y016501D01*
X023356Y016559D01*
X023464Y016667D01*
X023522Y016807D01*
X023522Y016960D01*
X023464Y017100D01*
X023356Y017208D01*
X023216Y017266D01*
X023063Y017266D01*
X023046Y017259D01*
X022325Y017981D01*
X022325Y020251D01*
X022349Y020251D01*
X022420Y020321D01*
X022420Y020841D01*
X022420Y020482D02*
X022510Y020482D01*
X022510Y020364D02*
X022420Y020364D01*
X022325Y020245D02*
X023999Y020245D01*
X023930Y020364D02*
X023100Y020364D01*
X023100Y020838D02*
X023930Y020838D01*
X024001Y020956D02*
X018999Y020956D01*
X019117Y020838D02*
X021830Y020838D01*
X021830Y020719D02*
X019236Y020719D01*
X019354Y020601D02*
X021830Y020601D01*
X021830Y020482D02*
X019473Y020482D01*
X019591Y020364D02*
X021830Y020364D01*
X021925Y020245D02*
X019680Y020245D01*
X019680Y020127D02*
X021925Y020127D01*
X021925Y020008D02*
X019680Y020008D01*
X019680Y019890D02*
X021925Y019890D01*
X021925Y019771D02*
X019680Y019771D01*
X019680Y019653D02*
X021925Y019653D01*
X021925Y019534D02*
X019680Y019534D01*
X019680Y019416D02*
X021925Y019416D01*
X021925Y019297D02*
X019680Y019297D01*
X019680Y019179D02*
X021925Y019179D01*
X021925Y019060D02*
X019680Y019060D01*
X019713Y018942D02*
X021925Y018942D01*
X021925Y018823D02*
X019832Y018823D01*
X019950Y018705D02*
X021925Y018705D01*
X021925Y018586D02*
X020069Y018586D01*
X020187Y018468D02*
X021925Y018468D01*
X021925Y018349D02*
X020306Y018349D01*
X020424Y018231D02*
X021925Y018231D01*
X021925Y018112D02*
X020543Y018112D01*
X020661Y017994D02*
X021925Y017994D01*
X021925Y017875D02*
X020780Y017875D01*
X020898Y017757D02*
X021983Y017757D01*
X022102Y017638D02*
X021017Y017638D01*
X021135Y017520D02*
X022220Y017520D01*
X022339Y017401D02*
X021254Y017401D01*
X021372Y017283D02*
X022457Y017283D01*
X022576Y017164D02*
X021491Y017164D01*
X021609Y017046D02*
X022694Y017046D01*
X022757Y016927D02*
X021728Y016927D01*
X021846Y016809D02*
X022757Y016809D01*
X022778Y016690D02*
X021965Y016690D01*
X022083Y016572D02*
X022846Y016572D01*
X023369Y016572D02*
X023853Y016572D01*
X023763Y016690D02*
X023474Y016690D01*
X023522Y016809D02*
X023723Y016809D01*
X023718Y016927D02*
X023522Y016927D01*
X023487Y017046D02*
X023748Y017046D01*
X023822Y017164D02*
X023400Y017164D01*
X023023Y017283D02*
X024000Y017283D01*
X024112Y017283D02*
X024167Y017283D01*
X024279Y017283D02*
X030314Y017283D01*
X030195Y017401D02*
X022905Y017401D01*
X022786Y017520D02*
X030077Y017520D01*
X029958Y017638D02*
X022668Y017638D01*
X022549Y017757D02*
X029945Y017757D01*
X029945Y017651D02*
X030620Y016976D01*
X030613Y016960D01*
X030613Y016807D01*
X030671Y016667D01*
X030779Y016559D01*
X030920Y016501D01*
X031072Y016501D01*
X031213Y016559D01*
X031320Y016667D01*
X031378Y016807D01*
X031378Y016960D01*
X031320Y017100D01*
X031213Y017208D01*
X031072Y017266D01*
X030920Y017266D01*
X030903Y017259D01*
X030345Y017817D01*
X030345Y020251D01*
X030370Y020251D01*
X030440Y020321D01*
X030440Y020841D01*
X030370Y020911D01*
X029920Y020911D01*
X029850Y020841D01*
X029850Y020321D01*
X029920Y020251D01*
X029945Y020251D01*
X029945Y017651D01*
X029945Y017875D02*
X022431Y017875D01*
X022325Y017994D02*
X029945Y017994D01*
X029945Y018112D02*
X022325Y018112D01*
X022325Y018231D02*
X024851Y018231D01*
X024735Y018279D02*
X024997Y018170D01*
X025281Y018170D01*
X025544Y018279D01*
X025744Y018479D01*
X025853Y018741D01*
X025853Y019025D01*
X025744Y019288D01*
X025544Y019488D01*
X025281Y019597D01*
X024997Y019597D01*
X024735Y019488D01*
X024534Y019288D01*
X024426Y019025D01*
X024426Y018741D01*
X024534Y018479D01*
X024735Y018279D01*
X024665Y018349D02*
X022325Y018349D01*
X022325Y018468D02*
X024546Y018468D01*
X024490Y018586D02*
X022325Y018586D01*
X022325Y018705D02*
X024441Y018705D01*
X024426Y018823D02*
X022325Y018823D01*
X022325Y018942D02*
X024426Y018942D01*
X024440Y019060D02*
X022325Y019060D01*
X022325Y019179D02*
X024489Y019179D01*
X024544Y019297D02*
X022325Y019297D01*
X022325Y019416D02*
X024662Y019416D01*
X024846Y019534D02*
X022325Y019534D01*
X022325Y019653D02*
X026889Y019653D01*
X026889Y019771D02*
X022325Y019771D01*
X022325Y019890D02*
X026889Y019890D01*
X026889Y020008D02*
X022325Y020008D01*
X022325Y020127D02*
X026889Y020127D01*
X026889Y020245D02*
X025401Y020245D01*
X025470Y020364D02*
X026826Y020364D01*
X027069Y020376D02*
X027069Y018998D01*
X027367Y018942D02*
X029945Y018942D01*
X029945Y019060D02*
X027367Y019060D01*
X027367Y019179D02*
X029945Y019179D01*
X029945Y019297D02*
X027249Y019297D01*
X027249Y019416D02*
X029945Y019416D01*
X029945Y019534D02*
X027249Y019534D01*
X027249Y019653D02*
X029945Y019653D01*
X029945Y019771D02*
X027249Y019771D01*
X027249Y019890D02*
X029945Y019890D01*
X029945Y020008D02*
X027249Y020008D01*
X027249Y020127D02*
X029945Y020127D01*
X029945Y020245D02*
X027249Y020245D01*
X027249Y020364D02*
X029850Y020364D01*
X029850Y020482D02*
X027249Y020482D01*
X027351Y020601D02*
X029850Y020601D01*
X029850Y020719D02*
X027470Y020719D01*
X027588Y020838D02*
X029850Y020838D01*
X030440Y020838D02*
X030530Y020838D01*
X030530Y020719D02*
X030440Y020719D01*
X030440Y020601D02*
X030530Y020601D01*
X030530Y020482D02*
X030440Y020482D01*
X030440Y020364D02*
X030530Y020364D01*
X030345Y020245D02*
X031899Y020245D01*
X031830Y020364D02*
X031120Y020364D01*
X030844Y020600D02*
X030825Y020581D01*
X030844Y020600D02*
X032187Y020600D01*
X032543Y020601D02*
X032657Y020601D01*
X032657Y020719D02*
X032543Y020719D01*
X032657Y020886D02*
X032727Y020956D01*
X033134Y021312D02*
X029046Y021312D01*
X029165Y021430D02*
X033015Y021430D01*
X032897Y021549D02*
X029283Y021549D01*
X029234Y021754D02*
X028643Y021163D01*
X027659Y021163D01*
X027069Y020572D01*
X027707Y020956D02*
X031901Y020956D01*
X031830Y020838D02*
X031120Y020838D01*
X030345Y020127D02*
X033927Y020127D01*
X034046Y020245D02*
X033301Y020245D01*
X033370Y020364D02*
X034164Y020364D01*
X034168Y020482D02*
X033837Y020482D01*
X033880Y020601D02*
X034113Y020601D01*
X034026Y020719D02*
X033880Y020719D01*
X033880Y020838D02*
X033908Y020838D01*
X033700Y021000D02*
X033700Y020600D01*
X033013Y020600D01*
X032657Y020482D02*
X032543Y020482D01*
X032543Y020364D02*
X032657Y020364D01*
X032726Y020245D02*
X032474Y020245D01*
X032702Y019534D02*
X030345Y019534D01*
X030345Y019416D02*
X032519Y019416D01*
X032400Y019297D02*
X030345Y019297D01*
X030345Y019179D02*
X032346Y019179D01*
X032297Y019060D02*
X030345Y019060D01*
X030345Y018942D02*
X032282Y018942D01*
X032282Y018823D02*
X030345Y018823D01*
X030345Y018705D02*
X032297Y018705D01*
X032347Y018586D02*
X030345Y018586D01*
X030345Y018468D02*
X032402Y018468D01*
X032521Y018349D02*
X030345Y018349D01*
X030345Y018231D02*
X032707Y018231D01*
X033284Y018231D02*
X033542Y018231D01*
X033542Y018349D02*
X033470Y018349D01*
X033542Y018112D02*
X030345Y018112D01*
X030345Y017994D02*
X033448Y017994D01*
X033329Y017875D02*
X030345Y017875D01*
X030405Y017757D02*
X033211Y017757D01*
X033092Y017638D02*
X030524Y017638D01*
X030642Y017520D02*
X032974Y017520D01*
X032855Y017401D02*
X030761Y017401D01*
X030879Y017283D02*
X031856Y017283D01*
X031833Y017275D02*
X031774Y017245D01*
X031720Y017206D01*
X031673Y017159D01*
X031634Y017105D01*
X031604Y017046D01*
X031583Y016982D01*
X031573Y016917D01*
X031573Y016911D01*
X031968Y016911D01*
X031968Y017306D01*
X031962Y017306D01*
X031897Y017296D01*
X031833Y017275D01*
X031968Y017283D02*
X032023Y017283D01*
X032135Y017283D02*
X032737Y017283D01*
X032618Y017164D02*
X032313Y017164D01*
X032388Y017046D02*
X032500Y017046D01*
X032413Y016704D02*
X032413Y016429D01*
X032284Y016300D01*
X022100Y016300D01*
X019500Y018900D01*
X019500Y020200D01*
X018514Y021186D01*
X018514Y022004D01*
X018214Y021667D02*
X017788Y021667D01*
X017865Y021786D02*
X018095Y021786D01*
X018030Y021904D02*
X017930Y021904D01*
X017930Y022023D02*
X018030Y022023D01*
X018030Y022141D02*
X017930Y022141D01*
X017894Y022260D02*
X018066Y022260D01*
X018185Y022378D02*
X017776Y022378D01*
X017480Y022037D02*
X017480Y021720D01*
X019200Y020000D01*
X019200Y018900D01*
X022000Y016100D01*
X032360Y016100D01*
X032620Y016360D01*
X032620Y016635D01*
X033958Y017974D01*
X033958Y019588D01*
X034352Y019982D01*
X034352Y020021D01*
X035395Y020021D01*
X035395Y020218D02*
X034273Y020218D01*
X033722Y019667D01*
X033722Y018013D01*
X032413Y016704D01*
X032826Y016567D02*
X032826Y016291D01*
X032435Y015900D01*
X021900Y015900D01*
X019000Y018800D01*
X019000Y019900D01*
X017500Y021400D01*
X017100Y021400D01*
X016480Y022020D01*
X016480Y022037D01*
X016930Y022023D02*
X017030Y022023D01*
X017030Y022141D02*
X016930Y022141D01*
X016894Y022260D02*
X017066Y022260D01*
X017185Y022378D02*
X016776Y022378D01*
X016930Y021904D02*
X017030Y021904D01*
X016969Y021786D02*
X017095Y021786D01*
X017088Y021667D02*
X017214Y021667D01*
X017906Y021549D02*
X018334Y021549D01*
X018334Y021430D02*
X018025Y021430D01*
X018143Y021312D02*
X018334Y021312D01*
X018334Y021193D02*
X018262Y021193D01*
X017300Y020600D02*
X018300Y019600D01*
X018300Y018514D01*
X018604Y018210D01*
X018604Y011911D01*
X026626Y011911D01*
X026806Y011713D02*
X030707Y011713D01*
X031304Y011713D02*
X034369Y011713D01*
X034369Y011595D02*
X026806Y011595D01*
X026806Y011476D02*
X034369Y011476D01*
X034369Y011358D02*
X026806Y011358D01*
X026806Y011239D02*
X034369Y011239D01*
X034369Y011121D02*
X026806Y011121D01*
X026806Y011002D02*
X032818Y011002D01*
X032904Y011038D02*
X032642Y010929D01*
X032441Y010729D01*
X032333Y010466D01*
X032333Y010182D01*
X032441Y009920D01*
X032642Y009720D01*
X032904Y009611D01*
X033188Y009611D01*
X033450Y009720D01*
X033651Y009920D01*
X033760Y010182D01*
X033760Y010466D01*
X033651Y010729D01*
X033450Y010929D01*
X033188Y011038D01*
X032904Y011038D01*
X032596Y010884D02*
X026806Y010884D01*
X026806Y010765D02*
X032478Y010765D01*
X032407Y010647D02*
X026806Y010647D01*
X026806Y010528D02*
X032358Y010528D01*
X032333Y010410D02*
X026806Y010410D01*
X026806Y010291D02*
X032333Y010291D01*
X032337Y010173D02*
X026806Y010173D01*
X026806Y010054D02*
X032386Y010054D01*
X032435Y009936D02*
X026806Y009936D01*
X026806Y009817D02*
X032545Y009817D01*
X032693Y009699D02*
X026806Y009699D01*
X026806Y009580D02*
X034369Y009580D01*
X034369Y009462D02*
X026806Y009462D01*
X026806Y009343D02*
X034369Y009343D01*
X034369Y009225D02*
X026806Y009225D01*
X026806Y009106D02*
X034369Y009106D01*
X034369Y008988D02*
X026806Y008988D01*
X026806Y008869D02*
X034369Y008869D01*
X034369Y008751D02*
X026806Y008751D01*
X026806Y008632D02*
X030813Y008632D01*
X030710Y008514D02*
X026806Y008514D01*
X026806Y008395D02*
X030664Y008395D01*
X030664Y008277D02*
X026806Y008277D01*
X026806Y008158D02*
X030597Y008158D01*
X030479Y008040D02*
X026806Y008040D01*
X026806Y007921D02*
X030360Y007921D01*
X030242Y007803D02*
X026806Y007803D01*
X026806Y007684D02*
X030123Y007684D01*
X030020Y007566D02*
X026806Y007566D01*
X026806Y007447D02*
X030020Y007447D01*
X030020Y007329D02*
X026806Y007329D01*
X026806Y007210D02*
X030020Y007210D01*
X030020Y007092D02*
X026806Y007092D01*
X026806Y006973D02*
X028748Y006973D01*
X028642Y006929D02*
X028441Y006729D01*
X028333Y006466D01*
X028333Y006182D01*
X028441Y005920D01*
X028642Y005720D01*
X028904Y005611D01*
X029188Y005611D01*
X029450Y005720D01*
X029651Y005920D01*
X029760Y006182D01*
X029760Y006466D01*
X029651Y006729D01*
X029450Y006929D01*
X029188Y007038D01*
X028904Y007038D01*
X028642Y006929D01*
X028567Y006855D02*
X026806Y006855D01*
X026806Y006736D02*
X028449Y006736D01*
X028395Y006618D02*
X026806Y006618D01*
X026806Y006499D02*
X028346Y006499D01*
X028333Y006381D02*
X026806Y006381D01*
X026806Y006262D02*
X028333Y006262D01*
X028349Y006144D02*
X026806Y006144D01*
X026806Y006025D02*
X028398Y006025D01*
X028455Y005907D02*
X026806Y005907D01*
X026806Y005788D02*
X028574Y005788D01*
X028763Y005670D02*
X026806Y005670D01*
X026806Y005551D02*
X030020Y005551D01*
X030020Y005433D02*
X026806Y005433D01*
X026806Y005314D02*
X030020Y005314D01*
X030020Y005196D02*
X026806Y005196D01*
X026806Y005077D02*
X030020Y005077D01*
X030020Y004959D02*
X026709Y004959D01*
X026591Y004840D02*
X030020Y004840D01*
X029941Y004722D02*
X026472Y004722D01*
X026354Y004603D02*
X029925Y004603D01*
X029925Y004485D02*
X026235Y004485D01*
X026117Y004366D02*
X029925Y004366D01*
X029925Y004248D02*
X025998Y004248D01*
X025845Y004603D02*
X025270Y004603D01*
X025234Y004722D02*
X025963Y004722D01*
X026082Y004840D02*
X022273Y004840D01*
X022273Y004768D02*
X022273Y007170D01*
X023048Y007945D01*
X023065Y007938D01*
X023217Y007938D01*
X023358Y007996D01*
X023466Y008104D01*
X023524Y008245D01*
X023524Y008397D01*
X023466Y008538D01*
X023358Y008645D01*
X023217Y008704D01*
X023065Y008704D01*
X022924Y008645D01*
X022817Y008538D01*
X022758Y008397D01*
X022758Y008245D01*
X022765Y008228D01*
X021873Y007335D01*
X021873Y004768D01*
X021848Y004768D01*
X021778Y004698D01*
X021778Y004178D01*
X021848Y004108D01*
X022297Y004108D01*
X022368Y004178D01*
X022368Y004698D01*
X022297Y004768D01*
X022273Y004768D01*
X022344Y004722D02*
X022481Y004722D01*
X022458Y004698D02*
X022528Y004768D01*
X022977Y004768D01*
X023048Y004698D01*
X023048Y004580D01*
X023730Y004580D01*
X023730Y004686D01*
X023801Y004756D01*
X024373Y004756D01*
X024443Y004686D01*
X024443Y004114D01*
X024373Y004044D01*
X023801Y004044D01*
X023730Y004114D01*
X023730Y004220D01*
X023048Y004220D01*
X023048Y004178D01*
X022977Y004108D01*
X022528Y004108D01*
X022458Y004178D01*
X022458Y004698D01*
X022458Y004603D02*
X022368Y004603D01*
X022368Y004485D02*
X022458Y004485D01*
X022458Y004366D02*
X022368Y004366D01*
X022368Y004248D02*
X022458Y004248D01*
X022507Y004129D02*
X022318Y004129D01*
X021827Y004129D02*
X011658Y004129D01*
X011658Y004248D02*
X014082Y004248D01*
X014105Y004224D02*
X014555Y004224D01*
X014625Y004294D01*
X014625Y004814D01*
X014555Y004884D01*
X014530Y004884D01*
X014530Y007397D01*
X015099Y007966D01*
X015116Y007959D01*
X015268Y007959D01*
X015409Y008017D01*
X015516Y008125D01*
X015575Y008266D01*
X015575Y008418D01*
X015516Y008559D01*
X015409Y008666D01*
X015268Y008725D01*
X015116Y008725D01*
X014975Y008666D01*
X014867Y008559D01*
X014809Y008418D01*
X014809Y008266D01*
X014816Y008249D01*
X014130Y007563D01*
X014130Y004884D01*
X014105Y004884D01*
X014035Y004814D01*
X014035Y004294D01*
X014105Y004224D01*
X014035Y004366D02*
X011658Y004366D01*
X011678Y004485D02*
X014035Y004485D01*
X014035Y004603D02*
X011657Y004603D01*
X011539Y004722D02*
X014035Y004722D01*
X014061Y004840D02*
X011420Y004840D01*
X011302Y004959D02*
X014130Y004959D01*
X014130Y005077D02*
X011183Y005077D01*
X011065Y005196D02*
X014130Y005196D01*
X014130Y005314D02*
X010959Y005314D01*
X010959Y005433D02*
X014130Y005433D01*
X014130Y005551D02*
X010959Y005551D01*
X010959Y005670D02*
X012950Y005670D01*
X013050Y005628D02*
X013334Y005628D01*
X013596Y005737D01*
X013797Y005938D01*
X013905Y006200D01*
X013905Y006484D01*
X013797Y006746D01*
X013596Y006947D01*
X013334Y007055D01*
X013050Y007055D01*
X012788Y006947D01*
X012587Y006746D01*
X012478Y006484D01*
X012478Y006200D01*
X012587Y005938D01*
X012788Y005737D01*
X013050Y005628D01*
X012736Y005788D02*
X010959Y005788D01*
X010959Y005907D02*
X012618Y005907D01*
X012551Y006025D02*
X010959Y006025D01*
X010959Y006144D02*
X012502Y006144D01*
X012478Y006262D02*
X010959Y006262D01*
X010959Y006381D02*
X012478Y006381D01*
X012485Y006499D02*
X010959Y006499D01*
X010959Y006618D02*
X012534Y006618D01*
X012583Y006736D02*
X010959Y006736D01*
X010959Y006855D02*
X012695Y006855D01*
X012851Y006973D02*
X010959Y006973D01*
X010959Y007092D02*
X014130Y007092D01*
X014130Y007210D02*
X010959Y007210D01*
X010959Y007329D02*
X014130Y007329D01*
X014130Y007447D02*
X010959Y007447D01*
X010959Y007566D02*
X014133Y007566D01*
X014251Y007684D02*
X010959Y007684D01*
X010959Y007803D02*
X014370Y007803D01*
X014488Y007921D02*
X010959Y007921D01*
X010959Y008040D02*
X014607Y008040D01*
X014725Y008158D02*
X010959Y008158D01*
X010959Y008277D02*
X014809Y008277D01*
X014809Y008395D02*
X010959Y008395D01*
X010959Y008514D02*
X014849Y008514D01*
X014941Y008632D02*
X010959Y008632D01*
X010959Y008751D02*
X016082Y008751D01*
X016093Y008754D02*
X016029Y008734D01*
X015970Y008703D01*
X015916Y008664D01*
X015869Y008617D01*
X015830Y008563D01*
X015800Y008504D01*
X015779Y008441D01*
X015769Y008375D01*
X015769Y008369D01*
X016164Y008369D01*
X016164Y008314D01*
X016219Y008314D01*
X016219Y007919D01*
X016225Y007919D01*
X016291Y007929D01*
X016354Y007950D01*
X016413Y007980D01*
X016467Y008019D01*
X016514Y008066D01*
X016553Y008120D01*
X016584Y008179D01*
X016604Y008243D01*
X016615Y008308D01*
X016615Y008314D01*
X016219Y008314D01*
X016219Y008369D01*
X016615Y008369D01*
X016615Y008375D01*
X016604Y008441D01*
X016584Y008504D01*
X016553Y008563D01*
X016514Y008617D01*
X016467Y008664D01*
X016413Y008703D01*
X016354Y008734D01*
X016291Y008754D01*
X016225Y008765D01*
X016219Y008765D01*
X016219Y008369D01*
X016164Y008369D01*
X016164Y008765D01*
X016158Y008765D01*
X016093Y008754D01*
X016164Y008751D02*
X016219Y008751D01*
X016302Y008751D02*
X018424Y008751D01*
X018424Y008869D02*
X010959Y008869D01*
X010959Y008988D02*
X018424Y008988D01*
X018424Y009106D02*
X010959Y009106D01*
X010959Y009225D02*
X018424Y009225D01*
X018424Y009343D02*
X010959Y009343D01*
X010959Y009462D02*
X018424Y009462D01*
X018424Y009580D02*
X010959Y009580D01*
X010959Y009699D02*
X016880Y009699D01*
X016788Y009737D02*
X017050Y009628D01*
X017334Y009628D01*
X017596Y009737D01*
X017797Y009938D01*
X017905Y010200D01*
X017905Y010484D01*
X017797Y010746D01*
X017596Y010947D01*
X017334Y011055D01*
X017050Y011055D01*
X016788Y010947D01*
X016587Y010746D01*
X016478Y010484D01*
X016478Y010200D01*
X016587Y009938D01*
X016788Y009737D01*
X016707Y009817D02*
X010959Y009817D01*
X010959Y009936D02*
X016589Y009936D01*
X016539Y010054D02*
X010959Y010054D01*
X010959Y010173D02*
X016490Y010173D01*
X016478Y010291D02*
X010959Y010291D01*
X010959Y010410D02*
X016478Y010410D01*
X016497Y010528D02*
X010959Y010528D01*
X010959Y010647D02*
X016546Y010647D01*
X016606Y010765D02*
X010959Y010765D01*
X010959Y010884D02*
X016724Y010884D01*
X016921Y011002D02*
X010959Y011002D01*
X010959Y011121D02*
X018424Y011121D01*
X018424Y011239D02*
X010959Y011239D01*
X010959Y011358D02*
X018424Y011358D01*
X018424Y011476D02*
X010959Y011476D01*
X010959Y011595D02*
X018424Y011595D01*
X018424Y011713D02*
X010959Y011713D01*
X010779Y011911D02*
X018604Y011911D01*
X018604Y004824D01*
X018280Y004500D01*
X017413Y004500D01*
X017057Y004485D02*
X016943Y004485D01*
X016943Y004603D02*
X017057Y004603D01*
X017057Y004722D02*
X016943Y004722D01*
X016943Y004786D02*
X016943Y004214D01*
X016873Y004144D01*
X016301Y004144D01*
X016230Y004214D01*
X016230Y004320D01*
X015305Y004320D01*
X015305Y004294D01*
X015235Y004224D01*
X014785Y004224D01*
X014715Y004294D01*
X014715Y004814D01*
X014785Y004884D01*
X015235Y004884D01*
X015305Y004814D01*
X015305Y004680D01*
X016230Y004680D01*
X016230Y004786D01*
X016301Y004856D01*
X016873Y004856D01*
X016943Y004786D01*
X016889Y004840D02*
X017111Y004840D01*
X017716Y004840D02*
X018365Y004840D01*
X018424Y004959D02*
X014530Y004959D01*
X014530Y005077D02*
X018424Y005077D01*
X018424Y005196D02*
X014530Y005196D01*
X014530Y005314D02*
X018424Y005314D01*
X018424Y005433D02*
X014530Y005433D01*
X014530Y005551D02*
X018424Y005551D01*
X018424Y005670D02*
X014530Y005670D01*
X014530Y005788D02*
X018424Y005788D01*
X018424Y005907D02*
X014530Y005907D01*
X014530Y006025D02*
X018424Y006025D01*
X018424Y006144D02*
X014530Y006144D01*
X014530Y006262D02*
X018424Y006262D01*
X018424Y006381D02*
X014530Y006381D01*
X014530Y006499D02*
X018424Y006499D01*
X018424Y006618D02*
X014530Y006618D01*
X014530Y006736D02*
X018424Y006736D01*
X018424Y006855D02*
X014530Y006855D01*
X014530Y006973D02*
X018424Y006973D01*
X018424Y007092D02*
X014530Y007092D01*
X014530Y007210D02*
X018424Y007210D01*
X018424Y007329D02*
X014530Y007329D01*
X014580Y007447D02*
X018424Y007447D01*
X018424Y007566D02*
X014698Y007566D01*
X014817Y007684D02*
X018424Y007684D01*
X018424Y007803D02*
X014935Y007803D01*
X015054Y007921D02*
X016145Y007921D01*
X016158Y007919D02*
X016164Y007919D01*
X016164Y008314D01*
X015769Y008314D01*
X015769Y008308D01*
X015779Y008243D01*
X015800Y008179D01*
X015830Y008120D01*
X015869Y008066D01*
X015916Y008019D01*
X015970Y007980D01*
X016029Y007950D01*
X016093Y007929D01*
X016158Y007919D01*
X016164Y007921D02*
X016219Y007921D01*
X016238Y007921D02*
X018424Y007921D01*
X018424Y008040D02*
X016487Y008040D01*
X016573Y008158D02*
X018424Y008158D01*
X018424Y008277D02*
X016609Y008277D01*
X016611Y008395D02*
X018424Y008395D01*
X018424Y008514D02*
X016579Y008514D01*
X016499Y008632D02*
X018424Y008632D01*
X018784Y008632D02*
X022911Y008632D01*
X022807Y008514D02*
X018784Y008514D01*
X018784Y008395D02*
X022758Y008395D01*
X022758Y008277D02*
X018784Y008277D01*
X018784Y008158D02*
X022695Y008158D01*
X022577Y008040D02*
X018784Y008040D01*
X018784Y007921D02*
X022458Y007921D01*
X022340Y007803D02*
X018784Y007803D01*
X018784Y007684D02*
X022221Y007684D01*
X022103Y007566D02*
X018784Y007566D01*
X018784Y007447D02*
X021984Y007447D01*
X021873Y007329D02*
X018784Y007329D01*
X018784Y007210D02*
X021873Y007210D01*
X021873Y007092D02*
X018784Y007092D01*
X018784Y006973D02*
X020851Y006973D01*
X020737Y006926D02*
X020536Y006725D01*
X020428Y006463D01*
X020428Y006179D01*
X020536Y005917D01*
X020737Y005716D01*
X020999Y005607D01*
X021283Y005607D01*
X021545Y005716D01*
X021746Y005917D01*
X021855Y006179D01*
X021855Y006463D01*
X021746Y006725D01*
X021545Y006926D01*
X021283Y007034D01*
X020999Y007034D01*
X020737Y006926D01*
X020666Y006855D02*
X018784Y006855D01*
X018784Y006736D02*
X020547Y006736D01*
X020492Y006618D02*
X018784Y006618D01*
X018784Y006499D02*
X020443Y006499D01*
X020428Y006381D02*
X018784Y006381D01*
X018784Y006262D02*
X020428Y006262D01*
X020442Y006144D02*
X018784Y006144D01*
X018784Y006025D02*
X020491Y006025D01*
X020546Y005907D02*
X018784Y005907D01*
X018784Y005788D02*
X020665Y005788D01*
X020849Y005670D02*
X018784Y005670D01*
X018784Y005551D02*
X021873Y005551D01*
X021873Y005433D02*
X018784Y005433D01*
X018784Y005314D02*
X021873Y005314D01*
X021873Y005196D02*
X018784Y005196D01*
X018784Y005077D02*
X021873Y005077D01*
X021873Y004959D02*
X018784Y004959D01*
X018784Y004840D02*
X021873Y004840D01*
X021801Y004722D02*
X018756Y004722D01*
X018678Y004644D02*
X018678Y004644D01*
X018637Y004603D02*
X021778Y004603D01*
X021778Y004485D02*
X018519Y004485D01*
X018400Y004366D02*
X021778Y004366D01*
X021778Y004248D02*
X017770Y004248D01*
X017770Y004722D02*
X018246Y004722D01*
X017057Y004366D02*
X016943Y004366D01*
X016943Y004248D02*
X017057Y004248D01*
X016587Y004500D02*
X015064Y004500D01*
X015010Y004554D01*
X014715Y004603D02*
X014625Y004603D01*
X014625Y004485D02*
X014715Y004485D01*
X014715Y004366D02*
X014625Y004366D01*
X014578Y004248D02*
X014762Y004248D01*
X014715Y004722D02*
X014625Y004722D01*
X014599Y004840D02*
X014741Y004840D01*
X015279Y004840D02*
X016284Y004840D01*
X016230Y004722D02*
X015305Y004722D01*
X015258Y004248D02*
X016230Y004248D01*
X016336Y003418D02*
X016825Y003418D01*
X016706Y003300D02*
X016454Y003300D01*
X016530Y003181D02*
X016630Y003181D01*
X016630Y003063D02*
X016530Y003063D01*
X016530Y002944D02*
X016630Y002944D01*
X016655Y002826D02*
X016505Y002826D01*
X016387Y002707D02*
X016774Y002707D01*
X017387Y002707D02*
X017496Y002707D01*
X017505Y002826D02*
X017614Y002826D01*
X017630Y002944D02*
X017530Y002944D01*
X017530Y003063D02*
X017630Y003063D01*
X017630Y003181D02*
X017530Y003181D01*
X017454Y003300D02*
X017706Y003300D01*
X017825Y003418D02*
X017336Y003418D01*
X018080Y003037D02*
X017474Y002431D01*
X015482Y002431D01*
X015198Y002714D01*
X014310Y002714D01*
X014015Y002707D02*
X013925Y002707D01*
X013925Y002589D02*
X014015Y002589D01*
X014015Y002470D02*
X013925Y002470D01*
X013925Y002826D02*
X014015Y002826D01*
X014015Y002944D02*
X013925Y002944D01*
X013630Y002714D02*
X013216Y002300D01*
X011400Y002300D01*
X011100Y002600D01*
X011100Y002687D01*
X011456Y002707D02*
X013335Y002707D01*
X013335Y002826D02*
X011456Y002826D01*
X011456Y002944D02*
X013335Y002944D01*
X013576Y002768D02*
X013630Y002714D01*
X013522Y002352D02*
X015307Y002352D01*
X015188Y002470D02*
X014605Y002470D01*
X014605Y002944D02*
X015630Y002944D01*
X015655Y002826D02*
X015342Y002826D01*
X015460Y002707D02*
X015774Y002707D01*
X017649Y002352D02*
X038660Y002352D01*
X038660Y002470D02*
X017768Y002470D01*
X017886Y002589D02*
X017892Y002589D01*
X018268Y002589D02*
X018892Y002589D01*
X018894Y002587D02*
X019267Y002587D01*
X019530Y002851D01*
X019530Y003223D01*
X019267Y003487D01*
X018894Y003487D01*
X018630Y003223D01*
X018630Y002851D01*
X018894Y002587D01*
X018774Y002707D02*
X018387Y002707D01*
X018505Y002826D02*
X018655Y002826D01*
X018630Y002944D02*
X018530Y002944D01*
X018530Y003063D02*
X018630Y003063D01*
X018630Y003181D02*
X018530Y003181D01*
X018454Y003300D02*
X018706Y003300D01*
X018825Y003418D02*
X018336Y003418D01*
X019336Y003418D02*
X019825Y003418D01*
X019894Y003487D02*
X019630Y003223D01*
X019630Y002851D01*
X019894Y002587D01*
X020267Y002587D01*
X020530Y002851D01*
X020530Y003223D01*
X020267Y003487D01*
X019894Y003487D01*
X019706Y003300D02*
X019454Y003300D01*
X019530Y003181D02*
X019630Y003181D01*
X019630Y003063D02*
X019530Y003063D01*
X019530Y002944D02*
X019630Y002944D01*
X019655Y002826D02*
X019505Y002826D01*
X019387Y002707D02*
X019774Y002707D01*
X019892Y002589D02*
X019268Y002589D01*
X020268Y002589D02*
X020892Y002589D01*
X020894Y002587D02*
X021267Y002587D01*
X021530Y002851D01*
X021530Y003223D01*
X021267Y003487D01*
X020894Y003487D01*
X020630Y003223D01*
X020630Y002851D01*
X020894Y002587D01*
X020774Y002707D02*
X020387Y002707D01*
X020505Y002826D02*
X020655Y002826D01*
X020630Y002944D02*
X020530Y002944D01*
X020530Y003063D02*
X020630Y003063D01*
X020630Y003181D02*
X020530Y003181D01*
X020454Y003300D02*
X020706Y003300D01*
X020825Y003418D02*
X020336Y003418D01*
X021336Y003418D02*
X022825Y003418D01*
X022894Y003487D02*
X022630Y003223D01*
X022630Y002851D01*
X022894Y002587D01*
X023267Y002587D01*
X023530Y002851D01*
X023530Y003223D01*
X023267Y003487D01*
X022894Y003487D01*
X022706Y003300D02*
X021454Y003300D01*
X021530Y003181D02*
X022630Y003181D01*
X022630Y003063D02*
X021530Y003063D01*
X021530Y002944D02*
X022630Y002944D01*
X022655Y002826D02*
X021505Y002826D01*
X021387Y002707D02*
X022774Y002707D01*
X022892Y002589D02*
X021268Y002589D01*
X023268Y002589D02*
X023892Y002589D01*
X023894Y002587D02*
X024267Y002587D01*
X024530Y002851D01*
X024530Y003223D01*
X024267Y003487D01*
X023894Y003487D01*
X023630Y003223D01*
X023630Y002851D01*
X023894Y002587D01*
X023774Y002707D02*
X023387Y002707D01*
X023505Y002826D02*
X023655Y002826D01*
X023630Y002944D02*
X023530Y002944D01*
X023530Y003063D02*
X023630Y003063D01*
X023630Y003181D02*
X023530Y003181D01*
X023454Y003300D02*
X023706Y003300D01*
X023825Y003418D02*
X023336Y003418D01*
X022998Y004129D02*
X023730Y004129D01*
X024087Y004400D02*
X022791Y004400D01*
X022753Y004438D01*
X023048Y004603D02*
X023730Y004603D01*
X023766Y004722D02*
X023024Y004722D01*
X022273Y004959D02*
X026200Y004959D01*
X026319Y005077D02*
X022273Y005077D01*
X022273Y005196D02*
X026437Y005196D01*
X026446Y005314D02*
X022273Y005314D01*
X022273Y005433D02*
X026446Y005433D01*
X026446Y005551D02*
X022273Y005551D01*
X022273Y005670D02*
X026446Y005670D01*
X026446Y005788D02*
X022273Y005788D01*
X022273Y005907D02*
X026446Y005907D01*
X026446Y006025D02*
X022273Y006025D01*
X022273Y006144D02*
X026446Y006144D01*
X026446Y006262D02*
X022273Y006262D01*
X022273Y006381D02*
X026446Y006381D01*
X026446Y006499D02*
X022273Y006499D01*
X022273Y006618D02*
X026446Y006618D01*
X026446Y006736D02*
X022273Y006736D01*
X022273Y006855D02*
X026446Y006855D01*
X026446Y006973D02*
X022273Y006973D01*
X022273Y007092D02*
X026446Y007092D01*
X026446Y007210D02*
X022313Y007210D01*
X022432Y007329D02*
X026446Y007329D01*
X026446Y007447D02*
X022550Y007447D01*
X022669Y007566D02*
X026446Y007566D01*
X026446Y007684D02*
X022787Y007684D01*
X022906Y007803D02*
X026446Y007803D01*
X026446Y007921D02*
X024279Y007921D01*
X024303Y007929D02*
X024240Y007908D01*
X024174Y007898D01*
X024169Y007898D01*
X024169Y008293D01*
X024169Y008348D01*
X024564Y008348D01*
X024564Y008354D01*
X024553Y008420D01*
X024533Y008483D01*
X024503Y008542D01*
X024464Y008596D01*
X024417Y008643D01*
X024363Y008682D01*
X024303Y008713D01*
X024240Y008733D01*
X024174Y008744D01*
X024169Y008744D01*
X024169Y008348D01*
X024114Y008348D01*
X024113Y008348D02*
X024113Y008293D01*
X023718Y008293D01*
X023718Y008288D01*
X023729Y008222D01*
X023749Y008159D01*
X023779Y008099D01*
X023819Y008045D01*
X023866Y007998D01*
X023920Y007959D01*
X023979Y007929D01*
X024042Y007908D01*
X024108Y007898D01*
X024114Y007898D01*
X024114Y008293D01*
X024169Y008293D01*
X024564Y008293D01*
X024564Y008288D01*
X024553Y008222D01*
X024533Y008159D01*
X024503Y008099D01*
X024464Y008045D01*
X024417Y007998D01*
X024363Y007959D01*
X024303Y007929D01*
X024169Y007921D02*
X024114Y007921D01*
X024004Y007921D02*
X023024Y007921D01*
X023401Y008040D02*
X023825Y008040D01*
X023750Y008158D02*
X023488Y008158D01*
X023524Y008277D02*
X023720Y008277D01*
X023718Y008348D02*
X024113Y008348D01*
X024114Y008348D02*
X024114Y008744D01*
X024108Y008744D01*
X024042Y008733D01*
X023979Y008713D01*
X023920Y008682D01*
X023866Y008643D01*
X023819Y008596D01*
X023779Y008542D01*
X023749Y008483D01*
X023729Y008420D01*
X023718Y008354D01*
X023718Y008348D01*
X023725Y008395D02*
X023524Y008395D01*
X023476Y008514D02*
X023765Y008514D01*
X023854Y008632D02*
X023371Y008632D01*
X024114Y008632D02*
X024169Y008632D01*
X024169Y008514D02*
X024114Y008514D01*
X024114Y008395D02*
X024169Y008395D01*
X024169Y008277D02*
X024114Y008277D01*
X024114Y008158D02*
X024169Y008158D01*
X024169Y008040D02*
X024114Y008040D01*
X024458Y008040D02*
X026446Y008040D01*
X026446Y008158D02*
X024533Y008158D01*
X024562Y008277D02*
X026446Y008277D01*
X026446Y008395D02*
X024557Y008395D01*
X024517Y008514D02*
X026446Y008514D01*
X026446Y008632D02*
X024428Y008632D01*
X024779Y009699D02*
X018784Y009699D01*
X018784Y009817D02*
X024636Y009817D01*
X024536Y009917D02*
X024737Y009716D01*
X024999Y009607D01*
X025283Y009607D01*
X025545Y009716D01*
X025746Y009917D01*
X025855Y010179D01*
X025855Y010463D01*
X025746Y010725D01*
X025545Y010926D01*
X025283Y011034D01*
X024999Y011034D01*
X024737Y010926D01*
X024536Y010725D01*
X024428Y010463D01*
X024428Y010179D01*
X024536Y009917D01*
X024528Y009936D02*
X018784Y009936D01*
X018784Y010054D02*
X024479Y010054D01*
X024430Y010173D02*
X018784Y010173D01*
X018784Y010291D02*
X024428Y010291D01*
X024428Y010410D02*
X018784Y010410D01*
X018784Y010528D02*
X024455Y010528D01*
X024504Y010647D02*
X018784Y010647D01*
X018784Y010765D02*
X024576Y010765D01*
X024695Y010884D02*
X018784Y010884D01*
X018784Y011002D02*
X024921Y011002D01*
X025361Y011002D02*
X026446Y011002D01*
X026446Y010884D02*
X025587Y010884D01*
X025706Y010765D02*
X026446Y010765D01*
X026446Y010647D02*
X025779Y010647D01*
X025828Y010528D02*
X026446Y010528D01*
X026446Y010410D02*
X025855Y010410D01*
X025855Y010291D02*
X026446Y010291D01*
X026446Y010173D02*
X025852Y010173D01*
X025803Y010054D02*
X026446Y010054D01*
X026446Y009936D02*
X025754Y009936D01*
X025646Y009817D02*
X026446Y009817D01*
X026446Y009699D02*
X025503Y009699D01*
X026446Y009580D02*
X018784Y009580D01*
X018784Y009462D02*
X026446Y009462D01*
X026446Y009343D02*
X018784Y009343D01*
X018784Y009225D02*
X026446Y009225D01*
X026446Y009106D02*
X018784Y009106D01*
X018784Y008988D02*
X026446Y008988D01*
X026446Y008869D02*
X018784Y008869D01*
X018784Y008751D02*
X026446Y008751D01*
X026446Y011121D02*
X018784Y011121D01*
X018784Y011239D02*
X026446Y011239D01*
X026446Y011358D02*
X018784Y011358D01*
X018784Y011476D02*
X026446Y011476D01*
X026446Y011595D02*
X018784Y011595D01*
X018784Y011713D02*
X026446Y011713D01*
X028540Y013846D02*
X018784Y013846D01*
X018784Y013728D02*
X028659Y013728D01*
X028422Y013965D02*
X018784Y013965D01*
X018784Y014083D02*
X028303Y014083D01*
X028185Y014202D02*
X021358Y014202D01*
X021585Y014320D02*
X028066Y014320D01*
X028030Y014439D02*
X021704Y014439D01*
X021776Y014557D02*
X028030Y014557D01*
X028030Y014676D02*
X021826Y014676D01*
X021853Y014794D02*
X028030Y014794D01*
X028030Y014913D02*
X021853Y014913D01*
X021851Y015031D02*
X028030Y015031D01*
X027926Y015150D02*
X021801Y015150D01*
X021322Y015624D02*
X018784Y015624D01*
X018784Y015742D02*
X021203Y015742D01*
X021085Y015861D02*
X018784Y015861D01*
X018784Y015979D02*
X020966Y015979D01*
X020848Y016098D02*
X018784Y016098D01*
X018784Y016216D02*
X020729Y016216D01*
X020611Y016335D02*
X018784Y016335D01*
X018784Y016453D02*
X020492Y016453D01*
X020374Y016572D02*
X018784Y016572D01*
X018784Y016690D02*
X020255Y016690D01*
X020137Y016809D02*
X018784Y016809D01*
X018784Y016927D02*
X020018Y016927D01*
X019900Y017046D02*
X018784Y017046D01*
X018784Y017164D02*
X019781Y017164D01*
X019663Y017283D02*
X018784Y017283D01*
X018784Y017401D02*
X019544Y017401D01*
X019426Y017520D02*
X018784Y017520D01*
X018784Y017638D02*
X019307Y017638D01*
X019189Y017757D02*
X018784Y017757D01*
X018784Y017875D02*
X019070Y017875D01*
X018952Y017994D02*
X018784Y017994D01*
X018784Y018112D02*
X018833Y018112D01*
X018424Y018112D02*
X014121Y018112D01*
X014121Y017994D02*
X018424Y017994D01*
X018424Y017875D02*
X014234Y017875D01*
X014121Y017988D02*
X014121Y020259D01*
X014166Y020259D01*
X014236Y020330D01*
X014236Y020849D01*
X014166Y020919D01*
X013717Y020919D01*
X013646Y020849D01*
X013646Y020330D01*
X013717Y020259D01*
X013761Y020259D01*
X013761Y017839D01*
X014647Y016953D01*
X014632Y016916D01*
X014632Y016764D01*
X014690Y016623D01*
X014797Y016516D01*
X014938Y016458D01*
X015090Y016458D01*
X015231Y016516D01*
X015339Y016623D01*
X015397Y016764D01*
X015397Y016916D01*
X015339Y017057D01*
X015231Y017165D01*
X015090Y017223D01*
X014938Y017223D01*
X014901Y017208D01*
X014121Y017988D01*
X013941Y017913D02*
X015014Y016840D01*
X014742Y016572D02*
X010959Y016572D01*
X010959Y016690D02*
X014662Y016690D01*
X014632Y016809D02*
X010959Y016809D01*
X010959Y016927D02*
X014636Y016927D01*
X014555Y017046D02*
X010959Y017046D01*
X010959Y017164D02*
X014436Y017164D01*
X014318Y017283D02*
X010959Y017283D01*
X010959Y017401D02*
X014199Y017401D01*
X014081Y017520D02*
X010959Y017520D01*
X010959Y017638D02*
X013962Y017638D01*
X013844Y017757D02*
X010959Y017757D01*
X010959Y017875D02*
X013761Y017875D01*
X013761Y017994D02*
X010959Y017994D01*
X010959Y018112D02*
X013761Y018112D01*
X013761Y018231D02*
X010959Y018231D01*
X010959Y018349D02*
X013761Y018349D01*
X013761Y018468D02*
X010959Y018468D01*
X010959Y018586D02*
X013761Y018586D01*
X013761Y018705D02*
X010959Y018705D01*
X010959Y018823D02*
X013761Y018823D01*
X013761Y018942D02*
X010959Y018942D01*
X010959Y019060D02*
X013761Y019060D01*
X013761Y019179D02*
X010959Y019179D01*
X010959Y019297D02*
X013761Y019297D01*
X013761Y019416D02*
X010959Y019416D01*
X010959Y019534D02*
X013761Y019534D01*
X013761Y019653D02*
X010959Y019653D01*
X010959Y019771D02*
X013761Y019771D01*
X013761Y019890D02*
X010959Y019890D01*
X010959Y020008D02*
X013761Y020008D01*
X013761Y020127D02*
X010890Y020127D01*
X010800Y020245D02*
X013761Y020245D01*
X013646Y020364D02*
X010667Y020364D01*
X010549Y020482D02*
X013646Y020482D01*
X013646Y020601D02*
X010430Y020601D01*
X010326Y020719D02*
X013646Y020719D01*
X013646Y020838D02*
X010208Y020838D01*
X010091Y020700D02*
X010222Y020569D01*
X010091Y020700D02*
X008813Y020700D01*
X008457Y020719D02*
X008343Y020719D01*
X008343Y020601D02*
X008457Y020601D01*
X008457Y020482D02*
X008343Y020482D01*
X008343Y020414D02*
X008343Y020986D01*
X008273Y021056D01*
X007701Y021056D01*
X007630Y020986D01*
X007630Y020880D01*
X006994Y020880D01*
X006932Y020942D01*
X006483Y020942D01*
X006413Y020872D01*
X006413Y020352D01*
X006483Y020282D01*
X006932Y020282D01*
X007003Y020352D01*
X007003Y020520D01*
X007630Y020520D01*
X007630Y020414D01*
X007701Y020344D01*
X008273Y020344D01*
X008343Y020414D01*
X008292Y020364D02*
X008508Y020364D01*
X008457Y020838D02*
X008343Y020838D01*
X008343Y020956D02*
X008457Y020956D01*
X007987Y020700D02*
X006796Y020700D01*
X006708Y020612D01*
X006413Y020601D02*
X006323Y020601D01*
X006323Y020719D02*
X006413Y020719D01*
X006413Y020838D02*
X006323Y020838D01*
X006323Y020872D02*
X006252Y020942D01*
X005803Y020942D01*
X005733Y020872D01*
X005733Y020352D01*
X005803Y020282D01*
X005828Y020282D01*
X005828Y017490D01*
X006431Y016887D01*
X006424Y016870D01*
X006424Y016718D01*
X006483Y016577D01*
X006590Y016469D01*
X006731Y016411D01*
X006883Y016411D01*
X007024Y016469D01*
X007132Y016577D01*
X007190Y016718D01*
X007190Y016870D01*
X007132Y017011D01*
X007024Y017118D01*
X006883Y017177D01*
X006731Y017177D01*
X006714Y017170D01*
X006228Y017656D01*
X006228Y020282D01*
X006252Y020282D01*
X006323Y020352D01*
X006323Y020872D01*
X006323Y020482D02*
X006413Y020482D01*
X006413Y020364D02*
X006323Y020364D01*
X006228Y020245D02*
X010305Y020245D01*
X010187Y020364D02*
X009119Y020364D01*
X009170Y020482D02*
X010054Y020482D01*
X010424Y020127D02*
X006228Y020127D01*
X006228Y020008D02*
X010530Y020008D01*
X010578Y019890D02*
X006228Y019890D01*
X006228Y019771D02*
X010599Y019771D01*
X010599Y019653D02*
X006228Y019653D01*
X006228Y019534D02*
X010599Y019534D01*
X010599Y019416D02*
X009171Y019416D01*
X009211Y019399D02*
X008949Y019507D01*
X008665Y019507D01*
X008403Y019399D01*
X008202Y019198D01*
X008094Y018936D01*
X008094Y018652D01*
X008202Y018390D01*
X008403Y018189D01*
X008665Y018080D01*
X008949Y018080D01*
X009211Y018189D01*
X009412Y018390D01*
X009521Y018652D01*
X009521Y018936D01*
X009412Y019198D01*
X009211Y019399D01*
X009313Y019297D02*
X010599Y019297D01*
X010599Y019179D02*
X009420Y019179D01*
X009469Y019060D02*
X010599Y019060D01*
X010599Y018942D02*
X009518Y018942D01*
X009521Y018823D02*
X010599Y018823D01*
X010599Y018705D02*
X009521Y018705D01*
X009493Y018586D02*
X010599Y018586D01*
X010599Y018468D02*
X009444Y018468D01*
X009371Y018349D02*
X010599Y018349D01*
X010599Y018231D02*
X009253Y018231D01*
X009025Y018112D02*
X010599Y018112D01*
X010599Y017994D02*
X006228Y017994D01*
X006228Y018112D02*
X008589Y018112D01*
X008361Y018231D02*
X006228Y018231D01*
X006228Y018349D02*
X008243Y018349D01*
X008170Y018468D02*
X006228Y018468D01*
X006228Y018586D02*
X008121Y018586D01*
X008094Y018705D02*
X006228Y018705D01*
X006228Y018823D02*
X008094Y018823D01*
X008096Y018942D02*
X006228Y018942D01*
X006228Y019060D02*
X008145Y019060D01*
X008194Y019179D02*
X006228Y019179D01*
X006228Y019297D02*
X008301Y019297D01*
X008443Y019416D02*
X006228Y019416D01*
X005828Y019416D02*
X003273Y019416D01*
X003273Y019534D02*
X005828Y019534D01*
X005828Y019653D02*
X003273Y019653D01*
X003273Y019771D02*
X005828Y019771D01*
X005828Y019890D02*
X003273Y019890D01*
X003273Y020008D02*
X005828Y020008D01*
X005828Y020127D02*
X003273Y020127D01*
X003273Y020245D02*
X005828Y020245D01*
X005733Y020364D02*
X003273Y020364D01*
X003273Y020482D02*
X005733Y020482D01*
X005733Y020601D02*
X003273Y020601D01*
X003273Y020719D02*
X005733Y020719D01*
X005733Y020838D02*
X003273Y020838D01*
X003273Y020956D02*
X007630Y020956D01*
X007630Y020482D02*
X007003Y020482D01*
X007003Y020364D02*
X007681Y020364D01*
X009170Y020956D02*
X015389Y020956D01*
X015430Y020838D02*
X014916Y020838D01*
X014621Y020589D02*
X015797Y020589D01*
X015787Y020600D01*
X016143Y020601D02*
X016257Y020601D01*
X016257Y020719D02*
X016143Y020719D01*
X016143Y020482D02*
X016257Y020482D01*
X016257Y020364D02*
X016143Y020364D01*
X016074Y020245D02*
X016326Y020245D01*
X016613Y020600D02*
X017300Y020600D01*
X017282Y020364D02*
X016970Y020364D01*
X016901Y020245D02*
X017400Y020245D01*
X017519Y020127D02*
X014121Y020127D01*
X014121Y020245D02*
X015499Y020245D01*
X015430Y020364D02*
X014916Y020364D01*
X014326Y020364D02*
X014236Y020364D01*
X014236Y020482D02*
X014326Y020482D01*
X014326Y020601D02*
X014236Y020601D01*
X014236Y020719D02*
X014326Y020719D01*
X014326Y020838D02*
X014236Y020838D01*
X013941Y020589D02*
X013941Y017913D01*
X014121Y018231D02*
X016622Y018231D01*
X016610Y018235D02*
X016872Y018127D01*
X017156Y018127D01*
X017418Y018235D01*
X017619Y018436D01*
X017728Y018698D01*
X017728Y018982D01*
X017619Y019244D01*
X017418Y019445D01*
X017156Y019554D01*
X016872Y019554D01*
X016610Y019445D01*
X016409Y019244D01*
X016301Y018982D01*
X016301Y018698D01*
X016409Y018436D01*
X016610Y018235D01*
X016497Y018349D02*
X014121Y018349D01*
X014121Y018468D02*
X016396Y018468D01*
X016347Y018586D02*
X014121Y018586D01*
X014121Y018705D02*
X016301Y018705D01*
X016301Y018823D02*
X014121Y018823D01*
X014121Y018942D02*
X016301Y018942D01*
X016333Y019060D02*
X014121Y019060D01*
X014121Y019179D02*
X016382Y019179D01*
X016462Y019297D02*
X014121Y019297D01*
X014121Y019416D02*
X016581Y019416D01*
X016825Y019534D02*
X014121Y019534D01*
X014121Y019653D02*
X017993Y019653D01*
X017874Y019771D02*
X014121Y019771D01*
X014121Y019890D02*
X017756Y019890D01*
X017637Y020008D02*
X014121Y020008D01*
X015271Y021075D02*
X003273Y021075D01*
X003273Y021193D02*
X015152Y021193D01*
X015034Y021312D02*
X003273Y021312D01*
X003273Y021430D02*
X014915Y021430D01*
X014797Y021549D02*
X013685Y021549D01*
X013683Y021547D02*
X013970Y021834D01*
X013970Y021999D01*
X013519Y021999D01*
X013519Y022075D01*
X013970Y022075D01*
X013970Y022240D01*
X013683Y022527D01*
X013519Y022527D01*
X013519Y022075D01*
X013442Y022075D01*
X013442Y021999D01*
X012990Y021999D01*
X012990Y021834D01*
X013277Y021547D01*
X013442Y021547D01*
X013442Y021999D01*
X013519Y021999D01*
X013519Y021547D01*
X013683Y021547D01*
X013519Y021549D02*
X013442Y021549D01*
X013442Y021667D02*
X013519Y021667D01*
X013519Y021786D02*
X013442Y021786D01*
X013442Y021904D02*
X013519Y021904D01*
X013519Y022023D02*
X014030Y022023D01*
X014030Y022141D02*
X013970Y022141D01*
X013951Y022260D02*
X014066Y022260D01*
X014185Y022378D02*
X013832Y022378D01*
X013714Y022497D02*
X022285Y022497D01*
X022404Y022615D02*
X003273Y022615D01*
X003273Y022497D02*
X013247Y022497D01*
X013277Y022527D02*
X012990Y022240D01*
X012990Y022075D01*
X013442Y022075D01*
X013442Y022527D01*
X013277Y022527D01*
X013442Y022497D02*
X013519Y022497D01*
X013519Y022378D02*
X013442Y022378D01*
X013442Y022260D02*
X013519Y022260D01*
X013519Y022141D02*
X013442Y022141D01*
X013442Y022023D02*
X012930Y022023D01*
X012930Y022141D02*
X012990Y022141D01*
X012930Y022223D02*
X012667Y022487D01*
X012294Y022487D01*
X012030Y022223D01*
X012030Y021851D01*
X012294Y021587D01*
X012667Y021587D01*
X012930Y021851D01*
X012930Y022223D01*
X012894Y022260D02*
X013010Y022260D01*
X013128Y022378D02*
X012776Y022378D01*
X012930Y021904D02*
X012990Y021904D01*
X013039Y021786D02*
X012865Y021786D01*
X012747Y021667D02*
X013157Y021667D01*
X013276Y021549D02*
X003273Y021549D01*
X003273Y021667D02*
X012214Y021667D01*
X012095Y021786D02*
X003273Y021786D01*
X003273Y021904D02*
X012030Y021904D01*
X012030Y022023D02*
X003273Y022023D01*
X003273Y022141D02*
X012030Y022141D01*
X012066Y022260D02*
X003273Y022260D01*
X003273Y022378D02*
X012185Y022378D01*
X013803Y021667D02*
X014214Y021667D01*
X014095Y021786D02*
X013922Y021786D01*
X013970Y021904D02*
X014030Y021904D01*
X014480Y022037D02*
X014563Y022037D01*
X015600Y021000D01*
X015214Y021667D02*
X015188Y021667D01*
X015095Y021786D02*
X015069Y021786D01*
X015030Y021904D02*
X014951Y021904D01*
X014930Y022023D02*
X015030Y022023D01*
X015030Y022141D02*
X014930Y022141D01*
X014894Y022260D02*
X015066Y022260D01*
X015185Y022378D02*
X014776Y022378D01*
X017204Y019534D02*
X018111Y019534D01*
X018120Y019416D02*
X017448Y019416D01*
X017567Y019297D02*
X018120Y019297D01*
X018120Y019179D02*
X017647Y019179D01*
X017696Y019060D02*
X018120Y019060D01*
X018120Y018942D02*
X017728Y018942D01*
X017728Y018823D02*
X018120Y018823D01*
X018120Y018705D02*
X017728Y018705D01*
X017681Y018586D02*
X018120Y018586D01*
X018120Y018468D02*
X017632Y018468D01*
X017532Y018349D02*
X018211Y018349D01*
X018329Y018231D02*
X017407Y018231D01*
X018424Y017757D02*
X014353Y017757D01*
X014471Y017638D02*
X018424Y017638D01*
X018424Y017520D02*
X014590Y017520D01*
X014708Y017401D02*
X018424Y017401D01*
X018424Y017283D02*
X014827Y017283D01*
X015232Y017164D02*
X015741Y017164D01*
X015739Y017163D02*
X015692Y017116D01*
X015653Y017062D01*
X015623Y017003D01*
X015602Y016939D01*
X015592Y016874D01*
X015592Y016868D01*
X015987Y016868D01*
X015987Y017263D01*
X015981Y017263D01*
X015915Y017253D01*
X015852Y017232D01*
X015793Y017202D01*
X015739Y017163D01*
X015644Y017046D02*
X015344Y017046D01*
X015393Y016927D02*
X015600Y016927D01*
X015592Y016813D02*
X015592Y016807D01*
X015602Y016741D01*
X015623Y016678D01*
X015653Y016619D01*
X015692Y016565D01*
X015739Y016518D01*
X015793Y016479D01*
X015852Y016448D01*
X015915Y016428D01*
X015981Y016418D01*
X015987Y016418D01*
X015987Y016813D01*
X016042Y016813D01*
X016042Y016868D01*
X015987Y016868D01*
X015987Y016813D01*
X015592Y016813D01*
X015592Y016809D02*
X015397Y016809D01*
X015366Y016690D02*
X015619Y016690D01*
X015687Y016572D02*
X015287Y016572D01*
X015843Y016453D02*
X010959Y016453D01*
X010959Y016335D02*
X018424Y016335D01*
X018424Y016453D02*
X016186Y016453D01*
X016177Y016448D02*
X016236Y016479D01*
X016290Y016518D01*
X016337Y016565D01*
X016376Y016619D01*
X016406Y016678D01*
X016427Y016741D01*
X016437Y016807D01*
X016437Y016813D01*
X016042Y016813D01*
X016042Y016418D01*
X016048Y016418D01*
X016113Y016428D01*
X016177Y016448D01*
X016042Y016453D02*
X015987Y016453D01*
X015987Y016572D02*
X016042Y016572D01*
X016042Y016690D02*
X015987Y016690D01*
X015987Y016809D02*
X016042Y016809D01*
X016042Y016868D02*
X016437Y016868D01*
X016437Y016874D01*
X016427Y016939D01*
X016406Y017003D01*
X016376Y017062D01*
X016337Y017116D01*
X016290Y017163D01*
X016236Y017202D01*
X016177Y017232D01*
X016113Y017253D01*
X016048Y017263D01*
X016042Y017263D01*
X016042Y016868D01*
X016042Y016927D02*
X015987Y016927D01*
X015987Y017046D02*
X016042Y017046D01*
X016042Y017164D02*
X015987Y017164D01*
X016288Y017164D02*
X018424Y017164D01*
X018424Y017046D02*
X016384Y017046D01*
X016429Y016927D02*
X018424Y016927D01*
X018424Y016809D02*
X016437Y016809D01*
X016410Y016690D02*
X018424Y016690D01*
X018424Y016572D02*
X016342Y016572D01*
X018424Y016216D02*
X010959Y016216D01*
X010959Y016098D02*
X018424Y016098D01*
X018424Y015979D02*
X010959Y015979D01*
X010959Y015861D02*
X018424Y015861D01*
X018424Y015742D02*
X010959Y015742D01*
X010959Y015624D02*
X018424Y015624D01*
X018424Y015505D02*
X013274Y015505D01*
X013156Y015554D02*
X013418Y015445D01*
X013619Y015244D01*
X013728Y014982D01*
X013728Y014698D01*
X013619Y014436D01*
X013418Y014235D01*
X013156Y014127D01*
X012872Y014127D01*
X012610Y014235D01*
X012409Y014436D01*
X012301Y014698D01*
X012301Y014982D01*
X012409Y015244D01*
X012610Y015445D01*
X012872Y015554D01*
X013156Y015554D01*
X013477Y015387D02*
X018424Y015387D01*
X018424Y015268D02*
X013596Y015268D01*
X013659Y015150D02*
X018424Y015150D01*
X018424Y015031D02*
X013708Y015031D01*
X013728Y014913D02*
X018424Y014913D01*
X018424Y014794D02*
X013728Y014794D01*
X013718Y014676D02*
X018424Y014676D01*
X018424Y014557D02*
X013669Y014557D01*
X013620Y014439D02*
X018424Y014439D01*
X018424Y014320D02*
X013503Y014320D01*
X013337Y014202D02*
X018424Y014202D01*
X018424Y014083D02*
X010959Y014083D01*
X010959Y013965D02*
X018424Y013965D01*
X018424Y013846D02*
X010959Y013846D01*
X010959Y013728D02*
X018424Y013728D01*
X018424Y013609D02*
X010959Y013609D01*
X010959Y013491D02*
X018424Y013491D01*
X018424Y013372D02*
X010959Y013372D01*
X010959Y013254D02*
X018424Y013254D01*
X018424Y013135D02*
X010959Y013135D01*
X010959Y013017D02*
X018424Y013017D01*
X018424Y012898D02*
X010959Y012898D01*
X010959Y012780D02*
X018424Y012780D01*
X018424Y012661D02*
X010959Y012661D01*
X010959Y012543D02*
X018424Y012543D01*
X018424Y012424D02*
X010959Y012424D01*
X010959Y012306D02*
X018424Y012306D01*
X018424Y012187D02*
X010959Y012187D01*
X010779Y011911D02*
X010779Y005198D01*
X010843Y005134D02*
X010109Y004400D01*
X009113Y004400D01*
X008757Y004366D02*
X008643Y004366D01*
X008643Y004248D02*
X008757Y004248D01*
X008757Y004129D02*
X008643Y004129D01*
X008643Y004114D02*
X008643Y004686D01*
X008573Y004756D01*
X008001Y004756D01*
X007930Y004686D01*
X007930Y004580D01*
X007030Y004580D01*
X007030Y004718D01*
X006960Y004788D01*
X006510Y004788D01*
X006440Y004718D01*
X006440Y004198D01*
X006510Y004128D01*
X006960Y004128D01*
X007030Y004198D01*
X007030Y004220D01*
X007930Y004220D01*
X007930Y004114D01*
X008001Y004044D01*
X008573Y004044D01*
X008643Y004114D01*
X008287Y004400D02*
X006793Y004400D01*
X006735Y004458D01*
X006749Y004444D01*
X006440Y004485D02*
X006350Y004485D01*
X006350Y004603D02*
X006440Y004603D01*
X006444Y004722D02*
X006346Y004722D01*
X006350Y004718D02*
X006280Y004788D01*
X006255Y004788D01*
X006255Y007389D01*
X006811Y007945D01*
X006828Y007938D01*
X006980Y007938D01*
X007121Y007996D01*
X007228Y008104D01*
X007287Y008244D01*
X007287Y008397D01*
X007228Y008537D01*
X007121Y008645D01*
X006980Y008703D01*
X006828Y008703D01*
X006687Y008645D01*
X006579Y008537D01*
X006521Y008397D01*
X006521Y008244D01*
X006528Y008227D01*
X005855Y007554D01*
X005855Y004788D01*
X005830Y004788D01*
X005760Y004718D01*
X005760Y004198D01*
X005830Y004128D01*
X006280Y004128D01*
X006350Y004198D01*
X006350Y004718D01*
X006255Y004840D02*
X010294Y004840D01*
X010176Y004722D02*
X009434Y004722D01*
X009470Y004603D02*
X010057Y004603D01*
X010329Y004366D02*
X011298Y004366D01*
X011298Y004248D02*
X010211Y004248D01*
X010289Y004325D02*
X010289Y004325D01*
X010448Y004485D02*
X011210Y004485D01*
X011092Y004603D02*
X010566Y004603D01*
X010685Y004722D02*
X010973Y004722D01*
X010855Y004840D02*
X010803Y004840D01*
X010531Y005077D02*
X006255Y005077D01*
X006255Y004959D02*
X010413Y004959D01*
X010579Y005196D02*
X006255Y005196D01*
X006255Y005314D02*
X010599Y005314D01*
X010599Y005433D02*
X006255Y005433D01*
X006255Y005551D02*
X010599Y005551D01*
X010599Y005670D02*
X006255Y005670D01*
X006255Y005788D02*
X010599Y005788D01*
X010599Y005907D02*
X006255Y005907D01*
X006255Y006025D02*
X010599Y006025D01*
X010599Y006144D02*
X006255Y006144D01*
X006255Y006262D02*
X010599Y006262D01*
X010599Y006381D02*
X006255Y006381D01*
X006255Y006499D02*
X010599Y006499D01*
X010599Y006618D02*
X006255Y006618D01*
X006255Y006736D02*
X010599Y006736D01*
X010599Y006855D02*
X006255Y006855D01*
X006255Y006973D02*
X010599Y006973D01*
X010599Y007092D02*
X006255Y007092D01*
X006255Y007210D02*
X010599Y007210D01*
X010599Y007329D02*
X006255Y007329D01*
X006313Y007447D02*
X010599Y007447D01*
X010599Y007566D02*
X006432Y007566D01*
X006550Y007684D02*
X010599Y007684D01*
X010599Y007803D02*
X006669Y007803D01*
X006787Y007921D02*
X007765Y007921D01*
X007742Y007929D02*
X007805Y007908D01*
X007871Y007898D01*
X007876Y007898D01*
X007876Y008293D01*
X007481Y008293D01*
X007481Y008287D01*
X007492Y008221D01*
X007512Y008158D01*
X007251Y008158D01*
X007287Y008277D02*
X007483Y008277D01*
X007481Y008348D02*
X007876Y008348D01*
X007876Y008293D01*
X007932Y008293D01*
X007932Y008348D01*
X008327Y008348D01*
X008327Y008354D01*
X008316Y008419D01*
X008296Y008483D01*
X008266Y008542D01*
X008226Y008596D01*
X008179Y008643D01*
X008126Y008682D01*
X008066Y008712D01*
X008003Y008733D01*
X007937Y008743D01*
X007932Y008743D01*
X007932Y008348D01*
X007876Y008348D01*
X007876Y008743D01*
X007871Y008743D01*
X007805Y008733D01*
X007742Y008712D01*
X007682Y008682D01*
X007629Y008643D01*
X007581Y008596D01*
X007542Y008542D01*
X007512Y008483D01*
X007492Y008419D01*
X007481Y008354D01*
X007481Y008348D01*
X007488Y008395D02*
X007287Y008395D01*
X007238Y008514D02*
X007528Y008514D01*
X007618Y008632D02*
X007134Y008632D01*
X007876Y008632D02*
X007932Y008632D01*
X007932Y008514D02*
X007876Y008514D01*
X007876Y008395D02*
X007932Y008395D01*
X007932Y008293D02*
X008327Y008293D01*
X008327Y008287D01*
X008316Y008221D01*
X008296Y008158D01*
X008266Y008099D01*
X008226Y008045D01*
X008179Y007998D01*
X008126Y007959D01*
X008066Y007929D01*
X008003Y007908D01*
X007937Y007898D01*
X007932Y007898D01*
X007932Y008293D01*
X007932Y008277D02*
X007876Y008277D01*
X007876Y008158D02*
X007932Y008158D01*
X007932Y008040D02*
X007876Y008040D01*
X007876Y007921D02*
X007932Y007921D01*
X008043Y007921D02*
X010599Y007921D01*
X010599Y008040D02*
X008221Y008040D01*
X008296Y008158D02*
X010599Y008158D01*
X010599Y008277D02*
X008325Y008277D01*
X008320Y008395D02*
X010599Y008395D01*
X010599Y008514D02*
X008280Y008514D01*
X008190Y008632D02*
X010599Y008632D01*
X010599Y008751D02*
X003273Y008751D01*
X003273Y008869D02*
X010599Y008869D01*
X010599Y008988D02*
X003273Y008988D01*
X003273Y009106D02*
X010599Y009106D01*
X010599Y009225D02*
X003273Y009225D01*
X003273Y009343D02*
X010599Y009343D01*
X010599Y009462D02*
X003273Y009462D01*
X003273Y009580D02*
X010599Y009580D01*
X010599Y009699D02*
X009267Y009699D01*
X009308Y009716D02*
X009509Y009916D01*
X009617Y010179D01*
X009617Y010462D01*
X009509Y010725D01*
X009308Y010925D01*
X009046Y011034D01*
X008762Y011034D01*
X008500Y010925D01*
X008299Y010725D01*
X008190Y010462D01*
X008190Y010179D01*
X008299Y009916D01*
X008500Y009716D01*
X008762Y009607D01*
X009046Y009607D01*
X009308Y009716D01*
X009410Y009817D02*
X010599Y009817D01*
X010599Y009936D02*
X009517Y009936D01*
X009566Y010054D02*
X010599Y010054D01*
X010599Y010173D02*
X009615Y010173D01*
X009617Y010291D02*
X010599Y010291D01*
X010599Y010410D02*
X009617Y010410D01*
X009590Y010528D02*
X010599Y010528D01*
X010599Y010647D02*
X009541Y010647D01*
X009468Y010765D02*
X010599Y010765D01*
X010599Y010884D02*
X009350Y010884D01*
X009123Y011002D02*
X010599Y011002D01*
X010599Y011121D02*
X003273Y011121D01*
X003273Y011239D02*
X010599Y011239D01*
X010599Y011358D02*
X003273Y011358D01*
X003273Y011476D02*
X010599Y011476D01*
X010599Y011595D02*
X003273Y011595D01*
X003273Y011713D02*
X010599Y011713D01*
X010599Y011832D02*
X003273Y011832D01*
X003273Y011950D02*
X010599Y011950D01*
X010599Y012069D02*
X003273Y012069D01*
X003273Y012187D02*
X010599Y012187D01*
X010599Y012306D02*
X003273Y012306D01*
X003273Y012424D02*
X010599Y012424D01*
X010599Y012543D02*
X003273Y012543D01*
X003273Y012661D02*
X010599Y012661D01*
X010599Y012780D02*
X003273Y012780D01*
X003273Y012898D02*
X010599Y012898D01*
X010599Y013017D02*
X003273Y013017D01*
X003273Y013135D02*
X010599Y013135D01*
X010599Y013254D02*
X003273Y013254D01*
X003273Y013372D02*
X010599Y013372D01*
X010599Y013491D02*
X003273Y013491D01*
X003273Y013609D02*
X010599Y013609D01*
X010599Y013728D02*
X003273Y013728D01*
X003273Y013846D02*
X010599Y013846D01*
X010599Y013965D02*
X003273Y013965D01*
X003273Y014083D02*
X004659Y014083D01*
X004665Y014080D02*
X004949Y014080D01*
X005211Y014189D01*
X005412Y014390D01*
X005521Y014652D01*
X005521Y014936D01*
X005412Y015198D01*
X005211Y015399D01*
X004949Y015507D01*
X004665Y015507D01*
X004403Y015399D01*
X004202Y015198D01*
X004094Y014936D01*
X004094Y014652D01*
X004202Y014390D01*
X004403Y014189D01*
X004665Y014080D01*
X004955Y014083D02*
X010599Y014083D01*
X010599Y014202D02*
X005224Y014202D01*
X005342Y014320D02*
X010599Y014320D01*
X010599Y014439D02*
X005432Y014439D01*
X005481Y014557D02*
X010599Y014557D01*
X010599Y014676D02*
X005521Y014676D01*
X005521Y014794D02*
X010599Y014794D01*
X010599Y014913D02*
X005521Y014913D01*
X005481Y015031D02*
X010599Y015031D01*
X010599Y015150D02*
X005432Y015150D01*
X005342Y015268D02*
X010599Y015268D01*
X010599Y015387D02*
X005223Y015387D01*
X004955Y015505D02*
X010599Y015505D01*
X010599Y015624D02*
X003273Y015624D01*
X003273Y015742D02*
X010599Y015742D01*
X010599Y015861D02*
X003273Y015861D01*
X003273Y015979D02*
X010599Y015979D01*
X010599Y016098D02*
X003273Y016098D01*
X003273Y016216D02*
X010599Y016216D01*
X010599Y016335D02*
X003273Y016335D01*
X003273Y016453D02*
X006630Y016453D01*
X006488Y016572D02*
X003273Y016572D01*
X003273Y016690D02*
X006436Y016690D01*
X006424Y016809D02*
X003273Y016809D01*
X003273Y016927D02*
X006391Y016927D01*
X006273Y017046D02*
X003273Y017046D01*
X003273Y017164D02*
X006154Y017164D01*
X006036Y017283D02*
X003273Y017283D01*
X003273Y017401D02*
X005917Y017401D01*
X005828Y017520D02*
X003273Y017520D01*
X003273Y017638D02*
X005828Y017638D01*
X005828Y017757D02*
X003273Y017757D01*
X003273Y017875D02*
X005828Y017875D01*
X005828Y017994D02*
X003273Y017994D01*
X003273Y018112D02*
X005828Y018112D01*
X005828Y018231D02*
X003273Y018231D01*
X003273Y018349D02*
X005828Y018349D01*
X005828Y018468D02*
X003273Y018468D01*
X003273Y018586D02*
X005828Y018586D01*
X005828Y018705D02*
X003273Y018705D01*
X003273Y018823D02*
X005828Y018823D01*
X005828Y018942D02*
X003273Y018942D01*
X003273Y019060D02*
X005828Y019060D01*
X005828Y019179D02*
X003273Y019179D01*
X003273Y019297D02*
X005828Y019297D01*
X006228Y017875D02*
X010599Y017875D01*
X010599Y017757D02*
X006228Y017757D01*
X006246Y017638D02*
X010599Y017638D01*
X010599Y017520D02*
X006364Y017520D01*
X006483Y017401D02*
X010599Y017401D01*
X010599Y017283D02*
X006601Y017283D01*
X006914Y017164D02*
X007602Y017164D01*
X007585Y017155D02*
X007532Y017116D01*
X007485Y017069D01*
X007445Y017015D01*
X007415Y016956D01*
X007395Y016893D01*
X007384Y016827D01*
X007384Y016821D01*
X007779Y016821D01*
X007779Y016766D01*
X007384Y016766D01*
X007384Y016761D01*
X007395Y016695D01*
X007415Y016632D01*
X007445Y016572D01*
X007485Y016518D01*
X007532Y016471D01*
X007585Y016432D01*
X007645Y016402D01*
X007708Y016381D01*
X007774Y016371D01*
X007779Y016371D01*
X007779Y016766D01*
X007835Y016766D01*
X007835Y016821D01*
X008230Y016821D01*
X008230Y016827D01*
X008219Y016893D01*
X008199Y016956D01*
X008169Y017015D01*
X008130Y017069D01*
X008083Y017116D01*
X008029Y017155D01*
X007969Y017186D01*
X007906Y017206D01*
X007840Y017217D01*
X007835Y017217D01*
X007835Y016821D01*
X007779Y016821D01*
X007779Y017217D01*
X007774Y017217D01*
X007708Y017206D01*
X007645Y017186D01*
X007585Y017155D01*
X007467Y017046D02*
X007097Y017046D01*
X007166Y016927D02*
X007406Y016927D01*
X007396Y016690D02*
X007178Y016690D01*
X007190Y016809D02*
X007779Y016809D01*
X007835Y016809D02*
X010599Y016809D01*
X010599Y016927D02*
X008208Y016927D01*
X008147Y017046D02*
X010599Y017046D01*
X010599Y017164D02*
X008012Y017164D01*
X007835Y017164D02*
X007779Y017164D01*
X007779Y017046D02*
X007835Y017046D01*
X007835Y016927D02*
X007779Y016927D01*
X007835Y016766D02*
X008230Y016766D01*
X008230Y016761D01*
X008219Y016695D01*
X008199Y016632D01*
X008169Y016572D01*
X008130Y016518D01*
X008083Y016471D01*
X008029Y016432D01*
X007969Y016402D01*
X007906Y016381D01*
X007840Y016371D01*
X007835Y016371D01*
X007835Y016766D01*
X007835Y016690D02*
X007779Y016690D01*
X007779Y016572D02*
X007835Y016572D01*
X007835Y016453D02*
X007779Y016453D01*
X007557Y016453D02*
X006985Y016453D01*
X007126Y016572D02*
X007446Y016572D01*
X008057Y016453D02*
X010599Y016453D01*
X010599Y016572D02*
X008168Y016572D01*
X008218Y016690D02*
X010599Y016690D01*
X010959Y015505D02*
X012755Y015505D01*
X012552Y015387D02*
X010959Y015387D01*
X010959Y015268D02*
X012433Y015268D01*
X012370Y015150D02*
X010959Y015150D01*
X010959Y015031D02*
X012321Y015031D01*
X012301Y014913D02*
X010959Y014913D01*
X010959Y014794D02*
X012301Y014794D01*
X012310Y014676D02*
X010959Y014676D01*
X010959Y014557D02*
X012359Y014557D01*
X012408Y014439D02*
X010959Y014439D01*
X010959Y014320D02*
X012526Y014320D01*
X012692Y014202D02*
X010959Y014202D01*
X010779Y011911D02*
X010779Y019943D01*
X010710Y020011D01*
X010710Y020080D01*
X004660Y015505D02*
X003273Y015505D01*
X003273Y015387D02*
X004391Y015387D01*
X004272Y015268D02*
X003273Y015268D01*
X003273Y015150D02*
X004182Y015150D01*
X004133Y015031D02*
X003273Y015031D01*
X003273Y014913D02*
X004094Y014913D01*
X004094Y014794D02*
X003273Y014794D01*
X003273Y014676D02*
X004094Y014676D01*
X004133Y014557D02*
X003273Y014557D01*
X003273Y014439D02*
X004182Y014439D01*
X004272Y014320D02*
X003273Y014320D01*
X003273Y014202D02*
X004390Y014202D01*
X003273Y011002D02*
X008685Y011002D01*
X008458Y010884D02*
X003273Y010884D01*
X003273Y010765D02*
X008339Y010765D01*
X008267Y010647D02*
X003273Y010647D01*
X003273Y010528D02*
X008218Y010528D01*
X008190Y010410D02*
X003273Y010410D01*
X003273Y010291D02*
X008190Y010291D01*
X008193Y010173D02*
X003273Y010173D01*
X003273Y010054D02*
X008242Y010054D01*
X008291Y009936D02*
X003273Y009936D01*
X003273Y009817D02*
X008398Y009817D01*
X008541Y009699D02*
X003273Y009699D01*
X003273Y008632D02*
X006674Y008632D01*
X006570Y008514D02*
X003273Y008514D01*
X003273Y008395D02*
X006521Y008395D01*
X006521Y008277D02*
X003273Y008277D01*
X003273Y008158D02*
X006459Y008158D01*
X006340Y008040D02*
X003273Y008040D01*
X003273Y007921D02*
X006222Y007921D01*
X006103Y007803D02*
X003273Y007803D01*
X003273Y007684D02*
X005985Y007684D01*
X005866Y007566D02*
X003273Y007566D01*
X003273Y007447D02*
X005855Y007447D01*
X005855Y007329D02*
X003273Y007329D01*
X003273Y007210D02*
X005855Y007210D01*
X005855Y007092D02*
X003273Y007092D01*
X003273Y006973D02*
X004615Y006973D01*
X004500Y006925D02*
X004299Y006725D01*
X004190Y006462D01*
X004190Y006179D01*
X004299Y005916D01*
X004500Y005716D01*
X004762Y005607D01*
X005046Y005607D01*
X005308Y005716D01*
X005509Y005916D01*
X005617Y006179D01*
X005617Y006462D01*
X005509Y006725D01*
X005308Y006925D01*
X005046Y007034D01*
X004762Y007034D01*
X004500Y006925D01*
X004429Y006855D02*
X003273Y006855D01*
X003273Y006736D02*
X004310Y006736D01*
X004255Y006618D02*
X003273Y006618D01*
X003273Y006499D02*
X004206Y006499D01*
X004190Y006381D02*
X003273Y006381D01*
X003273Y006262D02*
X004190Y006262D01*
X004205Y006144D02*
X003273Y006144D01*
X003273Y006025D02*
X004254Y006025D01*
X004309Y005907D02*
X003273Y005907D01*
X003273Y005788D02*
X004427Y005788D01*
X004611Y005670D02*
X003273Y005670D01*
X003273Y005551D02*
X005855Y005551D01*
X005855Y005433D02*
X003273Y005433D01*
X003273Y005314D02*
X005855Y005314D01*
X005855Y005196D02*
X003273Y005196D01*
X003273Y005077D02*
X005855Y005077D01*
X005855Y004959D02*
X003273Y004959D01*
X003273Y004840D02*
X005855Y004840D01*
X005764Y004722D02*
X003273Y004722D01*
X003273Y004603D02*
X005760Y004603D01*
X005760Y004485D02*
X003273Y004485D01*
X003273Y004366D02*
X005760Y004366D01*
X005760Y004248D02*
X003273Y004248D01*
X003273Y004129D02*
X005829Y004129D01*
X006281Y004129D02*
X006509Y004129D01*
X006440Y004248D02*
X006350Y004248D01*
X006350Y004366D02*
X006440Y004366D01*
X006961Y004129D02*
X007930Y004129D01*
X007930Y004603D02*
X007030Y004603D01*
X007026Y004722D02*
X007966Y004722D01*
X008607Y004722D02*
X008793Y004722D01*
X008757Y004603D02*
X008643Y004603D01*
X008643Y004485D02*
X008757Y004485D01*
X009470Y004129D02*
X011298Y004129D01*
X011298Y004011D02*
X003273Y004011D01*
X003273Y003892D02*
X011224Y003892D01*
X011478Y003891D02*
X011100Y003513D01*
X010744Y003537D02*
X003273Y003537D01*
X003273Y003655D02*
X010744Y003655D01*
X010744Y003774D02*
X003273Y003774D01*
X003273Y003418D02*
X010744Y003418D01*
X010744Y003300D02*
X003273Y003300D01*
X003273Y003181D02*
X010790Y003181D01*
X011456Y002589D02*
X013250Y002589D01*
X011478Y003891D02*
X011478Y004500D01*
X013433Y005670D02*
X014130Y005670D01*
X014130Y005788D02*
X013647Y005788D01*
X013766Y005907D02*
X014130Y005907D01*
X014130Y006025D02*
X013833Y006025D01*
X013882Y006144D02*
X014130Y006144D01*
X014130Y006262D02*
X013905Y006262D01*
X013905Y006381D02*
X014130Y006381D01*
X014130Y006499D02*
X013899Y006499D01*
X013850Y006618D02*
X014130Y006618D01*
X014130Y006736D02*
X013801Y006736D01*
X013688Y006855D02*
X014130Y006855D01*
X014130Y006973D02*
X013532Y006973D01*
X015431Y008040D02*
X015896Y008040D01*
X015811Y008158D02*
X015530Y008158D01*
X015575Y008277D02*
X015774Y008277D01*
X015772Y008395D02*
X015575Y008395D01*
X015535Y008514D02*
X015805Y008514D01*
X015884Y008632D02*
X015443Y008632D01*
X016164Y008632D02*
X016219Y008632D01*
X016219Y008514D02*
X016164Y008514D01*
X016164Y008395D02*
X016219Y008395D01*
X016219Y008277D02*
X016164Y008277D01*
X016164Y008158D02*
X016219Y008158D01*
X016219Y008040D02*
X016164Y008040D01*
X017503Y009699D02*
X018424Y009699D01*
X018424Y009817D02*
X017676Y009817D01*
X017795Y009936D02*
X018424Y009936D01*
X018424Y010054D02*
X017845Y010054D01*
X017894Y010173D02*
X018424Y010173D01*
X018424Y010291D02*
X017905Y010291D01*
X017905Y010410D02*
X018424Y010410D01*
X018424Y010528D02*
X017887Y010528D01*
X017838Y010647D02*
X018424Y010647D01*
X018424Y010765D02*
X017777Y010765D01*
X017659Y010884D02*
X018424Y010884D01*
X018424Y011002D02*
X017462Y011002D01*
X018784Y012187D02*
X030756Y012187D01*
X031255Y012187D02*
X035920Y012187D01*
X036038Y012306D02*
X018784Y012306D01*
X018784Y012424D02*
X036157Y012424D01*
X036367Y012069D02*
X037004Y012069D01*
X037168Y011950D02*
X036249Y011950D01*
X036990Y012543D02*
X018784Y012543D01*
X018784Y012661D02*
X037133Y012661D01*
X037056Y013017D02*
X018784Y013017D01*
X018784Y013135D02*
X036963Y013135D01*
X036921Y013254D02*
X018784Y013254D01*
X018784Y013372D02*
X036921Y013372D01*
X036963Y013491D02*
X018784Y013491D01*
X018784Y013609D02*
X037056Y013609D01*
X038660Y012898D02*
X018784Y012898D01*
X018784Y012780D02*
X038660Y012780D01*
X038660Y011713D02*
X038010Y011713D01*
X038177Y011595D02*
X038660Y011595D01*
X038660Y011476D02*
X038250Y011476D01*
X038280Y011358D02*
X038660Y011358D01*
X038660Y011239D02*
X038275Y011239D01*
X038236Y011121D02*
X038660Y011121D01*
X038660Y011002D02*
X038149Y011002D01*
X037891Y010884D02*
X038660Y010884D01*
X038660Y010765D02*
X034729Y010765D01*
X034729Y010647D02*
X038660Y010647D01*
X038660Y010528D02*
X034729Y010528D01*
X034729Y010410D02*
X038660Y010410D01*
X038660Y010291D02*
X034729Y010291D01*
X034729Y010173D02*
X038660Y010173D01*
X038660Y010054D02*
X034729Y010054D01*
X034729Y009936D02*
X038660Y009936D01*
X038660Y009817D02*
X034729Y009817D01*
X034729Y009699D02*
X038660Y009699D01*
X038660Y009580D02*
X034729Y009580D01*
X034729Y009462D02*
X038660Y009462D01*
X038660Y009343D02*
X034729Y009343D01*
X034729Y009225D02*
X038660Y009225D01*
X038660Y009106D02*
X034729Y009106D01*
X034729Y008988D02*
X038660Y008988D01*
X038660Y008869D02*
X034729Y008869D01*
X034729Y008751D02*
X038660Y008751D01*
X038660Y008632D02*
X034729Y008632D01*
X034729Y008514D02*
X038660Y008514D01*
X038660Y008395D02*
X034729Y008395D01*
X034729Y008277D02*
X038660Y008277D01*
X038660Y008158D02*
X034729Y008158D01*
X034729Y008040D02*
X038660Y008040D01*
X038660Y007921D02*
X034729Y007921D01*
X034729Y007803D02*
X038660Y007803D01*
X038660Y007684D02*
X034729Y007684D01*
X034729Y007566D02*
X038660Y007566D01*
X038660Y007447D02*
X034729Y007447D01*
X034729Y007329D02*
X038660Y007329D01*
X038660Y007210D02*
X034729Y007210D01*
X034729Y007092D02*
X038660Y007092D01*
X038660Y006973D02*
X034729Y006973D01*
X034729Y006855D02*
X038660Y006855D01*
X038660Y006736D02*
X034729Y006736D01*
X034729Y006618D02*
X038660Y006618D01*
X038660Y006499D02*
X034729Y006499D01*
X034729Y006381D02*
X038660Y006381D01*
X038660Y006262D02*
X034729Y006262D01*
X034729Y006144D02*
X038660Y006144D01*
X038660Y006025D02*
X034729Y006025D01*
X034729Y005907D02*
X038660Y005907D01*
X038660Y005788D02*
X034729Y005788D01*
X034729Y005670D02*
X038660Y005670D01*
X038660Y005551D02*
X034729Y005551D01*
X034729Y005433D02*
X038660Y005433D01*
X038660Y005314D02*
X034729Y005314D01*
X034729Y005196D02*
X038660Y005196D01*
X038660Y005077D02*
X034719Y005077D01*
X034719Y004959D02*
X038660Y004959D01*
X038660Y004840D02*
X034719Y004840D01*
X034719Y004722D02*
X038660Y004722D01*
X038660Y003418D02*
X028336Y003418D01*
X028267Y003487D02*
X028530Y003223D01*
X028530Y002851D01*
X028267Y002587D01*
X027894Y002587D01*
X027630Y002851D01*
X027630Y003223D01*
X027894Y003487D01*
X028267Y003487D01*
X028454Y003300D02*
X038660Y003300D01*
X038660Y003181D02*
X028530Y003181D01*
X028530Y003063D02*
X038660Y003063D01*
X038660Y002944D02*
X028530Y002944D01*
X028505Y002826D02*
X038660Y002826D01*
X038660Y002707D02*
X028387Y002707D01*
X028268Y002589D02*
X038660Y002589D01*
X034549Y005218D02*
X034549Y011911D01*
X034369Y011002D02*
X033275Y011002D01*
X033496Y010884D02*
X034369Y010884D01*
X034369Y010765D02*
X033615Y010765D01*
X033685Y010647D02*
X034369Y010647D01*
X034369Y010528D02*
X033734Y010528D01*
X033760Y010410D02*
X034369Y010410D01*
X034369Y010291D02*
X033760Y010291D01*
X033756Y010173D02*
X034369Y010173D01*
X034369Y010054D02*
X033707Y010054D01*
X033658Y009936D02*
X034369Y009936D01*
X034369Y009817D02*
X033548Y009817D01*
X033400Y009699D02*
X034369Y009699D01*
X034369Y008632D02*
X032337Y008632D01*
X032322Y008647D02*
X032268Y008686D01*
X032209Y008716D01*
X032145Y008737D01*
X032080Y008747D01*
X032074Y008747D01*
X032074Y008352D01*
X032469Y008352D01*
X032469Y008358D01*
X032459Y008423D01*
X032438Y008487D01*
X032408Y008546D01*
X032369Y008600D01*
X032322Y008647D01*
X032424Y008514D02*
X034369Y008514D01*
X034369Y008395D02*
X032463Y008395D01*
X032469Y008297D02*
X032074Y008297D01*
X032074Y008352D01*
X032019Y008352D01*
X032019Y008747D01*
X032013Y008747D01*
X031947Y008737D01*
X031884Y008716D01*
X031825Y008686D01*
X031771Y008647D01*
X031724Y008600D01*
X031685Y008546D01*
X031654Y008487D01*
X031634Y008423D01*
X031624Y008358D01*
X031624Y008352D01*
X032019Y008352D01*
X032019Y008297D01*
X032074Y008297D01*
X032074Y007902D01*
X032080Y007902D01*
X032145Y007912D01*
X032209Y007933D01*
X032268Y007963D01*
X032322Y008002D01*
X032369Y008049D01*
X032408Y008103D01*
X032438Y008162D01*
X032459Y008225D01*
X032469Y008291D01*
X032469Y008297D01*
X032467Y008277D02*
X034369Y008277D01*
X034369Y008158D02*
X032436Y008158D01*
X032359Y008040D02*
X034369Y008040D01*
X034369Y007921D02*
X032173Y007921D01*
X032074Y007921D02*
X032019Y007921D01*
X032019Y007902D02*
X032019Y008297D01*
X031624Y008297D01*
X031624Y008291D01*
X031634Y008225D01*
X031654Y008162D01*
X031685Y008103D01*
X031724Y008049D01*
X031771Y008002D01*
X031825Y007963D01*
X031884Y007933D01*
X031947Y007912D01*
X032013Y007902D01*
X032019Y007902D01*
X031920Y007921D02*
X030926Y007921D01*
X030807Y007803D02*
X034369Y007803D01*
X034369Y007684D02*
X030689Y007684D01*
X030570Y007566D02*
X034369Y007566D01*
X034369Y007447D02*
X030452Y007447D01*
X030420Y007329D02*
X034369Y007329D01*
X034369Y007210D02*
X030420Y007210D01*
X030420Y007092D02*
X034369Y007092D01*
X034369Y006973D02*
X030420Y006973D01*
X030420Y006855D02*
X034369Y006855D01*
X034369Y006736D02*
X030420Y006736D01*
X030420Y006618D02*
X034369Y006618D01*
X034369Y006499D02*
X030420Y006499D01*
X030420Y006381D02*
X034369Y006381D01*
X034369Y006262D02*
X030420Y006262D01*
X030420Y006144D02*
X034369Y006144D01*
X034369Y006025D02*
X030420Y006025D01*
X030420Y005907D02*
X034369Y005907D01*
X034369Y005788D02*
X030420Y005788D01*
X030420Y005670D02*
X034369Y005670D01*
X034369Y005551D02*
X030420Y005551D01*
X030420Y005433D02*
X034369Y005433D01*
X034369Y005314D02*
X030420Y005314D01*
X030420Y005196D02*
X034369Y005196D01*
X034379Y005077D02*
X030420Y005077D01*
X030420Y004959D02*
X034379Y004959D01*
X032793Y004722D02*
X032607Y004722D01*
X032643Y004603D02*
X032757Y004603D01*
X032757Y004485D02*
X032643Y004485D01*
X032643Y004366D02*
X032757Y004366D01*
X032757Y004248D02*
X032643Y004248D01*
X032643Y004129D02*
X032757Y004129D01*
X032287Y004400D02*
X030945Y004400D01*
X030900Y004445D01*
X031195Y004603D02*
X031930Y004603D01*
X031966Y004722D02*
X031178Y004722D01*
X031138Y004129D02*
X031930Y004129D01*
X030020Y005670D02*
X029330Y005670D01*
X029519Y005788D02*
X030020Y005788D01*
X030020Y005907D02*
X029637Y005907D01*
X029695Y006025D02*
X030020Y006025D01*
X030020Y006144D02*
X029744Y006144D01*
X029760Y006262D02*
X030020Y006262D01*
X030020Y006381D02*
X029760Y006381D01*
X029746Y006499D02*
X030020Y006499D01*
X030020Y006618D02*
X029697Y006618D01*
X029644Y006736D02*
X030020Y006736D01*
X030020Y006855D02*
X029525Y006855D01*
X029345Y006973D02*
X030020Y006973D01*
X031303Y008040D02*
X031733Y008040D01*
X031657Y008158D02*
X031392Y008158D01*
X031429Y008277D02*
X031626Y008277D01*
X031629Y008395D02*
X031429Y008395D01*
X031382Y008514D02*
X031668Y008514D01*
X031756Y008632D02*
X031280Y008632D01*
X032019Y008632D02*
X032074Y008632D01*
X032074Y008514D02*
X032019Y008514D01*
X032019Y008395D02*
X032074Y008395D01*
X032074Y008277D02*
X032019Y008277D01*
X032019Y008158D02*
X032074Y008158D01*
X032074Y008040D02*
X032019Y008040D01*
X027267Y003487D02*
X026894Y003487D01*
X026630Y003223D01*
X026630Y002851D01*
X026894Y002587D01*
X027267Y002587D01*
X027530Y002851D01*
X027530Y003223D01*
X027267Y003487D01*
X027336Y003418D02*
X027825Y003418D01*
X027706Y003300D02*
X027454Y003300D01*
X027530Y003181D02*
X027630Y003181D01*
X027630Y003063D02*
X027530Y003063D01*
X027530Y002944D02*
X027630Y002944D01*
X027655Y002826D02*
X027505Y002826D01*
X027387Y002707D02*
X027774Y002707D01*
X027892Y002589D02*
X027268Y002589D01*
X026892Y002589D02*
X026268Y002589D01*
X026267Y002587D02*
X026530Y002851D01*
X026530Y003223D01*
X026267Y003487D01*
X025894Y003487D01*
X025630Y003223D01*
X025630Y002851D01*
X025894Y002587D01*
X026267Y002587D01*
X026387Y002707D02*
X026774Y002707D01*
X026655Y002826D02*
X026505Y002826D01*
X026530Y002944D02*
X026630Y002944D01*
X026630Y003063D02*
X026530Y003063D01*
X026530Y003181D02*
X026630Y003181D01*
X026706Y003300D02*
X026454Y003300D01*
X026336Y003418D02*
X026825Y003418D01*
X025825Y003418D02*
X025336Y003418D01*
X025267Y003487D02*
X024894Y003487D01*
X024630Y003223D01*
X024630Y002851D01*
X024894Y002587D01*
X025267Y002587D01*
X025530Y002851D01*
X025530Y003223D01*
X025267Y003487D01*
X025454Y003300D02*
X025706Y003300D01*
X025630Y003181D02*
X025530Y003181D01*
X025530Y003063D02*
X025630Y003063D01*
X025630Y002944D02*
X025530Y002944D01*
X025505Y002826D02*
X025655Y002826D01*
X025774Y002707D02*
X025387Y002707D01*
X025268Y002589D02*
X025892Y002589D01*
X024892Y002589D02*
X024268Y002589D01*
X024387Y002707D02*
X024774Y002707D01*
X024655Y002826D02*
X024505Y002826D01*
X024530Y002944D02*
X024630Y002944D01*
X024630Y003063D02*
X024530Y003063D01*
X024530Y003181D02*
X024630Y003181D01*
X024706Y003300D02*
X024454Y003300D01*
X024336Y003418D02*
X024825Y003418D01*
X024557Y004129D02*
X024443Y004129D01*
X024443Y004248D02*
X024557Y004248D01*
X024557Y004366D02*
X024443Y004366D01*
X024443Y004485D02*
X024557Y004485D01*
X024557Y004603D02*
X024443Y004603D01*
X024407Y004722D02*
X024593Y004722D01*
X021873Y005670D02*
X021433Y005670D01*
X021617Y005788D02*
X021873Y005788D01*
X021873Y005907D02*
X021736Y005907D01*
X021791Y006025D02*
X021873Y006025D01*
X021873Y006144D02*
X021840Y006144D01*
X021855Y006262D02*
X021873Y006262D01*
X021873Y006381D02*
X021855Y006381D01*
X021840Y006499D02*
X021873Y006499D01*
X021873Y006618D02*
X021791Y006618D01*
X021735Y006736D02*
X021873Y006736D01*
X021873Y006855D02*
X021616Y006855D01*
X021431Y006973D02*
X021873Y006973D01*
X020921Y014202D02*
X018784Y014202D01*
X018784Y014320D02*
X020694Y014320D01*
X020575Y014439D02*
X018784Y014439D01*
X018784Y014557D02*
X020502Y014557D01*
X020453Y014676D02*
X018784Y014676D01*
X018784Y014794D02*
X020426Y014794D01*
X020426Y014913D02*
X018784Y014913D01*
X018784Y015031D02*
X020428Y015031D01*
X020477Y015150D02*
X018784Y015150D01*
X018784Y015268D02*
X020526Y015268D01*
X020633Y015387D02*
X018784Y015387D01*
X018784Y015505D02*
X020776Y015505D01*
X024112Y016927D02*
X024167Y016927D01*
X024167Y017046D02*
X024112Y017046D01*
X024112Y017164D02*
X024167Y017164D01*
X024457Y017164D02*
X030432Y017164D01*
X030551Y017046D02*
X024531Y017046D01*
X024561Y016927D02*
X030613Y016927D01*
X030613Y016809D02*
X024556Y016809D01*
X024515Y016690D02*
X030661Y016690D01*
X030766Y016572D02*
X024425Y016572D01*
X025428Y018231D02*
X029945Y018231D01*
X029945Y018349D02*
X025614Y018349D01*
X025733Y018468D02*
X029945Y018468D01*
X029945Y018586D02*
X025788Y018586D01*
X025838Y018705D02*
X026836Y018705D01*
X026770Y018823D02*
X025853Y018823D01*
X025853Y018942D02*
X026770Y018942D01*
X026770Y019060D02*
X025838Y019060D01*
X025789Y019179D02*
X026770Y019179D01*
X026889Y019297D02*
X025735Y019297D01*
X025616Y019416D02*
X026889Y019416D01*
X026889Y019534D02*
X025433Y019534D01*
X027301Y018705D02*
X029945Y018705D01*
X029945Y018823D02*
X027367Y018823D01*
X028809Y021075D02*
X033371Y021075D01*
X033299Y020956D02*
X033489Y020956D01*
X033520Y020838D02*
X033370Y020838D01*
X033700Y021000D02*
X032946Y021754D01*
X029234Y021754D01*
X028928Y021193D02*
X033252Y021193D01*
X034032Y022023D02*
X035292Y022023D01*
X035265Y022086D02*
X035342Y021901D01*
X035484Y021759D01*
X035669Y021683D01*
X035870Y021683D01*
X036055Y021759D01*
X036196Y021901D01*
X036273Y022086D01*
X036273Y022287D01*
X036196Y022472D01*
X036055Y022614D01*
X035870Y022690D01*
X035669Y022690D01*
X035484Y022614D01*
X035342Y022472D01*
X035265Y022287D01*
X035265Y022086D01*
X035265Y022141D02*
X033914Y022141D01*
X033795Y022260D02*
X035265Y022260D01*
X035303Y022378D02*
X033677Y022378D01*
X033558Y022497D02*
X035367Y022497D01*
X035487Y022615D02*
X033440Y022615D01*
X034151Y021904D02*
X035341Y021904D01*
X035458Y021786D02*
X034269Y021786D01*
X034388Y021667D02*
X038660Y021667D01*
X038660Y021549D02*
X034506Y021549D01*
X034625Y021430D02*
X038660Y021430D01*
X038660Y021312D02*
X035889Y021312D01*
X035889Y021193D02*
X038660Y021193D01*
X038660Y021075D02*
X035929Y021075D01*
X035929Y020956D02*
X038660Y020956D01*
X038660Y020838D02*
X035889Y020838D01*
X035889Y020719D02*
X038660Y020719D01*
X038660Y020601D02*
X035889Y020601D01*
X035929Y020482D02*
X038660Y020482D01*
X038660Y021786D02*
X036081Y021786D01*
X036198Y021904D02*
X038660Y021904D01*
X038660Y022023D02*
X038011Y022023D01*
X038127Y022141D02*
X038660Y022141D01*
X038660Y022260D02*
X038176Y022260D01*
X038202Y022378D02*
X038660Y022378D01*
X038660Y022497D02*
X038202Y022497D01*
X038164Y022615D02*
X038660Y022615D01*
X038660Y022734D02*
X038100Y022734D01*
X037979Y022852D02*
X038660Y022852D01*
X037418Y022852D02*
X003273Y022852D01*
X003273Y022734D02*
X037297Y022734D01*
X037233Y022615D02*
X036052Y022615D01*
X036172Y022497D02*
X037195Y022497D01*
X037195Y022378D02*
X036235Y022378D01*
X036273Y022260D02*
X037221Y022260D01*
X037270Y022141D02*
X036273Y022141D01*
X036247Y022023D02*
X037386Y022023D01*
X035929Y020415D02*
X035395Y020415D01*
X035395Y020415D01*
X034672Y019179D02*
X034591Y019179D01*
X034554Y019060D02*
X034532Y019060D01*
X033690Y019890D02*
X030345Y019890D01*
X030345Y020008D02*
X033809Y020008D01*
X033572Y019771D02*
X030345Y019771D01*
X030345Y019653D02*
X033542Y019653D01*
X033542Y019534D02*
X033289Y019534D01*
X033473Y019416D02*
X033542Y019416D01*
X034155Y017895D02*
X032826Y016567D01*
X032023Y016927D02*
X031968Y016927D01*
X031968Y017046D02*
X032023Y017046D01*
X032023Y017164D02*
X031968Y017164D01*
X031678Y017164D02*
X031256Y017164D01*
X031343Y017046D02*
X031604Y017046D01*
X031575Y016927D02*
X031378Y016927D01*
X031378Y016809D02*
X031579Y016809D01*
X031620Y016690D02*
X031330Y016690D01*
X031225Y016572D02*
X031710Y016572D01*
X035395Y017856D02*
X035395Y018031D01*
X035395Y018053D01*
X035395Y018112D02*
X035395Y018112D01*
X035395Y017994D02*
X035395Y017994D01*
X035395Y017875D02*
X035395Y017875D01*
X035395Y018231D02*
X035395Y018231D01*
X035395Y018250D02*
X035395Y018250D01*
X035851Y018053D02*
X035851Y018053D01*
X035851Y018053D01*
X035851Y017856D02*
X035851Y017856D01*
X007742Y007929D02*
X007682Y007959D01*
X007629Y007998D01*
X007581Y008045D01*
X007542Y008099D01*
X007512Y008158D01*
X007587Y008040D02*
X007164Y008040D01*
X005855Y006973D02*
X005193Y006973D01*
X005379Y006855D02*
X005855Y006855D01*
X005855Y006736D02*
X005497Y006736D01*
X005553Y006618D02*
X005855Y006618D01*
X005855Y006499D02*
X005602Y006499D01*
X005617Y006381D02*
X005855Y006381D01*
X005855Y006262D02*
X005617Y006262D01*
X005603Y006144D02*
X005855Y006144D01*
X005855Y006025D02*
X005554Y006025D01*
X005499Y005907D02*
X005855Y005907D01*
X005855Y005788D02*
X005381Y005788D01*
X005197Y005670D02*
X005855Y005670D01*
D12*
X006904Y008320D03*
X007904Y008320D03*
X015192Y008342D03*
X016192Y008342D03*
X023141Y008321D03*
X024141Y008321D03*
X031046Y008324D03*
X032046Y008324D03*
X031996Y016883D03*
X030996Y016883D03*
X024139Y016883D03*
X023139Y016883D03*
X016014Y016840D03*
X015014Y016840D03*
X007807Y016794D03*
X006807Y016794D03*
D13*
X004807Y014794D03*
X008807Y018794D03*
X013014Y014840D03*
X017014Y018840D03*
X021139Y014883D03*
X025139Y018883D03*
X028996Y014883D03*
X032996Y018883D03*
X033046Y010324D03*
X029046Y006324D03*
X025141Y010321D03*
X021141Y006321D03*
X017192Y010342D03*
X013192Y006342D03*
X008904Y010320D03*
X004904Y006320D03*
D14*
X035395Y017659D03*
X035395Y017856D03*
X035395Y018053D03*
X035395Y018250D03*
X035395Y018446D03*
X035395Y018643D03*
X035395Y018840D03*
X035395Y019037D03*
X035395Y019234D03*
X035395Y019431D03*
X035395Y019628D03*
X035395Y019824D03*
X035395Y020021D03*
X035395Y020218D03*
X035395Y020415D03*
X035395Y020612D03*
X035395Y020809D03*
X035395Y021006D03*
X035395Y021202D03*
D15*
X035769Y022187D03*
X037698Y022423D03*
X037698Y016242D03*
X035769Y016478D03*
D16*
X030825Y020581D03*
X030145Y020581D03*
X022805Y020581D03*
X022125Y020581D03*
X014621Y020589D03*
X013941Y020589D03*
X006708Y020612D03*
X006028Y020612D03*
X006055Y004458D03*
X006735Y004458D03*
X013630Y002714D03*
X014310Y002714D03*
X014330Y004554D03*
X015010Y004554D03*
X022073Y004438D03*
X022753Y004438D03*
X030220Y004445D03*
X030900Y004445D03*
D17*
X028080Y003037D03*
X027080Y003037D03*
X026080Y003037D03*
X025080Y003037D03*
X024080Y003037D03*
X023080Y003037D03*
X021080Y003037D03*
X020080Y003037D03*
X019080Y003037D03*
X018080Y003037D03*
X017080Y003037D03*
X016080Y003037D03*
X016480Y022037D03*
X015480Y022037D03*
X014480Y022037D03*
X013480Y022037D03*
X012480Y022037D03*
X017480Y022037D03*
X018480Y022037D03*
X019480Y022037D03*
X021080Y022037D03*
X022080Y022037D03*
X023080Y022037D03*
X024080Y022037D03*
X025080Y022037D03*
X026080Y022037D03*
X027080Y022037D03*
X028080Y022037D03*
D18*
X037311Y013313D02*
X037851Y013313D01*
X037851Y012313D02*
X037311Y012313D01*
X037311Y011313D02*
X037851Y011313D01*
D19*
X033113Y004400D03*
X032287Y004400D03*
X024913Y004400D03*
X024087Y004400D03*
X017413Y004500D03*
X016587Y004500D03*
X011100Y003513D03*
X011100Y002687D03*
X009113Y004400D03*
X008287Y004400D03*
X015787Y020600D03*
X016613Y020600D03*
X008813Y020700D03*
X007987Y020700D03*
X024287Y020600D03*
X025113Y020600D03*
X032187Y020600D03*
X033013Y020600D03*
D20*
X037305Y020179D03*
X037305Y019588D03*
X037305Y018998D03*
X037305Y018407D03*
X034155Y013289D03*
X033368Y013289D03*
X032580Y013289D03*
X031793Y013289D03*
X031006Y011911D03*
X027069Y018998D03*
D21*
X030145Y017734D02*
X030996Y016883D01*
X030145Y017734D02*
X030145Y020581D01*
X023139Y016883D02*
X022125Y017898D01*
X022125Y020581D01*
X023139Y016883D02*
X022978Y016722D01*
X023141Y008321D02*
X022073Y007252D01*
X022073Y004438D01*
X015192Y008342D02*
X014330Y007480D01*
X014330Y004554D01*
X011478Y004500D02*
X010843Y005134D01*
X010779Y005198D01*
X006904Y008320D02*
X006055Y007472D01*
X006055Y004458D01*
X006807Y016794D02*
X006028Y017573D01*
X006028Y020612D01*
X030220Y007498D02*
X030220Y004445D01*
X030220Y007498D02*
X031046Y008324D01*
X035533Y011911D02*
X035927Y011911D01*
X036320Y012305D01*
X037573Y012305D01*
X037581Y012313D01*
D22*
X034549Y005218D02*
X034549Y004628D01*
X030908Y004437D02*
X030900Y004445D01*
X022756Y004435D02*
X022753Y004438D01*
X015104Y004460D02*
X015010Y004554D01*
X010710Y020080D02*
X010222Y020569D01*
X006751Y020569D02*
X006708Y020612D01*
X022805Y020581D02*
X022846Y020622D01*
M02*
