G75*
%MOIN*%
%OFA0B0*%
%FSLAX24Y24*%
%IPPOS*%
%LPD*%
%AMOC8*
5,1,8,0,0,1.08239X$1,22.5*
%
%ADD10C,0.0000*%
%ADD11C,0.0030*%
%ADD12C,0.0040*%
%ADD13C,0.0080*%
%ADD14C,0.0060*%
%ADD15C,0.0120*%
%ADD16C,0.0050*%
%ADD17R,0.0120X0.0320*%
%ADD18R,0.0320X0.0120*%
%ADD19R,0.0010X0.0040*%
%ADD20R,0.0010X0.0050*%
%ADD21R,0.0010X0.0070*%
%ADD22R,0.0010X0.0120*%
%ADD23R,0.0010X0.0100*%
%ADD24R,0.0010X0.0150*%
%ADD25R,0.0010X0.0170*%
%ADD26R,0.0010X0.0200*%
%ADD27R,0.0010X0.0210*%
%ADD28R,0.0010X0.0230*%
%ADD29R,0.0010X0.0240*%
%ADD30R,0.0010X0.0250*%
%ADD31R,0.0010X0.0140*%
%ADD32R,0.0010X0.0130*%
%ADD33R,0.0010X0.0290*%
%ADD34R,0.0010X0.0110*%
%ADD35R,0.0010X0.0340*%
%ADD36R,0.0010X0.0180*%
%ADD37R,0.0010X0.0360*%
%ADD38R,0.0010X0.0090*%
%ADD39R,0.0010X0.0220*%
%ADD40R,0.0010X0.0380*%
%ADD41R,0.0010X0.0280*%
%ADD42R,0.0010X0.0400*%
%ADD43R,0.0010X0.0310*%
%ADD44R,0.0010X0.0410*%
%ADD45R,0.0010X0.0330*%
%ADD46R,0.0010X0.0430*%
%ADD47R,0.0010X0.0350*%
%ADD48R,0.0010X0.0440*%
%ADD49R,0.0010X0.0370*%
%ADD50R,0.0010X0.0450*%
%ADD51R,0.0010X0.0390*%
%ADD52R,0.0010X0.0460*%
%ADD53R,0.0010X0.0470*%
%ADD54R,0.0010X0.0420*%
%ADD55R,0.0010X0.0190*%
%ADD56R,0.0010X0.0160*%
%ADD57R,0.0010X0.0060*%
%ADD58R,0.0010X0.0010*%
%ADD59R,0.0010X0.0030*%
%ADD60R,0.0010X0.0490*%
%ADD61R,0.0010X0.0500*%
%ADD62R,0.0010X0.0510*%
%ADD63R,0.0010X0.0080*%
%ADD64R,0.0010X0.0260*%
%ADD65R,0.0010X0.0320*%
%ADD66R,0.0240X0.0240*%
%ADD67R,0.0118X0.0059*%
%ADD68R,0.0118X0.0118*%
%ADD69R,0.0236X0.0531*%
%ADD70R,0.0059X0.0118*%
%ADD71R,0.0531X0.0236*%
D10*
X005620Y000100D02*
X005620Y031596D01*
X044990Y031596D01*
X044990Y000100D01*
X005620Y000100D01*
X028700Y002137D02*
X033700Y002137D01*
X033700Y023137D01*
X028200Y023137D01*
D11*
X027782Y021622D02*
X027844Y021561D01*
X027597Y021314D01*
X027658Y021252D01*
X027782Y021252D01*
X027844Y021314D01*
X027844Y021561D01*
X027782Y021622D02*
X027658Y021622D01*
X027597Y021561D01*
X027597Y021314D01*
X026844Y021252D02*
X026597Y021252D01*
X026720Y021252D02*
X026720Y021622D01*
X026597Y021499D01*
X025844Y021499D02*
X025844Y021561D01*
X025782Y021622D01*
X025658Y021622D01*
X025597Y021561D01*
X025844Y021499D02*
X025597Y021252D01*
X025844Y021252D01*
X024844Y021314D02*
X024782Y021252D01*
X024658Y021252D01*
X024597Y021314D01*
X024720Y021437D02*
X024782Y021437D01*
X024844Y021375D01*
X024844Y021314D01*
X024782Y021437D02*
X024844Y021499D01*
X024844Y021561D01*
X024782Y021622D01*
X024658Y021622D01*
X024597Y021561D01*
X023844Y021437D02*
X023597Y021437D01*
X023782Y021622D01*
X023782Y021252D01*
X022844Y021314D02*
X022782Y021252D01*
X022658Y021252D01*
X022597Y021314D01*
X022597Y021437D02*
X022720Y021499D01*
X022782Y021499D01*
X022844Y021437D01*
X022844Y021314D01*
X022597Y021437D02*
X022597Y021622D01*
X022844Y021622D01*
X021844Y021622D02*
X021720Y021561D01*
X021597Y021437D01*
X021782Y021437D01*
X021844Y021375D01*
X021844Y021314D01*
X021782Y021252D01*
X021658Y021252D01*
X021597Y021314D01*
X021597Y021437D01*
X020844Y021561D02*
X020597Y021314D01*
X020597Y021252D01*
X020597Y021622D02*
X020844Y021622D01*
X020844Y021561D01*
X019244Y021561D02*
X019244Y021499D01*
X019182Y021437D01*
X019058Y021437D01*
X018997Y021499D01*
X018997Y021561D01*
X019058Y021622D01*
X019182Y021622D01*
X019244Y021561D01*
X019182Y021437D02*
X019244Y021375D01*
X019244Y021314D01*
X019182Y021252D01*
X019058Y021252D01*
X018997Y021314D01*
X018997Y021375D01*
X019058Y021437D01*
X018244Y021437D02*
X018058Y021437D01*
X017997Y021499D01*
X017997Y021561D01*
X018058Y021622D01*
X018182Y021622D01*
X018244Y021561D01*
X018244Y021314D01*
X018182Y021252D01*
X018058Y021252D01*
X017997Y021314D01*
X017444Y021314D02*
X017444Y021561D01*
X017197Y021314D01*
X017258Y021252D01*
X017382Y021252D01*
X017444Y021314D01*
X017444Y021561D02*
X017382Y021622D01*
X017258Y021622D01*
X017197Y021561D01*
X017197Y021314D01*
X017075Y021252D02*
X016828Y021252D01*
X016952Y021252D02*
X016952Y021622D01*
X016828Y021499D01*
X016444Y021252D02*
X016197Y021252D01*
X016075Y021252D02*
X015828Y021252D01*
X015952Y021252D02*
X015952Y021622D01*
X015828Y021499D01*
X016197Y021499D02*
X016320Y021622D01*
X016320Y021252D01*
X015444Y021252D02*
X015197Y021252D01*
X015444Y021499D01*
X015444Y021561D01*
X015382Y021622D01*
X015258Y021622D01*
X015197Y021561D01*
X014952Y021622D02*
X014952Y021252D01*
X015075Y021252D02*
X014828Y021252D01*
X014828Y021499D02*
X014952Y021622D01*
X014444Y021561D02*
X014444Y021499D01*
X014382Y021437D01*
X014444Y021375D01*
X014444Y021314D01*
X014382Y021252D01*
X014258Y021252D01*
X014197Y021314D01*
X014075Y021252D02*
X013828Y021252D01*
X013952Y021252D02*
X013952Y021622D01*
X013828Y021499D01*
X013594Y021499D02*
X013408Y021499D01*
X013347Y021437D01*
X013347Y021314D01*
X013408Y021252D01*
X013594Y021252D01*
X013594Y021622D01*
X013225Y021437D02*
X013225Y021252D01*
X013225Y021437D02*
X013164Y021499D01*
X012978Y021499D01*
X012978Y021252D01*
X012857Y021252D02*
X012672Y021252D01*
X012610Y021314D01*
X012610Y021437D01*
X012672Y021499D01*
X012857Y021499D01*
X012857Y021190D01*
X012795Y021129D01*
X012733Y021129D01*
X012281Y021252D02*
X012281Y021561D01*
X012343Y021622D01*
X012343Y021437D02*
X012219Y021437D01*
X012098Y021437D02*
X012098Y021375D01*
X011851Y021375D01*
X011851Y021314D02*
X011851Y021437D01*
X011913Y021499D01*
X012036Y021499D01*
X012098Y021437D01*
X012036Y021252D02*
X011913Y021252D01*
X011851Y021314D01*
X011730Y021252D02*
X011606Y021375D01*
X011668Y021375D02*
X011483Y021375D01*
X011483Y021252D02*
X011483Y021622D01*
X011668Y021622D01*
X011730Y021561D01*
X011730Y021437D01*
X011668Y021375D01*
X011361Y021437D02*
X011115Y021437D01*
X011115Y021499D02*
X011238Y021622D01*
X011361Y021499D01*
X011361Y021252D01*
X011115Y021252D02*
X011115Y021499D01*
X014197Y021561D02*
X014258Y021622D01*
X014382Y021622D01*
X014444Y021561D01*
X014382Y021437D02*
X014320Y021437D01*
X015165Y022652D02*
X015350Y022652D01*
X015412Y022714D01*
X015412Y022961D01*
X015350Y023022D01*
X015165Y023022D01*
X015165Y022652D01*
X015533Y022652D02*
X015657Y022652D01*
X015595Y022652D02*
X015595Y022899D01*
X015533Y022899D01*
X015595Y023022D02*
X015595Y023084D01*
X015841Y022899D02*
X015779Y022837D01*
X015779Y022714D01*
X015841Y022652D01*
X016026Y022652D01*
X016026Y022590D02*
X016026Y022899D01*
X015841Y022899D01*
X016147Y022899D02*
X016209Y022899D01*
X016209Y022652D01*
X016147Y022652D02*
X016271Y022652D01*
X016454Y022714D02*
X016516Y022652D01*
X016454Y022714D02*
X016454Y022961D01*
X016393Y022899D02*
X016516Y022899D01*
X016700Y022899D02*
X016823Y022899D01*
X016885Y022837D01*
X016885Y022652D01*
X016700Y022652D01*
X016638Y022714D01*
X016700Y022775D01*
X016885Y022775D01*
X017007Y022652D02*
X017130Y022652D01*
X017068Y022652D02*
X017068Y023022D01*
X017007Y023022D01*
X017620Y023022D02*
X017744Y023022D01*
X017682Y023022D02*
X017682Y022652D01*
X017620Y022652D02*
X017744Y022652D01*
X017866Y022652D02*
X018113Y023022D01*
X018234Y022961D02*
X018234Y022714D01*
X018296Y022652D01*
X018419Y022652D01*
X018481Y022714D01*
X018481Y022961D01*
X018419Y023022D01*
X018296Y023022D01*
X018234Y022961D01*
X016209Y023022D02*
X016209Y023084D01*
X016026Y022590D02*
X015964Y022529D01*
X015902Y022529D01*
X022765Y022652D02*
X022950Y022652D01*
X023012Y022714D01*
X023012Y022961D01*
X022950Y023022D01*
X022765Y023022D01*
X022765Y022652D01*
X023133Y022652D02*
X023257Y022652D01*
X023195Y022652D02*
X023195Y022899D01*
X023133Y022899D01*
X023195Y023022D02*
X023195Y023084D01*
X023441Y022899D02*
X023379Y022837D01*
X023379Y022714D01*
X023441Y022652D01*
X023626Y022652D01*
X023626Y022590D02*
X023626Y022899D01*
X023441Y022899D01*
X023747Y022899D02*
X023809Y022899D01*
X023809Y022652D01*
X023747Y022652D02*
X023871Y022652D01*
X024054Y022714D02*
X024054Y022961D01*
X023993Y022899D02*
X024116Y022899D01*
X024300Y022899D02*
X024423Y022899D01*
X024485Y022837D01*
X024485Y022652D01*
X024300Y022652D01*
X024238Y022714D01*
X024300Y022775D01*
X024485Y022775D01*
X024607Y022652D02*
X024730Y022652D01*
X024668Y022652D02*
X024668Y023022D01*
X024607Y023022D01*
X025220Y023022D02*
X025344Y023022D01*
X025282Y023022D02*
X025282Y022652D01*
X025220Y022652D02*
X025344Y022652D01*
X025466Y022652D02*
X025713Y023022D01*
X025834Y022961D02*
X025834Y022714D01*
X025896Y022652D01*
X026019Y022652D01*
X026081Y022714D01*
X026081Y022961D01*
X026019Y023022D01*
X025896Y023022D01*
X025834Y022961D01*
X024116Y022652D02*
X024054Y022714D01*
X023809Y023022D02*
X023809Y023084D01*
X023626Y022590D02*
X023564Y022529D01*
X023502Y022529D01*
X042586Y014763D02*
X042586Y014618D01*
X042877Y014618D01*
X042877Y014763D01*
X042828Y014811D01*
X042635Y014811D01*
X042586Y014763D01*
X042586Y014517D02*
X042586Y014323D01*
X042877Y014323D01*
X042877Y014517D01*
X042732Y014420D02*
X042732Y014323D01*
X042877Y014222D02*
X042877Y014028D01*
X042586Y014028D01*
X043066Y014077D02*
X043115Y014028D01*
X043308Y014028D01*
X043357Y014077D01*
X043357Y014174D01*
X043308Y014222D01*
X043115Y014222D01*
X043066Y014174D01*
X043066Y014077D01*
X043066Y014323D02*
X043066Y014517D01*
X043066Y014618D02*
X043066Y014811D01*
X043212Y014714D02*
X043212Y014618D01*
X043357Y014618D02*
X043066Y014618D01*
X043212Y014420D02*
X043212Y014323D01*
X043357Y014323D02*
X043066Y014323D01*
X042828Y010662D02*
X042635Y010662D01*
X042586Y010613D01*
X042586Y010468D01*
X042877Y010468D01*
X042877Y010613D01*
X042828Y010662D01*
X042877Y010367D02*
X042877Y010173D01*
X042586Y010173D01*
X042586Y010367D01*
X042732Y010270D02*
X042732Y010173D01*
X042877Y010072D02*
X042877Y009879D01*
X042586Y009879D01*
X043066Y009927D02*
X043115Y009879D01*
X043308Y009879D01*
X043357Y009927D01*
X043357Y010024D01*
X043308Y010072D01*
X043115Y010072D01*
X043066Y010024D01*
X043066Y009927D01*
X043066Y010173D02*
X043357Y010367D01*
X043066Y010367D01*
X043066Y010173D02*
X043357Y010173D01*
X043735Y009454D02*
X043880Y009454D01*
X043880Y009358D02*
X043735Y009358D01*
X043686Y009406D01*
X043735Y009454D01*
X043735Y009358D02*
X043686Y009309D01*
X043686Y009261D01*
X043880Y009261D01*
X043832Y009160D02*
X043735Y009160D01*
X043686Y009111D01*
X043686Y009015D01*
X043735Y008966D01*
X043832Y008966D01*
X043880Y009015D01*
X043880Y009111D01*
X043832Y009160D01*
X043880Y008865D02*
X043880Y008720D01*
X043832Y008672D01*
X043735Y008672D01*
X043686Y008720D01*
X043686Y008865D01*
X043832Y008573D02*
X043832Y008524D01*
X043880Y008524D01*
X043880Y008573D01*
X043832Y008573D01*
X043832Y008423D02*
X043783Y008375D01*
X043783Y008278D01*
X043735Y008230D01*
X043686Y008278D01*
X043686Y008423D01*
X043832Y008423D02*
X043880Y008375D01*
X043880Y008230D01*
X043880Y008128D02*
X043880Y007983D01*
X043832Y007935D01*
X043686Y007935D01*
X043735Y007834D02*
X043880Y007834D01*
X043735Y007834D02*
X043686Y007785D01*
X043686Y007689D01*
X043735Y007640D01*
X043735Y007539D02*
X043832Y007539D01*
X043880Y007491D01*
X043880Y007346D01*
X043977Y007346D02*
X043686Y007346D01*
X043686Y007491D01*
X043735Y007539D01*
X043590Y007640D02*
X043880Y007640D01*
X043977Y008032D02*
X043977Y008080D01*
X043928Y008128D01*
X043686Y008128D01*
X043400Y008080D02*
X043400Y007983D01*
X043352Y007935D01*
X043158Y008128D01*
X043352Y008128D01*
X043400Y008080D01*
X043400Y008230D02*
X043400Y008423D01*
X043400Y008326D02*
X043110Y008326D01*
X043206Y008230D01*
X043158Y008128D02*
X043110Y008080D01*
X043110Y007983D01*
X043158Y007935D01*
X043352Y007935D01*
X043400Y007834D02*
X043400Y007640D01*
X043206Y007834D01*
X043158Y007834D01*
X043110Y007785D01*
X043110Y007689D01*
X043158Y007640D01*
X043206Y007244D02*
X043448Y007244D01*
X043497Y007196D01*
X043497Y007148D01*
X043400Y007099D02*
X043400Y007244D01*
X043400Y007099D02*
X043352Y007051D01*
X043206Y007051D01*
X043110Y006903D02*
X043400Y006903D01*
X043400Y006855D02*
X043400Y006951D01*
X043400Y006753D02*
X043206Y006753D01*
X043110Y006855D02*
X043110Y006903D01*
X043400Y006753D02*
X043400Y006608D01*
X043352Y006560D01*
X043206Y006560D01*
X043110Y006459D02*
X043110Y006362D01*
X043110Y006410D02*
X043352Y006410D01*
X043400Y006362D01*
X043400Y006314D01*
X043352Y006265D01*
X043686Y006312D02*
X043735Y006360D01*
X043783Y006360D01*
X043783Y006167D01*
X043735Y006167D02*
X043686Y006215D01*
X043686Y006312D01*
X043686Y006462D02*
X043686Y006607D01*
X043735Y006655D01*
X043880Y006655D01*
X043735Y006756D02*
X043735Y006950D01*
X043735Y007051D02*
X043686Y007099D01*
X043686Y007196D01*
X043735Y007244D01*
X043783Y007244D01*
X043783Y007051D01*
X043735Y007051D02*
X043832Y007051D01*
X043880Y007099D01*
X043880Y007196D01*
X043880Y006462D02*
X043686Y006462D01*
X043880Y006312D02*
X043880Y006215D01*
X043832Y006167D01*
X043735Y006167D01*
X043735Y006066D02*
X043832Y006066D01*
X043880Y006017D01*
X043880Y005872D01*
X043977Y005872D02*
X043686Y005872D01*
X043686Y006017D01*
X043735Y006066D01*
X043735Y005771D02*
X043686Y005723D01*
X043686Y005626D01*
X043735Y005578D01*
X043832Y005578D01*
X043880Y005626D01*
X043880Y005723D01*
X043832Y005771D01*
X043735Y005771D01*
X043497Y005774D02*
X043400Y005871D01*
X043400Y005822D01*
X043352Y005822D01*
X043352Y005871D01*
X043400Y005871D01*
X043352Y005673D02*
X043158Y005673D01*
X043352Y005479D01*
X043400Y005528D01*
X043400Y005625D01*
X043352Y005673D01*
X043352Y005479D02*
X043158Y005479D01*
X043110Y005528D01*
X043110Y005625D01*
X043158Y005673D01*
X043352Y005381D02*
X043400Y005381D01*
X043400Y005332D01*
X043352Y005332D01*
X043352Y005381D01*
X043400Y005231D02*
X043400Y005037D01*
X043400Y005134D02*
X043110Y005134D01*
X043206Y005037D01*
X043255Y004642D02*
X043400Y004642D01*
X043255Y004642D02*
X043206Y004593D01*
X043206Y004448D01*
X043400Y004448D01*
X043352Y004347D02*
X043255Y004347D01*
X043206Y004299D01*
X043206Y004202D01*
X043255Y004154D01*
X043352Y004154D01*
X043400Y004202D01*
X043400Y004299D01*
X043352Y004347D01*
X043400Y004054D02*
X043400Y003957D01*
X043400Y004005D02*
X043206Y004005D01*
X043206Y003957D01*
X043206Y003856D02*
X043206Y003711D01*
X043255Y003662D01*
X043303Y003711D01*
X043303Y003808D01*
X043352Y003856D01*
X043400Y003808D01*
X043400Y003662D01*
X043541Y003760D02*
X043590Y003760D01*
X043686Y003760D02*
X043880Y003760D01*
X043880Y003712D02*
X043880Y003808D01*
X043832Y003908D02*
X043880Y003956D01*
X043880Y004101D01*
X043928Y004101D02*
X043686Y004101D01*
X043686Y003956D01*
X043735Y003908D01*
X043832Y003908D01*
X043977Y004005D02*
X043977Y004053D01*
X043928Y004101D01*
X043880Y004203D02*
X043686Y004203D01*
X043686Y004348D01*
X043735Y004396D01*
X043880Y004396D01*
X043832Y004792D02*
X043783Y004840D01*
X043783Y004985D01*
X043735Y004985D02*
X043880Y004985D01*
X043880Y004840D01*
X043832Y004792D01*
X043686Y004840D02*
X043686Y004937D01*
X043735Y004985D01*
X043686Y005087D02*
X043686Y005183D01*
X043638Y005135D02*
X043832Y005135D01*
X043880Y005183D01*
X043110Y004005D02*
X043061Y004005D01*
X043206Y003562D02*
X043206Y003514D01*
X043303Y003417D01*
X043400Y003417D02*
X043206Y003417D01*
X043255Y003316D02*
X043303Y003316D01*
X043303Y003122D01*
X043255Y003122D02*
X043206Y003171D01*
X043206Y003267D01*
X043255Y003316D01*
X043400Y003267D02*
X043400Y003171D01*
X043352Y003122D01*
X043255Y003122D01*
X043206Y003021D02*
X043400Y002924D01*
X043206Y002828D01*
X043590Y003021D02*
X043880Y003021D01*
X043880Y002876D01*
X043832Y002828D01*
X043735Y002828D01*
X043686Y002876D01*
X043686Y003021D01*
X043735Y003122D02*
X043686Y003171D01*
X043686Y003267D01*
X043735Y003316D01*
X043783Y003316D01*
X043783Y003122D01*
X043735Y003122D02*
X043832Y003122D01*
X043880Y003171D01*
X043880Y003267D01*
X043880Y003417D02*
X043880Y003562D01*
X043832Y003610D01*
X043783Y003562D01*
X043783Y003465D01*
X043735Y003417D01*
X043686Y003465D01*
X043686Y003610D01*
X043686Y003712D02*
X043686Y003760D01*
X043255Y008524D02*
X043255Y008718D01*
X043400Y008669D02*
X043110Y008669D01*
X043255Y008524D01*
X027812Y004022D02*
X027565Y004022D01*
X027565Y003837D01*
X027688Y003899D01*
X027750Y003899D01*
X027812Y003837D01*
X027812Y003714D01*
X027750Y003652D01*
X027627Y003652D01*
X027565Y003714D01*
X026812Y003837D02*
X026565Y003837D01*
X026750Y004022D01*
X026750Y003652D01*
X025812Y003714D02*
X025750Y003652D01*
X025627Y003652D01*
X025565Y003714D01*
X025688Y003837D02*
X025750Y003837D01*
X025812Y003775D01*
X025812Y003714D01*
X025750Y003837D02*
X025812Y003899D01*
X025812Y003961D01*
X025750Y004022D01*
X025627Y004022D01*
X025565Y003961D01*
X024812Y003961D02*
X024750Y004022D01*
X024627Y004022D01*
X024565Y003961D01*
X024812Y003961D02*
X024812Y003899D01*
X024565Y003652D01*
X024812Y003652D01*
X023812Y003652D02*
X023565Y003652D01*
X023688Y003652D02*
X023688Y004022D01*
X023565Y003899D01*
X022812Y003961D02*
X022812Y003714D01*
X022750Y003652D01*
X022627Y003652D01*
X022565Y003714D01*
X022812Y003961D01*
X022750Y004022D01*
X022627Y004022D01*
X022565Y003961D01*
X022565Y003714D01*
X021208Y003652D02*
X021208Y003837D01*
X021146Y003899D01*
X020961Y003899D01*
X020961Y003652D01*
X020839Y003652D02*
X020715Y003652D01*
X020777Y003652D02*
X020777Y003899D01*
X020715Y003899D01*
X020777Y004022D02*
X020777Y004084D01*
X020594Y004022D02*
X020594Y003775D01*
X020470Y003652D01*
X020347Y003775D01*
X020347Y004022D01*
X019752Y004022D02*
X019752Y003652D01*
X019567Y003652D01*
X019506Y003714D01*
X019506Y003837D01*
X019567Y003899D01*
X019752Y003899D01*
X019384Y003837D02*
X019384Y003652D01*
X019384Y003837D02*
X019322Y003899D01*
X019137Y003899D01*
X019137Y003652D01*
X019016Y003714D02*
X019016Y003837D01*
X018892Y003837D01*
X018769Y003714D02*
X018769Y003961D01*
X018831Y004022D01*
X018954Y004022D01*
X019016Y003961D01*
X019016Y003714D02*
X018954Y003652D01*
X018831Y003652D01*
X018769Y003714D01*
X018112Y003899D02*
X017989Y003652D01*
X017865Y003899D01*
X017744Y003837D02*
X017744Y003714D01*
X017682Y003652D01*
X017559Y003652D01*
X017497Y003714D01*
X017497Y003837D02*
X017620Y003899D01*
X017682Y003899D01*
X017744Y003837D01*
X017744Y004022D02*
X017497Y004022D01*
X017497Y003837D01*
X017012Y003899D02*
X016889Y003652D01*
X016765Y003899D01*
X016644Y003899D02*
X016582Y003837D01*
X016644Y003775D01*
X016644Y003714D01*
X016582Y003652D01*
X016459Y003652D01*
X016397Y003714D01*
X016520Y003837D02*
X016582Y003837D01*
X016644Y003899D02*
X016644Y003961D01*
X016582Y004022D01*
X016459Y004022D01*
X016397Y003961D01*
X015995Y004022D02*
X015748Y004022D01*
X015871Y004022D02*
X015871Y003652D01*
X015626Y003714D02*
X015564Y003652D01*
X015441Y003652D01*
X015379Y003714D01*
X015258Y003652D02*
X015134Y003775D01*
X015196Y003775D02*
X015011Y003775D01*
X015011Y003652D02*
X015011Y004022D01*
X015196Y004022D01*
X015258Y003961D01*
X015258Y003837D01*
X015196Y003775D01*
X015379Y003899D02*
X015441Y003837D01*
X015564Y003837D01*
X015626Y003775D01*
X015626Y003714D01*
X015626Y003961D02*
X015564Y004022D01*
X015441Y004022D01*
X015379Y003961D01*
X015379Y003899D01*
X024019Y002581D02*
X024019Y002334D01*
X024019Y002519D02*
X024266Y002519D01*
X024266Y002581D02*
X024266Y002334D01*
X024387Y002334D02*
X024387Y002581D01*
X024572Y002581D01*
X024634Y002519D01*
X024634Y002334D01*
X024756Y002396D02*
X024817Y002457D01*
X025002Y002457D01*
X025002Y002519D02*
X025002Y002334D01*
X024817Y002334D01*
X024756Y002396D01*
X024817Y002581D02*
X024941Y002581D01*
X025002Y002519D01*
X025124Y002334D02*
X025247Y002334D01*
X025186Y002334D02*
X025186Y002704D01*
X025124Y002704D01*
X025369Y002519D02*
X025369Y002396D01*
X025431Y002334D01*
X025555Y002334D01*
X025616Y002396D01*
X025616Y002519D01*
X025555Y002581D01*
X025431Y002581D01*
X025369Y002519D01*
X025738Y002519D02*
X025799Y002581D01*
X025985Y002581D01*
X025985Y002272D01*
X025923Y002211D01*
X025861Y002211D01*
X025799Y002334D02*
X025985Y002334D01*
X025799Y002334D02*
X025738Y002396D01*
X025738Y002519D01*
X026474Y002334D02*
X026598Y002334D01*
X026536Y002334D02*
X026536Y002704D01*
X026474Y002704D02*
X026598Y002704D01*
X026720Y002581D02*
X026720Y002334D01*
X026967Y002334D02*
X026967Y002519D01*
X026905Y002581D01*
X026720Y002581D01*
X024266Y002581D02*
X024142Y002704D01*
X024019Y002581D01*
D12*
X022697Y004254D02*
X022333Y004254D01*
X022343Y004746D02*
X022697Y004746D01*
X020490Y004714D02*
X019890Y004714D01*
X019890Y004394D02*
X020490Y004394D01*
X014397Y004154D02*
X014033Y004154D01*
X014043Y004646D02*
X014397Y004646D01*
X012215Y004618D02*
X011615Y004618D01*
X011615Y004298D02*
X012215Y004298D01*
X027632Y004278D02*
X028232Y004278D01*
X028232Y004598D02*
X027632Y004598D01*
X029843Y004646D02*
X030197Y004646D01*
X030197Y004154D02*
X029833Y004154D01*
X031559Y003499D02*
X032079Y003499D01*
X031559Y003152D01*
X032079Y003152D01*
X031993Y002983D02*
X032079Y002897D01*
X032079Y002723D01*
X031993Y002636D01*
X031646Y002636D01*
X031559Y002723D01*
X031559Y002897D01*
X031646Y002983D01*
X031993Y002983D01*
X032374Y002923D02*
X032374Y003277D01*
X032866Y003277D02*
X032866Y002913D01*
X033530Y002814D02*
X033530Y003414D01*
X033850Y003414D02*
X033850Y002814D01*
X035779Y004285D02*
X036379Y004285D01*
X036379Y004605D02*
X035779Y004605D01*
X038043Y004646D02*
X038397Y004646D01*
X038397Y004154D02*
X038033Y004154D01*
X042241Y003947D02*
X042241Y003774D01*
X042328Y003687D01*
X042675Y003687D01*
X042762Y003774D01*
X042762Y003947D01*
X042675Y004034D01*
X042328Y004034D01*
X042241Y003947D01*
X042241Y003518D02*
X042762Y003171D01*
X042762Y003001D02*
X042762Y002828D01*
X042762Y002914D02*
X042241Y002914D01*
X042241Y002828D02*
X042241Y003001D01*
X042328Y004718D02*
X042415Y004718D01*
X042501Y004805D01*
X042501Y004979D01*
X042588Y005065D01*
X042675Y005065D01*
X042762Y004979D01*
X042762Y004805D01*
X042675Y004718D01*
X042328Y004718D02*
X042241Y004805D01*
X042241Y004979D01*
X042328Y005065D01*
X042241Y005234D02*
X042762Y005234D01*
X042501Y005234D02*
X042415Y005321D01*
X042415Y005494D01*
X042501Y005581D01*
X042762Y005581D01*
X042762Y005750D02*
X042762Y005923D01*
X042762Y005836D02*
X042415Y005836D01*
X042415Y005750D01*
X042241Y005836D02*
X042154Y005836D01*
X042415Y006180D02*
X042415Y006354D01*
X042501Y006440D01*
X042588Y006440D01*
X042588Y006093D01*
X042501Y006093D02*
X042415Y006180D01*
X042501Y006093D02*
X042675Y006093D01*
X042762Y006180D01*
X042762Y006354D01*
X042762Y006609D02*
X042762Y006782D01*
X042762Y006696D02*
X042241Y006696D01*
X042241Y006609D01*
X042501Y006953D02*
X042415Y007040D01*
X042415Y007300D01*
X042241Y007300D02*
X042762Y007300D01*
X042762Y007040D01*
X042675Y006953D01*
X042501Y006953D01*
X038297Y020354D02*
X037933Y020354D01*
X037943Y020846D02*
X038297Y020846D01*
X036305Y020741D02*
X035705Y020741D01*
X035705Y020421D02*
X036305Y020421D01*
X030397Y020354D02*
X030033Y020354D01*
X030043Y020846D02*
X030397Y020846D01*
X028284Y020741D02*
X027684Y020741D01*
X027684Y020421D02*
X028284Y020421D01*
X021897Y020354D02*
X021533Y020354D01*
X021543Y020846D02*
X021897Y020846D01*
X020101Y020749D02*
X019501Y020749D01*
X019501Y020429D02*
X020101Y020429D01*
X014097Y020454D02*
X013733Y020454D01*
X013743Y020946D02*
X014097Y020946D01*
X012187Y020772D02*
X011587Y020772D01*
X011587Y020452D02*
X012187Y020452D01*
D13*
X010439Y020510D02*
X010286Y020357D01*
X010439Y020510D02*
X010439Y020817D01*
X010286Y020971D01*
X009979Y020971D01*
X009826Y020817D01*
X009826Y020664D01*
X009979Y020357D01*
X009519Y020357D01*
X009519Y020971D01*
X017564Y020858D02*
X017717Y020551D01*
X018024Y020244D01*
X018024Y020705D01*
X018177Y020858D01*
X018331Y020858D01*
X018484Y020705D01*
X018484Y020398D01*
X018331Y020244D01*
X018024Y020244D01*
X025913Y020319D02*
X025913Y020933D01*
X026067Y020933D01*
X026680Y020319D01*
X026834Y020319D01*
X033663Y020456D02*
X033663Y020763D01*
X033816Y020916D01*
X033970Y020916D01*
X034123Y020763D01*
X034123Y020456D01*
X033970Y020303D01*
X033816Y020303D01*
X033663Y020456D01*
X034123Y020456D02*
X034277Y020303D01*
X034430Y020303D01*
X034584Y020456D01*
X034584Y020763D01*
X034430Y020916D01*
X034277Y020916D01*
X034123Y020763D01*
X034148Y004810D02*
X034148Y004196D01*
X033687Y004657D01*
X034608Y004657D01*
X026824Y004489D02*
X026824Y004182D01*
X026671Y004029D01*
X026364Y004336D02*
X026364Y004489D01*
X026517Y004643D01*
X026671Y004643D01*
X026824Y004489D01*
X026364Y004489D02*
X026210Y004643D01*
X026057Y004643D01*
X025904Y004489D01*
X025904Y004182D01*
X026057Y004029D01*
X018855Y004074D02*
X018241Y004688D01*
X018088Y004688D01*
X017934Y004535D01*
X017934Y004228D01*
X018088Y004074D01*
X018855Y004074D02*
X018855Y004688D01*
X010582Y004798D02*
X010582Y004185D01*
X010582Y004491D02*
X009661Y004491D01*
X009968Y004185D01*
D14*
X009823Y008854D02*
X010250Y008854D01*
X010357Y008961D01*
X010357Y009174D01*
X010250Y009281D01*
X010357Y009498D02*
X009716Y009498D01*
X009823Y009281D02*
X009716Y009174D01*
X009716Y008961D01*
X009823Y008854D01*
X010036Y009498D02*
X010036Y009925D01*
X009930Y010143D02*
X009716Y010356D01*
X010357Y010356D01*
X010357Y010143D02*
X010357Y010570D01*
X010357Y009925D02*
X009716Y009925D01*
X017946Y009982D02*
X018587Y009982D01*
X018587Y010200D02*
X018160Y010627D01*
X018053Y010627D01*
X017946Y010520D01*
X017946Y010307D01*
X018053Y010200D01*
X018267Y009982D02*
X018267Y009555D01*
X018480Y009338D02*
X018587Y009231D01*
X018587Y009018D01*
X018480Y008911D01*
X018053Y008911D01*
X017946Y009018D01*
X017946Y009231D01*
X018053Y009338D01*
X017946Y009555D02*
X018587Y009555D01*
X018587Y010200D02*
X018587Y010627D01*
X026127Y010453D02*
X026234Y010560D01*
X026341Y010560D01*
X026448Y010453D01*
X026555Y010560D01*
X026661Y010560D01*
X026768Y010453D01*
X026768Y010240D01*
X026661Y010133D01*
X026768Y009916D02*
X026127Y009916D01*
X026234Y010133D02*
X026127Y010240D01*
X026127Y010453D01*
X026448Y010453D02*
X026448Y010347D01*
X026448Y009916D02*
X026448Y009489D01*
X026661Y009271D02*
X026768Y009164D01*
X026768Y008951D01*
X026661Y008844D01*
X026234Y008844D01*
X026127Y008951D01*
X026127Y009164D01*
X026234Y009271D01*
X026127Y009489D02*
X026768Y009489D01*
X034076Y009351D02*
X034076Y009138D01*
X034183Y009031D01*
X034610Y009031D01*
X034717Y009138D01*
X034717Y009351D01*
X034610Y009458D01*
X034717Y009676D02*
X034076Y009676D01*
X034183Y009458D02*
X034076Y009351D01*
X034397Y009676D02*
X034397Y010103D01*
X034397Y010320D02*
X034397Y010747D01*
X034717Y010640D02*
X034076Y010640D01*
X034397Y010320D01*
X034717Y010103D02*
X034076Y010103D01*
X042601Y010913D02*
X042601Y011713D01*
X042701Y011813D01*
X042601Y011913D01*
X042601Y012713D01*
X042701Y012813D01*
X042601Y012913D01*
X042601Y013713D01*
X042701Y013813D01*
X043501Y013813D01*
X043601Y013713D01*
X043601Y012913D01*
X043501Y012813D01*
X043601Y012713D01*
X043601Y011913D01*
X043501Y011813D01*
X043601Y011713D01*
X043601Y010913D01*
X043501Y010813D01*
X042701Y010813D01*
X042601Y010913D01*
X034819Y017852D02*
X034712Y017746D01*
X034285Y017746D01*
X034179Y017852D01*
X034179Y018066D01*
X034285Y018173D01*
X034179Y018390D02*
X034819Y018390D01*
X034712Y018173D02*
X034819Y018066D01*
X034819Y017852D01*
X034499Y018390D02*
X034499Y018817D01*
X034606Y019035D02*
X034499Y019141D01*
X034499Y019355D01*
X034606Y019462D01*
X034712Y019462D01*
X034819Y019355D01*
X034819Y019141D01*
X034712Y019035D01*
X034606Y019035D01*
X034499Y019141D02*
X034392Y019035D01*
X034285Y019035D01*
X034179Y019141D01*
X034179Y019355D01*
X034285Y019462D01*
X034392Y019462D01*
X034499Y019355D01*
X034179Y018817D02*
X034819Y018817D01*
X026819Y018986D02*
X026179Y018986D01*
X026179Y019204D02*
X026179Y019631D01*
X026285Y019631D01*
X026712Y019204D01*
X026819Y019204D01*
X026499Y018986D02*
X026499Y018559D01*
X026712Y018342D02*
X026819Y018235D01*
X026819Y018022D01*
X026712Y017915D01*
X026285Y017915D01*
X026179Y018022D01*
X026179Y018235D01*
X026285Y018342D01*
X026179Y018559D02*
X026819Y018559D01*
X018744Y018372D02*
X018104Y018372D01*
X018211Y018155D02*
X018104Y018048D01*
X018104Y017835D01*
X018211Y017728D01*
X018638Y017728D01*
X018744Y017835D01*
X018744Y018048D01*
X018638Y018155D01*
X018424Y018372D02*
X018424Y018799D01*
X018424Y019017D02*
X018424Y019337D01*
X018531Y019444D01*
X018638Y019444D01*
X018744Y019337D01*
X018744Y019124D01*
X018638Y019017D01*
X018424Y019017D01*
X018211Y019230D01*
X018104Y019444D01*
X018104Y018799D02*
X018744Y018799D01*
X010471Y018640D02*
X009830Y018640D01*
X009830Y018857D02*
X010151Y018857D01*
X010044Y019071D01*
X010044Y019178D01*
X010151Y019285D01*
X010364Y019285D01*
X010471Y019178D01*
X010471Y018964D01*
X010364Y018857D01*
X010151Y018640D02*
X010151Y018213D01*
X010364Y017995D02*
X010471Y017889D01*
X010471Y017675D01*
X010364Y017568D01*
X009937Y017568D01*
X009830Y017675D01*
X009830Y017889D01*
X009937Y017995D01*
X009830Y018213D02*
X010471Y018213D01*
X009830Y018857D02*
X009830Y019285D01*
X043335Y019331D02*
X043335Y019011D01*
X043976Y019011D01*
X043976Y019331D01*
X043869Y019438D01*
X043442Y019438D01*
X043335Y019331D01*
X043335Y018793D02*
X043976Y018793D01*
X043655Y018793D02*
X043655Y018366D01*
X043335Y018366D02*
X043976Y018366D01*
X043976Y019655D02*
X043335Y019655D01*
X043548Y019869D01*
X043335Y020082D01*
X043976Y020082D01*
X043976Y020300D02*
X043976Y020513D01*
X043976Y020407D02*
X043335Y020407D01*
X043335Y020513D02*
X043335Y020300D01*
D15*
X044399Y023131D02*
X044399Y002069D01*
X008572Y002069D01*
X008572Y023131D01*
X044399Y023131D01*
D16*
X044439Y022285D02*
X043454Y022285D01*
X043454Y022482D01*
X043061Y022482D01*
X043061Y022285D01*
X040895Y022285D01*
X040895Y021891D01*
X044439Y021891D01*
X044439Y022285D01*
X044439Y021891D02*
X044439Y016773D01*
X040895Y016773D01*
X040895Y016380D01*
X043061Y016380D01*
X043061Y016183D01*
X043454Y016183D01*
X043454Y016380D01*
X044439Y016380D01*
X044439Y016773D01*
X043946Y017265D02*
X042864Y017265D01*
X042165Y017178D01*
X042148Y017177D01*
X042132Y017181D01*
X042116Y017187D01*
X042103Y017197D01*
X042091Y017209D01*
X042083Y017224D01*
X042078Y017239D01*
X042076Y017256D01*
X042076Y017295D01*
X042078Y017311D01*
X042082Y017326D01*
X042090Y017340D01*
X042101Y017353D01*
X042114Y017362D01*
X042128Y017369D01*
X042144Y017373D01*
X042765Y017462D01*
X043257Y017462D01*
X043257Y017856D01*
X042765Y017856D01*
X042144Y017945D01*
X042128Y017949D01*
X042114Y017956D01*
X042101Y017965D01*
X042090Y017978D01*
X042082Y017992D01*
X042078Y018007D01*
X042076Y018023D01*
X042076Y018062D01*
X042078Y018079D01*
X042083Y018094D01*
X042091Y018109D01*
X042103Y018121D01*
X042116Y018131D01*
X042132Y018137D01*
X042148Y018141D01*
X042165Y018140D01*
X042864Y018053D01*
X043946Y018053D01*
X043972Y018051D01*
X043997Y018046D01*
X044021Y018038D01*
X044045Y018027D01*
X044066Y018012D01*
X044085Y017995D01*
X044102Y017976D01*
X044117Y017955D01*
X044128Y017931D01*
X044136Y017907D01*
X044141Y017882D01*
X044143Y017856D01*
X044143Y017462D01*
X044141Y017436D01*
X044136Y017411D01*
X044128Y017387D01*
X044117Y017364D01*
X044102Y017342D01*
X044085Y017323D01*
X044066Y017306D01*
X044045Y017291D01*
X044021Y017280D01*
X043997Y017272D01*
X043972Y017267D01*
X043946Y017265D01*
X043946Y017462D02*
X043946Y017856D01*
X043848Y017856D01*
X043848Y017462D01*
X043946Y017462D01*
X043848Y017462D02*
X043651Y017462D01*
X043651Y017856D01*
X043553Y017856D01*
X043553Y017462D01*
X043651Y017462D01*
X043553Y017462D02*
X043257Y017462D01*
X043257Y017856D02*
X043553Y017856D01*
X043651Y017856D02*
X043848Y017856D01*
X042273Y017915D02*
X042273Y017403D01*
X041486Y017364D02*
X041486Y017561D01*
X041484Y017587D01*
X041479Y017612D01*
X041471Y017636D01*
X041460Y017660D01*
X041445Y017681D01*
X041428Y017700D01*
X041409Y017717D01*
X041388Y017732D01*
X041364Y017743D01*
X041340Y017751D01*
X041315Y017756D01*
X041289Y017758D01*
X041289Y017757D02*
X041092Y017757D01*
X040895Y017954D01*
X040895Y018348D01*
X041013Y018348D01*
X041028Y018350D01*
X041043Y018354D01*
X041057Y018361D01*
X041069Y018371D01*
X041079Y018383D01*
X041086Y018397D01*
X041090Y018412D01*
X041092Y018427D01*
X041092Y018466D01*
X041090Y018481D01*
X041086Y018496D01*
X041079Y018510D01*
X041069Y018522D01*
X041057Y018532D01*
X041043Y018539D01*
X041028Y018543D01*
X041013Y018545D01*
X040895Y018545D01*
X040895Y020120D01*
X041013Y020120D01*
X041013Y020119D02*
X041028Y020121D01*
X041043Y020125D01*
X041057Y020132D01*
X041069Y020142D01*
X041079Y020154D01*
X041086Y020168D01*
X041090Y020183D01*
X041092Y020198D01*
X041092Y020238D01*
X041090Y020253D01*
X041086Y020268D01*
X041079Y020282D01*
X041069Y020294D01*
X041057Y020304D01*
X041043Y020311D01*
X041028Y020315D01*
X041013Y020317D01*
X040895Y020317D01*
X040895Y020710D01*
X041092Y020907D01*
X041289Y020907D01*
X041315Y020909D01*
X041340Y020914D01*
X041364Y020922D01*
X041388Y020933D01*
X041409Y020948D01*
X041428Y020965D01*
X041445Y020984D01*
X041460Y021006D01*
X041471Y021029D01*
X041479Y021053D01*
X041484Y021078D01*
X041486Y021104D01*
X041486Y021301D01*
X041484Y021327D01*
X041479Y021352D01*
X041471Y021376D01*
X041460Y021400D01*
X041445Y021421D01*
X041428Y021440D01*
X041409Y021457D01*
X041388Y021472D01*
X041364Y021483D01*
X041340Y021491D01*
X041315Y021496D01*
X041289Y021498D01*
X041092Y021498D01*
X040895Y021694D01*
X040895Y021891D01*
X040502Y021301D02*
X040502Y017561D01*
X040895Y016970D02*
X041092Y017167D01*
X041289Y017167D01*
X041315Y017169D01*
X041340Y017174D01*
X041364Y017182D01*
X041388Y017193D01*
X041409Y017208D01*
X041428Y017225D01*
X041445Y017244D01*
X041460Y017266D01*
X041471Y017289D01*
X041479Y017313D01*
X041484Y017338D01*
X041486Y017364D01*
X040895Y016970D02*
X040895Y016773D01*
X043061Y016380D02*
X043454Y016380D01*
X043842Y013564D02*
X043786Y013508D01*
X043786Y013394D01*
X043842Y013338D01*
X043956Y013451D02*
X043956Y013508D01*
X044013Y013564D01*
X044069Y013564D01*
X044126Y013508D01*
X044126Y013394D01*
X044069Y013338D01*
X043956Y013508D02*
X043899Y013564D01*
X043842Y013564D01*
X043842Y012564D02*
X043786Y012508D01*
X043786Y012394D01*
X043842Y012338D01*
X043842Y012564D02*
X043899Y012564D01*
X044126Y012338D01*
X044126Y012564D01*
X044126Y011564D02*
X044126Y011338D01*
X044126Y011451D02*
X043786Y011451D01*
X043899Y011338D01*
X039676Y011041D02*
X039676Y005214D01*
X033456Y005214D01*
X033456Y011041D01*
X033455Y011041D02*
X033457Y011080D01*
X033463Y011118D01*
X033472Y011155D01*
X033485Y011192D01*
X033502Y011227D01*
X033521Y011260D01*
X033544Y011291D01*
X033570Y011320D01*
X033599Y011346D01*
X033630Y011369D01*
X033663Y011388D01*
X033698Y011405D01*
X033735Y011418D01*
X033772Y011427D01*
X033810Y011433D01*
X033849Y011435D01*
X039283Y011435D01*
X039322Y011433D01*
X039360Y011427D01*
X039397Y011418D01*
X039434Y011405D01*
X039469Y011388D01*
X039502Y011369D01*
X039533Y011346D01*
X039562Y011320D01*
X039588Y011291D01*
X039611Y011260D01*
X039630Y011227D01*
X039647Y011192D01*
X039660Y011155D01*
X039669Y011118D01*
X039675Y011080D01*
X039677Y011041D01*
X037826Y010529D02*
X035306Y010529D01*
X035306Y010528D02*
X035220Y010477D01*
X035137Y010422D01*
X035055Y010364D01*
X034976Y010303D01*
X034899Y010239D01*
X034825Y010172D01*
X034753Y010102D01*
X034684Y010029D01*
X034619Y009953D01*
X034556Y009875D01*
X034496Y009795D01*
X034440Y009712D01*
X034387Y009627D01*
X034337Y009540D01*
X034291Y009451D01*
X034248Y009361D01*
X034209Y009269D01*
X034174Y009175D01*
X034142Y009080D01*
X034114Y008984D01*
X034090Y008887D01*
X034070Y008789D01*
X034054Y008690D01*
X034041Y008591D01*
X034032Y008491D01*
X034028Y008391D01*
X034027Y008291D01*
X034031Y008191D01*
X034038Y008091D01*
X034049Y007991D01*
X034064Y007892D01*
X034083Y007794D01*
X034106Y007697D01*
X034132Y007600D01*
X034163Y007505D01*
X034197Y007411D01*
X034235Y007318D01*
X034276Y007227D01*
X034321Y007137D01*
X034370Y007050D01*
X034422Y006964D01*
X034477Y006881D01*
X034536Y006799D01*
X034597Y006721D01*
X034662Y006644D01*
X034730Y006570D01*
X034800Y006499D01*
X034874Y006431D01*
X034950Y006366D01*
X035028Y006304D01*
X035109Y006245D01*
X035192Y006189D01*
X035277Y006136D01*
X035364Y006087D01*
X035454Y006042D01*
X035544Y006000D01*
X035637Y005961D01*
X035731Y005926D01*
X035826Y005895D01*
X035922Y005868D01*
X036020Y005844D01*
X036118Y005825D01*
X036217Y005809D01*
X036316Y005797D01*
X036416Y005789D01*
X036516Y005785D01*
X036616Y005785D01*
X036716Y005789D01*
X036816Y005797D01*
X036915Y005809D01*
X037014Y005825D01*
X037112Y005844D01*
X037210Y005868D01*
X037306Y005895D01*
X037401Y005926D01*
X037495Y005961D01*
X037588Y006000D01*
X037678Y006042D01*
X037768Y006087D01*
X037855Y006136D01*
X037940Y006189D01*
X038023Y006245D01*
X038104Y006304D01*
X038182Y006366D01*
X038258Y006431D01*
X038332Y006499D01*
X038402Y006570D01*
X038470Y006644D01*
X038535Y006721D01*
X038596Y006799D01*
X038655Y006881D01*
X038710Y006964D01*
X038762Y007050D01*
X038811Y007137D01*
X038856Y007227D01*
X038897Y007318D01*
X038935Y007411D01*
X038969Y007505D01*
X039000Y007600D01*
X039026Y007697D01*
X039049Y007794D01*
X039068Y007892D01*
X039083Y007991D01*
X039094Y008091D01*
X039101Y008191D01*
X039105Y008291D01*
X039104Y008391D01*
X039100Y008491D01*
X039091Y008591D01*
X039078Y008690D01*
X039062Y008789D01*
X039042Y008887D01*
X039018Y008984D01*
X038990Y009080D01*
X038958Y009175D01*
X038923Y009269D01*
X038884Y009361D01*
X038841Y009451D01*
X038795Y009540D01*
X038745Y009627D01*
X038692Y009712D01*
X038636Y009795D01*
X038576Y009875D01*
X038513Y009953D01*
X038448Y010029D01*
X038379Y010102D01*
X038307Y010172D01*
X038233Y010239D01*
X038156Y010303D01*
X038077Y010364D01*
X037995Y010422D01*
X037912Y010477D01*
X037826Y010528D01*
X037700Y007616D02*
X037385Y007616D01*
X036723Y007616D02*
X036409Y007616D01*
X036566Y007773D02*
X036566Y007458D01*
X036679Y004745D02*
X035479Y004745D01*
X035479Y004145D01*
X036679Y004145D01*
X036679Y004745D01*
X033990Y003714D02*
X033390Y003714D01*
X033390Y002514D01*
X033990Y002514D01*
X033990Y003714D01*
X031771Y005211D02*
X025551Y005211D01*
X025551Y011037D01*
X025550Y011037D02*
X025552Y011076D01*
X025558Y011114D01*
X025567Y011151D01*
X025580Y011188D01*
X025597Y011223D01*
X025616Y011256D01*
X025639Y011287D01*
X025665Y011316D01*
X025694Y011342D01*
X025725Y011365D01*
X025758Y011384D01*
X025793Y011401D01*
X025830Y011414D01*
X025867Y011423D01*
X025905Y011429D01*
X025944Y011431D01*
X031377Y011431D01*
X031416Y011429D01*
X031454Y011423D01*
X031491Y011414D01*
X031528Y011401D01*
X031563Y011384D01*
X031596Y011365D01*
X031627Y011342D01*
X031656Y011316D01*
X031682Y011287D01*
X031705Y011256D01*
X031724Y011223D01*
X031741Y011188D01*
X031754Y011151D01*
X031763Y011114D01*
X031769Y011076D01*
X031771Y011037D01*
X031771Y005211D01*
X028532Y004738D02*
X028532Y004138D01*
X027332Y004138D01*
X027332Y004738D01*
X028532Y004738D01*
X028661Y007455D02*
X028661Y007770D01*
X028818Y007612D02*
X028503Y007612D01*
X027401Y010525D02*
X027315Y010474D01*
X027232Y010419D01*
X027150Y010361D01*
X027071Y010300D01*
X026994Y010236D01*
X026920Y010169D01*
X026848Y010099D01*
X026779Y010026D01*
X026714Y009950D01*
X026651Y009872D01*
X026591Y009792D01*
X026535Y009709D01*
X026482Y009624D01*
X026432Y009537D01*
X026386Y009448D01*
X026343Y009358D01*
X026304Y009266D01*
X026269Y009172D01*
X026237Y009077D01*
X026209Y008981D01*
X026185Y008884D01*
X026165Y008786D01*
X026149Y008687D01*
X026136Y008588D01*
X026127Y008488D01*
X026123Y008388D01*
X026122Y008288D01*
X026126Y008188D01*
X026133Y008088D01*
X026144Y007988D01*
X026159Y007889D01*
X026178Y007791D01*
X026201Y007694D01*
X026227Y007597D01*
X026258Y007502D01*
X026292Y007408D01*
X026330Y007315D01*
X026371Y007224D01*
X026416Y007134D01*
X026465Y007047D01*
X026517Y006961D01*
X026572Y006878D01*
X026631Y006796D01*
X026692Y006718D01*
X026757Y006641D01*
X026825Y006567D01*
X026895Y006496D01*
X026969Y006428D01*
X027045Y006363D01*
X027123Y006301D01*
X027204Y006242D01*
X027287Y006186D01*
X027372Y006133D01*
X027459Y006084D01*
X027549Y006039D01*
X027639Y005997D01*
X027732Y005958D01*
X027826Y005923D01*
X027921Y005892D01*
X028017Y005865D01*
X028115Y005841D01*
X028213Y005822D01*
X028312Y005806D01*
X028411Y005794D01*
X028511Y005786D01*
X028611Y005782D01*
X028711Y005782D01*
X028811Y005786D01*
X028911Y005794D01*
X029010Y005806D01*
X029109Y005822D01*
X029207Y005841D01*
X029305Y005865D01*
X029401Y005892D01*
X029496Y005923D01*
X029590Y005958D01*
X029683Y005997D01*
X029773Y006039D01*
X029863Y006084D01*
X029950Y006133D01*
X030035Y006186D01*
X030118Y006242D01*
X030199Y006301D01*
X030277Y006363D01*
X030353Y006428D01*
X030427Y006496D01*
X030497Y006567D01*
X030565Y006641D01*
X030630Y006718D01*
X030691Y006796D01*
X030750Y006878D01*
X030805Y006961D01*
X030857Y007047D01*
X030906Y007134D01*
X030951Y007224D01*
X030992Y007315D01*
X031030Y007408D01*
X031064Y007502D01*
X031095Y007597D01*
X031121Y007694D01*
X031144Y007791D01*
X031163Y007889D01*
X031178Y007988D01*
X031189Y008088D01*
X031196Y008188D01*
X031200Y008288D01*
X031199Y008388D01*
X031195Y008488D01*
X031186Y008588D01*
X031173Y008687D01*
X031157Y008786D01*
X031137Y008884D01*
X031113Y008981D01*
X031085Y009077D01*
X031053Y009172D01*
X031018Y009266D01*
X030979Y009358D01*
X030936Y009448D01*
X030890Y009537D01*
X030840Y009624D01*
X030787Y009709D01*
X030731Y009792D01*
X030671Y009872D01*
X030608Y009950D01*
X030543Y010026D01*
X030474Y010099D01*
X030402Y010169D01*
X030328Y010236D01*
X030251Y010300D01*
X030172Y010361D01*
X030090Y010419D01*
X030007Y010474D01*
X029921Y010525D01*
X029921Y010526D02*
X027401Y010526D01*
X023822Y011058D02*
X023822Y005231D01*
X017601Y005231D01*
X017601Y011058D01*
X017603Y011097D01*
X017609Y011135D01*
X017618Y011172D01*
X017631Y011209D01*
X017648Y011244D01*
X017667Y011277D01*
X017690Y011308D01*
X017716Y011337D01*
X017745Y011363D01*
X017776Y011386D01*
X017809Y011405D01*
X017844Y011422D01*
X017881Y011435D01*
X017918Y011444D01*
X017956Y011450D01*
X017995Y011452D01*
X023428Y011452D01*
X023467Y011450D01*
X023505Y011444D01*
X023542Y011435D01*
X023579Y011422D01*
X023614Y011405D01*
X023647Y011386D01*
X023678Y011363D01*
X023707Y011337D01*
X023733Y011308D01*
X023756Y011277D01*
X023775Y011244D01*
X023792Y011209D01*
X023805Y011172D01*
X023814Y011135D01*
X023820Y011097D01*
X023822Y011058D01*
X021971Y010546D02*
X019452Y010546D01*
X019451Y010546D02*
X019365Y010495D01*
X019282Y010440D01*
X019200Y010382D01*
X019121Y010321D01*
X019044Y010257D01*
X018970Y010190D01*
X018898Y010120D01*
X018829Y010047D01*
X018764Y009971D01*
X018701Y009893D01*
X018641Y009813D01*
X018585Y009730D01*
X018532Y009645D01*
X018482Y009558D01*
X018436Y009469D01*
X018393Y009379D01*
X018354Y009287D01*
X018319Y009193D01*
X018287Y009098D01*
X018259Y009002D01*
X018235Y008905D01*
X018215Y008807D01*
X018199Y008708D01*
X018186Y008609D01*
X018177Y008509D01*
X018173Y008409D01*
X018172Y008309D01*
X018176Y008209D01*
X018183Y008109D01*
X018194Y008009D01*
X018209Y007910D01*
X018228Y007812D01*
X018251Y007715D01*
X018277Y007618D01*
X018308Y007523D01*
X018342Y007429D01*
X018380Y007336D01*
X018421Y007245D01*
X018466Y007155D01*
X018515Y007068D01*
X018567Y006982D01*
X018622Y006899D01*
X018681Y006817D01*
X018742Y006739D01*
X018807Y006662D01*
X018875Y006588D01*
X018945Y006517D01*
X019019Y006449D01*
X019095Y006384D01*
X019173Y006322D01*
X019254Y006263D01*
X019337Y006207D01*
X019422Y006154D01*
X019509Y006105D01*
X019599Y006060D01*
X019689Y006018D01*
X019782Y005979D01*
X019876Y005944D01*
X019971Y005913D01*
X020067Y005886D01*
X020165Y005862D01*
X020263Y005843D01*
X020362Y005827D01*
X020461Y005815D01*
X020561Y005807D01*
X020661Y005803D01*
X020761Y005803D01*
X020861Y005807D01*
X020961Y005815D01*
X021060Y005827D01*
X021159Y005843D01*
X021257Y005862D01*
X021355Y005886D01*
X021451Y005913D01*
X021546Y005944D01*
X021640Y005979D01*
X021733Y006018D01*
X021823Y006060D01*
X021913Y006105D01*
X022000Y006154D01*
X022085Y006207D01*
X022168Y006263D01*
X022249Y006322D01*
X022327Y006384D01*
X022403Y006449D01*
X022477Y006517D01*
X022547Y006588D01*
X022615Y006662D01*
X022680Y006739D01*
X022741Y006817D01*
X022800Y006899D01*
X022855Y006982D01*
X022907Y007068D01*
X022956Y007155D01*
X023001Y007245D01*
X023042Y007336D01*
X023080Y007429D01*
X023114Y007523D01*
X023145Y007618D01*
X023171Y007715D01*
X023194Y007812D01*
X023213Y007910D01*
X023228Y008009D01*
X023239Y008109D01*
X023246Y008209D01*
X023250Y008309D01*
X023249Y008409D01*
X023245Y008509D01*
X023236Y008609D01*
X023223Y008708D01*
X023207Y008807D01*
X023187Y008905D01*
X023163Y009002D01*
X023135Y009098D01*
X023103Y009193D01*
X023068Y009287D01*
X023029Y009379D01*
X022986Y009469D01*
X022940Y009558D01*
X022890Y009645D01*
X022837Y009730D01*
X022781Y009813D01*
X022721Y009893D01*
X022658Y009971D01*
X022593Y010047D01*
X022524Y010120D01*
X022452Y010190D01*
X022378Y010257D01*
X022301Y010321D01*
X022222Y010382D01*
X022140Y010440D01*
X022057Y010495D01*
X021971Y010546D01*
X021845Y007633D02*
X021530Y007633D01*
X020869Y007633D02*
X020554Y007633D01*
X020711Y007791D02*
X020711Y007476D01*
X020790Y004854D02*
X019590Y004854D01*
X019590Y004254D01*
X020790Y004254D01*
X020790Y004854D01*
X015534Y005210D02*
X009313Y005210D01*
X009313Y011037D01*
X009315Y011076D01*
X009321Y011114D01*
X009330Y011151D01*
X009343Y011188D01*
X009360Y011223D01*
X009379Y011256D01*
X009402Y011287D01*
X009428Y011316D01*
X009457Y011342D01*
X009488Y011365D01*
X009521Y011384D01*
X009556Y011401D01*
X009593Y011414D01*
X009630Y011423D01*
X009668Y011429D01*
X009707Y011431D01*
X015140Y011431D01*
X015179Y011429D01*
X015217Y011423D01*
X015254Y011414D01*
X015291Y011401D01*
X015326Y011384D01*
X015359Y011365D01*
X015390Y011342D01*
X015419Y011316D01*
X015445Y011287D01*
X015468Y011256D01*
X015487Y011223D01*
X015504Y011188D01*
X015517Y011151D01*
X015526Y011114D01*
X015532Y011076D01*
X015534Y011037D01*
X015534Y005210D01*
X012515Y004758D02*
X012515Y004158D01*
X011315Y004158D01*
X011315Y004758D01*
X012515Y004758D01*
X012424Y007454D02*
X012424Y007769D01*
X012266Y007612D02*
X012581Y007612D01*
X013243Y007612D02*
X013557Y007612D01*
X013684Y010524D02*
X013770Y010473D01*
X013853Y010418D01*
X013935Y010360D01*
X014014Y010299D01*
X014091Y010235D01*
X014165Y010168D01*
X014237Y010098D01*
X014306Y010025D01*
X014371Y009949D01*
X014434Y009871D01*
X014494Y009791D01*
X014550Y009708D01*
X014603Y009623D01*
X014653Y009536D01*
X014699Y009447D01*
X014742Y009357D01*
X014781Y009265D01*
X014816Y009171D01*
X014848Y009076D01*
X014876Y008980D01*
X014900Y008883D01*
X014920Y008785D01*
X014936Y008686D01*
X014949Y008587D01*
X014958Y008487D01*
X014962Y008387D01*
X014963Y008287D01*
X014959Y008187D01*
X014952Y008087D01*
X014941Y007987D01*
X014926Y007888D01*
X014907Y007790D01*
X014884Y007693D01*
X014858Y007596D01*
X014827Y007501D01*
X014793Y007407D01*
X014755Y007314D01*
X014714Y007223D01*
X014669Y007133D01*
X014620Y007046D01*
X014568Y006960D01*
X014513Y006877D01*
X014454Y006795D01*
X014393Y006717D01*
X014328Y006640D01*
X014260Y006566D01*
X014190Y006495D01*
X014116Y006427D01*
X014040Y006362D01*
X013962Y006300D01*
X013881Y006241D01*
X013798Y006185D01*
X013713Y006132D01*
X013626Y006083D01*
X013536Y006038D01*
X013446Y005996D01*
X013353Y005957D01*
X013259Y005922D01*
X013164Y005891D01*
X013068Y005864D01*
X012970Y005840D01*
X012872Y005821D01*
X012773Y005805D01*
X012674Y005793D01*
X012574Y005785D01*
X012474Y005781D01*
X012374Y005781D01*
X012274Y005785D01*
X012174Y005793D01*
X012075Y005805D01*
X011976Y005821D01*
X011878Y005840D01*
X011780Y005864D01*
X011684Y005891D01*
X011589Y005922D01*
X011495Y005957D01*
X011402Y005996D01*
X011312Y006038D01*
X011222Y006083D01*
X011135Y006132D01*
X011050Y006185D01*
X010967Y006241D01*
X010886Y006300D01*
X010808Y006362D01*
X010732Y006427D01*
X010658Y006495D01*
X010588Y006566D01*
X010520Y006640D01*
X010455Y006717D01*
X010394Y006795D01*
X010335Y006877D01*
X010280Y006960D01*
X010228Y007046D01*
X010179Y007133D01*
X010134Y007223D01*
X010093Y007314D01*
X010055Y007407D01*
X010021Y007501D01*
X009990Y007596D01*
X009964Y007693D01*
X009941Y007790D01*
X009922Y007888D01*
X009907Y007987D01*
X009896Y008087D01*
X009889Y008187D01*
X009885Y008287D01*
X009886Y008387D01*
X009890Y008487D01*
X009899Y008587D01*
X009912Y008686D01*
X009928Y008785D01*
X009948Y008883D01*
X009972Y008980D01*
X010000Y009076D01*
X010032Y009171D01*
X010067Y009265D01*
X010106Y009357D01*
X010149Y009447D01*
X010195Y009536D01*
X010245Y009623D01*
X010298Y009708D01*
X010354Y009791D01*
X010414Y009871D01*
X010477Y009949D01*
X010542Y010025D01*
X010611Y010098D01*
X010683Y010168D01*
X010757Y010235D01*
X010834Y010299D01*
X010913Y010360D01*
X010995Y010418D01*
X011078Y010473D01*
X011164Y010524D01*
X011164Y010525D02*
X013683Y010525D01*
X015437Y013684D02*
X009217Y013684D01*
X009217Y019510D01*
X009216Y019510D02*
X009218Y019549D01*
X009224Y019587D01*
X009233Y019624D01*
X009246Y019661D01*
X009263Y019696D01*
X009282Y019729D01*
X009305Y019760D01*
X009331Y019789D01*
X009360Y019815D01*
X009391Y019838D01*
X009424Y019857D01*
X009459Y019874D01*
X009496Y019887D01*
X009533Y019896D01*
X009571Y019902D01*
X009610Y019904D01*
X015043Y019904D01*
X015082Y019902D01*
X015120Y019896D01*
X015157Y019887D01*
X015194Y019874D01*
X015229Y019857D01*
X015262Y019838D01*
X015293Y019815D01*
X015322Y019789D01*
X015348Y019760D01*
X015371Y019729D01*
X015390Y019696D01*
X015407Y019661D01*
X015420Y019624D01*
X015429Y019587D01*
X015435Y019549D01*
X015437Y019510D01*
X015437Y013684D01*
X017424Y013730D02*
X023644Y013730D01*
X023644Y019557D01*
X023645Y019557D02*
X023643Y019596D01*
X023637Y019634D01*
X023628Y019671D01*
X023615Y019708D01*
X023598Y019743D01*
X023579Y019776D01*
X023556Y019807D01*
X023530Y019836D01*
X023501Y019862D01*
X023470Y019885D01*
X023437Y019904D01*
X023402Y019921D01*
X023365Y019934D01*
X023328Y019943D01*
X023290Y019949D01*
X023251Y019951D01*
X017817Y019951D01*
X017778Y019949D01*
X017740Y019943D01*
X017703Y019934D01*
X017666Y019921D01*
X017631Y019904D01*
X017598Y019885D01*
X017567Y019862D01*
X017538Y019836D01*
X017512Y019807D01*
X017489Y019776D01*
X017470Y019743D01*
X017453Y019708D01*
X017440Y019671D01*
X017431Y019634D01*
X017425Y019596D01*
X017423Y019557D01*
X017424Y019557D02*
X017424Y013730D01*
X020377Y016132D02*
X020691Y016132D01*
X020534Y016289D02*
X020534Y015974D01*
X021353Y016132D02*
X021668Y016132D01*
X021794Y019044D02*
X021880Y018993D01*
X021963Y018938D01*
X022045Y018880D01*
X022124Y018819D01*
X022201Y018755D01*
X022275Y018688D01*
X022347Y018618D01*
X022416Y018545D01*
X022481Y018469D01*
X022544Y018391D01*
X022604Y018311D01*
X022660Y018228D01*
X022713Y018143D01*
X022763Y018056D01*
X022809Y017967D01*
X022852Y017877D01*
X022891Y017785D01*
X022926Y017691D01*
X022958Y017596D01*
X022986Y017500D01*
X023010Y017403D01*
X023030Y017305D01*
X023046Y017206D01*
X023059Y017107D01*
X023068Y017007D01*
X023072Y016907D01*
X023073Y016807D01*
X023069Y016707D01*
X023062Y016607D01*
X023051Y016507D01*
X023036Y016408D01*
X023017Y016310D01*
X022994Y016213D01*
X022968Y016116D01*
X022937Y016021D01*
X022903Y015927D01*
X022865Y015834D01*
X022824Y015743D01*
X022779Y015653D01*
X022730Y015566D01*
X022678Y015480D01*
X022623Y015397D01*
X022564Y015315D01*
X022503Y015237D01*
X022438Y015160D01*
X022370Y015086D01*
X022300Y015015D01*
X022226Y014947D01*
X022150Y014882D01*
X022072Y014820D01*
X021991Y014761D01*
X021908Y014705D01*
X021823Y014652D01*
X021736Y014603D01*
X021646Y014558D01*
X021556Y014516D01*
X021463Y014477D01*
X021369Y014442D01*
X021274Y014411D01*
X021178Y014384D01*
X021080Y014360D01*
X020982Y014341D01*
X020883Y014325D01*
X020784Y014313D01*
X020684Y014305D01*
X020584Y014301D01*
X020484Y014301D01*
X020384Y014305D01*
X020284Y014313D01*
X020185Y014325D01*
X020086Y014341D01*
X019988Y014360D01*
X019890Y014384D01*
X019794Y014411D01*
X019699Y014442D01*
X019605Y014477D01*
X019512Y014516D01*
X019422Y014558D01*
X019332Y014603D01*
X019245Y014652D01*
X019160Y014705D01*
X019077Y014761D01*
X018996Y014820D01*
X018918Y014882D01*
X018842Y014947D01*
X018768Y015015D01*
X018698Y015086D01*
X018630Y015160D01*
X018565Y015237D01*
X018504Y015315D01*
X018445Y015397D01*
X018390Y015480D01*
X018338Y015566D01*
X018289Y015653D01*
X018244Y015743D01*
X018203Y015834D01*
X018165Y015927D01*
X018131Y016021D01*
X018100Y016116D01*
X018074Y016213D01*
X018051Y016310D01*
X018032Y016408D01*
X018017Y016507D01*
X018006Y016607D01*
X017999Y016707D01*
X017995Y016807D01*
X017996Y016907D01*
X018000Y017007D01*
X018009Y017107D01*
X018022Y017206D01*
X018038Y017305D01*
X018058Y017403D01*
X018082Y017500D01*
X018110Y017596D01*
X018142Y017691D01*
X018177Y017785D01*
X018216Y017877D01*
X018259Y017967D01*
X018305Y018056D01*
X018355Y018143D01*
X018408Y018228D01*
X018464Y018311D01*
X018524Y018391D01*
X018587Y018469D01*
X018652Y018545D01*
X018721Y018618D01*
X018793Y018688D01*
X018867Y018755D01*
X018944Y018819D01*
X019023Y018880D01*
X019105Y018938D01*
X019188Y018993D01*
X019274Y019044D01*
X019274Y019045D02*
X021794Y019045D01*
X020401Y020289D02*
X020401Y020889D01*
X019201Y020889D01*
X019201Y020289D01*
X020401Y020289D01*
X025549Y019600D02*
X025549Y013773D01*
X031769Y013773D01*
X031769Y019600D01*
X031770Y019600D02*
X031768Y019639D01*
X031762Y019677D01*
X031753Y019714D01*
X031740Y019751D01*
X031723Y019786D01*
X031704Y019819D01*
X031681Y019850D01*
X031655Y019879D01*
X031626Y019905D01*
X031595Y019928D01*
X031562Y019947D01*
X031527Y019964D01*
X031490Y019977D01*
X031453Y019986D01*
X031415Y019992D01*
X031376Y019994D01*
X025943Y019994D01*
X025904Y019992D01*
X025866Y019986D01*
X025829Y019977D01*
X025792Y019964D01*
X025757Y019947D01*
X025724Y019928D01*
X025693Y019905D01*
X025664Y019879D01*
X025638Y019850D01*
X025615Y019819D01*
X025596Y019786D01*
X025579Y019751D01*
X025566Y019714D01*
X025557Y019677D01*
X025551Y019639D01*
X025549Y019600D01*
X027399Y019088D02*
X029919Y019088D01*
X028584Y020281D02*
X028584Y020881D01*
X027384Y020881D01*
X027384Y020281D01*
X028584Y020281D01*
X027399Y019087D02*
X027313Y019036D01*
X027230Y018981D01*
X027148Y018923D01*
X027069Y018862D01*
X026992Y018798D01*
X026918Y018731D01*
X026846Y018661D01*
X026777Y018588D01*
X026712Y018512D01*
X026649Y018434D01*
X026589Y018354D01*
X026533Y018271D01*
X026480Y018186D01*
X026430Y018099D01*
X026384Y018010D01*
X026341Y017920D01*
X026302Y017828D01*
X026267Y017734D01*
X026235Y017639D01*
X026207Y017543D01*
X026183Y017446D01*
X026163Y017348D01*
X026147Y017249D01*
X026134Y017150D01*
X026125Y017050D01*
X026121Y016950D01*
X026120Y016850D01*
X026124Y016750D01*
X026131Y016650D01*
X026142Y016550D01*
X026157Y016451D01*
X026176Y016353D01*
X026199Y016256D01*
X026225Y016159D01*
X026256Y016064D01*
X026290Y015970D01*
X026328Y015877D01*
X026369Y015786D01*
X026414Y015696D01*
X026463Y015609D01*
X026515Y015523D01*
X026570Y015440D01*
X026629Y015358D01*
X026690Y015280D01*
X026755Y015203D01*
X026823Y015129D01*
X026893Y015058D01*
X026967Y014990D01*
X027043Y014925D01*
X027121Y014863D01*
X027202Y014804D01*
X027285Y014748D01*
X027370Y014695D01*
X027457Y014646D01*
X027547Y014601D01*
X027637Y014559D01*
X027730Y014520D01*
X027824Y014485D01*
X027919Y014454D01*
X028015Y014427D01*
X028113Y014403D01*
X028211Y014384D01*
X028310Y014368D01*
X028409Y014356D01*
X028509Y014348D01*
X028609Y014344D01*
X028709Y014344D01*
X028809Y014348D01*
X028909Y014356D01*
X029008Y014368D01*
X029107Y014384D01*
X029205Y014403D01*
X029303Y014427D01*
X029399Y014454D01*
X029494Y014485D01*
X029588Y014520D01*
X029681Y014559D01*
X029771Y014601D01*
X029861Y014646D01*
X029948Y014695D01*
X030033Y014748D01*
X030116Y014804D01*
X030197Y014863D01*
X030275Y014925D01*
X030351Y014990D01*
X030425Y015058D01*
X030495Y015129D01*
X030563Y015203D01*
X030628Y015280D01*
X030689Y015358D01*
X030748Y015440D01*
X030803Y015523D01*
X030855Y015609D01*
X030904Y015696D01*
X030949Y015786D01*
X030990Y015877D01*
X031028Y015970D01*
X031062Y016064D01*
X031093Y016159D01*
X031119Y016256D01*
X031142Y016353D01*
X031161Y016451D01*
X031176Y016550D01*
X031187Y016650D01*
X031194Y016750D01*
X031198Y016850D01*
X031197Y016950D01*
X031193Y017050D01*
X031184Y017150D01*
X031171Y017249D01*
X031155Y017348D01*
X031135Y017446D01*
X031111Y017543D01*
X031083Y017639D01*
X031051Y017734D01*
X031016Y017828D01*
X030977Y017920D01*
X030934Y018010D01*
X030888Y018099D01*
X030838Y018186D01*
X030785Y018271D01*
X030729Y018354D01*
X030669Y018434D01*
X030606Y018512D01*
X030541Y018588D01*
X030472Y018661D01*
X030400Y018731D01*
X030326Y018798D01*
X030249Y018862D01*
X030170Y018923D01*
X030088Y018981D01*
X030005Y019036D01*
X029919Y019087D01*
X033405Y019600D02*
X033405Y013773D01*
X039626Y013773D01*
X039626Y019600D01*
X039624Y019639D01*
X039618Y019677D01*
X039609Y019714D01*
X039596Y019751D01*
X039579Y019786D01*
X039560Y019819D01*
X039537Y019850D01*
X039511Y019879D01*
X039482Y019905D01*
X039451Y019928D01*
X039418Y019947D01*
X039383Y019964D01*
X039346Y019977D01*
X039309Y019986D01*
X039271Y019992D01*
X039232Y019994D01*
X033799Y019994D01*
X033760Y019992D01*
X033722Y019986D01*
X033685Y019977D01*
X033648Y019964D01*
X033613Y019947D01*
X033580Y019928D01*
X033549Y019905D01*
X033520Y019879D01*
X033494Y019850D01*
X033471Y019819D01*
X033452Y019786D01*
X033435Y019751D01*
X033422Y019714D01*
X033413Y019677D01*
X033407Y019639D01*
X033405Y019600D01*
X035256Y019088D02*
X037775Y019088D01*
X036605Y020281D02*
X036605Y020881D01*
X035405Y020881D01*
X035405Y020281D01*
X036605Y020281D01*
X037775Y019087D02*
X037861Y019036D01*
X037944Y018981D01*
X038026Y018923D01*
X038105Y018862D01*
X038182Y018798D01*
X038256Y018731D01*
X038328Y018661D01*
X038397Y018588D01*
X038462Y018512D01*
X038525Y018434D01*
X038585Y018354D01*
X038641Y018271D01*
X038694Y018186D01*
X038744Y018099D01*
X038790Y018010D01*
X038833Y017920D01*
X038872Y017828D01*
X038907Y017734D01*
X038939Y017639D01*
X038967Y017543D01*
X038991Y017446D01*
X039011Y017348D01*
X039027Y017249D01*
X039040Y017150D01*
X039049Y017050D01*
X039053Y016950D01*
X039054Y016850D01*
X039050Y016750D01*
X039043Y016650D01*
X039032Y016550D01*
X039017Y016451D01*
X038998Y016353D01*
X038975Y016256D01*
X038949Y016159D01*
X038918Y016064D01*
X038884Y015970D01*
X038846Y015877D01*
X038805Y015786D01*
X038760Y015696D01*
X038711Y015609D01*
X038659Y015523D01*
X038604Y015440D01*
X038545Y015358D01*
X038484Y015280D01*
X038419Y015203D01*
X038351Y015129D01*
X038281Y015058D01*
X038207Y014990D01*
X038131Y014925D01*
X038053Y014863D01*
X037972Y014804D01*
X037889Y014748D01*
X037804Y014695D01*
X037717Y014646D01*
X037627Y014601D01*
X037537Y014559D01*
X037444Y014520D01*
X037350Y014485D01*
X037255Y014454D01*
X037159Y014427D01*
X037061Y014403D01*
X036963Y014384D01*
X036864Y014368D01*
X036765Y014356D01*
X036665Y014348D01*
X036565Y014344D01*
X036465Y014344D01*
X036365Y014348D01*
X036265Y014356D01*
X036166Y014368D01*
X036067Y014384D01*
X035969Y014403D01*
X035871Y014427D01*
X035775Y014454D01*
X035680Y014485D01*
X035586Y014520D01*
X035493Y014559D01*
X035403Y014601D01*
X035313Y014646D01*
X035226Y014695D01*
X035141Y014748D01*
X035058Y014804D01*
X034977Y014863D01*
X034899Y014925D01*
X034823Y014990D01*
X034749Y015058D01*
X034679Y015129D01*
X034611Y015203D01*
X034546Y015280D01*
X034485Y015358D01*
X034426Y015440D01*
X034371Y015523D01*
X034319Y015609D01*
X034270Y015696D01*
X034225Y015786D01*
X034184Y015877D01*
X034146Y015970D01*
X034112Y016064D01*
X034081Y016159D01*
X034055Y016256D01*
X034032Y016353D01*
X034013Y016451D01*
X033998Y016550D01*
X033987Y016650D01*
X033980Y016750D01*
X033976Y016850D01*
X033977Y016950D01*
X033981Y017050D01*
X033990Y017150D01*
X034003Y017249D01*
X034019Y017348D01*
X034039Y017446D01*
X034063Y017543D01*
X034091Y017639D01*
X034123Y017734D01*
X034158Y017828D01*
X034197Y017920D01*
X034240Y018010D01*
X034286Y018099D01*
X034336Y018186D01*
X034389Y018271D01*
X034445Y018354D01*
X034505Y018434D01*
X034568Y018512D01*
X034633Y018588D01*
X034702Y018661D01*
X034774Y018731D01*
X034848Y018798D01*
X034925Y018862D01*
X035004Y018923D01*
X035086Y018981D01*
X035169Y019036D01*
X035255Y019087D01*
X036515Y016332D02*
X036515Y016017D01*
X036358Y016175D02*
X036673Y016175D01*
X037334Y016175D02*
X037649Y016175D01*
X042185Y020564D02*
X042883Y020651D01*
X043966Y020651D01*
X043992Y020653D01*
X044017Y020658D01*
X044041Y020666D01*
X044065Y020677D01*
X044086Y020692D01*
X044105Y020709D01*
X044122Y020728D01*
X044137Y020750D01*
X044148Y020773D01*
X044156Y020797D01*
X044161Y020822D01*
X044163Y020848D01*
X044163Y021242D01*
X044161Y021268D01*
X044156Y021293D01*
X044148Y021317D01*
X044137Y021341D01*
X044122Y021362D01*
X044105Y021381D01*
X044086Y021398D01*
X044065Y021413D01*
X044041Y021424D01*
X044017Y021432D01*
X043992Y021437D01*
X043966Y021439D01*
X042883Y021439D01*
X042185Y021526D01*
X042168Y021527D01*
X042152Y021523D01*
X042136Y021517D01*
X042123Y021507D01*
X042111Y021495D01*
X042103Y021480D01*
X042098Y021465D01*
X042096Y021448D01*
X042096Y021408D01*
X042098Y021392D01*
X042102Y021377D01*
X042110Y021363D01*
X042121Y021350D01*
X042134Y021341D01*
X042148Y021334D01*
X042164Y021330D01*
X042785Y021242D01*
X043277Y021242D01*
X043277Y020848D01*
X043572Y020848D01*
X043572Y021242D01*
X043277Y021242D01*
X043572Y021242D02*
X043671Y021242D01*
X043671Y020848D01*
X043868Y020848D01*
X043868Y021242D01*
X043671Y021242D01*
X043868Y021242D02*
X043966Y021242D01*
X043966Y020848D01*
X043868Y020848D01*
X043671Y020848D02*
X043572Y020848D01*
X043277Y020848D02*
X042785Y020848D01*
X042164Y020759D01*
X042148Y020755D01*
X042134Y020748D01*
X042121Y020739D01*
X042110Y020726D01*
X042102Y020712D01*
X042098Y020697D01*
X042096Y020681D01*
X042096Y020642D01*
X042098Y020625D01*
X042103Y020610D01*
X042111Y020595D01*
X042123Y020583D01*
X042136Y020573D01*
X042152Y020567D01*
X042168Y020563D01*
X042185Y020564D01*
X042293Y020789D02*
X042293Y021301D01*
X043061Y022285D02*
X043454Y022285D01*
X029793Y016175D02*
X029478Y016175D01*
X028817Y016175D02*
X028502Y016175D01*
X028659Y016332D02*
X028659Y016017D01*
X029480Y007612D02*
X029795Y007612D01*
X013587Y018999D02*
X011067Y018999D01*
X011287Y020312D02*
X011287Y020912D01*
X012487Y020912D01*
X012487Y020312D01*
X011287Y020312D01*
X011067Y018998D02*
X010981Y018947D01*
X010898Y018892D01*
X010816Y018834D01*
X010737Y018773D01*
X010660Y018709D01*
X010586Y018642D01*
X010514Y018572D01*
X010445Y018499D01*
X010380Y018423D01*
X010317Y018345D01*
X010257Y018265D01*
X010201Y018182D01*
X010148Y018097D01*
X010098Y018010D01*
X010052Y017921D01*
X010009Y017831D01*
X009970Y017739D01*
X009935Y017645D01*
X009903Y017550D01*
X009875Y017454D01*
X009851Y017357D01*
X009831Y017259D01*
X009815Y017160D01*
X009802Y017061D01*
X009793Y016961D01*
X009789Y016861D01*
X009788Y016761D01*
X009792Y016661D01*
X009799Y016561D01*
X009810Y016461D01*
X009825Y016362D01*
X009844Y016264D01*
X009867Y016167D01*
X009893Y016070D01*
X009924Y015975D01*
X009958Y015881D01*
X009996Y015788D01*
X010037Y015697D01*
X010082Y015607D01*
X010131Y015520D01*
X010183Y015434D01*
X010238Y015351D01*
X010297Y015269D01*
X010358Y015191D01*
X010423Y015114D01*
X010491Y015040D01*
X010561Y014969D01*
X010635Y014901D01*
X010711Y014836D01*
X010789Y014774D01*
X010870Y014715D01*
X010953Y014659D01*
X011038Y014606D01*
X011125Y014557D01*
X011215Y014512D01*
X011305Y014470D01*
X011398Y014431D01*
X011492Y014396D01*
X011587Y014365D01*
X011683Y014338D01*
X011781Y014314D01*
X011879Y014295D01*
X011978Y014279D01*
X012077Y014267D01*
X012177Y014259D01*
X012277Y014255D01*
X012377Y014255D01*
X012477Y014259D01*
X012577Y014267D01*
X012676Y014279D01*
X012775Y014295D01*
X012873Y014314D01*
X012971Y014338D01*
X013067Y014365D01*
X013162Y014396D01*
X013256Y014431D01*
X013349Y014470D01*
X013439Y014512D01*
X013529Y014557D01*
X013616Y014606D01*
X013701Y014659D01*
X013784Y014715D01*
X013865Y014774D01*
X013943Y014836D01*
X014019Y014901D01*
X014093Y014969D01*
X014163Y015040D01*
X014231Y015114D01*
X014296Y015191D01*
X014357Y015269D01*
X014416Y015351D01*
X014471Y015434D01*
X014523Y015520D01*
X014572Y015607D01*
X014617Y015697D01*
X014658Y015788D01*
X014696Y015881D01*
X014730Y015975D01*
X014761Y016070D01*
X014787Y016167D01*
X014810Y016264D01*
X014829Y016362D01*
X014844Y016461D01*
X014855Y016561D01*
X014862Y016661D01*
X014866Y016761D01*
X014865Y016861D01*
X014861Y016961D01*
X014852Y017061D01*
X014839Y017160D01*
X014823Y017259D01*
X014803Y017357D01*
X014779Y017454D01*
X014751Y017550D01*
X014719Y017645D01*
X014684Y017739D01*
X014645Y017831D01*
X014602Y017921D01*
X014556Y018010D01*
X014506Y018097D01*
X014453Y018182D01*
X014397Y018265D01*
X014337Y018345D01*
X014274Y018423D01*
X014209Y018499D01*
X014140Y018572D01*
X014068Y018642D01*
X013994Y018709D01*
X013917Y018773D01*
X013838Y018834D01*
X013756Y018892D01*
X013673Y018947D01*
X013587Y018998D01*
X012327Y016243D02*
X012327Y015928D01*
X012169Y016085D02*
X012484Y016085D01*
X013146Y016085D02*
X013461Y016085D01*
D17*
X019541Y020589D03*
X020061Y020589D03*
X027724Y020581D03*
X028244Y020581D03*
X035745Y020581D03*
X036265Y020581D03*
X036339Y004445D03*
X035819Y004445D03*
X028192Y004438D03*
X027672Y004438D03*
X020450Y004554D03*
X019930Y004554D03*
X012175Y004458D03*
X011655Y004458D03*
X011627Y020612D03*
X012147Y020612D03*
D18*
X033690Y003374D03*
X033690Y002854D03*
D19*
X039983Y007755D03*
X041293Y007755D03*
X041293Y008155D03*
X041693Y006985D03*
X041293Y005475D03*
X041293Y005075D03*
X041693Y003565D03*
D20*
X041693Y008440D03*
X040583Y009570D03*
D21*
X041103Y009230D03*
X040393Y008460D03*
X039993Y007760D03*
X041283Y007760D03*
X041283Y008160D03*
X041683Y006980D03*
X041293Y006420D03*
X040383Y006420D03*
X041283Y005470D03*
X041283Y005070D03*
X041293Y004520D03*
X040383Y004520D03*
X041683Y003560D03*
X041293Y002990D03*
X040383Y002990D03*
D22*
X040563Y002805D03*
X040573Y002805D03*
X040583Y002795D03*
X040593Y002795D03*
X040603Y002795D03*
X040613Y002795D03*
X041063Y002795D03*
X041073Y002795D03*
X041083Y002795D03*
X041093Y002795D03*
X041103Y002805D03*
X041113Y002805D03*
X041113Y003175D03*
X041103Y003175D03*
X041093Y003185D03*
X041083Y003185D03*
X041073Y003185D03*
X041073Y003565D03*
X041063Y003565D03*
X041053Y003565D03*
X041043Y003565D03*
X041033Y003565D03*
X041023Y003565D03*
X041013Y003565D03*
X041003Y003565D03*
X040993Y003565D03*
X040983Y003565D03*
X040973Y003565D03*
X040963Y003565D03*
X040953Y003565D03*
X040943Y003565D03*
X040933Y003565D03*
X040923Y003565D03*
X040913Y003565D03*
X040903Y003565D03*
X040893Y003565D03*
X040883Y003565D03*
X040873Y003565D03*
X040863Y003565D03*
X040853Y003565D03*
X040843Y003565D03*
X040833Y003565D03*
X040823Y003565D03*
X040813Y003565D03*
X040803Y003565D03*
X040793Y003565D03*
X040783Y003565D03*
X040773Y003565D03*
X040763Y003565D03*
X040753Y003565D03*
X040743Y003565D03*
X040733Y003565D03*
X040723Y003565D03*
X040713Y003565D03*
X040703Y003565D03*
X040693Y003565D03*
X040683Y003565D03*
X040673Y003565D03*
X040663Y003565D03*
X040653Y003565D03*
X040643Y003565D03*
X040633Y003565D03*
X040623Y003565D03*
X040613Y003565D03*
X040603Y003565D03*
X040593Y003565D03*
X040583Y003565D03*
X040573Y003565D03*
X040563Y003565D03*
X040553Y003565D03*
X040543Y003565D03*
X040533Y003565D03*
X040523Y003565D03*
X040513Y003565D03*
X040563Y003945D03*
X040583Y003955D03*
X040593Y003955D03*
X040623Y003965D03*
X040633Y003965D03*
X040643Y003965D03*
X040653Y003965D03*
X040663Y003965D03*
X040673Y003965D03*
X040683Y003965D03*
X040693Y003965D03*
X040703Y003965D03*
X040713Y003965D03*
X040723Y003965D03*
X040733Y003965D03*
X040743Y003965D03*
X040753Y003965D03*
X040763Y003965D03*
X040773Y003965D03*
X040783Y003965D03*
X040793Y003965D03*
X040803Y003965D03*
X040813Y003965D03*
X040823Y003965D03*
X040833Y003965D03*
X040843Y003965D03*
X040853Y003965D03*
X040863Y003965D03*
X040873Y003965D03*
X040883Y003965D03*
X040893Y003965D03*
X040903Y003965D03*
X040913Y003965D03*
X040923Y003965D03*
X040933Y003965D03*
X040943Y003965D03*
X040953Y003965D03*
X040963Y003965D03*
X040973Y003965D03*
X040983Y003965D03*
X040993Y003965D03*
X041003Y003965D03*
X041013Y003965D03*
X041023Y003965D03*
X041033Y003965D03*
X041043Y003965D03*
X041053Y003965D03*
X041063Y003965D03*
X041093Y003955D03*
X041103Y003955D03*
X041123Y003945D03*
X041123Y003565D03*
X041113Y003565D03*
X041103Y003565D03*
X041093Y003565D03*
X041083Y003565D03*
X041133Y003565D03*
X041143Y003565D03*
X041153Y003565D03*
X041163Y003565D03*
X041173Y003565D03*
X041303Y003565D03*
X041313Y003565D03*
X041323Y003565D03*
X041333Y003565D03*
X041343Y003565D03*
X041353Y003565D03*
X041363Y003565D03*
X041373Y003565D03*
X041383Y003565D03*
X041393Y003565D03*
X041403Y003565D03*
X041413Y003565D03*
X041423Y003565D03*
X041433Y003565D03*
X041443Y003565D03*
X041453Y003565D03*
X041463Y003565D03*
X041473Y003565D03*
X041483Y003565D03*
X041493Y003565D03*
X041503Y003565D03*
X041513Y003565D03*
X041523Y003565D03*
X041533Y003565D03*
X041543Y003565D03*
X041553Y003565D03*
X041563Y003565D03*
X041573Y003565D03*
X041583Y003565D03*
X041593Y003565D03*
X041603Y003565D03*
X041613Y003565D03*
X041623Y003565D03*
X041633Y003565D03*
X041643Y003565D03*
X041653Y003565D03*
X041113Y004335D03*
X041103Y004335D03*
X041093Y004325D03*
X041083Y004325D03*
X041073Y004325D03*
X041063Y004325D03*
X041163Y004655D03*
X041163Y005075D03*
X041153Y005075D03*
X041143Y005075D03*
X041133Y005075D03*
X041123Y005075D03*
X041113Y005075D03*
X041103Y005075D03*
X041093Y005075D03*
X041083Y005075D03*
X041073Y005075D03*
X041063Y005075D03*
X041053Y005075D03*
X041043Y005075D03*
X041033Y005075D03*
X041023Y005075D03*
X041013Y005075D03*
X041003Y005075D03*
X040993Y005075D03*
X040983Y005075D03*
X040973Y005075D03*
X040963Y005075D03*
X040953Y005075D03*
X040943Y005075D03*
X040933Y005075D03*
X040923Y005075D03*
X040913Y005075D03*
X040903Y005075D03*
X040893Y005075D03*
X040883Y005075D03*
X040873Y005075D03*
X040863Y005075D03*
X040853Y005075D03*
X040843Y005075D03*
X040833Y005075D03*
X040823Y005075D03*
X040813Y005075D03*
X040803Y005075D03*
X040793Y005075D03*
X040783Y005075D03*
X040773Y005075D03*
X040763Y005075D03*
X040753Y005075D03*
X040743Y005075D03*
X040733Y005075D03*
X040723Y005075D03*
X040713Y005075D03*
X040703Y005075D03*
X040693Y005075D03*
X040683Y005075D03*
X040673Y005075D03*
X040663Y005075D03*
X040653Y005075D03*
X040643Y005075D03*
X040633Y005075D03*
X040623Y005075D03*
X040613Y005075D03*
X040603Y005075D03*
X040593Y005075D03*
X040583Y005075D03*
X040573Y005075D03*
X040563Y005075D03*
X040553Y005075D03*
X040543Y005075D03*
X040533Y005075D03*
X040523Y005075D03*
X040513Y005075D03*
X040563Y005455D03*
X040583Y005465D03*
X040593Y005465D03*
X040623Y005475D03*
X040633Y005475D03*
X040643Y005475D03*
X040653Y005475D03*
X040663Y005475D03*
X040673Y005475D03*
X040683Y005475D03*
X040693Y005475D03*
X040703Y005475D03*
X040713Y005475D03*
X040723Y005475D03*
X040733Y005475D03*
X040743Y005475D03*
X040753Y005475D03*
X040763Y005475D03*
X040773Y005475D03*
X040783Y005475D03*
X040793Y005475D03*
X040803Y005475D03*
X040813Y005475D03*
X040823Y005475D03*
X040833Y005475D03*
X040843Y005475D03*
X040853Y005475D03*
X040863Y005475D03*
X040873Y005475D03*
X040883Y005475D03*
X040893Y005475D03*
X040903Y005475D03*
X040913Y005475D03*
X040923Y005475D03*
X040933Y005475D03*
X040943Y005475D03*
X040953Y005475D03*
X040963Y005475D03*
X040973Y005475D03*
X040983Y005475D03*
X040993Y005475D03*
X041003Y005475D03*
X041013Y005475D03*
X041023Y005475D03*
X041033Y005475D03*
X041043Y005475D03*
X041053Y005475D03*
X041063Y005475D03*
X041073Y005475D03*
X041083Y005475D03*
X041093Y005475D03*
X041103Y005475D03*
X041113Y005475D03*
X041123Y005475D03*
X041133Y005475D03*
X041143Y005475D03*
X041153Y005475D03*
X041163Y005475D03*
X041173Y005475D03*
X041183Y005475D03*
X041193Y005475D03*
X041203Y005475D03*
X041213Y005475D03*
X041223Y005475D03*
X041233Y005475D03*
X041243Y005475D03*
X041253Y005475D03*
X041253Y005075D03*
X041243Y005075D03*
X041233Y005075D03*
X041223Y005075D03*
X041213Y005075D03*
X041203Y005075D03*
X041193Y005075D03*
X041183Y005075D03*
X041173Y005075D03*
X040603Y004715D03*
X040593Y004715D03*
X040583Y004715D03*
X040573Y004705D03*
X040563Y004705D03*
X040563Y004335D03*
X040573Y004335D03*
X040583Y004325D03*
X040593Y004325D03*
X040603Y004325D03*
X040613Y004325D03*
X040603Y003185D03*
X040593Y003185D03*
X040583Y003185D03*
X040573Y003175D03*
X040563Y003175D03*
X040583Y006225D03*
X040593Y006225D03*
X040603Y006225D03*
X040613Y006225D03*
X040573Y006235D03*
X040563Y006235D03*
X040563Y006605D03*
X040573Y006605D03*
X040583Y006615D03*
X040593Y006615D03*
X040603Y006615D03*
X041063Y006225D03*
X041073Y006225D03*
X041083Y006225D03*
X041093Y006225D03*
X041103Y006235D03*
X041113Y006235D03*
X041163Y006555D03*
X041163Y006985D03*
X041153Y006985D03*
X041143Y006985D03*
X041133Y006985D03*
X041123Y006985D03*
X041113Y006985D03*
X041103Y006985D03*
X041093Y006985D03*
X041083Y006985D03*
X041073Y006985D03*
X041063Y006985D03*
X041053Y006985D03*
X041043Y006985D03*
X041033Y006985D03*
X041023Y006985D03*
X041013Y006985D03*
X041003Y006985D03*
X040993Y006985D03*
X040983Y006985D03*
X040973Y006985D03*
X040963Y006985D03*
X040953Y006985D03*
X040943Y006985D03*
X040933Y006985D03*
X040923Y006985D03*
X040913Y006985D03*
X040903Y006985D03*
X040893Y006985D03*
X040883Y006985D03*
X040873Y006985D03*
X040863Y006985D03*
X040853Y006985D03*
X040843Y006985D03*
X040833Y006985D03*
X040823Y006985D03*
X040813Y006985D03*
X040803Y006985D03*
X040793Y006985D03*
X040783Y006985D03*
X040773Y006985D03*
X040763Y006985D03*
X040753Y006985D03*
X040743Y006985D03*
X040733Y006985D03*
X040723Y006985D03*
X040713Y006985D03*
X040703Y006985D03*
X040693Y006985D03*
X040683Y006985D03*
X040673Y006985D03*
X040663Y006985D03*
X040653Y006985D03*
X040643Y006985D03*
X040633Y006985D03*
X040623Y006985D03*
X040613Y006985D03*
X040603Y006985D03*
X040593Y006985D03*
X040583Y006985D03*
X040573Y006985D03*
X040563Y006985D03*
X040553Y006985D03*
X040543Y006985D03*
X040533Y006985D03*
X040523Y006985D03*
X040513Y006985D03*
X040563Y007365D03*
X040583Y007375D03*
X040593Y007375D03*
X040623Y007385D03*
X040633Y007385D03*
X040643Y007385D03*
X040653Y007385D03*
X040663Y007385D03*
X040673Y007385D03*
X040683Y007385D03*
X040693Y007385D03*
X040703Y007385D03*
X040713Y007385D03*
X040723Y007385D03*
X040733Y007385D03*
X040743Y007385D03*
X040753Y007385D03*
X040763Y007385D03*
X040773Y007385D03*
X040783Y007385D03*
X040793Y007385D03*
X040803Y007385D03*
X040813Y007385D03*
X040823Y007385D03*
X040833Y007385D03*
X040843Y007385D03*
X040853Y007385D03*
X040863Y007385D03*
X040873Y007385D03*
X040883Y007385D03*
X040893Y007385D03*
X040903Y007385D03*
X040913Y007385D03*
X040923Y007385D03*
X040933Y007385D03*
X040943Y007385D03*
X040953Y007385D03*
X040963Y007385D03*
X040973Y007385D03*
X040983Y007385D03*
X040993Y007385D03*
X041003Y007385D03*
X041013Y007385D03*
X041023Y007385D03*
X041033Y007385D03*
X041043Y007385D03*
X041053Y007385D03*
X041063Y007385D03*
X041093Y007375D03*
X041103Y007375D03*
X041123Y007365D03*
X041173Y006985D03*
X041303Y006985D03*
X041313Y006985D03*
X041323Y006985D03*
X041333Y006985D03*
X041343Y006985D03*
X041353Y006985D03*
X041363Y006985D03*
X041373Y006985D03*
X041383Y006985D03*
X041393Y006985D03*
X041403Y006985D03*
X041413Y006985D03*
X041423Y006985D03*
X041433Y006985D03*
X041443Y006985D03*
X041453Y006985D03*
X041463Y006985D03*
X041473Y006985D03*
X041483Y006985D03*
X041493Y006985D03*
X041503Y006985D03*
X041513Y006985D03*
X041523Y006985D03*
X041533Y006985D03*
X041543Y006985D03*
X041553Y006985D03*
X041563Y006985D03*
X041573Y006985D03*
X041583Y006985D03*
X041593Y006985D03*
X041603Y006985D03*
X041613Y006985D03*
X041623Y006985D03*
X041633Y006985D03*
X041643Y006985D03*
X041653Y006985D03*
X041253Y007755D03*
X041243Y007755D03*
X041233Y007755D03*
X041223Y007755D03*
X041213Y007755D03*
X041203Y007755D03*
X041193Y007755D03*
X041183Y007755D03*
X041173Y007755D03*
X041163Y007755D03*
X041153Y007755D03*
X041143Y007755D03*
X041133Y007755D03*
X041123Y007755D03*
X041113Y007755D03*
X041103Y007755D03*
X041093Y007755D03*
X041083Y007755D03*
X041073Y007755D03*
X041063Y007755D03*
X041053Y007755D03*
X041043Y007755D03*
X041033Y007755D03*
X041023Y007755D03*
X041013Y007755D03*
X041003Y007755D03*
X040993Y007755D03*
X040983Y007755D03*
X040973Y007755D03*
X040963Y007755D03*
X040953Y007755D03*
X040943Y007755D03*
X040933Y007755D03*
X040923Y007755D03*
X040913Y007755D03*
X040903Y007755D03*
X040893Y007755D03*
X040883Y007755D03*
X040873Y007755D03*
X040863Y007755D03*
X040853Y007755D03*
X040843Y007755D03*
X040833Y007755D03*
X040823Y007755D03*
X040813Y007755D03*
X040803Y007755D03*
X040793Y007755D03*
X040783Y007755D03*
X040773Y007755D03*
X040763Y007755D03*
X040753Y007755D03*
X040743Y007755D03*
X040733Y007755D03*
X040723Y007755D03*
X040713Y007755D03*
X040703Y007755D03*
X040693Y007755D03*
X040683Y007755D03*
X040673Y007755D03*
X040663Y007755D03*
X040653Y007755D03*
X040643Y007755D03*
X040633Y007755D03*
X040623Y007755D03*
X040613Y007755D03*
X040603Y007755D03*
X040593Y007755D03*
X040583Y007755D03*
X040573Y007755D03*
X040563Y007755D03*
X040553Y007755D03*
X040543Y007755D03*
X040533Y007755D03*
X040523Y007755D03*
X040513Y007755D03*
X040383Y007755D03*
X040373Y007755D03*
X040363Y007755D03*
X040353Y007755D03*
X040343Y007755D03*
X040333Y007755D03*
X040323Y007755D03*
X040313Y007755D03*
X040303Y007755D03*
X040293Y007755D03*
X040283Y007755D03*
X040273Y007755D03*
X040263Y007755D03*
X040253Y007755D03*
X040243Y007755D03*
X040233Y007755D03*
X040223Y007755D03*
X040213Y007755D03*
X040203Y007755D03*
X040193Y007755D03*
X040183Y007755D03*
X040173Y007755D03*
X040163Y007755D03*
X040153Y007755D03*
X040143Y007755D03*
X040133Y007755D03*
X040123Y007755D03*
X040113Y007755D03*
X040103Y007755D03*
X040093Y007755D03*
X040083Y007755D03*
X040073Y007755D03*
X040063Y007755D03*
X040053Y007755D03*
X040043Y007755D03*
X040033Y007755D03*
X040023Y007755D03*
X040563Y008135D03*
X040583Y008145D03*
X040593Y008145D03*
X040613Y008155D03*
X040623Y008155D03*
X040633Y008155D03*
X040643Y008155D03*
X040653Y008155D03*
X040663Y008155D03*
X040673Y008155D03*
X040683Y008155D03*
X040693Y008155D03*
X040703Y008155D03*
X040713Y008155D03*
X040723Y008155D03*
X040733Y008155D03*
X040743Y008155D03*
X040753Y008155D03*
X040763Y008155D03*
X040773Y008155D03*
X040783Y008155D03*
X040793Y008155D03*
X040803Y008155D03*
X040813Y008155D03*
X040823Y008155D03*
X040833Y008155D03*
X040843Y008155D03*
X040853Y008155D03*
X040863Y008155D03*
X040873Y008155D03*
X040883Y008155D03*
X040893Y008155D03*
X040903Y008155D03*
X040913Y008155D03*
X040923Y008155D03*
X040933Y008155D03*
X040943Y008155D03*
X040953Y008155D03*
X040963Y008155D03*
X040973Y008155D03*
X040983Y008155D03*
X040993Y008155D03*
X041003Y008155D03*
X041013Y008155D03*
X041023Y008155D03*
X041033Y008155D03*
X041043Y008155D03*
X041053Y008155D03*
X041063Y008155D03*
X041073Y008155D03*
X041083Y008155D03*
X041093Y008155D03*
X041103Y008155D03*
X041113Y008155D03*
X041123Y008155D03*
X041133Y008155D03*
X041143Y008155D03*
X041153Y008155D03*
X041163Y008155D03*
X041173Y008155D03*
X041183Y008155D03*
X041193Y008155D03*
X041203Y008155D03*
X041213Y008155D03*
X041223Y008155D03*
X041233Y008155D03*
X041243Y008155D03*
X041253Y008155D03*
X041683Y008455D03*
X041523Y008615D03*
X041503Y008625D03*
X041493Y008625D03*
X041483Y008635D03*
X041473Y008635D03*
X041463Y008635D03*
X041453Y008635D03*
X041443Y008645D03*
X041433Y008645D03*
X041423Y008645D03*
X041413Y008655D03*
X041403Y008655D03*
X041393Y008655D03*
X041383Y008665D03*
X041373Y008665D03*
X041363Y008665D03*
X041353Y008665D03*
X041343Y008675D03*
X041333Y008675D03*
X041323Y008675D03*
X041313Y008685D03*
X041303Y008685D03*
X041293Y008685D03*
X041273Y008695D03*
X041263Y008695D03*
X041253Y008695D03*
X041243Y008705D03*
X041233Y008705D03*
X041023Y008765D03*
X041013Y008775D03*
X041003Y008775D03*
X040993Y008775D03*
X040973Y008785D03*
X040963Y008785D03*
X040953Y008785D03*
X040943Y008795D03*
X040933Y008795D03*
X040923Y008795D03*
X040913Y008805D03*
X040903Y008805D03*
X040893Y008805D03*
X040873Y008815D03*
X040863Y008815D03*
X040853Y008815D03*
X040843Y008825D03*
X040833Y008825D03*
X040823Y008825D03*
X040813Y008835D03*
X040803Y008835D03*
X040793Y008835D03*
X040773Y008845D03*
X040763Y008845D03*
X040753Y008845D03*
X040743Y008855D03*
X040733Y008855D03*
X040723Y008855D03*
X040713Y008865D03*
X040703Y008865D03*
X040693Y008865D03*
X040673Y008875D03*
X040663Y008875D03*
X040653Y008875D03*
X040643Y008885D03*
X040633Y008885D03*
X040623Y008885D03*
X040613Y008895D03*
X040603Y008895D03*
X040593Y008895D03*
X040573Y008905D03*
X040563Y008905D03*
X040543Y008915D03*
X040533Y008915D03*
X040523Y008915D03*
X040513Y008925D03*
X040503Y008925D03*
X040493Y008925D03*
X040473Y008935D03*
X040463Y008935D03*
X040443Y008945D03*
X040433Y008945D03*
X040563Y009245D03*
X040573Y009245D03*
X040603Y009235D03*
X040613Y009235D03*
X040623Y009235D03*
X040633Y009235D03*
X040663Y009245D03*
X040673Y009245D03*
X040683Y009245D03*
X040693Y009255D03*
X040393Y009415D03*
X040983Y009565D03*
X040993Y009565D03*
X041003Y009575D03*
X041013Y009575D03*
X041023Y009575D03*
X041093Y009575D03*
X041103Y009575D03*
X041123Y009565D03*
X041143Y009235D03*
X041023Y008635D03*
X041013Y008635D03*
X041003Y008635D03*
X040983Y008625D03*
X040973Y008625D03*
X040953Y008615D03*
X040943Y008615D03*
X040933Y008615D03*
X040923Y008605D03*
X040913Y008605D03*
X040903Y008605D03*
X040883Y008595D03*
X040873Y008595D03*
X040853Y008585D03*
X040843Y008585D03*
X040833Y008585D03*
X040813Y008575D03*
X040803Y008575D03*
X040783Y008565D03*
X040773Y008565D03*
X040763Y008565D03*
X040753Y008555D03*
X040743Y008555D03*
X040733Y008555D03*
X040713Y008545D03*
X040703Y008545D03*
X040683Y008535D03*
X040673Y008535D03*
X040663Y008535D03*
X040653Y008525D03*
X040643Y008525D03*
X040633Y008525D03*
X040613Y008515D03*
X040603Y008515D03*
X040583Y008505D03*
X040573Y008505D03*
X040563Y008505D03*
X040553Y008495D03*
X040543Y008495D03*
X040533Y008495D03*
X040513Y008485D03*
X040503Y008485D03*
X040483Y008475D03*
X040473Y008475D03*
X040463Y008475D03*
X040453Y008465D03*
X040443Y008465D03*
X040433Y008465D03*
D23*
X040413Y008465D03*
X040413Y008945D03*
X040563Y009575D03*
X041263Y008155D03*
X041263Y007755D03*
X041663Y006985D03*
X041673Y006985D03*
X040013Y007755D03*
X041263Y005475D03*
X041263Y005075D03*
X041663Y003565D03*
X041673Y003565D03*
D24*
X041163Y003910D03*
X041163Y004370D03*
X041283Y004520D03*
X040523Y004680D03*
X040513Y004670D03*
X040393Y004520D03*
X040513Y004370D03*
X040523Y003910D03*
X040513Y003140D03*
X040393Y002990D03*
X040513Y002840D03*
X041163Y002840D03*
X041283Y002990D03*
X041163Y003140D03*
X040523Y005420D03*
X040513Y006270D03*
X040393Y006420D03*
X040513Y006570D03*
X040523Y006580D03*
X041163Y006270D03*
X041283Y006420D03*
X041163Y007330D03*
X040523Y007330D03*
X040523Y008100D03*
X041183Y008700D03*
X041563Y008580D03*
X041673Y008460D03*
X040513Y009280D03*
X040513Y009550D03*
X040943Y009540D03*
X041163Y009540D03*
D25*
X040503Y009300D03*
X041153Y008700D03*
X041573Y008570D03*
X041663Y008470D03*
X040513Y008090D03*
X040513Y007320D03*
X041173Y007320D03*
X041173Y006290D03*
X040503Y006290D03*
X040513Y005410D03*
X040503Y004390D03*
X040513Y003900D03*
X041173Y003900D03*
X041173Y004390D03*
X041173Y003120D03*
X041173Y002860D03*
X040503Y002860D03*
D26*
X041653Y008475D03*
X041113Y008705D03*
X041103Y008705D03*
X041093Y008705D03*
X040803Y009365D03*
X040813Y009375D03*
X040823Y009395D03*
X040833Y009405D03*
X040853Y009435D03*
X040863Y009445D03*
D27*
X041083Y008700D03*
X041643Y008480D03*
X041273Y006420D03*
X040403Y006420D03*
X040403Y004520D03*
X041273Y004520D03*
X041273Y002990D03*
X040403Y002990D03*
D28*
X041633Y008490D03*
X041583Y008530D03*
X041053Y008700D03*
D29*
X041043Y008705D03*
X041033Y008705D03*
X041593Y008515D03*
X041613Y008505D03*
X041623Y008495D03*
D30*
X041603Y008510D03*
X041263Y009390D03*
X040393Y007090D03*
X040413Y006420D03*
X041263Y006420D03*
X040393Y005180D03*
X040413Y004520D03*
X041263Y004520D03*
X040393Y003670D03*
X040413Y002990D03*
X041263Y002990D03*
D31*
X041153Y002835D03*
X041143Y002825D03*
X041153Y003145D03*
X041143Y003155D03*
X040533Y003155D03*
X040523Y003145D03*
X040523Y002835D03*
X040533Y002825D03*
X040533Y003925D03*
X040533Y004355D03*
X040523Y004365D03*
X040533Y004685D03*
X041173Y004645D03*
X041153Y004365D03*
X041143Y004355D03*
X041153Y003925D03*
X040533Y005435D03*
X040533Y006255D03*
X040523Y006265D03*
X040533Y006585D03*
X041173Y006545D03*
X041153Y006265D03*
X041143Y006255D03*
X041153Y007345D03*
X040533Y007345D03*
X040533Y008115D03*
X041193Y008705D03*
X041203Y008705D03*
X041213Y008705D03*
X041553Y008595D03*
X041163Y009245D03*
X041153Y009545D03*
X041143Y009555D03*
X040953Y009545D03*
X040723Y009275D03*
X040713Y009265D03*
X040533Y009265D03*
X040523Y009275D03*
D32*
X040543Y009260D03*
X040553Y009250D03*
X040703Y009260D03*
X040523Y009560D03*
X040533Y009570D03*
X040963Y009550D03*
X040973Y009560D03*
X041133Y009560D03*
X041153Y009240D03*
X041223Y008700D03*
X041513Y008620D03*
X041533Y008610D03*
X041543Y008600D03*
X040573Y008140D03*
X040553Y008130D03*
X040543Y008120D03*
X040573Y007370D03*
X040553Y007360D03*
X040543Y007350D03*
X041113Y007370D03*
X041133Y007360D03*
X041143Y007350D03*
X040553Y006600D03*
X040543Y006590D03*
X040543Y006250D03*
X040553Y006240D03*
X041123Y006240D03*
X041133Y006250D03*
X040573Y005460D03*
X040553Y005450D03*
X040543Y005440D03*
X040553Y004700D03*
X040543Y004690D03*
X040543Y004350D03*
X040553Y004340D03*
X040573Y003950D03*
X040553Y003940D03*
X040543Y003930D03*
X041113Y003950D03*
X041133Y003940D03*
X041143Y003930D03*
X041123Y004340D03*
X041133Y004350D03*
X041123Y003170D03*
X041133Y003160D03*
X041133Y002820D03*
X041123Y002810D03*
X040553Y002810D03*
X040543Y002820D03*
X040543Y003160D03*
X040553Y003170D03*
D33*
X041293Y003650D03*
X041253Y004520D03*
X041253Y006420D03*
X041293Y007070D03*
X040393Y007840D03*
X041253Y009390D03*
D34*
X041293Y009390D03*
X041133Y009230D03*
X041123Y009230D03*
X041113Y009570D03*
X041083Y009580D03*
X041073Y009580D03*
X041063Y009580D03*
X041053Y009580D03*
X041043Y009580D03*
X041033Y009580D03*
X040553Y009570D03*
X040543Y009570D03*
X040583Y009240D03*
X040593Y009240D03*
X040643Y009240D03*
X040653Y009240D03*
X040553Y008910D03*
X040583Y008900D03*
X040483Y008930D03*
X040453Y008940D03*
X040423Y008940D03*
X040683Y008870D03*
X040783Y008840D03*
X040883Y008810D03*
X040983Y008780D03*
X040993Y008630D03*
X040963Y008620D03*
X040893Y008600D03*
X040863Y008590D03*
X040823Y008580D03*
X040793Y008570D03*
X040723Y008550D03*
X040693Y008540D03*
X040623Y008520D03*
X040593Y008510D03*
X040523Y008490D03*
X040493Y008480D03*
X040423Y008460D03*
X040603Y008150D03*
X040603Y007380D03*
X040613Y007380D03*
X041073Y007380D03*
X041083Y007380D03*
X040773Y006620D03*
X040763Y006620D03*
X040753Y006620D03*
X040743Y006620D03*
X040733Y006620D03*
X040723Y006620D03*
X040713Y006620D03*
X040703Y006620D03*
X040693Y006620D03*
X040683Y006620D03*
X040673Y006620D03*
X040663Y006620D03*
X040653Y006620D03*
X040643Y006620D03*
X040633Y006620D03*
X040623Y006620D03*
X040613Y006620D03*
X040623Y006220D03*
X040633Y006220D03*
X040643Y006220D03*
X040653Y006220D03*
X040663Y006220D03*
X040673Y006220D03*
X040683Y006220D03*
X040693Y006220D03*
X040703Y006220D03*
X040713Y006220D03*
X040723Y006220D03*
X040733Y006220D03*
X040743Y006220D03*
X040753Y006220D03*
X040763Y006220D03*
X040773Y006220D03*
X040903Y006220D03*
X040913Y006220D03*
X040923Y006220D03*
X040933Y006220D03*
X040943Y006220D03*
X040953Y006220D03*
X040963Y006220D03*
X040973Y006220D03*
X040983Y006220D03*
X040993Y006220D03*
X041003Y006220D03*
X041013Y006220D03*
X041023Y006220D03*
X041033Y006220D03*
X041043Y006220D03*
X041053Y006220D03*
X041153Y006560D03*
X040613Y005470D03*
X040603Y005470D03*
X040613Y004720D03*
X040623Y004720D03*
X040633Y004720D03*
X040643Y004720D03*
X040653Y004720D03*
X040663Y004720D03*
X040673Y004720D03*
X040683Y004720D03*
X040693Y004720D03*
X040703Y004720D03*
X040713Y004720D03*
X040723Y004720D03*
X040733Y004720D03*
X040743Y004720D03*
X040753Y004720D03*
X040763Y004720D03*
X040773Y004720D03*
X041153Y004660D03*
X041053Y004320D03*
X041043Y004320D03*
X041033Y004320D03*
X041023Y004320D03*
X041013Y004320D03*
X041003Y004320D03*
X040993Y004320D03*
X040983Y004320D03*
X040973Y004320D03*
X040963Y004320D03*
X040953Y004320D03*
X040943Y004320D03*
X040933Y004320D03*
X040923Y004320D03*
X040913Y004320D03*
X040903Y004320D03*
X040773Y004320D03*
X040763Y004320D03*
X040753Y004320D03*
X040743Y004320D03*
X040733Y004320D03*
X040723Y004320D03*
X040713Y004320D03*
X040703Y004320D03*
X040693Y004320D03*
X040683Y004320D03*
X040673Y004320D03*
X040663Y004320D03*
X040653Y004320D03*
X040643Y004320D03*
X040633Y004320D03*
X040623Y004320D03*
X040613Y003960D03*
X040603Y003960D03*
X041073Y003960D03*
X041083Y003960D03*
X041063Y003190D03*
X041053Y003190D03*
X041043Y003190D03*
X041033Y003190D03*
X041023Y003190D03*
X041013Y003190D03*
X041003Y003190D03*
X040993Y003190D03*
X040983Y003190D03*
X040973Y003190D03*
X040963Y003190D03*
X040953Y003190D03*
X040943Y003190D03*
X040933Y003190D03*
X040923Y003190D03*
X040913Y003190D03*
X040903Y003190D03*
X040893Y003190D03*
X040883Y003190D03*
X040873Y003190D03*
X040863Y003190D03*
X040853Y003190D03*
X040843Y003190D03*
X040833Y003190D03*
X040823Y003190D03*
X040813Y003190D03*
X040803Y003190D03*
X040793Y003190D03*
X040783Y003190D03*
X040773Y003190D03*
X040763Y003190D03*
X040753Y003190D03*
X040743Y003190D03*
X040733Y003190D03*
X040723Y003190D03*
X040713Y003190D03*
X040703Y003190D03*
X040693Y003190D03*
X040683Y003190D03*
X040673Y003190D03*
X040663Y003190D03*
X040653Y003190D03*
X040643Y003190D03*
X040633Y003190D03*
X040623Y003190D03*
X040613Y003190D03*
X040623Y002790D03*
X040633Y002790D03*
X040643Y002790D03*
X040653Y002790D03*
X040663Y002790D03*
X040673Y002790D03*
X040683Y002790D03*
X040693Y002790D03*
X040703Y002790D03*
X040713Y002790D03*
X040723Y002790D03*
X040733Y002790D03*
X040743Y002790D03*
X040753Y002790D03*
X040763Y002790D03*
X040773Y002790D03*
X040783Y002790D03*
X040793Y002790D03*
X040803Y002790D03*
X040813Y002790D03*
X040823Y002790D03*
X040833Y002790D03*
X040843Y002790D03*
X040853Y002790D03*
X040863Y002790D03*
X040873Y002790D03*
X040883Y002790D03*
X040893Y002790D03*
X040903Y002790D03*
X040913Y002790D03*
X040923Y002790D03*
X040933Y002790D03*
X040943Y002790D03*
X040953Y002790D03*
X040963Y002790D03*
X040973Y002790D03*
X040983Y002790D03*
X040993Y002790D03*
X041003Y002790D03*
X041013Y002790D03*
X041023Y002790D03*
X041033Y002790D03*
X041043Y002790D03*
X041053Y002790D03*
X041283Y008690D03*
D35*
X040403Y007865D03*
X041283Y007095D03*
X041283Y003675D03*
D36*
X041143Y008705D03*
X041133Y008705D03*
X041283Y009395D03*
X041183Y009505D03*
X040913Y009505D03*
X040903Y009495D03*
X040893Y009485D03*
X040773Y009325D03*
X040763Y009315D03*
X040753Y009305D03*
X040503Y009535D03*
X040403Y009415D03*
D37*
X040413Y007875D03*
X041273Y007105D03*
X041273Y003685D03*
D38*
X041143Y004660D03*
X041273Y005070D03*
X041273Y005470D03*
X041143Y006560D03*
X041273Y007760D03*
X041273Y008160D03*
X040403Y008460D03*
X040403Y008940D03*
X041113Y009230D03*
X040003Y007760D03*
D39*
X041063Y008705D03*
X041073Y008705D03*
X041273Y009395D03*
X040413Y009415D03*
D40*
X040483Y009415D03*
X040423Y007885D03*
X041263Y007115D03*
X041263Y003695D03*
D41*
X041253Y002995D03*
X040423Y002995D03*
X040423Y004525D03*
X040423Y006425D03*
X040433Y009415D03*
D42*
X040493Y009415D03*
X041193Y009395D03*
X040433Y007895D03*
X040433Y007125D03*
X041253Y007125D03*
X041193Y006415D03*
X040433Y005215D03*
X041193Y004515D03*
X041253Y003705D03*
X040433Y003705D03*
D43*
X040433Y002990D03*
X041243Y002990D03*
X041243Y004520D03*
X040433Y004520D03*
X040433Y006420D03*
X041243Y006420D03*
X041243Y009390D03*
X040443Y009420D03*
D44*
X040443Y007900D03*
X040443Y007130D03*
X040483Y006420D03*
X041243Y007130D03*
X040443Y005220D03*
X040483Y004520D03*
X040443Y003710D03*
X040483Y002990D03*
X041193Y002990D03*
X041243Y003710D03*
D45*
X041233Y002990D03*
X040443Y002990D03*
X040443Y004520D03*
X041233Y004520D03*
X041233Y006420D03*
X040443Y006420D03*
X040453Y009420D03*
X041233Y009390D03*
D46*
X040453Y007910D03*
X040453Y007140D03*
X040493Y006420D03*
X041233Y007140D03*
X040453Y005230D03*
X040493Y004520D03*
X040453Y003720D03*
X040493Y002990D03*
X041183Y002990D03*
X041233Y003720D03*
D47*
X041223Y002990D03*
X040453Y002990D03*
X040413Y003690D03*
X040453Y004520D03*
X040413Y005200D03*
X041223Y004520D03*
X041223Y006420D03*
X040453Y006420D03*
X040413Y007110D03*
X040463Y009420D03*
X041223Y009390D03*
D48*
X040463Y007915D03*
X040463Y007145D03*
X041223Y007145D03*
X040463Y005235D03*
X040463Y003725D03*
X041223Y003725D03*
D49*
X041213Y002990D03*
X040463Y002990D03*
X040423Y003700D03*
X040463Y004520D03*
X040423Y005210D03*
X041213Y004520D03*
X041213Y006420D03*
X040463Y006420D03*
X040423Y007120D03*
X040473Y009420D03*
X041213Y009390D03*
D50*
X040473Y007920D03*
X040473Y007150D03*
X040483Y007150D03*
X041203Y007150D03*
X041213Y007150D03*
X040473Y005240D03*
X040473Y003730D03*
X040483Y003730D03*
X041203Y003730D03*
X041213Y003730D03*
D51*
X041203Y002990D03*
X040473Y002990D03*
X040473Y004520D03*
X041203Y004520D03*
X041203Y006420D03*
X040473Y006420D03*
X041203Y009390D03*
D52*
X040493Y007925D03*
X040483Y007925D03*
X040493Y007155D03*
X041193Y007155D03*
X040493Y005245D03*
X040483Y005245D03*
X040493Y003735D03*
X041193Y003735D03*
D53*
X041183Y003740D03*
X040503Y003740D03*
X040893Y004500D03*
X040503Y005250D03*
X040893Y006400D03*
X041183Y007160D03*
X040503Y007160D03*
X040503Y007930D03*
D54*
X041183Y006415D03*
X041183Y004515D03*
D55*
X041123Y008700D03*
X041183Y009280D03*
X040883Y009470D03*
X040873Y009460D03*
X040843Y009420D03*
X040793Y009350D03*
X040783Y009340D03*
D56*
X040743Y009295D03*
X040733Y009285D03*
X040923Y009515D03*
X040933Y009525D03*
X041173Y009525D03*
X041173Y009255D03*
X041173Y008705D03*
X041163Y008705D03*
X040503Y006555D03*
X040503Y004655D03*
X040503Y003125D03*
D57*
X041133Y004665D03*
X041133Y006565D03*
X040393Y008945D03*
D58*
X041123Y006560D03*
X041123Y004660D03*
D59*
X040383Y008460D03*
X040383Y008950D03*
X041093Y009230D03*
D60*
X040883Y006410D03*
X040883Y004510D03*
D61*
X040873Y004515D03*
X040873Y006415D03*
D62*
X040863Y006420D03*
X040853Y006420D03*
X040843Y006420D03*
X040833Y006420D03*
X040823Y006420D03*
X040813Y006420D03*
X040803Y006420D03*
X040793Y006420D03*
X040783Y006420D03*
X040783Y004520D03*
X040793Y004520D03*
X040803Y004520D03*
X040813Y004520D03*
X040823Y004520D03*
X040833Y004520D03*
X040843Y004520D03*
X040853Y004520D03*
X040863Y004520D03*
D63*
X040573Y009575D03*
D64*
X040423Y009415D03*
D65*
X040403Y007105D03*
X040403Y005195D03*
X040403Y003685D03*
D66*
X043101Y011313D03*
X043101Y012313D03*
X043101Y013313D03*
D67*
X038179Y020364D03*
X038179Y020836D03*
X030279Y020836D03*
X030279Y020364D03*
X021779Y020364D03*
X021779Y020836D03*
X013979Y020936D03*
X013979Y020464D03*
X014279Y004636D03*
X014279Y004164D03*
X022579Y004264D03*
X022579Y004736D03*
X030079Y004636D03*
X030079Y004164D03*
X038279Y004164D03*
X038279Y004636D03*
D68*
X038279Y004400D03*
X032620Y003159D03*
X030079Y004400D03*
X022579Y004500D03*
X014279Y004400D03*
X021779Y020600D03*
X013979Y020700D03*
X030279Y020600D03*
X038179Y020600D03*
D69*
X038415Y020600D03*
X037824Y020600D03*
X030515Y020600D03*
X029924Y020600D03*
X022015Y020600D03*
X021424Y020600D03*
X014215Y020700D03*
X013624Y020700D03*
X022224Y004500D03*
X022815Y004500D03*
X029724Y004400D03*
X030315Y004400D03*
X037924Y004400D03*
X038515Y004400D03*
X014515Y004400D03*
X013924Y004400D03*
D70*
X032383Y003159D03*
X032856Y003159D03*
D71*
X032620Y003395D03*
X032620Y002805D03*
M02*
