%
M48
M72
T01C0.0236
T02C0.0350
T03C0.0360
T04C0.0394
T05C0.0512
T06C0.0791
%
T01
X24620Y19100
X32588Y17898
X38420Y13300
T02
X12327Y16794
X13327Y16794
X20534Y16840
X21534Y16840
X28659Y16883
X29659Y16883
X36515Y16883
X37515Y16883
X37566Y8324
X36566Y8324
X29661Y8321
X28661Y8321
X21711Y8342
X20711Y8342
X13424Y8320
X12424Y8320
T03
X43101Y13313
X43101Y12313
X43101Y11313
T04
X12100Y22137
X13100Y22137
X14100Y22137
X15100Y22137
X16100Y22137
X17100Y22137
X18100Y22137
X19100Y22137
X20700Y22137
X21700Y22137
X22700Y22137
X23700Y22137
X24700Y22137
X25700Y22137
X26700Y22137
X27700Y22137
X27700Y3137
X26700Y3137
X25700Y3137
X24700Y3137
X23700Y3137
X22700Y3137
X20700Y3137
X19700Y3137
X18700Y3137
X17700Y3137
X16700Y3137
X15700Y3137
T05
X41289Y22187
X43218Y22423
X43218Y16242
X41289Y16478
T06
X14327Y18794
X10327Y14794
X14424Y10320
X18711Y6342
X22711Y10342
X26661Y6321
X30661Y10321
X34566Y6324
X38566Y10324
X34515Y14883
X30659Y18883
X26659Y14883
X22534Y18840
X18534Y14840
X10424Y6320
X38515Y18883
M30
