G75*
%MOIN*%
%OFA0B0*%
%FSLAX24Y24*%
%IPPOS*%
%LPD*%
%AMOC8*
5,1,8,0,0,1.08239X$1,22.5*
%
%ADD10C,0.0000*%
%ADD11C,0.0120*%
%ADD12C,0.0526*%
%ADD13C,0.1187*%
%ADD14C,0.0768*%
%ADD15OC8,0.0660*%
%ADD16C,0.0540*%
%ADD17C,0.0160*%
%ADD18R,0.0356X0.0356*%
D10*
X005620Y000100D02*
X005620Y031596D01*
X044990Y031596D01*
X044990Y000100D01*
X005620Y000100D01*
D11*
X008572Y002069D02*
X008572Y023131D01*
X044399Y023131D01*
X044399Y002069D01*
X008572Y002069D01*
X008792Y002289D02*
X008792Y022911D01*
X043081Y022911D01*
X042933Y022850D01*
X042791Y022708D01*
X042714Y022523D01*
X042714Y022323D01*
X042791Y022137D01*
X042933Y021996D01*
X043118Y021919D01*
X043318Y021919D01*
X043504Y021996D01*
X043645Y022137D01*
X043722Y022323D01*
X043722Y022523D01*
X043645Y022708D01*
X043504Y022850D01*
X043355Y022911D01*
X044179Y022911D01*
X044179Y002289D01*
X008792Y002289D01*
X008792Y002352D02*
X044179Y002352D01*
X044179Y002470D02*
X008792Y002470D01*
X008792Y002589D02*
X044179Y002589D01*
X044179Y002707D02*
X027906Y002707D01*
X027886Y002687D02*
X028150Y002951D01*
X028150Y003323D01*
X027886Y003587D01*
X027514Y003587D01*
X027250Y003323D01*
X027250Y002951D01*
X027514Y002687D01*
X027886Y002687D01*
X028025Y002826D02*
X044179Y002826D01*
X044179Y002944D02*
X028143Y002944D01*
X028150Y003063D02*
X044179Y003063D01*
X044179Y003181D02*
X028150Y003181D01*
X028150Y003300D02*
X044179Y003300D01*
X044179Y003418D02*
X028055Y003418D01*
X027937Y003537D02*
X044179Y003537D01*
X044179Y003655D02*
X008792Y003655D01*
X008792Y003537D02*
X015463Y003537D01*
X015514Y003587D02*
X015250Y003323D01*
X015250Y002951D01*
X015514Y002687D01*
X015886Y002687D01*
X016150Y002951D01*
X016150Y003323D01*
X015886Y003587D01*
X015514Y003587D01*
X015345Y003418D02*
X008792Y003418D01*
X008792Y003300D02*
X015250Y003300D01*
X015250Y003181D02*
X008792Y003181D01*
X008792Y003063D02*
X015250Y003063D01*
X015257Y002944D02*
X008792Y002944D01*
X008792Y002826D02*
X015375Y002826D01*
X015494Y002707D02*
X008792Y002707D01*
X008792Y003774D02*
X044179Y003774D01*
X044179Y003892D02*
X008792Y003892D01*
X008792Y004011D02*
X014226Y004011D01*
X014237Y004000D02*
X040303Y004000D01*
X041103Y004800D01*
X041220Y004917D01*
X041220Y015974D01*
X041389Y015974D01*
X041574Y016051D01*
X041716Y016193D01*
X041793Y016378D01*
X041793Y016578D01*
X041716Y016763D01*
X041574Y016905D01*
X041389Y016982D01*
X041189Y016982D01*
X041004Y016905D01*
X040862Y016763D01*
X040820Y016662D01*
X040820Y019683D01*
X039720Y020783D01*
X039603Y020900D01*
X022303Y020900D01*
X021820Y021383D01*
X021820Y021687D01*
X021886Y021687D01*
X022150Y021951D01*
X022150Y022323D01*
X021886Y022587D01*
X021514Y022587D01*
X021250Y022323D01*
X021250Y021951D01*
X021420Y021781D01*
X021420Y021217D01*
X021537Y021100D01*
X022037Y020600D01*
X021503Y020600D01*
X020820Y021283D01*
X020820Y021687D01*
X020886Y021687D01*
X021150Y021951D01*
X021150Y022323D01*
X020886Y022587D01*
X020514Y022587D01*
X020250Y022323D01*
X020250Y021951D01*
X020420Y021781D01*
X020420Y021117D01*
X020537Y021000D01*
X021237Y020300D01*
X019903Y020300D01*
X019320Y020883D01*
X019320Y021720D01*
X019550Y021951D01*
X019550Y022323D01*
X019286Y022587D01*
X018914Y022587D01*
X018650Y022323D01*
X018650Y021951D01*
X018914Y021687D01*
X018920Y021687D01*
X018920Y020717D01*
X019037Y020600D01*
X019637Y020000D01*
X019103Y020000D01*
X018220Y020883D01*
X018220Y021687D01*
X018286Y021687D01*
X018550Y021951D01*
X018550Y022323D01*
X018286Y022587D01*
X017914Y022587D01*
X017650Y022323D01*
X017650Y021951D01*
X017820Y021781D01*
X017820Y020717D01*
X018937Y019600D01*
X038837Y019600D01*
X039520Y018917D01*
X039520Y015917D01*
X039637Y015800D01*
X039920Y015517D01*
X039920Y005583D01*
X039637Y005300D01*
X037203Y005300D01*
X036820Y005683D01*
X036820Y008037D01*
X036891Y008108D01*
X036949Y008248D01*
X036949Y008401D01*
X036891Y008541D01*
X036783Y008649D01*
X036642Y008707D01*
X036490Y008707D01*
X036349Y008649D01*
X036241Y008541D01*
X036183Y008401D01*
X036183Y008248D01*
X036241Y008108D01*
X036349Y008000D01*
X036420Y007971D01*
X036420Y005517D01*
X036537Y005400D01*
X036937Y005000D01*
X029703Y005000D01*
X028861Y005842D01*
X028861Y007989D01*
X028878Y007996D01*
X028985Y008104D01*
X029044Y008245D01*
X029044Y008397D01*
X028985Y008538D01*
X028878Y008645D01*
X028737Y008704D01*
X028585Y008704D01*
X028444Y008645D01*
X028336Y008538D01*
X028278Y008397D01*
X028278Y008245D01*
X028336Y008104D01*
X028444Y007996D01*
X028461Y007989D01*
X028461Y005676D01*
X029420Y004717D01*
X029437Y004700D01*
X022203Y004700D01*
X020820Y006083D01*
X020820Y007972D01*
X020928Y008017D01*
X021036Y008125D01*
X021094Y008266D01*
X021094Y008418D01*
X021036Y008559D01*
X020928Y008666D01*
X020788Y008725D01*
X020635Y008725D01*
X020495Y008666D01*
X020387Y008559D01*
X020329Y008418D01*
X020329Y008266D01*
X020387Y008125D01*
X020420Y008092D01*
X020420Y005917D01*
X021920Y004417D01*
X021937Y004400D01*
X014403Y004400D01*
X012820Y005983D01*
X012820Y008207D01*
X012799Y008227D01*
X012806Y008244D01*
X012806Y008397D01*
X012748Y008537D01*
X012640Y008645D01*
X012500Y008703D01*
X012347Y008703D01*
X012207Y008645D01*
X012099Y008537D01*
X012041Y008397D01*
X012041Y008244D01*
X012099Y008104D01*
X012207Y007996D01*
X012347Y007938D01*
X012420Y007938D01*
X012420Y005817D01*
X014237Y004000D01*
X014108Y004129D02*
X008792Y004129D01*
X008792Y004248D02*
X013989Y004248D01*
X013871Y004366D02*
X008792Y004366D01*
X008792Y004485D02*
X013752Y004485D01*
X013634Y004603D02*
X008792Y004603D01*
X008792Y004722D02*
X013515Y004722D01*
X013397Y004840D02*
X008792Y004840D01*
X008792Y004959D02*
X013278Y004959D01*
X013160Y005077D02*
X008792Y005077D01*
X008792Y005196D02*
X013041Y005196D01*
X012923Y005314D02*
X008792Y005314D01*
X008792Y005433D02*
X012804Y005433D01*
X012686Y005551D02*
X008792Y005551D01*
X008792Y005670D02*
X010131Y005670D01*
X010019Y005716D02*
X010282Y005607D01*
X010566Y005607D01*
X010828Y005716D01*
X011029Y005916D01*
X011137Y006179D01*
X011137Y006462D01*
X011029Y006725D01*
X010828Y006925D01*
X010566Y007034D01*
X010282Y007034D01*
X010019Y006925D01*
X009819Y006725D01*
X009710Y006462D01*
X009710Y006179D01*
X009819Y005916D01*
X010019Y005716D01*
X009947Y005788D02*
X008792Y005788D01*
X008792Y005907D02*
X009829Y005907D01*
X009774Y006025D02*
X008792Y006025D01*
X008792Y006144D02*
X009725Y006144D01*
X009710Y006262D02*
X008792Y006262D01*
X008792Y006381D02*
X009710Y006381D01*
X009725Y006499D02*
X008792Y006499D01*
X008792Y006618D02*
X009774Y006618D01*
X009830Y006736D02*
X008792Y006736D01*
X008792Y006855D02*
X009949Y006855D01*
X010135Y006973D02*
X008792Y006973D01*
X008792Y007092D02*
X012420Y007092D01*
X012420Y007210D02*
X008792Y007210D01*
X008792Y007329D02*
X012420Y007329D01*
X012420Y007447D02*
X008792Y007447D01*
X008792Y007566D02*
X012420Y007566D01*
X012420Y007684D02*
X008792Y007684D01*
X008792Y007803D02*
X012420Y007803D01*
X012420Y007921D02*
X008792Y007921D01*
X008792Y008040D02*
X012163Y008040D01*
X012077Y008158D02*
X008792Y008158D01*
X008792Y008277D02*
X012041Y008277D01*
X012041Y008395D02*
X008792Y008395D01*
X008792Y008514D02*
X012089Y008514D01*
X012194Y008632D02*
X008792Y008632D01*
X008792Y008751D02*
X021601Y008751D01*
X021612Y008754D02*
X021549Y008734D01*
X021490Y008703D01*
X021436Y008664D01*
X021389Y008617D01*
X021350Y008563D01*
X021320Y008504D01*
X021299Y008441D01*
X021289Y008375D01*
X021289Y008369D01*
X021684Y008369D01*
X021684Y008314D01*
X021739Y008314D01*
X021739Y007919D01*
X021745Y007919D01*
X021810Y007929D01*
X021874Y007950D01*
X021933Y007980D01*
X021987Y008019D01*
X022034Y008066D01*
X022073Y008120D01*
X022103Y008179D01*
X022124Y008243D01*
X022134Y008308D01*
X022134Y008314D01*
X021739Y008314D01*
X021739Y008369D01*
X022134Y008369D01*
X022134Y008375D01*
X022124Y008441D01*
X022103Y008504D01*
X022073Y008563D01*
X022034Y008617D01*
X021987Y008664D01*
X021933Y008703D01*
X021874Y008734D01*
X021810Y008754D01*
X021745Y008765D01*
X021739Y008765D01*
X021739Y008369D01*
X021684Y008369D01*
X021684Y008765D01*
X021678Y008765D01*
X021612Y008754D01*
X021684Y008751D02*
X021739Y008751D01*
X021821Y008751D02*
X039920Y008751D01*
X039920Y008869D02*
X008792Y008869D01*
X008792Y008988D02*
X039920Y008988D01*
X039920Y009106D02*
X008792Y009106D01*
X008792Y009225D02*
X039920Y009225D01*
X039920Y009343D02*
X008792Y009343D01*
X008792Y009462D02*
X039920Y009462D01*
X039920Y009580D02*
X008792Y009580D01*
X008792Y009699D02*
X014061Y009699D01*
X014019Y009716D02*
X014282Y009607D01*
X014566Y009607D01*
X014828Y009716D01*
X015029Y009916D01*
X015137Y010179D01*
X015137Y010462D01*
X015029Y010725D01*
X014828Y010925D01*
X014566Y011034D01*
X014282Y011034D01*
X014019Y010925D01*
X013819Y010725D01*
X013710Y010462D01*
X013710Y010179D01*
X013819Y009916D01*
X014019Y009716D01*
X013918Y009817D02*
X008792Y009817D01*
X008792Y009936D02*
X013811Y009936D01*
X013762Y010054D02*
X008792Y010054D01*
X008792Y010173D02*
X013713Y010173D01*
X013710Y010291D02*
X008792Y010291D01*
X008792Y010410D02*
X013710Y010410D01*
X013737Y010528D02*
X008792Y010528D01*
X008792Y010647D02*
X013786Y010647D01*
X013859Y010765D02*
X008792Y010765D01*
X008792Y010884D02*
X013978Y010884D01*
X014205Y011002D02*
X008792Y011002D01*
X008792Y011121D02*
X039920Y011121D01*
X039920Y011239D02*
X008792Y011239D01*
X008792Y011358D02*
X039920Y011358D01*
X039920Y011476D02*
X008792Y011476D01*
X008792Y011595D02*
X039920Y011595D01*
X039920Y011713D02*
X008792Y011713D01*
X008792Y011832D02*
X039920Y011832D01*
X039920Y011950D02*
X008792Y011950D01*
X008792Y012069D02*
X039920Y012069D01*
X039920Y012187D02*
X008792Y012187D01*
X008792Y012306D02*
X039920Y012306D01*
X039920Y012424D02*
X008792Y012424D01*
X008792Y012543D02*
X039920Y012543D01*
X039920Y012661D02*
X008792Y012661D01*
X008792Y012780D02*
X039920Y012780D01*
X039920Y012898D02*
X008792Y012898D01*
X008792Y013017D02*
X038177Y013017D01*
X038192Y013002D02*
X038648Y013002D01*
X038718Y013072D01*
X038718Y013528D01*
X038648Y013598D01*
X038620Y013598D01*
X038620Y016983D01*
X038503Y017100D01*
X037505Y018098D01*
X032886Y018098D01*
X032886Y018125D01*
X032816Y018196D01*
X032360Y018196D01*
X032290Y018125D01*
X032290Y018100D01*
X030503Y018100D01*
X030373Y018230D01*
X030517Y018170D01*
X030801Y018170D01*
X031063Y018279D01*
X031264Y018479D01*
X031373Y018741D01*
X031373Y019025D01*
X031264Y019288D01*
X031063Y019488D01*
X030801Y019597D01*
X030517Y019597D01*
X030255Y019488D01*
X030054Y019288D01*
X029946Y019025D01*
X029946Y018741D01*
X030005Y018597D01*
X029303Y019300D01*
X024918Y019300D01*
X024918Y019328D01*
X024848Y019398D01*
X024392Y019398D01*
X024322Y019328D01*
X024322Y018872D01*
X024392Y018802D01*
X024848Y018802D01*
X024918Y018872D01*
X024918Y018900D01*
X029137Y018900D01*
X030220Y017817D01*
X030337Y017700D01*
X032290Y017700D01*
X032290Y017670D01*
X032360Y017600D01*
X032816Y017600D01*
X032886Y017670D01*
X032886Y017698D01*
X037339Y017698D01*
X038220Y016817D01*
X038220Y013598D01*
X038192Y013598D01*
X038122Y013528D01*
X038122Y013072D01*
X038192Y013002D01*
X038122Y013135D02*
X008792Y013135D01*
X008792Y013254D02*
X012683Y013254D01*
X012737Y013200D02*
X034603Y013200D01*
X034720Y013317D01*
X036715Y015313D01*
X036715Y016552D01*
X036732Y016559D01*
X036840Y016667D01*
X036898Y016807D01*
X036898Y016960D01*
X036840Y017100D01*
X036732Y017208D01*
X036591Y017266D01*
X036439Y017266D01*
X036299Y017208D01*
X036191Y017100D01*
X036133Y016960D01*
X036133Y016807D01*
X036191Y016667D01*
X036299Y016559D01*
X036315Y016552D01*
X036315Y015479D01*
X034437Y013600D01*
X027103Y013600D01*
X027120Y013617D01*
X028859Y015357D01*
X028859Y016552D01*
X028876Y016559D01*
X028984Y016667D01*
X029042Y016807D01*
X029042Y016960D01*
X028984Y017100D01*
X028876Y017208D01*
X028735Y017266D01*
X028583Y017266D01*
X028442Y017208D01*
X028335Y017100D01*
X028276Y016960D01*
X028276Y016807D01*
X028335Y016667D01*
X028442Y016559D01*
X028459Y016552D01*
X028459Y015522D01*
X026837Y013900D01*
X019003Y013900D01*
X019020Y013917D01*
X020734Y015631D01*
X020734Y016509D01*
X020751Y016516D01*
X020859Y016623D01*
X020917Y016764D01*
X020917Y016916D01*
X020859Y017057D01*
X020751Y017165D01*
X020610Y017223D01*
X020458Y017223D01*
X020317Y017165D01*
X020209Y017057D01*
X020151Y016916D01*
X020151Y016764D01*
X020209Y016623D01*
X020317Y016516D01*
X020334Y016509D01*
X020334Y015797D01*
X019248Y014711D01*
X019248Y014982D01*
X019139Y015244D01*
X018938Y015445D01*
X018676Y015554D01*
X018392Y015554D01*
X018130Y015445D01*
X017929Y015244D01*
X017821Y014982D01*
X017821Y014698D01*
X017929Y014436D01*
X018130Y014235D01*
X018215Y014200D01*
X013103Y014200D01*
X011120Y016183D01*
X011120Y020017D01*
X011703Y020600D01*
X015603Y020600D01*
X016203Y021200D01*
X016320Y021317D01*
X016320Y021720D01*
X016550Y021951D01*
X016550Y022323D01*
X016286Y022587D01*
X015914Y022587D01*
X015650Y022323D01*
X015650Y021951D01*
X015914Y021687D01*
X015920Y021687D01*
X015920Y021483D01*
X015437Y021000D01*
X014803Y021000D01*
X015103Y021300D01*
X015220Y021417D01*
X015220Y021687D01*
X015286Y021687D01*
X015550Y021951D01*
X015550Y022323D01*
X015286Y022587D01*
X014914Y022587D01*
X014650Y022323D01*
X014650Y021951D01*
X014820Y021781D01*
X014820Y021583D01*
X014537Y021300D01*
X013546Y021300D01*
X013933Y021687D01*
X014286Y021687D01*
X014550Y021951D01*
X014550Y022323D01*
X014286Y022587D01*
X013914Y022587D01*
X013650Y022323D01*
X013650Y021970D01*
X013280Y021600D01*
X011237Y021600D01*
X011120Y021483D01*
X010120Y020483D01*
X010120Y015817D01*
X010237Y015700D01*
X010429Y015507D01*
X010185Y015507D01*
X009923Y015399D01*
X009722Y015198D01*
X009613Y014936D01*
X009613Y014652D01*
X009722Y014390D01*
X009923Y014189D01*
X010185Y014080D01*
X010469Y014080D01*
X010731Y014189D01*
X010932Y014390D01*
X011040Y014652D01*
X011040Y014897D01*
X012737Y013200D01*
X012565Y013372D02*
X008792Y013372D01*
X008792Y013491D02*
X012446Y013491D01*
X012328Y013609D02*
X008792Y013609D01*
X008792Y013728D02*
X012209Y013728D01*
X012091Y013846D02*
X008792Y013846D01*
X008792Y013965D02*
X011972Y013965D01*
X011854Y014083D02*
X010475Y014083D01*
X010743Y014202D02*
X011735Y014202D01*
X011617Y014320D02*
X010862Y014320D01*
X010952Y014439D02*
X011498Y014439D01*
X011380Y014557D02*
X011001Y014557D01*
X011040Y014676D02*
X011261Y014676D01*
X011143Y014794D02*
X011040Y014794D01*
X011797Y015505D02*
X018274Y015505D01*
X018071Y015387D02*
X011916Y015387D01*
X012034Y015268D02*
X017953Y015268D01*
X017890Y015150D02*
X012153Y015150D01*
X012271Y015031D02*
X017841Y015031D01*
X017821Y014913D02*
X012390Y014913D01*
X012508Y014794D02*
X017821Y014794D01*
X017830Y014676D02*
X012627Y014676D01*
X012745Y014557D02*
X017879Y014557D01*
X017928Y014439D02*
X012864Y014439D01*
X012982Y014320D02*
X018045Y014320D01*
X018212Y014202D02*
X013101Y014202D01*
X011679Y015624D02*
X020160Y015624D01*
X020279Y015742D02*
X011560Y015742D01*
X011442Y015861D02*
X020334Y015861D01*
X020334Y015979D02*
X011323Y015979D01*
X011205Y016098D02*
X020334Y016098D01*
X020334Y016216D02*
X011120Y016216D01*
X011120Y016335D02*
X020334Y016335D01*
X020334Y016453D02*
X013577Y016453D01*
X013602Y016471D02*
X013649Y016518D01*
X013688Y016572D01*
X013719Y016632D01*
X013739Y016695D01*
X013750Y016761D01*
X013750Y016766D01*
X013354Y016766D01*
X013354Y016371D01*
X013360Y016371D01*
X013426Y016381D01*
X013489Y016402D01*
X013548Y016432D01*
X013602Y016471D01*
X013688Y016572D02*
X020261Y016572D01*
X020182Y016690D02*
X013738Y016690D01*
X013750Y016821D02*
X013354Y016821D01*
X013354Y016766D01*
X013299Y016766D01*
X013299Y016371D01*
X013293Y016371D01*
X013228Y016381D01*
X013164Y016402D01*
X013105Y016432D01*
X013051Y016471D01*
X013004Y016518D01*
X012965Y016572D01*
X012935Y016632D01*
X012914Y016695D01*
X012904Y016761D01*
X012904Y016766D01*
X013299Y016766D01*
X013299Y016821D01*
X012904Y016821D01*
X012904Y016827D01*
X012914Y016893D01*
X012935Y016956D01*
X012965Y017015D01*
X013004Y017069D01*
X013051Y017116D01*
X013105Y017155D01*
X013164Y017186D01*
X013228Y017206D01*
X013293Y017217D01*
X013299Y017217D01*
X013299Y016821D01*
X013354Y016821D01*
X013354Y017217D01*
X013360Y017217D01*
X013426Y017206D01*
X013489Y017186D01*
X013548Y017155D01*
X013602Y017116D01*
X013649Y017069D01*
X013688Y017015D01*
X013719Y016956D01*
X013739Y016893D01*
X013750Y016827D01*
X013750Y016821D01*
X013728Y016927D02*
X020156Y016927D01*
X020151Y016809D02*
X013354Y016809D01*
X013299Y016809D02*
X012710Y016809D01*
X012710Y016870D02*
X012651Y017011D01*
X012544Y017118D01*
X012520Y017128D01*
X012520Y018117D01*
X014003Y019600D01*
X016003Y019600D01*
X016120Y019717D01*
X017203Y020800D01*
X017320Y020917D01*
X017320Y021720D01*
X017550Y021951D01*
X017550Y022323D01*
X017286Y022587D01*
X016914Y022587D01*
X016650Y022323D01*
X016650Y021951D01*
X016914Y021687D01*
X016920Y021687D01*
X016920Y021083D01*
X015837Y020000D01*
X013837Y020000D01*
X012237Y018400D01*
X012120Y018283D01*
X012120Y017122D01*
X012110Y017118D01*
X012002Y017011D01*
X011944Y016870D01*
X011944Y016718D01*
X012002Y016577D01*
X012110Y016469D01*
X012251Y016411D01*
X012403Y016411D01*
X012544Y016469D01*
X012651Y016577D01*
X012710Y016718D01*
X012710Y016870D01*
X012686Y016927D02*
X012925Y016927D01*
X012987Y017046D02*
X012616Y017046D01*
X012520Y017164D02*
X013122Y017164D01*
X013299Y017164D02*
X013354Y017164D01*
X013354Y017046D02*
X013299Y017046D01*
X013299Y016927D02*
X013354Y016927D01*
X013354Y016690D02*
X013299Y016690D01*
X013299Y016572D02*
X013354Y016572D01*
X013354Y016453D02*
X013299Y016453D01*
X013077Y016453D02*
X012504Y016453D01*
X012646Y016572D02*
X012966Y016572D01*
X012916Y016690D02*
X012698Y016690D01*
X012149Y016453D02*
X011120Y016453D01*
X011120Y016572D02*
X012008Y016572D01*
X011955Y016690D02*
X011120Y016690D01*
X011120Y016809D02*
X011944Y016809D01*
X011968Y016927D02*
X011120Y016927D01*
X011120Y017046D02*
X012037Y017046D01*
X012120Y017164D02*
X011120Y017164D01*
X011120Y017283D02*
X012120Y017283D01*
X012120Y017401D02*
X011120Y017401D01*
X011120Y017520D02*
X012120Y017520D01*
X012120Y017638D02*
X011120Y017638D01*
X011120Y017757D02*
X012120Y017757D01*
X012120Y017875D02*
X011120Y017875D01*
X011120Y017994D02*
X012120Y017994D01*
X012120Y018112D02*
X011120Y018112D01*
X011120Y018231D02*
X012120Y018231D01*
X012186Y018349D02*
X011120Y018349D01*
X011120Y018468D02*
X012304Y018468D01*
X012423Y018586D02*
X011120Y018586D01*
X011120Y018705D02*
X012541Y018705D01*
X012660Y018823D02*
X011120Y018823D01*
X011120Y018942D02*
X012778Y018942D01*
X012897Y019060D02*
X011120Y019060D01*
X011120Y019179D02*
X013015Y019179D01*
X013134Y019297D02*
X011120Y019297D01*
X011120Y019416D02*
X013252Y019416D01*
X013371Y019534D02*
X011120Y019534D01*
X011120Y019653D02*
X013489Y019653D01*
X013608Y019771D02*
X011120Y019771D01*
X011120Y019890D02*
X013726Y019890D01*
X013937Y019534D02*
X022344Y019534D01*
X022392Y019554D02*
X022130Y019445D01*
X021929Y019244D01*
X021821Y018982D01*
X021821Y018698D01*
X021929Y018436D01*
X022130Y018235D01*
X022392Y018127D01*
X022676Y018127D01*
X022938Y018235D01*
X023139Y018436D01*
X023248Y018698D01*
X023248Y018982D01*
X023139Y019244D01*
X022938Y019445D01*
X022676Y019554D01*
X022392Y019554D01*
X022100Y019416D02*
X014690Y019416D01*
X014731Y019399D02*
X014469Y019507D01*
X014185Y019507D01*
X013923Y019399D01*
X013722Y019198D01*
X013613Y018936D01*
X013613Y018652D01*
X013722Y018390D01*
X013923Y018189D01*
X014185Y018080D01*
X014469Y018080D01*
X014731Y018189D01*
X014932Y018390D01*
X015040Y018652D01*
X015040Y018936D01*
X014932Y019198D01*
X014731Y019399D01*
X014833Y019297D02*
X021982Y019297D01*
X021902Y019179D02*
X014940Y019179D01*
X014989Y019060D02*
X021853Y019060D01*
X021821Y018942D02*
X015038Y018942D01*
X015040Y018823D02*
X021821Y018823D01*
X021821Y018705D02*
X015040Y018705D01*
X015013Y018586D02*
X021867Y018586D01*
X021916Y018468D02*
X014964Y018468D01*
X014891Y018349D02*
X022016Y018349D01*
X022142Y018231D02*
X014772Y018231D01*
X014545Y018112D02*
X029925Y018112D01*
X030043Y017994D02*
X012520Y017994D01*
X012520Y018112D02*
X014108Y018112D01*
X013881Y018231D02*
X012633Y018231D01*
X012752Y018349D02*
X013763Y018349D01*
X013690Y018468D02*
X012870Y018468D01*
X012989Y018586D02*
X013641Y018586D01*
X013613Y018705D02*
X013107Y018705D01*
X013226Y018823D02*
X013613Y018823D01*
X013616Y018942D02*
X013344Y018942D01*
X013463Y019060D02*
X013665Y019060D01*
X013714Y019179D02*
X013581Y019179D01*
X013700Y019297D02*
X013821Y019297D01*
X013818Y019416D02*
X013963Y019416D01*
X015603Y020601D02*
X016437Y020601D01*
X016556Y020719D02*
X015722Y020719D01*
X015840Y020838D02*
X016674Y020838D01*
X016793Y020956D02*
X015959Y020956D01*
X016077Y021075D02*
X016911Y021075D01*
X016920Y021193D02*
X016196Y021193D01*
X016314Y021312D02*
X016920Y021312D01*
X016920Y021430D02*
X016320Y021430D01*
X016320Y021549D02*
X016920Y021549D01*
X016920Y021667D02*
X016320Y021667D01*
X016385Y021786D02*
X016815Y021786D01*
X016697Y021904D02*
X016503Y021904D01*
X016550Y022023D02*
X016650Y022023D01*
X016650Y022141D02*
X016550Y022141D01*
X016550Y022260D02*
X016650Y022260D01*
X016705Y022378D02*
X016495Y022378D01*
X016377Y022497D02*
X016823Y022497D01*
X017100Y022137D02*
X017120Y022117D01*
X017385Y021786D02*
X017815Y021786D01*
X017820Y021667D02*
X017320Y021667D01*
X017320Y021549D02*
X017820Y021549D01*
X017820Y021430D02*
X017320Y021430D01*
X017320Y021312D02*
X017820Y021312D01*
X017820Y021193D02*
X017320Y021193D01*
X017320Y021075D02*
X017820Y021075D01*
X017820Y020956D02*
X017320Y020956D01*
X017240Y020838D02*
X017820Y020838D01*
X017820Y020719D02*
X017122Y020719D01*
X017003Y020601D02*
X017936Y020601D01*
X018055Y020482D02*
X016885Y020482D01*
X016766Y020364D02*
X018173Y020364D01*
X018292Y020245D02*
X016648Y020245D01*
X016529Y020127D02*
X018410Y020127D01*
X018529Y020008D02*
X016411Y020008D01*
X016292Y019890D02*
X018647Y019890D01*
X018766Y019771D02*
X016174Y019771D01*
X016055Y019653D02*
X018884Y019653D01*
X019094Y020008D02*
X019629Y020008D01*
X019510Y020127D02*
X018976Y020127D01*
X018857Y020245D02*
X019392Y020245D01*
X019273Y020364D02*
X018739Y020364D01*
X018620Y020482D02*
X019155Y020482D01*
X019036Y020601D02*
X018502Y020601D01*
X018383Y020719D02*
X018920Y020719D01*
X018920Y020838D02*
X018265Y020838D01*
X018220Y020956D02*
X018920Y020956D01*
X018920Y021075D02*
X018220Y021075D01*
X018220Y021193D02*
X018920Y021193D01*
X018920Y021312D02*
X018220Y021312D01*
X018220Y021430D02*
X018920Y021430D01*
X018920Y021549D02*
X018220Y021549D01*
X018220Y021667D02*
X018920Y021667D01*
X018815Y021786D02*
X018385Y021786D01*
X018503Y021904D02*
X018697Y021904D01*
X018650Y022023D02*
X018550Y022023D01*
X018550Y022141D02*
X018650Y022141D01*
X018650Y022260D02*
X018550Y022260D01*
X018495Y022378D02*
X018705Y022378D01*
X018823Y022497D02*
X018377Y022497D01*
X018100Y022137D02*
X018020Y022057D01*
X017697Y021904D02*
X017503Y021904D01*
X017550Y022023D02*
X017650Y022023D01*
X017650Y022141D02*
X017550Y022141D01*
X017550Y022260D02*
X017650Y022260D01*
X017705Y022378D02*
X017495Y022378D01*
X017377Y022497D02*
X017823Y022497D01*
X019100Y022137D02*
X019120Y022117D01*
X019385Y021786D02*
X020415Y021786D01*
X020420Y021667D02*
X019320Y021667D01*
X019320Y021549D02*
X020420Y021549D01*
X020420Y021430D02*
X019320Y021430D01*
X019320Y021312D02*
X020420Y021312D01*
X020420Y021193D02*
X019320Y021193D01*
X019320Y021075D02*
X020462Y021075D01*
X020581Y020956D02*
X019320Y020956D01*
X019365Y020838D02*
X020699Y020838D01*
X020818Y020719D02*
X019483Y020719D01*
X019602Y020601D02*
X020936Y020601D01*
X021055Y020482D02*
X019720Y020482D01*
X019839Y020364D02*
X021173Y020364D01*
X021502Y020601D02*
X022036Y020601D01*
X021918Y020719D02*
X021383Y020719D01*
X021265Y020838D02*
X021799Y020838D01*
X021681Y020956D02*
X021146Y020956D01*
X021028Y021075D02*
X021562Y021075D01*
X021444Y021193D02*
X020909Y021193D01*
X020820Y021312D02*
X021420Y021312D01*
X021420Y021430D02*
X020820Y021430D01*
X020820Y021549D02*
X021420Y021549D01*
X021420Y021667D02*
X020820Y021667D01*
X020985Y021786D02*
X021415Y021786D01*
X021297Y021904D02*
X021103Y021904D01*
X021150Y022023D02*
X021250Y022023D01*
X021250Y022141D02*
X021150Y022141D01*
X021150Y022260D02*
X021250Y022260D01*
X021305Y022378D02*
X021095Y022378D01*
X020977Y022497D02*
X021423Y022497D01*
X021977Y022497D02*
X022423Y022497D01*
X022514Y022587D02*
X022250Y022323D01*
X022250Y021951D01*
X022514Y021687D01*
X022886Y021687D01*
X023150Y021951D01*
X023150Y022323D01*
X022886Y022587D01*
X022514Y022587D01*
X022305Y022378D02*
X022095Y022378D01*
X022150Y022260D02*
X022250Y022260D01*
X022250Y022141D02*
X022150Y022141D01*
X022150Y022023D02*
X022250Y022023D01*
X022297Y021904D02*
X022103Y021904D01*
X021985Y021786D02*
X022415Y021786D01*
X022985Y021786D02*
X023415Y021786D01*
X023514Y021687D02*
X023250Y021951D01*
X023250Y022323D01*
X023514Y022587D01*
X023886Y022587D01*
X024150Y022323D01*
X024150Y021951D01*
X023886Y021687D01*
X023514Y021687D01*
X023297Y021904D02*
X023103Y021904D01*
X023150Y022023D02*
X023250Y022023D01*
X023250Y022141D02*
X023150Y022141D01*
X023150Y022260D02*
X023250Y022260D01*
X023305Y022378D02*
X023095Y022378D01*
X022977Y022497D02*
X023423Y022497D01*
X023977Y022497D02*
X024423Y022497D01*
X024514Y022587D02*
X024250Y022323D01*
X024250Y021951D01*
X024514Y021687D01*
X024886Y021687D01*
X025150Y021951D01*
X025150Y022323D01*
X024886Y022587D01*
X024514Y022587D01*
X024305Y022378D02*
X024095Y022378D01*
X024150Y022260D02*
X024250Y022260D01*
X024250Y022141D02*
X024150Y022141D01*
X024150Y022023D02*
X024250Y022023D01*
X024297Y021904D02*
X024103Y021904D01*
X023985Y021786D02*
X024415Y021786D01*
X024985Y021786D02*
X025415Y021786D01*
X025514Y021687D02*
X025886Y021687D01*
X026150Y021951D01*
X026150Y022323D01*
X025886Y022587D01*
X025514Y022587D01*
X025250Y022323D01*
X025250Y021951D01*
X025514Y021687D01*
X025297Y021904D02*
X025103Y021904D01*
X025150Y022023D02*
X025250Y022023D01*
X025250Y022141D02*
X025150Y022141D01*
X025150Y022260D02*
X025250Y022260D01*
X025305Y022378D02*
X025095Y022378D01*
X024977Y022497D02*
X025423Y022497D01*
X025977Y022497D02*
X026423Y022497D01*
X026514Y022587D02*
X026250Y022323D01*
X026250Y021951D01*
X026514Y021687D01*
X026886Y021687D01*
X027150Y021951D01*
X027150Y022323D01*
X026886Y022587D01*
X026514Y022587D01*
X026305Y022378D02*
X026095Y022378D01*
X026150Y022260D02*
X026250Y022260D01*
X026250Y022141D02*
X026150Y022141D01*
X026150Y022023D02*
X026250Y022023D01*
X026297Y021904D02*
X026103Y021904D01*
X025985Y021786D02*
X026415Y021786D01*
X026985Y021786D02*
X027415Y021786D01*
X027514Y021687D02*
X027886Y021687D01*
X028150Y021951D01*
X028150Y022323D01*
X027886Y022587D01*
X027514Y022587D01*
X027250Y022323D01*
X027250Y021951D01*
X027514Y021687D01*
X027297Y021904D02*
X027103Y021904D01*
X027150Y022023D02*
X027250Y022023D01*
X027250Y022141D02*
X027150Y022141D01*
X027150Y022260D02*
X027250Y022260D01*
X027305Y022378D02*
X027095Y022378D01*
X026977Y022497D02*
X027423Y022497D01*
X027977Y022497D02*
X040886Y022497D01*
X040862Y022472D02*
X040785Y022287D01*
X040785Y022086D01*
X040862Y021901D01*
X041004Y021759D01*
X041189Y021683D01*
X041389Y021683D01*
X041574Y021759D01*
X041716Y021901D01*
X041793Y022086D01*
X041793Y022287D01*
X041716Y022472D01*
X041574Y022614D01*
X041389Y022690D01*
X041189Y022690D01*
X041004Y022614D01*
X040862Y022472D01*
X040823Y022378D02*
X028095Y022378D01*
X028150Y022260D02*
X040785Y022260D01*
X040785Y022141D02*
X028150Y022141D01*
X028150Y022023D02*
X040812Y022023D01*
X040861Y021904D02*
X028103Y021904D01*
X027985Y021786D02*
X040977Y021786D01*
X041600Y021786D02*
X044179Y021786D01*
X044179Y021904D02*
X041717Y021904D01*
X041766Y022023D02*
X042906Y022023D01*
X042789Y022141D02*
X041793Y022141D01*
X041793Y022260D02*
X042740Y022260D01*
X042714Y022378D02*
X041755Y022378D01*
X041692Y022497D02*
X042714Y022497D01*
X042752Y022615D02*
X041571Y022615D01*
X041007Y022615D02*
X013315Y022615D01*
X013303Y022627D02*
X013138Y022627D01*
X013138Y022175D01*
X013590Y022175D01*
X013590Y022340D01*
X013303Y022627D01*
X013138Y022615D02*
X013062Y022615D01*
X013062Y022627D02*
X012897Y022627D01*
X012610Y022340D01*
X012610Y022175D01*
X013062Y022175D01*
X013062Y022099D01*
X013138Y022099D01*
X013138Y021647D01*
X013303Y021647D01*
X013590Y021934D01*
X013590Y022099D01*
X013138Y022099D01*
X013138Y022175D01*
X013062Y022175D01*
X013062Y022627D01*
X013062Y022497D02*
X013138Y022497D01*
X013138Y022378D02*
X013062Y022378D01*
X013062Y022260D02*
X013138Y022260D01*
X013138Y022141D02*
X013650Y022141D01*
X013650Y022023D02*
X013590Y022023D01*
X013584Y021904D02*
X013560Y021904D01*
X013466Y021786D02*
X013442Y021786D01*
X013347Y021667D02*
X013323Y021667D01*
X013138Y021667D02*
X013062Y021667D01*
X013062Y021647D02*
X013062Y022099D01*
X012610Y022099D01*
X012610Y021934D01*
X012897Y021647D01*
X013062Y021647D01*
X013062Y021786D02*
X013138Y021786D01*
X013138Y021904D02*
X013062Y021904D01*
X013062Y022023D02*
X013138Y022023D01*
X013062Y022141D02*
X012550Y022141D01*
X012550Y022023D02*
X012610Y022023D01*
X012550Y021951D02*
X012286Y021687D01*
X011914Y021687D01*
X011650Y021951D01*
X011650Y022323D01*
X011914Y022587D01*
X012286Y022587D01*
X012550Y022323D01*
X012550Y021951D01*
X012503Y021904D02*
X012640Y021904D01*
X012758Y021786D02*
X012385Y021786D01*
X012877Y021667D02*
X008792Y021667D01*
X008792Y021549D02*
X011185Y021549D01*
X011067Y021430D02*
X008792Y021430D01*
X008792Y021312D02*
X010948Y021312D01*
X010830Y021193D02*
X008792Y021193D01*
X008792Y021075D02*
X010711Y021075D01*
X010593Y020956D02*
X008792Y020956D01*
X008792Y020838D02*
X010474Y020838D01*
X010356Y020719D02*
X008792Y020719D01*
X008792Y020601D02*
X010237Y020601D01*
X010120Y020482D02*
X008792Y020482D01*
X008792Y020364D02*
X010120Y020364D01*
X010120Y020245D02*
X008792Y020245D01*
X008792Y020127D02*
X010120Y020127D01*
X010120Y020008D02*
X008792Y020008D01*
X008792Y019890D02*
X010120Y019890D01*
X010120Y019771D02*
X008792Y019771D01*
X008792Y019653D02*
X010120Y019653D01*
X010120Y019534D02*
X008792Y019534D01*
X008792Y019416D02*
X010120Y019416D01*
X010120Y019297D02*
X008792Y019297D01*
X008792Y019179D02*
X010120Y019179D01*
X010120Y019060D02*
X008792Y019060D01*
X008792Y018942D02*
X010120Y018942D01*
X010120Y018823D02*
X008792Y018823D01*
X008792Y018705D02*
X010120Y018705D01*
X010120Y018586D02*
X008792Y018586D01*
X008792Y018468D02*
X010120Y018468D01*
X010120Y018349D02*
X008792Y018349D01*
X008792Y018231D02*
X010120Y018231D01*
X010120Y018112D02*
X008792Y018112D01*
X008792Y017994D02*
X010120Y017994D01*
X010120Y017875D02*
X008792Y017875D01*
X008792Y017757D02*
X010120Y017757D01*
X010120Y017638D02*
X008792Y017638D01*
X008792Y017520D02*
X010120Y017520D01*
X010120Y017401D02*
X008792Y017401D01*
X008792Y017283D02*
X010120Y017283D01*
X010120Y017164D02*
X008792Y017164D01*
X008792Y017046D02*
X010120Y017046D01*
X010120Y016927D02*
X008792Y016927D01*
X008792Y016809D02*
X010120Y016809D01*
X010120Y016690D02*
X008792Y016690D01*
X008792Y016572D02*
X010120Y016572D01*
X010120Y016453D02*
X008792Y016453D01*
X008792Y016335D02*
X010120Y016335D01*
X010120Y016216D02*
X008792Y016216D01*
X008792Y016098D02*
X010120Y016098D01*
X010120Y015979D02*
X008792Y015979D01*
X008792Y015861D02*
X010120Y015861D01*
X010195Y015742D02*
X008792Y015742D01*
X008792Y015624D02*
X010313Y015624D01*
X010179Y015505D02*
X008792Y015505D01*
X008792Y015387D02*
X009910Y015387D01*
X009792Y015268D02*
X008792Y015268D01*
X008792Y015150D02*
X009702Y015150D01*
X009653Y015031D02*
X008792Y015031D01*
X008792Y014913D02*
X009613Y014913D01*
X009613Y014794D02*
X008792Y014794D01*
X008792Y014676D02*
X009613Y014676D01*
X009653Y014557D02*
X008792Y014557D01*
X008792Y014439D02*
X009702Y014439D01*
X009792Y014320D02*
X008792Y014320D01*
X008792Y014202D02*
X009910Y014202D01*
X010178Y014083D02*
X008792Y014083D01*
X012520Y017283D02*
X029519Y017283D01*
X029497Y017275D02*
X029437Y017245D01*
X029384Y017206D01*
X029337Y017159D01*
X029297Y017105D01*
X029267Y017046D01*
X029247Y016982D01*
X029236Y016917D01*
X029236Y016911D01*
X029631Y016911D01*
X029631Y016856D01*
X029236Y016856D01*
X029236Y016850D01*
X029247Y016784D01*
X029267Y016721D01*
X029297Y016662D01*
X029337Y016608D01*
X029384Y016561D01*
X029437Y016522D01*
X029497Y016492D01*
X029560Y016471D01*
X029626Y016461D01*
X029631Y016461D01*
X029631Y016856D01*
X029687Y016856D01*
X029687Y016911D01*
X030082Y016911D01*
X030082Y016917D01*
X030071Y016982D01*
X030051Y017046D01*
X030021Y017105D01*
X029982Y017159D01*
X029934Y017206D01*
X029881Y017245D01*
X029821Y017275D01*
X029758Y017296D01*
X029692Y017306D01*
X029687Y017306D01*
X029687Y016911D01*
X029631Y016911D01*
X029631Y017306D01*
X029626Y017306D01*
X029560Y017296D01*
X029497Y017275D01*
X029631Y017283D02*
X029687Y017283D01*
X029799Y017283D02*
X037376Y017283D01*
X037353Y017275D02*
X037294Y017245D01*
X037240Y017206D01*
X037193Y017159D01*
X037154Y017105D01*
X037124Y017046D01*
X037103Y016982D01*
X037093Y016917D01*
X037093Y016911D01*
X037488Y016911D01*
X037488Y017306D01*
X037482Y017306D01*
X037416Y017296D01*
X037353Y017275D01*
X037488Y017283D02*
X037543Y017283D01*
X037549Y017306D02*
X037543Y017306D01*
X037543Y016911D01*
X037938Y016911D01*
X037938Y016917D01*
X037928Y016982D01*
X037907Y017046D01*
X037877Y017105D01*
X037838Y017159D01*
X037791Y017206D01*
X037737Y017245D01*
X037678Y017275D01*
X037614Y017296D01*
X037549Y017306D01*
X037655Y017283D02*
X037754Y017283D01*
X037833Y017164D02*
X037873Y017164D01*
X037907Y017046D02*
X037991Y017046D01*
X037937Y016927D02*
X038110Y016927D01*
X038220Y016809D02*
X037932Y016809D01*
X037928Y016784D02*
X037938Y016850D01*
X037938Y016856D01*
X037543Y016856D01*
X037543Y016911D01*
X037488Y016911D01*
X037488Y016856D01*
X037543Y016856D01*
X037543Y016461D01*
X037549Y016461D01*
X037614Y016471D01*
X037678Y016492D01*
X037737Y016522D01*
X037791Y016561D01*
X037838Y016608D01*
X037877Y016662D01*
X037907Y016721D01*
X037928Y016784D01*
X037891Y016690D02*
X038220Y016690D01*
X038220Y016572D02*
X037801Y016572D01*
X037543Y016572D02*
X037488Y016572D01*
X037488Y016461D02*
X037488Y016856D01*
X037093Y016856D01*
X037093Y016850D01*
X037103Y016784D01*
X037124Y016721D01*
X037154Y016662D01*
X037193Y016608D01*
X037240Y016561D01*
X037294Y016522D01*
X037353Y016492D01*
X037416Y016471D01*
X037482Y016461D01*
X037488Y016461D01*
X037488Y016690D02*
X037543Y016690D01*
X037543Y016809D02*
X037488Y016809D01*
X037488Y016927D02*
X037543Y016927D01*
X037543Y017046D02*
X037488Y017046D01*
X037488Y017164D02*
X037543Y017164D01*
X037636Y017401D02*
X012520Y017401D01*
X012520Y017520D02*
X037517Y017520D01*
X037399Y017638D02*
X032855Y017638D01*
X032322Y017638D02*
X012520Y017638D01*
X012520Y017757D02*
X030280Y017757D01*
X030162Y017875D02*
X012520Y017875D01*
X013532Y017164D02*
X020316Y017164D01*
X020205Y017046D02*
X013667Y017046D01*
X015845Y020008D02*
X011120Y020008D01*
X011229Y020127D02*
X015963Y020127D01*
X016082Y020245D02*
X011348Y020245D01*
X011466Y020364D02*
X016200Y020364D01*
X016319Y020482D02*
X011585Y020482D01*
X011815Y021786D02*
X008792Y021786D01*
X008792Y021904D02*
X011697Y021904D01*
X011650Y022023D02*
X008792Y022023D01*
X008792Y022141D02*
X011650Y022141D01*
X011650Y022260D02*
X008792Y022260D01*
X008792Y022378D02*
X011705Y022378D01*
X011823Y022497D02*
X008792Y022497D01*
X008792Y022615D02*
X012885Y022615D01*
X012767Y022497D02*
X012377Y022497D01*
X012495Y022378D02*
X012648Y022378D01*
X012610Y022260D02*
X012550Y022260D01*
X013433Y022497D02*
X013823Y022497D01*
X013705Y022378D02*
X013552Y022378D01*
X013590Y022260D02*
X013650Y022260D01*
X014377Y022497D02*
X014823Y022497D01*
X014705Y022378D02*
X014495Y022378D01*
X014550Y022260D02*
X014650Y022260D01*
X014650Y022141D02*
X014550Y022141D01*
X014550Y022023D02*
X014650Y022023D01*
X014697Y021904D02*
X014503Y021904D01*
X014385Y021786D02*
X014815Y021786D01*
X014820Y021667D02*
X013913Y021667D01*
X013794Y021549D02*
X014785Y021549D01*
X014667Y021430D02*
X013676Y021430D01*
X013557Y021312D02*
X014548Y021312D01*
X014877Y021075D02*
X015511Y021075D01*
X015630Y021193D02*
X014996Y021193D01*
X015114Y021312D02*
X015748Y021312D01*
X015867Y021430D02*
X015220Y021430D01*
X015220Y021549D02*
X015920Y021549D01*
X015920Y021667D02*
X015220Y021667D01*
X015385Y021786D02*
X015815Y021786D01*
X015697Y021904D02*
X015503Y021904D01*
X015550Y022023D02*
X015650Y022023D01*
X015650Y022141D02*
X015550Y022141D01*
X015550Y022260D02*
X015650Y022260D01*
X015705Y022378D02*
X015495Y022378D01*
X015377Y022497D02*
X015823Y022497D01*
X019377Y022497D02*
X020423Y022497D01*
X020305Y022378D02*
X019495Y022378D01*
X019550Y022260D02*
X020250Y022260D01*
X020250Y022141D02*
X019550Y022141D01*
X019550Y022023D02*
X020250Y022023D01*
X020297Y021904D02*
X019503Y021904D01*
X021820Y021667D02*
X044179Y021667D01*
X044179Y021549D02*
X021820Y021549D01*
X021820Y021430D02*
X044179Y021430D01*
X044179Y021312D02*
X021891Y021312D01*
X022009Y021193D02*
X044179Y021193D01*
X044179Y021075D02*
X022128Y021075D01*
X022246Y020956D02*
X044179Y020956D01*
X044179Y020838D02*
X039665Y020838D01*
X039783Y020719D02*
X044179Y020719D01*
X044179Y020601D02*
X039902Y020601D01*
X040020Y020482D02*
X044179Y020482D01*
X044179Y020364D02*
X040139Y020364D01*
X040257Y020245D02*
X044179Y020245D01*
X044179Y020127D02*
X040376Y020127D01*
X040494Y020008D02*
X044179Y020008D01*
X044179Y019890D02*
X040613Y019890D01*
X040731Y019771D02*
X044179Y019771D01*
X044179Y019653D02*
X040820Y019653D01*
X040820Y019534D02*
X044179Y019534D01*
X044179Y019416D02*
X040820Y019416D01*
X040820Y019297D02*
X044179Y019297D01*
X044179Y019179D02*
X040820Y019179D01*
X040820Y019060D02*
X044179Y019060D01*
X044179Y018942D02*
X040820Y018942D01*
X040820Y018823D02*
X044179Y018823D01*
X044179Y018705D02*
X040820Y018705D01*
X040820Y018586D02*
X044179Y018586D01*
X044179Y018468D02*
X040820Y018468D01*
X040820Y018349D02*
X044179Y018349D01*
X044179Y018231D02*
X040820Y018231D01*
X040820Y018112D02*
X044179Y018112D01*
X044179Y017994D02*
X040820Y017994D01*
X040820Y017875D02*
X044179Y017875D01*
X044179Y017757D02*
X040820Y017757D01*
X040820Y017638D02*
X044179Y017638D01*
X044179Y017520D02*
X040820Y017520D01*
X040820Y017401D02*
X044179Y017401D01*
X044179Y017283D02*
X040820Y017283D01*
X040820Y017164D02*
X044179Y017164D01*
X044179Y017046D02*
X040820Y017046D01*
X040820Y016927D02*
X041057Y016927D01*
X040907Y016809D02*
X040820Y016809D01*
X040820Y016690D02*
X040831Y016690D01*
X041521Y016927D02*
X044179Y016927D01*
X044179Y016809D02*
X041671Y016809D01*
X041747Y016690D02*
X042984Y016690D01*
X042933Y016669D02*
X042791Y016527D01*
X042714Y016342D01*
X042714Y016142D01*
X042791Y015956D01*
X042933Y015815D01*
X043118Y015738D01*
X043318Y015738D01*
X043504Y015815D01*
X043645Y015956D01*
X043722Y016142D01*
X043722Y016342D01*
X043645Y016527D01*
X043504Y016669D01*
X043318Y016746D01*
X043118Y016746D01*
X042933Y016669D01*
X042835Y016572D02*
X041793Y016572D01*
X041793Y016453D02*
X042760Y016453D01*
X042714Y016335D02*
X041775Y016335D01*
X041726Y016216D02*
X042714Y016216D01*
X042732Y016098D02*
X041621Y016098D01*
X041401Y015979D02*
X042782Y015979D01*
X042887Y015861D02*
X041220Y015861D01*
X041220Y015742D02*
X043108Y015742D01*
X043328Y015742D02*
X044179Y015742D01*
X044179Y015624D02*
X041220Y015624D01*
X041220Y015505D02*
X044179Y015505D01*
X044179Y015387D02*
X041220Y015387D01*
X041220Y015268D02*
X044179Y015268D01*
X044179Y015150D02*
X041220Y015150D01*
X041220Y015031D02*
X044179Y015031D01*
X044179Y014913D02*
X041220Y014913D01*
X041220Y014794D02*
X044179Y014794D01*
X044179Y014676D02*
X041220Y014676D01*
X041220Y014557D02*
X044179Y014557D01*
X044179Y014439D02*
X041220Y014439D01*
X041220Y014320D02*
X044179Y014320D01*
X044179Y014202D02*
X041220Y014202D01*
X041220Y014083D02*
X044179Y014083D01*
X044179Y013965D02*
X041220Y013965D01*
X041220Y013846D02*
X044179Y013846D01*
X044179Y013728D02*
X041220Y013728D01*
X041220Y013609D02*
X042576Y013609D01*
X042610Y013643D02*
X042500Y013534D01*
X042441Y013390D01*
X042441Y013235D01*
X042500Y013092D01*
X042610Y012982D01*
X042753Y012923D01*
X043449Y012923D01*
X043592Y012982D01*
X043702Y013092D01*
X043761Y013235D01*
X043761Y013390D01*
X043702Y013534D01*
X043592Y013643D01*
X043449Y013703D01*
X042753Y013703D01*
X042610Y013643D01*
X042483Y013491D02*
X041220Y013491D01*
X041220Y013372D02*
X042441Y013372D01*
X042441Y013254D02*
X041220Y013254D01*
X041220Y013135D02*
X042482Y013135D01*
X042576Y013017D02*
X041220Y013017D01*
X041220Y012898D02*
X044179Y012898D01*
X044179Y012780D02*
X041220Y012780D01*
X041220Y012661D02*
X042653Y012661D01*
X042610Y012643D02*
X042500Y012534D01*
X042441Y012390D01*
X042441Y012235D01*
X042500Y012092D01*
X042610Y011982D01*
X042753Y011923D01*
X043449Y011923D01*
X043592Y011982D01*
X043702Y012092D01*
X043761Y012235D01*
X043761Y012390D01*
X043702Y012534D01*
X043592Y012643D01*
X043449Y012703D01*
X042753Y012703D01*
X042610Y012643D01*
X042509Y012543D02*
X041220Y012543D01*
X041220Y012424D02*
X042455Y012424D01*
X042441Y012306D02*
X041220Y012306D01*
X041220Y012187D02*
X042461Y012187D01*
X042524Y012069D02*
X041220Y012069D01*
X041220Y011950D02*
X042687Y011950D01*
X042730Y011732D02*
X042666Y011711D01*
X042606Y011680D01*
X042551Y011641D01*
X042503Y011593D01*
X042463Y011538D01*
X042432Y011478D01*
X042412Y011413D01*
X042401Y011346D01*
X042401Y011343D01*
X043071Y011343D01*
X043071Y011743D01*
X042797Y011743D01*
X042730Y011732D01*
X042672Y011713D02*
X041220Y011713D01*
X041220Y011595D02*
X042505Y011595D01*
X042432Y011476D02*
X041220Y011476D01*
X041220Y011358D02*
X042403Y011358D01*
X042401Y011283D02*
X042401Y011279D01*
X042412Y011212D01*
X042432Y011148D01*
X042463Y011087D01*
X042503Y011032D01*
X042551Y010985D01*
X042606Y010945D01*
X042666Y010914D01*
X042730Y010893D01*
X042797Y010883D01*
X043071Y010883D01*
X043071Y011283D01*
X042401Y011283D01*
X042407Y011239D02*
X041220Y011239D01*
X041220Y011121D02*
X042446Y011121D01*
X042533Y011002D02*
X041220Y011002D01*
X041220Y010884D02*
X042791Y010884D01*
X043071Y010884D02*
X043131Y010884D01*
X043131Y010883D02*
X043405Y010883D01*
X043472Y010893D01*
X043536Y010914D01*
X043596Y010945D01*
X043651Y010985D01*
X043699Y011032D01*
X043739Y011087D01*
X043769Y011148D01*
X043790Y011212D01*
X043801Y011279D01*
X043801Y011283D01*
X043131Y011283D01*
X043131Y011343D01*
X043071Y011343D01*
X043071Y011283D01*
X043131Y011283D01*
X043131Y010883D01*
X043131Y011002D02*
X043071Y011002D01*
X043071Y011121D02*
X043131Y011121D01*
X043131Y011239D02*
X043071Y011239D01*
X043071Y011358D02*
X043131Y011358D01*
X043131Y011343D02*
X043131Y011743D01*
X043405Y011743D01*
X043472Y011732D01*
X043536Y011711D01*
X043596Y011680D01*
X043651Y011641D01*
X043699Y011593D01*
X043739Y011538D01*
X043769Y011478D01*
X043790Y011413D01*
X043801Y011346D01*
X043801Y011343D01*
X043131Y011343D01*
X043131Y011476D02*
X043071Y011476D01*
X043071Y011595D02*
X043131Y011595D01*
X043131Y011713D02*
X043071Y011713D01*
X043530Y011713D02*
X044179Y011713D01*
X044179Y011595D02*
X043697Y011595D01*
X043770Y011476D02*
X044179Y011476D01*
X044179Y011358D02*
X043799Y011358D01*
X043795Y011239D02*
X044179Y011239D01*
X044179Y011121D02*
X043756Y011121D01*
X043669Y011002D02*
X044179Y011002D01*
X044179Y010884D02*
X043411Y010884D01*
X044179Y010765D02*
X041220Y010765D01*
X041220Y010647D02*
X044179Y010647D01*
X044179Y010528D02*
X041220Y010528D01*
X041220Y010410D02*
X044179Y010410D01*
X044179Y010291D02*
X041220Y010291D01*
X041220Y010173D02*
X044179Y010173D01*
X044179Y010054D02*
X041220Y010054D01*
X041220Y009936D02*
X044179Y009936D01*
X044179Y009817D02*
X041220Y009817D01*
X041220Y009699D02*
X044179Y009699D01*
X044179Y009580D02*
X041220Y009580D01*
X041220Y009462D02*
X044179Y009462D01*
X044179Y009343D02*
X041220Y009343D01*
X041220Y009225D02*
X044179Y009225D01*
X044179Y009106D02*
X041220Y009106D01*
X041220Y008988D02*
X044179Y008988D01*
X044179Y008869D02*
X041220Y008869D01*
X041220Y008751D02*
X044179Y008751D01*
X044179Y008632D02*
X041220Y008632D01*
X041220Y008514D02*
X044179Y008514D01*
X044179Y008395D02*
X041220Y008395D01*
X041220Y008277D02*
X044179Y008277D01*
X044179Y008158D02*
X041220Y008158D01*
X041220Y008040D02*
X044179Y008040D01*
X044179Y007921D02*
X041220Y007921D01*
X041220Y007803D02*
X044179Y007803D01*
X044179Y007684D02*
X041220Y007684D01*
X041220Y007566D02*
X044179Y007566D01*
X044179Y007447D02*
X041220Y007447D01*
X041220Y007329D02*
X044179Y007329D01*
X044179Y007210D02*
X041220Y007210D01*
X041220Y007092D02*
X044179Y007092D01*
X044179Y006973D02*
X041220Y006973D01*
X041220Y006855D02*
X044179Y006855D01*
X044179Y006736D02*
X041220Y006736D01*
X041220Y006618D02*
X044179Y006618D01*
X044179Y006499D02*
X041220Y006499D01*
X041220Y006381D02*
X044179Y006381D01*
X044179Y006262D02*
X041220Y006262D01*
X041220Y006144D02*
X044179Y006144D01*
X044179Y006025D02*
X041220Y006025D01*
X041220Y005907D02*
X044179Y005907D01*
X044179Y005788D02*
X041220Y005788D01*
X041220Y005670D02*
X044179Y005670D01*
X044179Y005551D02*
X041220Y005551D01*
X041220Y005433D02*
X044179Y005433D01*
X044179Y005314D02*
X041220Y005314D01*
X041220Y005196D02*
X044179Y005196D01*
X044179Y005077D02*
X041220Y005077D01*
X041220Y004959D02*
X044179Y004959D01*
X044179Y004840D02*
X041143Y004840D01*
X041103Y004800D02*
X041103Y004800D01*
X041024Y004722D02*
X044179Y004722D01*
X044179Y004603D02*
X040906Y004603D01*
X040787Y004485D02*
X044179Y004485D01*
X044179Y004366D02*
X040669Y004366D01*
X040550Y004248D02*
X044179Y004248D01*
X044179Y004129D02*
X040432Y004129D01*
X040313Y004011D02*
X044179Y004011D01*
X039888Y005551D02*
X036952Y005551D01*
X037070Y005433D02*
X039769Y005433D01*
X039651Y005314D02*
X037189Y005314D01*
X036860Y005077D02*
X029626Y005077D01*
X029507Y005196D02*
X036741Y005196D01*
X036623Y005314D02*
X029389Y005314D01*
X029270Y005433D02*
X036504Y005433D01*
X036537Y005400D02*
X036537Y005400D01*
X036420Y005551D02*
X029152Y005551D01*
X029033Y005670D02*
X034283Y005670D01*
X034162Y005720D02*
X034424Y005611D01*
X034708Y005611D01*
X034970Y005720D01*
X035171Y005920D01*
X035279Y006182D01*
X035279Y006466D01*
X035171Y006729D01*
X034970Y006929D01*
X034708Y007038D01*
X034424Y007038D01*
X034162Y006929D01*
X033961Y006729D01*
X033852Y006466D01*
X033852Y006182D01*
X033961Y005920D01*
X034162Y005720D01*
X034093Y005788D02*
X028915Y005788D01*
X028861Y005907D02*
X033975Y005907D01*
X033918Y006025D02*
X028861Y006025D01*
X028861Y006144D02*
X033869Y006144D01*
X033852Y006262D02*
X028861Y006262D01*
X028861Y006381D02*
X033852Y006381D01*
X033866Y006499D02*
X028861Y006499D01*
X028861Y006618D02*
X033915Y006618D01*
X033969Y006736D02*
X028861Y006736D01*
X028861Y006855D02*
X034087Y006855D01*
X034267Y006973D02*
X028861Y006973D01*
X028861Y007092D02*
X036420Y007092D01*
X036420Y007210D02*
X028861Y007210D01*
X028861Y007329D02*
X036420Y007329D01*
X036420Y007447D02*
X028861Y007447D01*
X028861Y007566D02*
X036420Y007566D01*
X036420Y007684D02*
X028861Y007684D01*
X028861Y007803D02*
X036420Y007803D01*
X036420Y007921D02*
X029798Y007921D01*
X029823Y007929D02*
X029760Y007908D01*
X029694Y007898D01*
X029688Y007898D01*
X029688Y008293D01*
X029633Y008293D01*
X029633Y007898D01*
X029628Y007898D01*
X029562Y007908D01*
X029498Y007929D01*
X029439Y007959D01*
X029385Y007998D01*
X029338Y008045D01*
X029299Y008099D01*
X029269Y008159D01*
X029248Y008222D01*
X029238Y008288D01*
X029238Y008293D01*
X029633Y008293D01*
X029633Y008348D01*
X029238Y008348D01*
X029238Y008354D01*
X029248Y008420D01*
X029269Y008483D01*
X029299Y008542D01*
X029338Y008596D01*
X029385Y008643D01*
X029439Y008682D01*
X029498Y008713D01*
X029562Y008733D01*
X029628Y008744D01*
X029633Y008744D01*
X029633Y008348D01*
X029688Y008348D01*
X030084Y008348D01*
X030084Y008354D01*
X030073Y008420D01*
X030053Y008483D01*
X030022Y008542D01*
X029983Y008596D01*
X029936Y008643D01*
X029882Y008682D01*
X029823Y008713D01*
X029760Y008733D01*
X029694Y008744D01*
X029688Y008744D01*
X029688Y008348D01*
X029688Y008293D01*
X030084Y008293D01*
X030084Y008288D01*
X030073Y008222D01*
X030053Y008159D01*
X030022Y008099D01*
X029983Y008045D01*
X029936Y007998D01*
X029882Y007959D01*
X029823Y007929D01*
X029688Y007921D02*
X029633Y007921D01*
X029523Y007921D02*
X028861Y007921D01*
X028921Y008040D02*
X029344Y008040D01*
X029269Y008158D02*
X029008Y008158D01*
X029044Y008277D02*
X029240Y008277D01*
X029244Y008395D02*
X029044Y008395D01*
X028995Y008514D02*
X029284Y008514D01*
X029374Y008632D02*
X028891Y008632D01*
X028431Y008632D02*
X022019Y008632D01*
X022098Y008514D02*
X028326Y008514D01*
X028278Y008395D02*
X022131Y008395D01*
X022129Y008277D02*
X028278Y008277D01*
X028314Y008158D02*
X022092Y008158D01*
X022007Y008040D02*
X028401Y008040D01*
X028461Y007921D02*
X021758Y007921D01*
X021739Y007921D02*
X021684Y007921D01*
X021684Y007919D02*
X021684Y008314D01*
X021289Y008314D01*
X021289Y008308D01*
X021299Y008243D01*
X021320Y008179D01*
X021350Y008120D01*
X021389Y008066D01*
X021436Y008019D01*
X021490Y007980D01*
X021549Y007950D01*
X021612Y007929D01*
X021678Y007919D01*
X021684Y007919D01*
X021665Y007921D02*
X020820Y007921D01*
X020820Y007803D02*
X028461Y007803D01*
X028461Y007684D02*
X020820Y007684D01*
X020820Y007566D02*
X028461Y007566D01*
X028461Y007447D02*
X020820Y007447D01*
X020820Y007329D02*
X028461Y007329D01*
X028461Y007210D02*
X020820Y007210D01*
X020820Y007092D02*
X028461Y007092D01*
X028461Y006973D02*
X026951Y006973D01*
X027065Y006926D02*
X026803Y007034D01*
X026519Y007034D01*
X026257Y006926D01*
X026056Y006725D01*
X025947Y006463D01*
X025947Y006179D01*
X026056Y005917D01*
X026257Y005716D01*
X026519Y005607D01*
X026803Y005607D01*
X027065Y005716D01*
X027266Y005917D01*
X027374Y006179D01*
X027374Y006463D01*
X027266Y006725D01*
X027065Y006926D01*
X027136Y006855D02*
X028461Y006855D01*
X028461Y006736D02*
X027255Y006736D01*
X027310Y006618D02*
X028461Y006618D01*
X028461Y006499D02*
X027359Y006499D01*
X027374Y006381D02*
X028461Y006381D01*
X028461Y006262D02*
X027374Y006262D01*
X027360Y006144D02*
X028461Y006144D01*
X028461Y006025D02*
X027311Y006025D01*
X027255Y005907D02*
X028461Y005907D01*
X028461Y005788D02*
X027137Y005788D01*
X026953Y005670D02*
X028467Y005670D01*
X028586Y005551D02*
X021352Y005551D01*
X021470Y005433D02*
X028704Y005433D01*
X028823Y005314D02*
X021589Y005314D01*
X021707Y005196D02*
X028941Y005196D01*
X029060Y005077D02*
X021826Y005077D01*
X021944Y004959D02*
X029178Y004959D01*
X029297Y004840D02*
X022063Y004840D01*
X022181Y004722D02*
X029415Y004722D01*
X027463Y003537D02*
X026937Y003537D01*
X026886Y003587D02*
X026514Y003587D01*
X026250Y003323D01*
X026250Y002951D01*
X026514Y002687D01*
X026886Y002687D01*
X027150Y002951D01*
X027150Y003323D01*
X026886Y003587D01*
X027055Y003418D02*
X027345Y003418D01*
X027250Y003300D02*
X027150Y003300D01*
X027150Y003181D02*
X027250Y003181D01*
X027250Y003063D02*
X027150Y003063D01*
X027143Y002944D02*
X027257Y002944D01*
X027375Y002826D02*
X027025Y002826D01*
X026906Y002707D02*
X027494Y002707D01*
X026494Y002707D02*
X025906Y002707D01*
X025886Y002687D02*
X026150Y002951D01*
X026150Y003323D01*
X025886Y003587D01*
X025514Y003587D01*
X025250Y003323D01*
X025250Y002951D01*
X025514Y002687D01*
X025886Y002687D01*
X026025Y002826D02*
X026375Y002826D01*
X026257Y002944D02*
X026143Y002944D01*
X026150Y003063D02*
X026250Y003063D01*
X026250Y003181D02*
X026150Y003181D01*
X026150Y003300D02*
X026250Y003300D01*
X026345Y003418D02*
X026055Y003418D01*
X025937Y003537D02*
X026463Y003537D01*
X025463Y003537D02*
X024937Y003537D01*
X024886Y003587D02*
X024514Y003587D01*
X024250Y003323D01*
X024250Y002951D01*
X024514Y002687D01*
X024886Y002687D01*
X025150Y002951D01*
X025150Y003323D01*
X024886Y003587D01*
X025055Y003418D02*
X025345Y003418D01*
X025250Y003300D02*
X025150Y003300D01*
X025150Y003181D02*
X025250Y003181D01*
X025250Y003063D02*
X025150Y003063D01*
X025143Y002944D02*
X025257Y002944D01*
X025375Y002826D02*
X025025Y002826D01*
X024906Y002707D02*
X025494Y002707D01*
X024494Y002707D02*
X023906Y002707D01*
X023886Y002687D02*
X024150Y002951D01*
X024150Y003323D01*
X023886Y003587D01*
X023514Y003587D01*
X023250Y003323D01*
X023250Y002951D01*
X023514Y002687D01*
X023886Y002687D01*
X024025Y002826D02*
X024375Y002826D01*
X024257Y002944D02*
X024143Y002944D01*
X024150Y003063D02*
X024250Y003063D01*
X024250Y003181D02*
X024150Y003181D01*
X024150Y003300D02*
X024250Y003300D01*
X024345Y003418D02*
X024055Y003418D01*
X023937Y003537D02*
X024463Y003537D01*
X023463Y003537D02*
X022937Y003537D01*
X022886Y003587D02*
X022514Y003587D01*
X022250Y003323D01*
X022250Y002951D01*
X022514Y002687D01*
X022886Y002687D01*
X023150Y002951D01*
X023150Y003323D01*
X022886Y003587D01*
X023055Y003418D02*
X023345Y003418D01*
X023250Y003300D02*
X023150Y003300D01*
X023150Y003181D02*
X023250Y003181D01*
X023250Y003063D02*
X023150Y003063D01*
X023143Y002944D02*
X023257Y002944D01*
X023375Y002826D02*
X023025Y002826D01*
X022906Y002707D02*
X023494Y002707D01*
X022494Y002707D02*
X020906Y002707D01*
X020886Y002687D02*
X021150Y002951D01*
X021150Y003323D01*
X020886Y003587D01*
X020514Y003587D01*
X020250Y003323D01*
X020250Y002951D01*
X020514Y002687D01*
X020886Y002687D01*
X021025Y002826D02*
X022375Y002826D01*
X022257Y002944D02*
X021143Y002944D01*
X021150Y003063D02*
X022250Y003063D01*
X022250Y003181D02*
X021150Y003181D01*
X021150Y003300D02*
X022250Y003300D01*
X022345Y003418D02*
X021055Y003418D01*
X020937Y003537D02*
X022463Y003537D01*
X021852Y004485D02*
X014318Y004485D01*
X014200Y004603D02*
X021734Y004603D01*
X021615Y004722D02*
X014081Y004722D01*
X013963Y004840D02*
X021497Y004840D01*
X021378Y004959D02*
X013844Y004959D01*
X013726Y005077D02*
X021260Y005077D01*
X021141Y005196D02*
X013607Y005196D01*
X013489Y005314D02*
X021023Y005314D01*
X020904Y005433D02*
X013370Y005433D01*
X013252Y005551D02*
X020786Y005551D01*
X020667Y005670D02*
X018953Y005670D01*
X018853Y005628D02*
X019116Y005737D01*
X019316Y005938D01*
X019425Y006200D01*
X019425Y006484D01*
X019316Y006746D01*
X019116Y006947D01*
X018853Y007055D01*
X018569Y007055D01*
X018307Y006947D01*
X018107Y006746D01*
X017998Y006484D01*
X017998Y006200D01*
X018107Y005938D01*
X018307Y005737D01*
X018569Y005628D01*
X018853Y005628D01*
X019167Y005788D02*
X020549Y005788D01*
X020430Y005907D02*
X019285Y005907D01*
X019353Y006025D02*
X020420Y006025D01*
X020420Y006144D02*
X019402Y006144D01*
X019425Y006262D02*
X020420Y006262D01*
X020420Y006381D02*
X019425Y006381D01*
X019419Y006499D02*
X020420Y006499D01*
X020420Y006618D02*
X019369Y006618D01*
X019320Y006736D02*
X020420Y006736D01*
X020420Y006855D02*
X019208Y006855D01*
X019052Y006973D02*
X020420Y006973D01*
X020420Y007092D02*
X012820Y007092D01*
X012820Y007210D02*
X020420Y007210D01*
X020420Y007329D02*
X012820Y007329D01*
X012820Y007447D02*
X020420Y007447D01*
X020420Y007566D02*
X012820Y007566D01*
X012820Y007684D02*
X020420Y007684D01*
X020420Y007803D02*
X012820Y007803D01*
X012820Y007921D02*
X013285Y007921D01*
X013261Y007929D02*
X013325Y007908D01*
X013390Y007898D01*
X013396Y007898D01*
X013396Y008293D01*
X013001Y008293D01*
X013001Y008287D01*
X013011Y008221D01*
X013032Y008158D01*
X012820Y008158D01*
X012820Y008040D02*
X013107Y008040D01*
X013101Y008045D02*
X013148Y007998D01*
X013202Y007959D01*
X013261Y007929D01*
X013396Y007921D02*
X013451Y007921D01*
X013451Y007898D02*
X013457Y007898D01*
X013523Y007908D01*
X013586Y007929D01*
X013645Y007959D01*
X013699Y007998D01*
X013746Y008045D01*
X013785Y008099D01*
X013815Y008158D01*
X020373Y008158D01*
X020329Y008277D02*
X013845Y008277D01*
X013846Y008287D02*
X013846Y008293D01*
X013451Y008293D01*
X013451Y007898D01*
X013562Y007921D02*
X020420Y007921D01*
X020420Y008040D02*
X013741Y008040D01*
X013815Y008158D02*
X013836Y008221D01*
X013846Y008287D01*
X013846Y008348D02*
X013846Y008354D01*
X013836Y008419D01*
X013815Y008483D01*
X013785Y008542D01*
X013746Y008596D01*
X013699Y008643D01*
X013645Y008682D01*
X013586Y008712D01*
X013523Y008733D01*
X013457Y008743D01*
X013451Y008743D01*
X013451Y008348D01*
X013396Y008348D01*
X013396Y008293D01*
X013451Y008293D01*
X013451Y008348D01*
X013846Y008348D01*
X013840Y008395D02*
X020329Y008395D01*
X020368Y008514D02*
X013800Y008514D01*
X013710Y008632D02*
X020460Y008632D01*
X020962Y008632D02*
X021404Y008632D01*
X021324Y008514D02*
X021055Y008514D01*
X021094Y008395D02*
X021292Y008395D01*
X021294Y008277D02*
X021094Y008277D01*
X021050Y008158D02*
X021331Y008158D01*
X021416Y008040D02*
X020951Y008040D01*
X021684Y008040D02*
X021739Y008040D01*
X021739Y008158D02*
X021684Y008158D01*
X021684Y008277D02*
X021739Y008277D01*
X021739Y008395D02*
X021684Y008395D01*
X021684Y008514D02*
X021739Y008514D01*
X021739Y008632D02*
X021684Y008632D01*
X022307Y009737D02*
X022569Y009628D01*
X022853Y009628D01*
X023116Y009737D01*
X023316Y009938D01*
X023425Y010200D01*
X023425Y010484D01*
X023316Y010746D01*
X023116Y010947D01*
X022853Y011055D01*
X022569Y011055D01*
X022307Y010947D01*
X022107Y010746D01*
X021998Y010484D01*
X021998Y010200D01*
X022107Y009938D01*
X022307Y009737D01*
X022400Y009699D02*
X014787Y009699D01*
X014929Y009817D02*
X022227Y009817D01*
X022109Y009936D02*
X015036Y009936D01*
X015086Y010054D02*
X022058Y010054D01*
X022009Y010173D02*
X015135Y010173D01*
X015137Y010291D02*
X021998Y010291D01*
X021998Y010410D02*
X015137Y010410D01*
X015110Y010528D02*
X022016Y010528D01*
X022065Y010647D02*
X015061Y010647D01*
X014988Y010765D02*
X022126Y010765D01*
X022244Y010884D02*
X014870Y010884D01*
X014643Y011002D02*
X022441Y011002D01*
X022982Y011002D02*
X030441Y011002D01*
X030519Y011034D02*
X030257Y010926D01*
X030056Y010725D01*
X029947Y010463D01*
X029947Y010179D01*
X030056Y009917D01*
X030257Y009716D01*
X030519Y009607D01*
X030803Y009607D01*
X031065Y009716D01*
X031266Y009917D01*
X031374Y010179D01*
X031374Y010463D01*
X031266Y010725D01*
X031065Y010926D01*
X030803Y011034D01*
X030519Y011034D01*
X030214Y010884D02*
X023179Y010884D01*
X023297Y010765D02*
X030096Y010765D01*
X030023Y010647D02*
X023357Y010647D01*
X023407Y010528D02*
X029974Y010528D01*
X029947Y010410D02*
X023425Y010410D01*
X023425Y010291D02*
X029947Y010291D01*
X029950Y010173D02*
X023414Y010173D01*
X023365Y010054D02*
X029999Y010054D01*
X030048Y009936D02*
X023314Y009936D01*
X023196Y009817D02*
X030156Y009817D01*
X030299Y009699D02*
X023023Y009699D01*
X020820Y006973D02*
X026371Y006973D01*
X026185Y006855D02*
X020820Y006855D01*
X020820Y006736D02*
X026067Y006736D01*
X026011Y006618D02*
X020820Y006618D01*
X020820Y006499D02*
X025962Y006499D01*
X025947Y006381D02*
X020820Y006381D01*
X020820Y006262D02*
X025947Y006262D01*
X025962Y006144D02*
X020820Y006144D01*
X020878Y006025D02*
X026011Y006025D01*
X026066Y005907D02*
X020996Y005907D01*
X021115Y005788D02*
X026185Y005788D01*
X026369Y005670D02*
X021233Y005670D01*
X020463Y003537D02*
X019937Y003537D01*
X019886Y003587D02*
X019514Y003587D01*
X019250Y003323D01*
X019250Y002951D01*
X019514Y002687D01*
X019886Y002687D01*
X020150Y002951D01*
X020150Y003323D01*
X019886Y003587D01*
X020055Y003418D02*
X020345Y003418D01*
X020250Y003300D02*
X020150Y003300D01*
X020150Y003181D02*
X020250Y003181D01*
X020250Y003063D02*
X020150Y003063D01*
X020143Y002944D02*
X020257Y002944D01*
X020375Y002826D02*
X020025Y002826D01*
X019906Y002707D02*
X020494Y002707D01*
X019494Y002707D02*
X018906Y002707D01*
X018886Y002687D02*
X019150Y002951D01*
X019150Y003323D01*
X018886Y003587D01*
X018514Y003587D01*
X018250Y003323D01*
X018250Y002951D01*
X018514Y002687D01*
X018886Y002687D01*
X019025Y002826D02*
X019375Y002826D01*
X019257Y002944D02*
X019143Y002944D01*
X019150Y003063D02*
X019250Y003063D01*
X019250Y003181D02*
X019150Y003181D01*
X019150Y003300D02*
X019250Y003300D01*
X019345Y003418D02*
X019055Y003418D01*
X018937Y003537D02*
X019463Y003537D01*
X018463Y003537D02*
X017937Y003537D01*
X017886Y003587D02*
X017514Y003587D01*
X017250Y003323D01*
X017250Y002951D01*
X017514Y002687D01*
X017886Y002687D01*
X018150Y002951D01*
X018150Y003323D01*
X017886Y003587D01*
X018055Y003418D02*
X018345Y003418D01*
X018250Y003300D02*
X018150Y003300D01*
X018150Y003181D02*
X018250Y003181D01*
X018250Y003063D02*
X018150Y003063D01*
X018143Y002944D02*
X018257Y002944D01*
X018375Y002826D02*
X018025Y002826D01*
X017906Y002707D02*
X018494Y002707D01*
X017494Y002707D02*
X016906Y002707D01*
X016886Y002687D02*
X017150Y002951D01*
X017150Y003323D01*
X016886Y003587D01*
X016514Y003587D01*
X016250Y003323D01*
X016250Y002951D01*
X016514Y002687D01*
X016886Y002687D01*
X017025Y002826D02*
X017375Y002826D01*
X017257Y002944D02*
X017143Y002944D01*
X017150Y003063D02*
X017250Y003063D01*
X017250Y003181D02*
X017150Y003181D01*
X017150Y003300D02*
X017250Y003300D01*
X017345Y003418D02*
X017055Y003418D01*
X016937Y003537D02*
X017463Y003537D01*
X016463Y003537D02*
X015937Y003537D01*
X016055Y003418D02*
X016345Y003418D01*
X016250Y003300D02*
X016150Y003300D01*
X016150Y003181D02*
X016250Y003181D01*
X016250Y003063D02*
X016150Y003063D01*
X016143Y002944D02*
X016257Y002944D01*
X016375Y002826D02*
X016025Y002826D01*
X015906Y002707D02*
X016494Y002707D01*
X018470Y005670D02*
X013133Y005670D01*
X013015Y005788D02*
X018256Y005788D01*
X018138Y005907D02*
X012896Y005907D01*
X012820Y006025D02*
X018070Y006025D01*
X018021Y006144D02*
X012820Y006144D01*
X012820Y006262D02*
X017998Y006262D01*
X017998Y006381D02*
X012820Y006381D01*
X012820Y006499D02*
X018004Y006499D01*
X018053Y006618D02*
X012820Y006618D01*
X012820Y006736D02*
X018102Y006736D01*
X018215Y006855D02*
X012820Y006855D01*
X012820Y006973D02*
X018371Y006973D01*
X013451Y008040D02*
X013396Y008040D01*
X013396Y008158D02*
X013451Y008158D01*
X013451Y008277D02*
X013396Y008277D01*
X013396Y008348D02*
X013001Y008348D01*
X013001Y008354D01*
X013011Y008419D01*
X013032Y008483D01*
X013062Y008542D01*
X013101Y008596D01*
X013148Y008643D01*
X013202Y008682D01*
X013261Y008712D01*
X013325Y008733D01*
X013390Y008743D01*
X013396Y008743D01*
X013396Y008348D01*
X013396Y008395D02*
X013451Y008395D01*
X013451Y008514D02*
X013396Y008514D01*
X013396Y008632D02*
X013451Y008632D01*
X013137Y008632D02*
X012653Y008632D01*
X012758Y008514D02*
X013047Y008514D01*
X013007Y008395D02*
X012806Y008395D01*
X012806Y008277D02*
X013003Y008277D01*
X013032Y008158D02*
X013062Y008099D01*
X013101Y008045D01*
X012420Y006973D02*
X010713Y006973D01*
X010899Y006855D02*
X012420Y006855D01*
X012420Y006736D02*
X011017Y006736D01*
X011073Y006618D02*
X012420Y006618D01*
X012420Y006499D02*
X011122Y006499D01*
X011137Y006381D02*
X012420Y006381D01*
X012420Y006262D02*
X011137Y006262D01*
X011123Y006144D02*
X012420Y006144D01*
X012420Y006025D02*
X011074Y006025D01*
X011019Y005907D02*
X012420Y005907D01*
X012449Y005788D02*
X010900Y005788D01*
X010717Y005670D02*
X012567Y005670D01*
X019067Y013965D02*
X026901Y013965D01*
X027020Y014083D02*
X019186Y014083D01*
X019304Y014202D02*
X026441Y014202D01*
X026517Y014170D02*
X026801Y014170D01*
X027063Y014279D01*
X027264Y014479D01*
X027373Y014741D01*
X027373Y015025D01*
X027264Y015288D01*
X027063Y015488D01*
X026801Y015597D01*
X026517Y015597D01*
X026255Y015488D01*
X026054Y015288D01*
X025946Y015025D01*
X025946Y014741D01*
X026054Y014479D01*
X026255Y014279D01*
X026517Y014170D01*
X026213Y014320D02*
X019423Y014320D01*
X019541Y014439D02*
X026095Y014439D01*
X026022Y014557D02*
X019660Y014557D01*
X019778Y014676D02*
X025973Y014676D01*
X025946Y014794D02*
X019897Y014794D01*
X020015Y014913D02*
X025946Y014913D01*
X025948Y015031D02*
X020134Y015031D01*
X020252Y015150D02*
X025997Y015150D01*
X026046Y015268D02*
X020371Y015268D01*
X020489Y015387D02*
X026153Y015387D01*
X026295Y015505D02*
X020608Y015505D01*
X020726Y015624D02*
X028459Y015624D01*
X028459Y015742D02*
X020734Y015742D01*
X020734Y015861D02*
X028459Y015861D01*
X028459Y015979D02*
X020734Y015979D01*
X020734Y016098D02*
X028459Y016098D01*
X028459Y016216D02*
X020734Y016216D01*
X020734Y016335D02*
X028459Y016335D01*
X028459Y016453D02*
X021705Y016453D01*
X021696Y016448D02*
X021756Y016479D01*
X021809Y016518D01*
X021857Y016565D01*
X021896Y016619D01*
X021926Y016678D01*
X021946Y016741D01*
X021957Y016807D01*
X021957Y016813D01*
X021562Y016813D01*
X021562Y016868D01*
X021957Y016868D01*
X021957Y016874D01*
X021946Y016939D01*
X021926Y017003D01*
X021896Y017062D01*
X021857Y017116D01*
X021809Y017163D01*
X021756Y017202D01*
X021696Y017232D01*
X021633Y017253D01*
X021567Y017263D01*
X021562Y017263D01*
X021562Y016868D01*
X021506Y016868D01*
X021506Y016813D01*
X021111Y016813D01*
X021111Y016807D01*
X021122Y016741D01*
X021142Y016678D01*
X021172Y016619D01*
X021212Y016565D01*
X021259Y016518D01*
X021312Y016479D01*
X021372Y016448D01*
X021435Y016428D01*
X021501Y016418D01*
X021506Y016418D01*
X021506Y016813D01*
X021562Y016813D01*
X021562Y016418D01*
X021567Y016418D01*
X021633Y016428D01*
X021696Y016448D01*
X021562Y016453D02*
X021506Y016453D01*
X021506Y016572D02*
X021562Y016572D01*
X021562Y016690D02*
X021506Y016690D01*
X021506Y016809D02*
X021562Y016809D01*
X021506Y016868D02*
X021111Y016868D01*
X021111Y016874D01*
X021122Y016939D01*
X021142Y017003D01*
X021172Y017062D01*
X021212Y017116D01*
X021259Y017163D01*
X021312Y017202D01*
X021372Y017232D01*
X021435Y017253D01*
X021501Y017263D01*
X021506Y017263D01*
X021506Y016868D01*
X021506Y016927D02*
X021562Y016927D01*
X021562Y017046D02*
X021506Y017046D01*
X021506Y017164D02*
X021562Y017164D01*
X021808Y017164D02*
X028398Y017164D01*
X028312Y017046D02*
X021904Y017046D01*
X021948Y016927D02*
X028276Y016927D01*
X028276Y016809D02*
X021957Y016809D01*
X021930Y016690D02*
X028325Y016690D01*
X028430Y016572D02*
X021861Y016572D01*
X021363Y016453D02*
X020734Y016453D01*
X020807Y016572D02*
X021207Y016572D01*
X021138Y016690D02*
X020886Y016690D01*
X020917Y016809D02*
X021111Y016809D01*
X021120Y016927D02*
X020912Y016927D01*
X020863Y017046D02*
X021164Y017046D01*
X021260Y017164D02*
X020752Y017164D01*
X022926Y018231D02*
X029806Y018231D01*
X029688Y018349D02*
X023052Y018349D01*
X023152Y018468D02*
X029569Y018468D01*
X029451Y018586D02*
X023201Y018586D01*
X023248Y018705D02*
X029332Y018705D01*
X029214Y018823D02*
X024869Y018823D01*
X024371Y018823D02*
X023248Y018823D01*
X023248Y018942D02*
X024322Y018942D01*
X024322Y019060D02*
X023215Y019060D01*
X023166Y019179D02*
X024322Y019179D01*
X024322Y019297D02*
X023086Y019297D01*
X022968Y019416D02*
X030182Y019416D01*
X030064Y019297D02*
X029305Y019297D01*
X029424Y019179D02*
X030009Y019179D01*
X029960Y019060D02*
X029542Y019060D01*
X029661Y018942D02*
X029946Y018942D01*
X029946Y018823D02*
X029779Y018823D01*
X029898Y018705D02*
X029961Y018705D01*
X030490Y018112D02*
X032290Y018112D01*
X032886Y018112D02*
X039520Y018112D01*
X039520Y017994D02*
X037609Y017994D01*
X037727Y017875D02*
X039520Y017875D01*
X039520Y017757D02*
X037846Y017757D01*
X037964Y017638D02*
X039520Y017638D01*
X039520Y017520D02*
X038083Y017520D01*
X038201Y017401D02*
X039520Y017401D01*
X039520Y017283D02*
X038320Y017283D01*
X038438Y017164D02*
X039520Y017164D01*
X039520Y017046D02*
X038557Y017046D01*
X038620Y016927D02*
X039520Y016927D01*
X039520Y016809D02*
X038620Y016809D01*
X038620Y016690D02*
X039520Y016690D01*
X039520Y016572D02*
X038620Y016572D01*
X038620Y016453D02*
X039520Y016453D01*
X039520Y016335D02*
X038620Y016335D01*
X038620Y016216D02*
X039520Y016216D01*
X039520Y016098D02*
X038620Y016098D01*
X038620Y015979D02*
X039520Y015979D01*
X039576Y015861D02*
X038620Y015861D01*
X038620Y015742D02*
X039695Y015742D01*
X039813Y015624D02*
X038620Y015624D01*
X038620Y015505D02*
X039920Y015505D01*
X039920Y015387D02*
X038620Y015387D01*
X038620Y015268D02*
X039920Y015268D01*
X039920Y015150D02*
X038620Y015150D01*
X038620Y015031D02*
X039920Y015031D01*
X039920Y014913D02*
X038620Y014913D01*
X038620Y014794D02*
X039920Y014794D01*
X039920Y014676D02*
X038620Y014676D01*
X038620Y014557D02*
X039920Y014557D01*
X039920Y014439D02*
X038620Y014439D01*
X038620Y014320D02*
X039920Y014320D01*
X039920Y014202D02*
X038620Y014202D01*
X038620Y014083D02*
X039920Y014083D01*
X039920Y013965D02*
X038620Y013965D01*
X038620Y013846D02*
X039920Y013846D01*
X039920Y013728D02*
X038620Y013728D01*
X038620Y013609D02*
X039920Y013609D01*
X039920Y013491D02*
X038718Y013491D01*
X038718Y013372D02*
X039920Y013372D01*
X039920Y013254D02*
X038718Y013254D01*
X038718Y013135D02*
X039920Y013135D01*
X039920Y013017D02*
X038662Y013017D01*
X038122Y013254D02*
X034656Y013254D01*
X034775Y013372D02*
X038122Y013372D01*
X038122Y013491D02*
X034893Y013491D01*
X035012Y013609D02*
X038220Y013609D01*
X038220Y013728D02*
X035130Y013728D01*
X035249Y013846D02*
X038220Y013846D01*
X038220Y013965D02*
X035367Y013965D01*
X035486Y014083D02*
X038220Y014083D01*
X038220Y014202D02*
X035604Y014202D01*
X035723Y014320D02*
X038220Y014320D01*
X038220Y014439D02*
X035841Y014439D01*
X035960Y014557D02*
X038220Y014557D01*
X038220Y014676D02*
X036078Y014676D01*
X036197Y014794D02*
X038220Y014794D01*
X038220Y014913D02*
X036315Y014913D01*
X036434Y015031D02*
X038220Y015031D01*
X038220Y015150D02*
X036552Y015150D01*
X036671Y015268D02*
X038220Y015268D01*
X038220Y015387D02*
X036715Y015387D01*
X036715Y015505D02*
X038220Y015505D01*
X038220Y015624D02*
X036715Y015624D01*
X036715Y015742D02*
X038220Y015742D01*
X038220Y015861D02*
X036715Y015861D01*
X036715Y015979D02*
X038220Y015979D01*
X038220Y016098D02*
X036715Y016098D01*
X036715Y016216D02*
X038220Y016216D01*
X038220Y016335D02*
X036715Y016335D01*
X036715Y016453D02*
X038220Y016453D01*
X037229Y016572D02*
X036745Y016572D01*
X036850Y016690D02*
X037139Y016690D01*
X037099Y016809D02*
X036898Y016809D01*
X036898Y016927D02*
X037094Y016927D01*
X037123Y017046D02*
X036863Y017046D01*
X036776Y017164D02*
X037198Y017164D01*
X036255Y017164D02*
X029976Y017164D01*
X030051Y017046D02*
X036168Y017046D01*
X036133Y016927D02*
X030080Y016927D01*
X030082Y016856D02*
X029687Y016856D01*
X029687Y016461D01*
X029692Y016461D01*
X029758Y016471D01*
X029821Y016492D01*
X029881Y016522D01*
X029934Y016561D01*
X029982Y016608D01*
X030021Y016662D01*
X030051Y016721D01*
X030071Y016784D01*
X030082Y016850D01*
X030082Y016856D01*
X030075Y016809D02*
X036133Y016809D01*
X036181Y016690D02*
X030035Y016690D01*
X029945Y016572D02*
X036286Y016572D01*
X036315Y016453D02*
X028859Y016453D01*
X028859Y016335D02*
X036315Y016335D01*
X036315Y016216D02*
X028859Y016216D01*
X028859Y016098D02*
X036315Y016098D01*
X036315Y015979D02*
X028859Y015979D01*
X028859Y015861D02*
X036315Y015861D01*
X036315Y015742D02*
X028859Y015742D01*
X028859Y015624D02*
X036315Y015624D01*
X036315Y015505D02*
X034879Y015505D01*
X034920Y015488D02*
X034657Y015597D01*
X034373Y015597D01*
X034111Y015488D01*
X033910Y015288D01*
X033802Y015025D01*
X033802Y014741D01*
X033910Y014479D01*
X034111Y014279D01*
X034373Y014170D01*
X034657Y014170D01*
X034920Y014279D01*
X035120Y014479D01*
X035229Y014741D01*
X035229Y015025D01*
X035120Y015288D01*
X034920Y015488D01*
X035021Y015387D02*
X036223Y015387D01*
X036105Y015268D02*
X035128Y015268D01*
X035177Y015150D02*
X035986Y015150D01*
X035868Y015031D02*
X035226Y015031D01*
X035229Y014913D02*
X035749Y014913D01*
X035631Y014794D02*
X035229Y014794D01*
X035202Y014676D02*
X035512Y014676D01*
X035394Y014557D02*
X035152Y014557D01*
X035080Y014439D02*
X035275Y014439D01*
X035157Y014320D02*
X034961Y014320D01*
X035038Y014202D02*
X034734Y014202D01*
X034920Y014083D02*
X027586Y014083D01*
X027704Y014202D02*
X034297Y014202D01*
X034070Y014320D02*
X027823Y014320D01*
X027941Y014439D02*
X033951Y014439D01*
X033878Y014557D02*
X028060Y014557D01*
X028178Y014676D02*
X033829Y014676D01*
X033802Y014794D02*
X028297Y014794D01*
X028415Y014913D02*
X033802Y014913D01*
X033804Y015031D02*
X028534Y015031D01*
X028652Y015150D02*
X033853Y015150D01*
X033902Y015268D02*
X028771Y015268D01*
X028859Y015387D02*
X034009Y015387D01*
X034152Y015505D02*
X028859Y015505D01*
X028442Y015505D02*
X027023Y015505D01*
X027165Y015387D02*
X028323Y015387D01*
X028205Y015268D02*
X027272Y015268D01*
X027321Y015150D02*
X028086Y015150D01*
X027968Y015031D02*
X027370Y015031D01*
X027373Y014913D02*
X027849Y014913D01*
X027731Y014794D02*
X027373Y014794D01*
X027345Y014676D02*
X027612Y014676D01*
X027494Y014557D02*
X027296Y014557D01*
X027223Y014439D02*
X027375Y014439D01*
X027257Y014320D02*
X027105Y014320D01*
X027138Y014202D02*
X026877Y014202D01*
X027349Y013846D02*
X034683Y013846D01*
X034801Y013965D02*
X027467Y013965D01*
X027230Y013728D02*
X034564Y013728D01*
X034446Y013609D02*
X027112Y013609D01*
X030881Y011002D02*
X038337Y011002D01*
X038424Y011038D02*
X038162Y010929D01*
X037961Y010729D01*
X037852Y010466D01*
X037852Y010182D01*
X037961Y009920D01*
X038162Y009720D01*
X038424Y009611D01*
X038708Y009611D01*
X038970Y009720D01*
X039171Y009920D01*
X039279Y010182D01*
X039279Y010466D01*
X039171Y010729D01*
X038970Y010929D01*
X038708Y011038D01*
X038424Y011038D01*
X038116Y010884D02*
X031107Y010884D01*
X031226Y010765D02*
X037998Y010765D01*
X037927Y010647D02*
X031298Y010647D01*
X031347Y010528D02*
X037878Y010528D01*
X037852Y010410D02*
X031374Y010410D01*
X031374Y010291D02*
X037852Y010291D01*
X037857Y010173D02*
X031372Y010173D01*
X031323Y010054D02*
X037906Y010054D01*
X037955Y009936D02*
X031273Y009936D01*
X031166Y009817D02*
X038064Y009817D01*
X038213Y009699D02*
X031023Y009699D01*
X029948Y008632D02*
X036332Y008632D01*
X036230Y008514D02*
X030037Y008514D01*
X030077Y008395D02*
X036183Y008395D01*
X036183Y008277D02*
X030082Y008277D01*
X030052Y008158D02*
X036221Y008158D01*
X036310Y008040D02*
X029977Y008040D01*
X029688Y008040D02*
X029633Y008040D01*
X029633Y008158D02*
X029688Y008158D01*
X029688Y008277D02*
X029633Y008277D01*
X029633Y008395D02*
X029688Y008395D01*
X029688Y008514D02*
X029633Y008514D01*
X029633Y008632D02*
X029688Y008632D01*
X034865Y006973D02*
X036420Y006973D01*
X036420Y006855D02*
X035045Y006855D01*
X035163Y006736D02*
X036420Y006736D01*
X036420Y006618D02*
X035217Y006618D01*
X035266Y006499D02*
X036420Y006499D01*
X036420Y006381D02*
X035279Y006381D01*
X035279Y006262D02*
X036420Y006262D01*
X036420Y006144D02*
X035263Y006144D01*
X035214Y006025D02*
X036420Y006025D01*
X036420Y005907D02*
X035157Y005907D01*
X035039Y005788D02*
X036420Y005788D01*
X036420Y005670D02*
X034849Y005670D01*
X036820Y005788D02*
X039920Y005788D01*
X039920Y005670D02*
X036833Y005670D01*
X036820Y005907D02*
X039920Y005907D01*
X039920Y006025D02*
X036820Y006025D01*
X036820Y006144D02*
X039920Y006144D01*
X039920Y006262D02*
X036820Y006262D01*
X036820Y006381D02*
X039920Y006381D01*
X039920Y006499D02*
X036820Y006499D01*
X036820Y006618D02*
X039920Y006618D01*
X039920Y006736D02*
X036820Y006736D01*
X036820Y006855D02*
X039920Y006855D01*
X039920Y006973D02*
X036820Y006973D01*
X036820Y007092D02*
X039920Y007092D01*
X039920Y007210D02*
X036820Y007210D01*
X036820Y007329D02*
X039920Y007329D01*
X039920Y007447D02*
X036820Y007447D01*
X036820Y007566D02*
X039920Y007566D01*
X039920Y007684D02*
X036820Y007684D01*
X036820Y007803D02*
X039920Y007803D01*
X039920Y007921D02*
X037693Y007921D01*
X037665Y007912D02*
X037728Y007933D01*
X037788Y007963D01*
X037841Y008002D01*
X037888Y008049D01*
X037928Y008103D01*
X037958Y008162D01*
X037978Y008225D01*
X037989Y008291D01*
X037989Y008297D01*
X037594Y008297D01*
X037594Y008352D01*
X037989Y008352D01*
X037989Y008358D01*
X037978Y008423D01*
X037958Y008487D01*
X037928Y008546D01*
X037888Y008600D01*
X037841Y008647D01*
X037788Y008686D01*
X037728Y008716D01*
X037665Y008737D01*
X037599Y008747D01*
X037594Y008747D01*
X037594Y008352D01*
X037538Y008352D01*
X037538Y008297D01*
X037143Y008297D01*
X037143Y008291D01*
X037154Y008225D01*
X037174Y008162D01*
X037204Y008103D01*
X037243Y008049D01*
X037291Y008002D01*
X037344Y007963D01*
X037404Y007933D01*
X037467Y007912D01*
X037533Y007902D01*
X037538Y007902D01*
X037538Y008297D01*
X037594Y008297D01*
X037594Y007902D01*
X037599Y007902D01*
X037665Y007912D01*
X037594Y007921D02*
X037538Y007921D01*
X037439Y007921D02*
X036820Y007921D01*
X036822Y008040D02*
X037253Y008040D01*
X037176Y008158D02*
X036911Y008158D01*
X036949Y008277D02*
X037146Y008277D01*
X037143Y008352D02*
X037538Y008352D01*
X037538Y008747D01*
X037533Y008747D01*
X037467Y008737D01*
X037404Y008716D01*
X037344Y008686D01*
X037291Y008647D01*
X037243Y008600D01*
X037204Y008546D01*
X037174Y008487D01*
X037154Y008423D01*
X037143Y008358D01*
X037143Y008352D01*
X037149Y008395D02*
X036949Y008395D01*
X036902Y008514D02*
X037188Y008514D01*
X037276Y008632D02*
X036800Y008632D01*
X037538Y008632D02*
X037594Y008632D01*
X037594Y008514D02*
X037538Y008514D01*
X037538Y008395D02*
X037594Y008395D01*
X037594Y008277D02*
X037538Y008277D01*
X037538Y008158D02*
X037594Y008158D01*
X037594Y008040D02*
X037538Y008040D01*
X037879Y008040D02*
X039920Y008040D01*
X039920Y008158D02*
X037956Y008158D01*
X037986Y008277D02*
X039920Y008277D01*
X039920Y008395D02*
X037983Y008395D01*
X037944Y008514D02*
X039920Y008514D01*
X039920Y008632D02*
X037856Y008632D01*
X038919Y009699D02*
X039920Y009699D01*
X039920Y009817D02*
X039068Y009817D01*
X039177Y009936D02*
X039920Y009936D01*
X039920Y010054D02*
X039226Y010054D01*
X039275Y010173D02*
X039920Y010173D01*
X039920Y010291D02*
X039279Y010291D01*
X039279Y010410D02*
X039920Y010410D01*
X039920Y010528D02*
X039254Y010528D01*
X039205Y010647D02*
X039920Y010647D01*
X039920Y010765D02*
X039134Y010765D01*
X039016Y010884D02*
X039920Y010884D01*
X039920Y011002D02*
X038795Y011002D01*
X041220Y011832D02*
X044179Y011832D01*
X044179Y011950D02*
X043515Y011950D01*
X043678Y012069D02*
X044179Y012069D01*
X044179Y012187D02*
X043741Y012187D01*
X043761Y012306D02*
X044179Y012306D01*
X044179Y012424D02*
X043747Y012424D01*
X043693Y012543D02*
X044179Y012543D01*
X044179Y012661D02*
X043549Y012661D01*
X043626Y013017D02*
X044179Y013017D01*
X044179Y013135D02*
X043720Y013135D01*
X043761Y013254D02*
X044179Y013254D01*
X044179Y013372D02*
X043761Y013372D01*
X043719Y013491D02*
X044179Y013491D01*
X044179Y013609D02*
X043626Y013609D01*
X043549Y015861D02*
X044179Y015861D01*
X044179Y015979D02*
X043655Y015979D01*
X043704Y016098D02*
X044179Y016098D01*
X044179Y016216D02*
X043722Y016216D01*
X043722Y016335D02*
X044179Y016335D01*
X044179Y016453D02*
X043676Y016453D01*
X043601Y016572D02*
X044179Y016572D01*
X044179Y016690D02*
X043452Y016690D01*
X039520Y018231D02*
X038804Y018231D01*
X038920Y018279D02*
X038657Y018170D01*
X038373Y018170D01*
X038111Y018279D01*
X037910Y018479D01*
X037802Y018741D01*
X037802Y019025D01*
X037910Y019288D01*
X038111Y019488D01*
X038373Y019597D01*
X038657Y019597D01*
X038920Y019488D01*
X039120Y019288D01*
X039229Y019025D01*
X039229Y018741D01*
X039120Y018479D01*
X038920Y018279D01*
X038990Y018349D02*
X039520Y018349D01*
X039520Y018468D02*
X039109Y018468D01*
X039164Y018586D02*
X039520Y018586D01*
X039520Y018705D02*
X039214Y018705D01*
X039229Y018823D02*
X039520Y018823D01*
X039495Y018942D02*
X039229Y018942D01*
X039214Y019060D02*
X039377Y019060D01*
X039258Y019179D02*
X039165Y019179D01*
X039140Y019297D02*
X039111Y019297D01*
X039021Y019416D02*
X038992Y019416D01*
X038903Y019534D02*
X038809Y019534D01*
X038222Y019534D02*
X030953Y019534D01*
X031136Y019416D02*
X038038Y019416D01*
X037920Y019297D02*
X031254Y019297D01*
X031309Y019179D02*
X037865Y019179D01*
X037816Y019060D02*
X031358Y019060D01*
X031373Y018942D02*
X037802Y018942D01*
X037802Y018823D02*
X031373Y018823D01*
X031357Y018705D02*
X037817Y018705D01*
X037866Y018586D02*
X031308Y018586D01*
X031252Y018468D02*
X037922Y018468D01*
X038041Y018349D02*
X031134Y018349D01*
X030947Y018231D02*
X038227Y018231D01*
X043530Y022023D02*
X044179Y022023D01*
X044179Y022141D02*
X043647Y022141D01*
X043696Y022260D02*
X044179Y022260D01*
X044179Y022378D02*
X043722Y022378D01*
X043722Y022497D02*
X044179Y022497D01*
X044179Y022615D02*
X043684Y022615D01*
X043620Y022734D02*
X044179Y022734D01*
X044179Y022852D02*
X043499Y022852D01*
X042938Y022852D02*
X008792Y022852D01*
X008792Y022734D02*
X042816Y022734D01*
X030365Y019534D02*
X022724Y019534D01*
X020042Y015505D02*
X018794Y015505D01*
X018997Y015387D02*
X019923Y015387D01*
X019805Y015268D02*
X019115Y015268D01*
X019178Y015150D02*
X019686Y015150D01*
X019568Y015031D02*
X019227Y015031D01*
X019248Y014913D02*
X019449Y014913D01*
X019331Y014794D02*
X019248Y014794D01*
X028889Y016572D02*
X029373Y016572D01*
X029283Y016690D02*
X028993Y016690D01*
X029042Y016809D02*
X029243Y016809D01*
X029238Y016927D02*
X029042Y016927D01*
X029006Y017046D02*
X029267Y017046D01*
X029342Y017164D02*
X028920Y017164D01*
X029631Y017164D02*
X029687Y017164D01*
X029687Y017046D02*
X029631Y017046D01*
X029631Y016927D02*
X029687Y016927D01*
X029687Y016809D02*
X029631Y016809D01*
X029631Y016690D02*
X029687Y016690D01*
X029687Y016572D02*
X029631Y016572D01*
D12*
X029659Y016883D03*
X028659Y016883D03*
X021534Y016840D03*
X020534Y016840D03*
X013327Y016794D03*
X012327Y016794D03*
X012424Y008320D03*
X013424Y008320D03*
X020711Y008342D03*
X021711Y008342D03*
X028661Y008321D03*
X029661Y008321D03*
X036566Y008324D03*
X037566Y008324D03*
X037515Y016883D03*
X036515Y016883D03*
D13*
X038515Y018883D03*
X034515Y014883D03*
X030659Y018883D03*
X026659Y014883D03*
X022534Y018840D03*
X018534Y014840D03*
X014327Y018794D03*
X010327Y014794D03*
X014424Y010320D03*
X018711Y006342D03*
X022711Y010342D03*
X026661Y006321D03*
X030661Y010321D03*
X034566Y006324D03*
X038566Y010324D03*
X010424Y006320D03*
D14*
X041289Y016478D03*
X043218Y016242D03*
X041289Y022187D03*
X043218Y022423D03*
D15*
X027700Y022137D03*
X026700Y022137D03*
X025700Y022137D03*
X024700Y022137D03*
X023700Y022137D03*
X022700Y022137D03*
X021700Y022137D03*
X020700Y022137D03*
X019100Y022137D03*
X018100Y022137D03*
X017100Y022137D03*
X016100Y022137D03*
X015100Y022137D03*
X014100Y022137D03*
X013100Y022137D03*
X012100Y022137D03*
X015700Y003137D03*
X016700Y003137D03*
X017700Y003137D03*
X018700Y003137D03*
X019700Y003137D03*
X020700Y003137D03*
X022700Y003137D03*
X023700Y003137D03*
X024700Y003137D03*
X025700Y003137D03*
X026700Y003137D03*
X027700Y003137D03*
D16*
X042831Y011313D02*
X043371Y011313D01*
X043371Y012313D02*
X042831Y012313D01*
X042831Y013313D02*
X043371Y013313D01*
D17*
X040720Y015800D02*
X040320Y016200D01*
X040320Y019400D01*
X039320Y020400D01*
X021420Y020400D01*
X020620Y021200D01*
X020620Y022057D01*
X020700Y022137D01*
X021620Y022057D02*
X021620Y021300D01*
X022220Y020700D01*
X039520Y020700D01*
X040620Y019600D01*
X040620Y016300D01*
X041020Y015900D01*
X041020Y005000D01*
X040220Y004200D01*
X014320Y004200D01*
X012620Y005900D01*
X012620Y008124D01*
X012424Y008320D01*
X012820Y013400D02*
X010320Y015900D01*
X010320Y020400D01*
X011320Y021400D01*
X013363Y021400D01*
X014100Y022137D01*
X015020Y022057D02*
X015020Y021500D01*
X014620Y021100D01*
X011420Y021100D01*
X010620Y020300D01*
X010620Y016000D01*
X012920Y013700D01*
X026920Y013700D01*
X028659Y015439D01*
X028659Y016883D01*
X030420Y017900D02*
X032620Y017900D01*
X032588Y017898D02*
X037422Y017898D01*
X038420Y016900D01*
X038420Y013300D01*
X036515Y015396D02*
X034520Y013400D01*
X012820Y013400D01*
X013020Y014000D02*
X010920Y016100D01*
X010920Y020100D01*
X011620Y020800D01*
X015520Y020800D01*
X016120Y021400D01*
X016120Y022117D01*
X016100Y022137D01*
X015100Y022137D02*
X015020Y022057D01*
X017120Y022117D02*
X017120Y021000D01*
X015920Y019800D01*
X013920Y019800D01*
X012320Y018200D01*
X012320Y016801D01*
X012327Y016794D01*
X013020Y014000D02*
X018820Y014000D01*
X020534Y015714D01*
X020534Y016840D01*
X019020Y019800D02*
X018020Y020800D01*
X018020Y022057D01*
X019120Y022117D02*
X019120Y020800D01*
X019820Y020100D01*
X027120Y020100D01*
X039120Y020100D01*
X040020Y019200D01*
X040020Y016100D01*
X040420Y015700D01*
X040420Y005300D01*
X039920Y004800D01*
X029620Y004800D01*
X028661Y005759D01*
X028661Y008321D01*
X022120Y004500D02*
X040020Y004500D01*
X040720Y005200D01*
X040720Y015800D01*
X040120Y015600D02*
X039720Y016000D01*
X039720Y019000D01*
X038920Y019800D01*
X019020Y019800D01*
X021620Y022057D02*
X021700Y022137D01*
X024620Y019100D02*
X029220Y019100D01*
X030420Y017900D01*
X036515Y016883D02*
X036515Y015396D01*
X040120Y015600D02*
X040120Y005500D01*
X039720Y005100D01*
X037120Y005100D01*
X036620Y005600D01*
X036620Y008271D01*
X036566Y008324D01*
X022120Y004500D02*
X020620Y006000D01*
X020620Y008250D01*
X020711Y008342D01*
D18*
X032588Y017898D03*
X038420Y013300D03*
X024620Y019100D03*
M02*
