G75*
%MOIN*%
%OFA0B0*%
%FSLAX24Y24*%
%IPPOS*%
%LPD*%
%AMOC8*
5,1,8,0,0,1.08239X$1,22.5*
%
%ADD10C,0.0000*%
%ADD11C,0.0120*%
%ADD12C,0.0526*%
%ADD13C,0.1187*%
%ADD14R,0.0748X0.0118*%
%ADD15C,0.0768*%
%ADD16R,0.0350X0.0420*%
%ADD17R,0.0420X0.0350*%
%ADD18OC8,0.0660*%
%ADD19C,0.0540*%
%ADD20R,0.0472X0.0472*%
%ADD21C,0.0160*%
%ADD22C,0.0100*%
%ADD23R,0.0356X0.0356*%
D10*
X005620Y000100D02*
X005620Y031596D01*
X044990Y031596D01*
X044990Y000100D01*
X005620Y000100D01*
D11*
X008572Y002069D02*
X008572Y023131D01*
X044399Y023131D01*
X044399Y002069D01*
X008572Y002069D01*
X008792Y002289D02*
X008792Y022911D01*
X043081Y022911D01*
X042933Y022850D01*
X042791Y022708D01*
X042714Y022523D01*
X042714Y022323D01*
X042791Y022137D01*
X042933Y021996D01*
X043118Y021919D01*
X043318Y021919D01*
X043504Y021996D01*
X043645Y022137D01*
X043722Y022323D01*
X043722Y022523D01*
X043645Y022708D01*
X043504Y022850D01*
X043355Y022911D01*
X044179Y022911D01*
X044179Y002289D01*
X033663Y002289D01*
X033853Y002479D01*
X033949Y002479D01*
X034020Y002549D01*
X034020Y002999D01*
X033949Y003069D01*
X033430Y003069D01*
X033360Y002999D01*
X033360Y002549D01*
X033387Y002522D01*
X033345Y002480D01*
X032976Y002480D01*
X032976Y002507D01*
X032981Y002507D01*
X033194Y002720D01*
X033300Y002825D01*
X033300Y003225D01*
X033360Y003286D01*
X033360Y003229D01*
X033430Y003159D01*
X033949Y003159D01*
X034020Y003229D01*
X034020Y003679D01*
X033949Y003749D01*
X033430Y003749D01*
X033361Y003680D01*
X033245Y003680D01*
X033140Y003575D01*
X032976Y003411D01*
X032976Y003799D01*
X032906Y003870D01*
X032800Y003870D01*
X032800Y004730D01*
X032325Y005204D01*
X032325Y011731D01*
X038317Y011731D01*
X038337Y011711D01*
X038503Y011711D01*
X038523Y011731D01*
X039889Y011731D01*
X039889Y005144D01*
X039899Y005134D01*
X039899Y004712D01*
X039766Y004580D01*
X038989Y004580D01*
X038989Y004686D01*
X038919Y004756D01*
X038347Y004756D01*
X038277Y004686D01*
X038277Y004114D01*
X038347Y004044D01*
X038919Y004044D01*
X038989Y004114D01*
X038989Y004220D01*
X039916Y004220D01*
X040249Y004553D01*
X040249Y004702D01*
X040239Y004712D01*
X040239Y005134D01*
X040249Y005144D01*
X040249Y011731D01*
X040950Y011731D01*
X040970Y011711D01*
X041529Y011711D01*
X041923Y012105D01*
X042495Y012105D01*
X042500Y012092D01*
X042610Y011982D01*
X042753Y011923D01*
X043449Y011923D01*
X043592Y011982D01*
X043702Y012092D01*
X043761Y012235D01*
X043761Y012390D01*
X043702Y012534D01*
X043592Y012643D01*
X043449Y012703D01*
X042753Y012703D01*
X042610Y012643D01*
X042500Y012534D01*
X042488Y012505D01*
X041757Y012505D01*
X041640Y012388D01*
X041364Y012111D01*
X040970Y012111D01*
X040950Y012091D01*
X038620Y012091D01*
X038620Y013002D01*
X038648Y013002D01*
X038718Y013072D01*
X038718Y013528D01*
X038648Y013598D01*
X038192Y013598D01*
X038122Y013528D01*
X038122Y013072D01*
X038192Y013002D01*
X038220Y013002D01*
X038220Y012091D01*
X016479Y012091D01*
X016479Y020017D01*
X016410Y020086D01*
X016410Y020155D01*
X016304Y020260D01*
X016290Y020260D01*
X015921Y020629D01*
X015921Y020643D01*
X015745Y020820D01*
X016645Y020820D01*
X016840Y020625D01*
X016840Y018225D01*
X016945Y018120D01*
X019745Y015320D01*
X025545Y015320D01*
X025640Y015225D01*
X025640Y014325D01*
X025745Y014220D01*
X026345Y013620D01*
X027094Y013620D01*
X027200Y013725D01*
X027700Y014225D01*
X027700Y015125D01*
X027894Y015320D01*
X033245Y015320D01*
X033540Y015025D01*
X033540Y014125D01*
X033645Y014020D01*
X034045Y013620D01*
X034994Y013620D01*
X035100Y013725D01*
X035500Y014125D01*
X035500Y015125D01*
X035694Y015320D01*
X038294Y015320D01*
X038400Y015425D01*
X038400Y015425D01*
X038834Y015860D01*
X038939Y015965D01*
X038939Y016354D01*
X040143Y017558D01*
X040249Y017663D01*
X040249Y018726D01*
X040379Y018857D01*
X040421Y018857D01*
X040421Y018612D01*
X040413Y018604D01*
X040392Y018567D01*
X040381Y018527D01*
X040381Y018446D01*
X040381Y018366D01*
X040386Y018348D01*
X040381Y018330D01*
X040381Y018250D01*
X040460Y018250D01*
X040460Y018250D01*
X040460Y018250D01*
X040381Y018250D01*
X040381Y018169D01*
X040386Y018151D01*
X040381Y018133D01*
X040381Y018053D01*
X040460Y018053D01*
X040460Y018053D01*
X040460Y018053D01*
X040381Y018053D01*
X040381Y017973D01*
X040386Y017954D01*
X040381Y017936D01*
X040381Y017856D01*
X040460Y017856D01*
X040381Y017856D01*
X040381Y017776D01*
X040392Y017735D01*
X040413Y017699D01*
X040421Y017691D01*
X040421Y017550D01*
X040491Y017480D01*
X041339Y017480D01*
X041409Y017550D01*
X041409Y017691D01*
X041417Y017699D01*
X041438Y017735D01*
X041449Y017776D01*
X041449Y017856D01*
X041449Y017936D01*
X041444Y017954D01*
X041449Y017973D01*
X041449Y018053D01*
X041449Y018133D01*
X041444Y018151D01*
X041449Y018169D01*
X041449Y018250D01*
X041449Y018330D01*
X041444Y018348D01*
X041449Y018366D01*
X041449Y018446D01*
X041370Y018446D01*
X041449Y018446D01*
X041449Y018527D01*
X041438Y018567D01*
X041417Y018604D01*
X041409Y018612D01*
X041409Y019069D01*
X041417Y019077D01*
X041438Y019113D01*
X041449Y019154D01*
X041449Y019234D01*
X041449Y019314D01*
X041438Y019355D01*
X041417Y019391D01*
X041409Y019399D01*
X041409Y019659D01*
X041417Y019667D01*
X041438Y019704D01*
X041449Y019744D01*
X041449Y019824D01*
X040915Y019824D01*
X040915Y019824D01*
X040381Y019824D01*
X040381Y019808D01*
X039952Y019808D01*
X039986Y019841D01*
X040381Y019841D01*
X040381Y019824D01*
X040915Y019824D01*
X040915Y019824D01*
X041449Y019824D01*
X041449Y019905D01*
X041438Y019945D01*
X041417Y019982D01*
X041409Y019990D01*
X041409Y020250D01*
X041417Y020258D01*
X041438Y020294D01*
X041449Y020335D01*
X041449Y020415D01*
X041449Y020495D01*
X041438Y020536D01*
X041417Y020572D01*
X041409Y020580D01*
X041409Y020840D01*
X041417Y020848D01*
X041438Y020885D01*
X041449Y020925D01*
X041449Y021006D01*
X041449Y021086D01*
X041438Y021126D01*
X041417Y021163D01*
X041409Y021171D01*
X041409Y021311D01*
X041339Y021381D01*
X040990Y021381D01*
X040990Y021382D01*
X039992Y021382D01*
X038900Y022475D01*
X038794Y022580D01*
X034445Y022580D01*
X033545Y021680D01*
X022094Y021680D01*
X021987Y021787D01*
X022150Y021951D01*
X022150Y022323D01*
X021886Y022587D01*
X021514Y022587D01*
X021250Y022323D01*
X021250Y021951D01*
X021514Y021687D01*
X021578Y021687D01*
X021645Y021620D01*
X021785Y021480D01*
X020994Y021480D01*
X020800Y021675D01*
X020800Y021687D01*
X020886Y021687D01*
X021150Y021951D01*
X021150Y022323D01*
X020886Y022587D01*
X020514Y022587D01*
X020250Y022323D01*
X020250Y021951D01*
X020440Y021761D01*
X020440Y021525D01*
X020545Y021420D01*
X020545Y021420D01*
X020685Y021280D01*
X019694Y021280D01*
X019300Y021675D01*
X019300Y021700D01*
X019550Y021951D01*
X019550Y022323D01*
X019286Y022587D01*
X018914Y022587D01*
X018650Y022323D01*
X018650Y021951D01*
X018914Y021687D01*
X018940Y021687D01*
X018940Y021525D01*
X019045Y021420D01*
X019545Y020920D01*
X020984Y020920D01*
X020950Y020886D01*
X020950Y020769D01*
X020436Y020769D01*
X020436Y020849D01*
X020366Y020919D01*
X019916Y020919D01*
X019846Y020849D01*
X019846Y020330D01*
X019916Y020259D01*
X020366Y020259D01*
X020436Y020330D01*
X020436Y020409D01*
X020950Y020409D01*
X020950Y020314D01*
X021020Y020244D01*
X021592Y020244D01*
X021663Y020314D01*
X021663Y020886D01*
X021628Y020920D01*
X021811Y020920D01*
X021777Y020886D01*
X021777Y020314D01*
X021847Y020244D01*
X022419Y020244D01*
X022489Y020314D01*
X022489Y020420D01*
X023345Y020420D01*
X024379Y019386D01*
X024322Y019328D01*
X024322Y018872D01*
X024392Y018802D01*
X024848Y018802D01*
X024918Y018872D01*
X024918Y019328D01*
X024848Y019398D01*
X024800Y019398D01*
X024800Y019475D01*
X024694Y019580D01*
X023494Y020780D01*
X022489Y020780D01*
X022489Y020886D01*
X022455Y020920D01*
X029484Y020920D01*
X029450Y020886D01*
X029450Y020780D01*
X028619Y020780D01*
X028619Y020841D01*
X028549Y020911D01*
X028100Y020911D01*
X028029Y020841D01*
X028029Y020321D01*
X028100Y020251D01*
X028549Y020251D01*
X028619Y020321D01*
X028619Y020420D01*
X029450Y020420D01*
X029450Y020314D01*
X029520Y020244D01*
X030092Y020244D01*
X030163Y020314D01*
X030163Y020886D01*
X030128Y020920D01*
X030311Y020920D01*
X030277Y020886D01*
X030277Y020314D01*
X030347Y020244D01*
X030919Y020244D01*
X030989Y020314D01*
X030989Y020420D01*
X032289Y020420D01*
X032408Y020301D01*
X032408Y018196D01*
X032360Y018196D01*
X032290Y018125D01*
X032290Y017670D01*
X032360Y017600D01*
X032816Y017600D01*
X032886Y017670D01*
X032886Y018125D01*
X032816Y018196D01*
X032768Y018196D01*
X032768Y020425D01*
X032863Y020520D01*
X033794Y020520D01*
X033900Y020625D01*
X034343Y021069D01*
X034343Y021088D01*
X034828Y021574D01*
X038392Y021574D01*
X039040Y020925D01*
X039040Y020780D01*
X038889Y020780D01*
X038889Y020886D01*
X038819Y020956D01*
X039009Y020956D01*
X039040Y020838D02*
X038889Y020838D01*
X038819Y020956D02*
X038247Y020956D01*
X037992Y020956D01*
X037420Y020956D01*
X034230Y020956D01*
X034343Y021075D02*
X038891Y021075D01*
X038772Y021193D02*
X034448Y021193D01*
X034566Y021312D02*
X038654Y021312D01*
X038535Y021430D02*
X034685Y021430D01*
X034803Y021549D02*
X038417Y021549D01*
X038466Y021754D02*
X034754Y021754D01*
X034163Y021163D01*
X034163Y021143D01*
X033720Y020700D01*
X032788Y020700D01*
X032588Y020500D01*
X032588Y020376D01*
X032341Y020622D01*
X032319Y020600D01*
X030633Y020600D01*
X030277Y020601D02*
X030163Y020601D01*
X030163Y020719D02*
X030277Y020719D01*
X030277Y020838D02*
X030163Y020838D01*
X030163Y020482D02*
X030277Y020482D01*
X030277Y020364D02*
X030163Y020364D01*
X030093Y020245D02*
X030346Y020245D01*
X030920Y020245D02*
X032408Y020245D01*
X032408Y020127D02*
X027844Y020127D01*
X027844Y020245D02*
X029519Y020245D01*
X029450Y020364D02*
X028619Y020364D01*
X028343Y020600D02*
X028324Y020581D01*
X028343Y020600D02*
X029806Y020600D01*
X029450Y020838D02*
X028619Y020838D01*
X028029Y020838D02*
X027939Y020838D01*
X027939Y020841D02*
X027869Y020911D01*
X027420Y020911D01*
X027349Y020841D01*
X027349Y020321D01*
X027420Y020251D01*
X027444Y020251D01*
X027444Y017815D01*
X028283Y016976D01*
X028276Y016960D01*
X028276Y016807D01*
X028298Y016756D01*
X028298Y016639D01*
X028415Y016522D01*
X028531Y016522D01*
X028583Y016501D01*
X028735Y016501D01*
X028876Y016559D01*
X028984Y016667D01*
X029042Y016807D01*
X029042Y016960D01*
X028984Y017100D01*
X028876Y017208D01*
X028735Y017266D01*
X028583Y017266D01*
X028566Y017259D01*
X027844Y017981D01*
X027844Y020251D01*
X027869Y020251D01*
X027939Y020321D01*
X027939Y020841D01*
X027939Y020719D02*
X028029Y020719D01*
X028029Y020601D02*
X027939Y020601D01*
X027939Y020482D02*
X028029Y020482D01*
X028029Y020364D02*
X027939Y020364D01*
X027844Y020008D02*
X032408Y020008D01*
X032408Y019890D02*
X027844Y019890D01*
X027844Y019771D02*
X032408Y019771D01*
X032408Y019653D02*
X027844Y019653D01*
X027844Y019534D02*
X030365Y019534D01*
X030255Y019488D02*
X030054Y019288D01*
X029946Y019025D01*
X029946Y018741D01*
X030054Y018479D01*
X030255Y018279D01*
X030517Y018170D01*
X030801Y018170D01*
X031063Y018279D01*
X031264Y018479D01*
X031373Y018741D01*
X031373Y019025D01*
X031264Y019288D01*
X031063Y019488D01*
X030801Y019597D01*
X030517Y019597D01*
X030255Y019488D01*
X030182Y019416D02*
X027844Y019416D01*
X027844Y019297D02*
X030064Y019297D01*
X030009Y019179D02*
X027844Y019179D01*
X027844Y019060D02*
X029960Y019060D01*
X029946Y018942D02*
X027844Y018942D01*
X027844Y018823D02*
X029946Y018823D01*
X029961Y018705D02*
X027844Y018705D01*
X027844Y018586D02*
X030010Y018586D01*
X030066Y018468D02*
X027844Y018468D01*
X027844Y018349D02*
X030184Y018349D01*
X030371Y018231D02*
X027844Y018231D01*
X027844Y018112D02*
X032290Y018112D01*
X032290Y017994D02*
X027844Y017994D01*
X027950Y017875D02*
X032290Y017875D01*
X032290Y017757D02*
X028069Y017757D01*
X028187Y017638D02*
X032322Y017638D01*
X032588Y017898D02*
X032588Y020376D01*
X032588Y020500D02*
X032588Y020572D01*
X032825Y020482D02*
X035370Y020482D01*
X035370Y020364D02*
X032768Y020364D01*
X032768Y020245D02*
X035465Y020245D01*
X035465Y020251D02*
X035465Y017651D01*
X036140Y016976D01*
X036133Y016960D01*
X036133Y016807D01*
X036191Y016667D01*
X036299Y016559D01*
X036439Y016501D01*
X036591Y016501D01*
X036732Y016559D01*
X036840Y016667D01*
X036898Y016807D01*
X036898Y016960D01*
X036840Y017100D01*
X036732Y017208D01*
X036591Y017266D01*
X036439Y017266D01*
X036422Y017259D01*
X035865Y017817D01*
X035865Y020251D01*
X035890Y020251D01*
X035960Y020321D01*
X035960Y020841D01*
X035890Y020911D01*
X035440Y020911D01*
X035370Y020841D01*
X035370Y020321D01*
X035440Y020251D01*
X035465Y020251D01*
X035465Y020127D02*
X032768Y020127D01*
X032768Y020008D02*
X035465Y020008D01*
X035465Y019890D02*
X032768Y019890D01*
X032768Y019771D02*
X035465Y019771D01*
X035465Y019653D02*
X032768Y019653D01*
X032768Y019534D02*
X035465Y019534D01*
X035465Y019416D02*
X032768Y019416D01*
X032768Y019297D02*
X035465Y019297D01*
X035465Y019179D02*
X032768Y019179D01*
X032768Y019060D02*
X035465Y019060D01*
X035465Y018942D02*
X032768Y018942D01*
X032768Y018823D02*
X035465Y018823D01*
X035465Y018705D02*
X032768Y018705D01*
X032768Y018586D02*
X035465Y018586D01*
X035465Y018468D02*
X032768Y018468D01*
X032768Y018349D02*
X035465Y018349D01*
X035465Y018231D02*
X032768Y018231D01*
X032886Y018112D02*
X035465Y018112D01*
X035465Y017994D02*
X032886Y017994D01*
X032886Y017875D02*
X035465Y017875D01*
X035465Y017757D02*
X032886Y017757D01*
X032855Y017638D02*
X035478Y017638D01*
X035596Y017520D02*
X028306Y017520D01*
X028424Y017401D02*
X035715Y017401D01*
X035833Y017283D02*
X029799Y017283D01*
X029821Y017275D02*
X029758Y017296D01*
X029692Y017306D01*
X029687Y017306D01*
X029687Y016911D01*
X030082Y016911D01*
X030082Y016917D01*
X030071Y016982D01*
X030051Y017046D01*
X030021Y017105D01*
X029982Y017159D01*
X029934Y017206D01*
X029881Y017245D01*
X029821Y017275D01*
X029687Y017283D02*
X029631Y017283D01*
X029631Y017306D02*
X029626Y017306D01*
X029560Y017296D01*
X029497Y017275D01*
X029437Y017245D01*
X029384Y017206D01*
X029337Y017159D01*
X029297Y017105D01*
X029267Y017046D01*
X029247Y016982D01*
X029236Y016917D01*
X029236Y016911D01*
X029631Y016911D01*
X029631Y016856D01*
X029236Y016856D01*
X029236Y016850D01*
X029247Y016784D01*
X029267Y016721D01*
X029297Y016662D01*
X029337Y016608D01*
X029384Y016561D01*
X029437Y016522D01*
X029497Y016492D01*
X029532Y016480D01*
X021757Y016480D01*
X021809Y016518D01*
X021857Y016565D01*
X021896Y016619D01*
X021926Y016678D01*
X021946Y016741D01*
X021957Y016807D01*
X021957Y016813D01*
X021562Y016813D01*
X021562Y016868D01*
X021957Y016868D01*
X021957Y016874D01*
X021946Y016939D01*
X021926Y017003D01*
X021896Y017062D01*
X021857Y017116D01*
X021809Y017163D01*
X021756Y017202D01*
X021696Y017232D01*
X021633Y017253D01*
X021567Y017263D01*
X021562Y017263D01*
X021562Y016868D01*
X021506Y016868D01*
X021506Y016813D01*
X021111Y016813D01*
X021111Y016807D01*
X021122Y016741D01*
X021142Y016678D01*
X021172Y016619D01*
X021212Y016565D01*
X021259Y016518D01*
X021311Y016480D01*
X020664Y016480D01*
X020751Y016516D01*
X020859Y016623D01*
X020917Y016764D01*
X020917Y016916D01*
X020859Y017057D01*
X020751Y017165D01*
X020610Y017223D01*
X020458Y017223D01*
X020421Y017208D01*
X019641Y017988D01*
X019641Y020259D01*
X019686Y020259D01*
X019756Y020330D01*
X019756Y020849D01*
X019686Y020919D01*
X019236Y020919D01*
X019166Y020849D01*
X019166Y020330D01*
X019236Y020259D01*
X019281Y020259D01*
X019281Y017839D01*
X020166Y016953D01*
X020151Y016916D01*
X020151Y016764D01*
X020209Y016623D01*
X020317Y016516D01*
X020404Y016480D01*
X020294Y016480D01*
X018000Y018775D01*
X018000Y021325D01*
X018094Y021420D01*
X018200Y021525D01*
X018200Y021687D01*
X018286Y021687D01*
X018550Y021951D01*
X018550Y022323D01*
X018286Y022587D01*
X017914Y022587D01*
X017650Y022323D01*
X017650Y021951D01*
X017840Y021761D01*
X017840Y021675D01*
X017720Y021555D01*
X017437Y021837D01*
X017550Y021951D01*
X017550Y022323D01*
X017286Y022587D01*
X016914Y022587D01*
X016650Y022323D01*
X016650Y021951D01*
X016914Y021687D01*
X017078Y021687D01*
X017085Y021680D01*
X016494Y021680D01*
X016387Y021787D01*
X016550Y021951D01*
X016550Y022323D01*
X016286Y022587D01*
X015914Y022587D01*
X015650Y022323D01*
X015650Y021951D01*
X015914Y021687D01*
X015978Y021687D01*
X016045Y021620D01*
X016185Y021480D01*
X015794Y021480D01*
X015437Y021837D01*
X015550Y021951D01*
X015550Y022323D01*
X015286Y022587D01*
X014914Y022587D01*
X014650Y022323D01*
X014650Y021951D01*
X014914Y021687D01*
X015078Y021687D01*
X015585Y021180D01*
X014894Y021180D01*
X014337Y021737D01*
X014550Y021951D01*
X014550Y022323D01*
X014286Y022587D01*
X013914Y022587D01*
X013650Y022323D01*
X013650Y021951D01*
X013914Y021687D01*
X013940Y021687D01*
X013940Y021625D01*
X014045Y021520D01*
X014509Y021056D01*
X014047Y021056D01*
X013977Y020986D01*
X013977Y020414D01*
X014047Y020344D01*
X014619Y020344D01*
X014689Y020414D01*
X014689Y020520D01*
X015536Y020520D01*
X015667Y020389D01*
X015681Y020389D01*
X016050Y020020D01*
X016050Y019937D01*
X016119Y019868D01*
X016119Y005301D01*
X016099Y005281D01*
X016099Y005125D01*
X015554Y004580D01*
X014989Y004580D01*
X014989Y004686D01*
X014919Y004756D01*
X014347Y004756D01*
X014277Y004686D01*
X014277Y004114D01*
X014347Y004044D01*
X014919Y004044D01*
X014989Y004114D01*
X014989Y004220D01*
X015703Y004220D01*
X015808Y004325D01*
X016417Y004934D01*
X016446Y004934D01*
X016563Y005052D01*
X016563Y005217D01*
X016479Y005301D01*
X016479Y011731D01*
X023944Y011731D01*
X023944Y004899D01*
X023725Y004680D01*
X023289Y004680D01*
X023289Y004786D01*
X023219Y004856D01*
X022647Y004856D01*
X022577Y004786D01*
X022577Y004214D01*
X022647Y004144D01*
X023219Y004144D01*
X023289Y004214D01*
X023289Y004320D01*
X023874Y004320D01*
X024304Y004750D01*
X024304Y011731D01*
X031965Y011731D01*
X031965Y005204D01*
X031341Y004580D01*
X030789Y004580D01*
X030789Y004686D01*
X030719Y004756D01*
X030147Y004756D01*
X030077Y004686D01*
X030077Y004114D01*
X030147Y004044D01*
X030719Y004044D01*
X030789Y004114D01*
X030789Y004220D01*
X031490Y004220D01*
X032145Y004875D01*
X032440Y004581D01*
X032440Y003870D01*
X032334Y003870D01*
X032263Y003799D01*
X032263Y003227D01*
X032334Y003157D01*
X032906Y003157D01*
X032940Y003191D01*
X032940Y003009D01*
X032906Y003043D01*
X032334Y003043D01*
X032263Y002973D01*
X032263Y002480D01*
X018612Y002480D01*
X018145Y002946D01*
X018150Y002951D01*
X018150Y003323D01*
X017886Y003587D01*
X017514Y003587D01*
X017250Y003323D01*
X017250Y002951D01*
X017514Y002687D01*
X017886Y002687D01*
X017891Y002692D01*
X018294Y002289D01*
X008792Y002289D01*
X008792Y002352D02*
X018231Y002352D01*
X018112Y002470D02*
X008792Y002470D01*
X008792Y002589D02*
X017994Y002589D01*
X018266Y002826D02*
X018375Y002826D01*
X018385Y002707D02*
X018494Y002707D01*
X018514Y002687D02*
X018250Y002951D01*
X018250Y003323D01*
X018514Y003587D01*
X018886Y003587D01*
X019150Y003323D01*
X019150Y002951D01*
X018886Y002687D01*
X018514Y002687D01*
X018503Y002589D02*
X032263Y002589D01*
X032263Y002707D02*
X027906Y002707D01*
X027886Y002687D02*
X028150Y002951D01*
X028150Y003323D01*
X027886Y003587D01*
X027514Y003587D01*
X027250Y003323D01*
X027250Y002951D01*
X027514Y002687D01*
X027886Y002687D01*
X028025Y002826D02*
X032263Y002826D01*
X032263Y002944D02*
X028143Y002944D01*
X028150Y003063D02*
X032940Y003063D01*
X032929Y003181D02*
X032940Y003181D01*
X033120Y003300D02*
X033120Y002900D01*
X032906Y002687D01*
X032620Y002687D01*
X033063Y002589D02*
X033360Y002589D01*
X033360Y002707D02*
X033181Y002707D01*
X033300Y002826D02*
X033360Y002826D01*
X033360Y002944D02*
X033300Y002944D01*
X033300Y003063D02*
X033423Y003063D01*
X033408Y003181D02*
X033300Y003181D01*
X033120Y003300D02*
X033320Y003500D01*
X033644Y003500D01*
X033690Y003454D01*
X034020Y003418D02*
X044179Y003418D01*
X044179Y003300D02*
X034020Y003300D01*
X033971Y003181D02*
X044179Y003181D01*
X044179Y003063D02*
X033956Y003063D01*
X034020Y002944D02*
X044179Y002944D01*
X044179Y002826D02*
X034020Y002826D01*
X034020Y002707D02*
X044179Y002707D01*
X044179Y002589D02*
X034020Y002589D01*
X033844Y002470D02*
X044179Y002470D01*
X044179Y002352D02*
X033726Y002352D01*
X033690Y002570D02*
X033420Y002300D01*
X018537Y002300D01*
X017700Y003137D01*
X017375Y002826D02*
X017025Y002826D01*
X017143Y002944D02*
X017257Y002944D01*
X017150Y002951D02*
X016886Y002687D01*
X016514Y002687D01*
X016250Y002951D01*
X016250Y003323D01*
X016514Y003587D01*
X016886Y003587D01*
X017150Y003323D01*
X017150Y002951D01*
X017150Y003063D02*
X017250Y003063D01*
X017250Y003181D02*
X017150Y003181D01*
X017150Y003300D02*
X017250Y003300D01*
X017345Y003418D02*
X017055Y003418D01*
X016937Y003537D02*
X017463Y003537D01*
X017937Y003537D02*
X018463Y003537D01*
X018345Y003418D02*
X018055Y003418D01*
X018150Y003300D02*
X018250Y003300D01*
X018250Y003181D02*
X018150Y003181D01*
X018150Y003063D02*
X018250Y003063D01*
X018257Y002944D02*
X018148Y002944D01*
X018906Y002707D02*
X019494Y002707D01*
X019514Y002687D02*
X019886Y002687D01*
X020150Y002951D01*
X020150Y003323D01*
X019886Y003587D01*
X019514Y003587D01*
X019250Y003323D01*
X019250Y002951D01*
X019514Y002687D01*
X019375Y002826D02*
X019025Y002826D01*
X019143Y002944D02*
X019257Y002944D01*
X019250Y003063D02*
X019150Y003063D01*
X019150Y003181D02*
X019250Y003181D01*
X019250Y003300D02*
X019150Y003300D01*
X019055Y003418D02*
X019345Y003418D01*
X019463Y003537D02*
X018937Y003537D01*
X019625Y004224D02*
X020074Y004224D01*
X020145Y004294D01*
X020145Y004814D01*
X020074Y004884D01*
X020050Y004884D01*
X020050Y007397D01*
X020618Y007966D01*
X020635Y007959D01*
X020788Y007959D01*
X020928Y008017D01*
X021036Y008125D01*
X021094Y008266D01*
X021094Y008418D01*
X021036Y008559D01*
X020928Y008666D01*
X020788Y008725D01*
X020635Y008725D01*
X020495Y008666D01*
X020387Y008559D01*
X020329Y008418D01*
X020329Y008266D01*
X020336Y008249D01*
X019650Y007563D01*
X019650Y004884D01*
X019625Y004884D01*
X019555Y004814D01*
X019555Y004294D01*
X019625Y004224D01*
X019601Y004248D02*
X015730Y004248D01*
X015849Y004366D02*
X019555Y004366D01*
X019555Y004485D02*
X015967Y004485D01*
X016086Y004603D02*
X019555Y004603D01*
X019555Y004722D02*
X016204Y004722D01*
X016323Y004840D02*
X019581Y004840D01*
X019650Y004959D02*
X016470Y004959D01*
X016563Y005077D02*
X019650Y005077D01*
X019650Y005196D02*
X016563Y005196D01*
X016479Y005314D02*
X019650Y005314D01*
X019650Y005433D02*
X016479Y005433D01*
X016479Y005551D02*
X019650Y005551D01*
X019650Y005670D02*
X018953Y005670D01*
X018853Y005628D02*
X019116Y005737D01*
X019316Y005938D01*
X019425Y006200D01*
X019425Y006484D01*
X019316Y006746D01*
X019116Y006947D01*
X018853Y007055D01*
X018569Y007055D01*
X018307Y006947D01*
X018107Y006746D01*
X017998Y006484D01*
X017998Y006200D01*
X018107Y005938D01*
X018307Y005737D01*
X018569Y005628D01*
X018853Y005628D01*
X019167Y005788D02*
X019650Y005788D01*
X019650Y005907D02*
X019285Y005907D01*
X019353Y006025D02*
X019650Y006025D01*
X019650Y006144D02*
X019402Y006144D01*
X019425Y006262D02*
X019650Y006262D01*
X019650Y006381D02*
X019425Y006381D01*
X019419Y006499D02*
X019650Y006499D01*
X019650Y006618D02*
X019369Y006618D01*
X019320Y006736D02*
X019650Y006736D01*
X019650Y006855D02*
X019208Y006855D01*
X019052Y006973D02*
X019650Y006973D01*
X019650Y007092D02*
X016479Y007092D01*
X016479Y007210D02*
X019650Y007210D01*
X019650Y007329D02*
X016479Y007329D01*
X016479Y007447D02*
X019650Y007447D01*
X019652Y007566D02*
X016479Y007566D01*
X016479Y007684D02*
X019771Y007684D01*
X019889Y007803D02*
X016479Y007803D01*
X016479Y007921D02*
X020008Y007921D01*
X020126Y008040D02*
X016479Y008040D01*
X016479Y008158D02*
X020245Y008158D01*
X020329Y008277D02*
X016479Y008277D01*
X016479Y008395D02*
X020329Y008395D01*
X020368Y008514D02*
X016479Y008514D01*
X016479Y008632D02*
X020460Y008632D01*
X020962Y008632D02*
X021404Y008632D01*
X021389Y008617D02*
X021350Y008563D01*
X021320Y008504D01*
X021299Y008441D01*
X021289Y008375D01*
X021289Y008369D01*
X021684Y008369D01*
X021684Y008314D01*
X021739Y008314D01*
X021739Y007919D01*
X021745Y007919D01*
X021810Y007929D01*
X021874Y007950D01*
X021933Y007980D01*
X021987Y008019D01*
X022034Y008066D01*
X022073Y008120D01*
X022103Y008179D01*
X022124Y008243D01*
X022134Y008308D01*
X022134Y008314D01*
X021739Y008314D01*
X021739Y008369D01*
X022134Y008369D01*
X022134Y008375D01*
X022124Y008441D01*
X022103Y008504D01*
X022073Y008563D01*
X022034Y008617D01*
X021987Y008664D01*
X021933Y008703D01*
X021874Y008734D01*
X021810Y008754D01*
X021745Y008765D01*
X021739Y008765D01*
X021739Y008369D01*
X021684Y008369D01*
X021684Y008765D01*
X021678Y008765D01*
X021612Y008754D01*
X021549Y008734D01*
X021490Y008703D01*
X021436Y008664D01*
X021389Y008617D01*
X021324Y008514D02*
X021055Y008514D01*
X021094Y008395D02*
X021292Y008395D01*
X021289Y008314D02*
X021289Y008308D01*
X021299Y008243D01*
X021320Y008179D01*
X021350Y008120D01*
X021389Y008066D01*
X021436Y008019D01*
X021490Y007980D01*
X021549Y007950D01*
X021612Y007929D01*
X021678Y007919D01*
X021684Y007919D01*
X021684Y008314D01*
X021289Y008314D01*
X021294Y008277D02*
X021094Y008277D01*
X021050Y008158D02*
X021331Y008158D01*
X021416Y008040D02*
X020951Y008040D01*
X020574Y007921D02*
X021665Y007921D01*
X021684Y007921D02*
X021739Y007921D01*
X021758Y007921D02*
X023944Y007921D01*
X023944Y007803D02*
X020455Y007803D01*
X020337Y007684D02*
X023944Y007684D01*
X023944Y007566D02*
X020218Y007566D01*
X020100Y007447D02*
X023944Y007447D01*
X023944Y007329D02*
X020050Y007329D01*
X020050Y007210D02*
X023944Y007210D01*
X023944Y007092D02*
X020050Y007092D01*
X020050Y006973D02*
X023944Y006973D01*
X023944Y006855D02*
X020050Y006855D01*
X020050Y006736D02*
X023944Y006736D01*
X023944Y006618D02*
X020050Y006618D01*
X020050Y006499D02*
X023944Y006499D01*
X023944Y006381D02*
X020050Y006381D01*
X020050Y006262D02*
X023944Y006262D01*
X023944Y006144D02*
X020050Y006144D01*
X020050Y006025D02*
X023944Y006025D01*
X023944Y005907D02*
X020050Y005907D01*
X020050Y005788D02*
X023944Y005788D01*
X023944Y005670D02*
X020050Y005670D01*
X020050Y005551D02*
X023944Y005551D01*
X023944Y005433D02*
X020050Y005433D01*
X020050Y005314D02*
X023944Y005314D01*
X023944Y005196D02*
X020050Y005196D01*
X020050Y005077D02*
X023944Y005077D01*
X023944Y004959D02*
X020050Y004959D01*
X020118Y004840D02*
X020261Y004840D01*
X020235Y004814D02*
X020305Y004884D01*
X020754Y004884D01*
X020825Y004814D01*
X020825Y004680D01*
X021750Y004680D01*
X021750Y004786D01*
X021820Y004856D01*
X022392Y004856D01*
X022463Y004786D01*
X022463Y004214D01*
X022392Y004144D01*
X021820Y004144D01*
X021750Y004214D01*
X021750Y004320D01*
X020825Y004320D01*
X020825Y004294D01*
X020754Y004224D01*
X020305Y004224D01*
X020235Y004294D01*
X020235Y004814D01*
X020235Y004722D02*
X020145Y004722D01*
X020145Y004603D02*
X020235Y004603D01*
X020235Y004485D02*
X020145Y004485D01*
X020145Y004366D02*
X020235Y004366D01*
X020281Y004248D02*
X020098Y004248D01*
X020530Y004554D02*
X020584Y004500D01*
X022106Y004500D01*
X022463Y004485D02*
X022577Y004485D01*
X022577Y004603D02*
X022463Y004603D01*
X022463Y004722D02*
X022577Y004722D01*
X022631Y004840D02*
X022408Y004840D01*
X021804Y004840D02*
X020798Y004840D01*
X020825Y004722D02*
X021750Y004722D01*
X021750Y004248D02*
X020778Y004248D01*
X020886Y003587D02*
X020514Y003587D01*
X020250Y003323D01*
X020250Y002951D01*
X020514Y002687D01*
X020886Y002687D01*
X021150Y002951D01*
X021150Y003323D01*
X020886Y003587D01*
X020937Y003537D02*
X022463Y003537D01*
X022514Y003587D02*
X022250Y003323D01*
X022250Y002951D01*
X022514Y002687D01*
X022886Y002687D01*
X023150Y002951D01*
X023150Y003323D01*
X022886Y003587D01*
X022514Y003587D01*
X022345Y003418D02*
X021055Y003418D01*
X021150Y003300D02*
X022250Y003300D01*
X022250Y003181D02*
X021150Y003181D01*
X021150Y003063D02*
X022250Y003063D01*
X022257Y002944D02*
X021143Y002944D01*
X021025Y002826D02*
X022375Y002826D01*
X022494Y002707D02*
X020906Y002707D01*
X020494Y002707D02*
X019906Y002707D01*
X020025Y002826D02*
X020375Y002826D01*
X020257Y002944D02*
X020143Y002944D01*
X020150Y003063D02*
X020250Y003063D01*
X020250Y003181D02*
X020150Y003181D01*
X020150Y003300D02*
X020250Y003300D01*
X020345Y003418D02*
X020055Y003418D01*
X019937Y003537D02*
X020463Y003537D01*
X022463Y004248D02*
X022577Y004248D01*
X022577Y004366D02*
X022463Y004366D01*
X022933Y004500D02*
X023799Y004500D01*
X024124Y004824D01*
X024124Y011911D01*
X032145Y011911D01*
X038420Y011911D01*
X040069Y011911D01*
X041053Y011911D01*
X040968Y011713D02*
X040249Y011713D01*
X040249Y011595D02*
X042505Y011595D01*
X042503Y011593D02*
X042463Y011538D01*
X042432Y011478D01*
X042412Y011413D01*
X042401Y011346D01*
X042401Y011343D01*
X043071Y011343D01*
X043071Y011743D01*
X042797Y011743D01*
X042730Y011732D01*
X042666Y011711D01*
X042606Y011680D01*
X042551Y011641D01*
X042503Y011593D01*
X042432Y011476D02*
X040249Y011476D01*
X040249Y011358D02*
X042403Y011358D01*
X042401Y011283D02*
X042401Y011279D01*
X042412Y011212D01*
X042432Y011148D01*
X042463Y011087D01*
X042503Y011032D01*
X042551Y010985D01*
X042606Y010945D01*
X042666Y010914D01*
X042730Y010893D01*
X042797Y010883D01*
X043071Y010883D01*
X043071Y011283D01*
X042401Y011283D01*
X042407Y011239D02*
X040249Y011239D01*
X040249Y011121D02*
X042446Y011121D01*
X042533Y011002D02*
X040249Y011002D01*
X040249Y010884D02*
X042791Y010884D01*
X043071Y010884D02*
X043131Y010884D01*
X043131Y010883D02*
X043405Y010883D01*
X043472Y010893D01*
X043536Y010914D01*
X043596Y010945D01*
X043651Y010985D01*
X043699Y011032D01*
X043739Y011087D01*
X043769Y011148D01*
X043790Y011212D01*
X043801Y011279D01*
X043801Y011283D01*
X043131Y011283D01*
X043131Y011343D01*
X043071Y011343D01*
X043071Y011283D01*
X043131Y011283D01*
X043131Y010883D01*
X043131Y011002D02*
X043071Y011002D01*
X043071Y011121D02*
X043131Y011121D01*
X043131Y011239D02*
X043071Y011239D01*
X043071Y011358D02*
X043131Y011358D01*
X043131Y011343D02*
X043131Y011743D01*
X043405Y011743D01*
X043472Y011732D01*
X043536Y011711D01*
X043596Y011680D01*
X043651Y011641D01*
X043699Y011593D01*
X043739Y011538D01*
X043769Y011478D01*
X043790Y011413D01*
X043801Y011346D01*
X043801Y011343D01*
X043131Y011343D01*
X043131Y011476D02*
X043071Y011476D01*
X043071Y011595D02*
X043131Y011595D01*
X043131Y011713D02*
X043071Y011713D01*
X042672Y011713D02*
X041531Y011713D01*
X041650Y011832D02*
X044179Y011832D01*
X044179Y011950D02*
X043515Y011950D01*
X043678Y012069D02*
X044179Y012069D01*
X044179Y012187D02*
X043741Y012187D01*
X043761Y012306D02*
X044179Y012306D01*
X044179Y012424D02*
X043747Y012424D01*
X043693Y012543D02*
X044179Y012543D01*
X044179Y012661D02*
X043549Y012661D01*
X043449Y012923D02*
X043592Y012982D01*
X043702Y013092D01*
X043761Y013235D01*
X043761Y013390D01*
X043702Y013534D01*
X043592Y013643D01*
X043449Y013703D01*
X042753Y013703D01*
X042610Y013643D01*
X042500Y013534D01*
X042441Y013390D01*
X042441Y013235D01*
X042500Y013092D01*
X042610Y012982D01*
X042753Y012923D01*
X043449Y012923D01*
X043626Y013017D02*
X044179Y013017D01*
X044179Y013135D02*
X043720Y013135D01*
X043761Y013254D02*
X044179Y013254D01*
X044179Y013372D02*
X043761Y013372D01*
X043719Y013491D02*
X044179Y013491D01*
X044179Y013609D02*
X043626Y013609D01*
X044179Y013728D02*
X035102Y013728D01*
X035220Y013846D02*
X044179Y013846D01*
X044179Y013965D02*
X035339Y013965D01*
X035457Y014083D02*
X044179Y014083D01*
X044179Y014202D02*
X035500Y014202D01*
X035500Y014320D02*
X044179Y014320D01*
X044179Y014439D02*
X035500Y014439D01*
X035500Y014557D02*
X044179Y014557D01*
X044179Y014676D02*
X035500Y014676D01*
X035500Y014794D02*
X044179Y014794D01*
X044179Y014913D02*
X035500Y014913D01*
X035500Y015031D02*
X044179Y015031D01*
X044179Y015150D02*
X035524Y015150D01*
X035642Y015268D02*
X044179Y015268D01*
X044179Y015387D02*
X038361Y015387D01*
X038479Y015505D02*
X044179Y015505D01*
X044179Y015624D02*
X038598Y015624D01*
X038716Y015742D02*
X043108Y015742D01*
X043118Y015738D02*
X043318Y015738D01*
X043504Y015815D01*
X043645Y015956D01*
X043722Y016142D01*
X043722Y016342D01*
X043645Y016527D01*
X043504Y016669D01*
X043318Y016746D01*
X043118Y016746D01*
X042933Y016669D01*
X042791Y016527D01*
X042714Y016342D01*
X042714Y016142D01*
X042791Y015956D01*
X042933Y015815D01*
X043118Y015738D01*
X043328Y015742D02*
X044179Y015742D01*
X044179Y015861D02*
X043549Y015861D01*
X043655Y015979D02*
X044179Y015979D01*
X044179Y016098D02*
X043704Y016098D01*
X043722Y016216D02*
X044179Y016216D01*
X044179Y016335D02*
X043722Y016335D01*
X043676Y016453D02*
X044179Y016453D01*
X044179Y016572D02*
X043601Y016572D01*
X043452Y016690D02*
X044179Y016690D01*
X044179Y016809D02*
X041671Y016809D01*
X041716Y016763D02*
X041574Y016905D01*
X041389Y016982D01*
X041189Y016982D01*
X041004Y016905D01*
X040862Y016763D01*
X040785Y016578D01*
X040785Y016378D01*
X040862Y016193D01*
X041004Y016051D01*
X041189Y015974D01*
X041389Y015974D01*
X041574Y016051D01*
X041716Y016193D01*
X041793Y016378D01*
X041793Y016578D01*
X041716Y016763D01*
X041747Y016690D02*
X042984Y016690D01*
X042835Y016572D02*
X041793Y016572D01*
X041793Y016453D02*
X042760Y016453D01*
X042714Y016335D02*
X041775Y016335D01*
X041726Y016216D02*
X042714Y016216D01*
X042732Y016098D02*
X041621Y016098D01*
X041401Y015979D02*
X042782Y015979D01*
X042887Y015861D02*
X038835Y015861D01*
X038834Y015860D02*
X038834Y015860D01*
X038939Y015979D02*
X041177Y015979D01*
X040957Y016098D02*
X038939Y016098D01*
X038939Y016216D02*
X040852Y016216D01*
X040803Y016335D02*
X038939Y016335D01*
X039038Y016453D02*
X040785Y016453D01*
X040785Y016572D02*
X039157Y016572D01*
X039275Y016690D02*
X040831Y016690D01*
X040907Y016809D02*
X039394Y016809D01*
X039512Y016927D02*
X041057Y016927D01*
X041521Y016927D02*
X044179Y016927D01*
X044179Y017046D02*
X039631Y017046D01*
X039749Y017164D02*
X044179Y017164D01*
X044179Y017283D02*
X039868Y017283D01*
X039986Y017401D02*
X044179Y017401D01*
X044179Y017520D02*
X041378Y017520D01*
X041409Y017638D02*
X044179Y017638D01*
X044179Y017757D02*
X041444Y017757D01*
X041449Y017856D02*
X041370Y017856D01*
X041370Y017856D01*
X041449Y017856D01*
X041449Y017875D02*
X044179Y017875D01*
X044179Y017994D02*
X041449Y017994D01*
X041449Y018053D02*
X041370Y018053D01*
X041370Y018053D01*
X041370Y018053D01*
X041449Y018053D01*
X041449Y018112D02*
X044179Y018112D01*
X044179Y018231D02*
X041449Y018231D01*
X041449Y018250D02*
X041370Y018250D01*
X041370Y018250D01*
X041370Y018250D01*
X041449Y018250D01*
X041444Y018349D02*
X044179Y018349D01*
X044179Y018468D02*
X041449Y018468D01*
X041370Y018446D02*
X041370Y018446D01*
X041427Y018586D02*
X044179Y018586D01*
X044179Y018705D02*
X041409Y018705D01*
X041409Y018823D02*
X044179Y018823D01*
X044179Y018942D02*
X041409Y018942D01*
X041409Y019060D02*
X044179Y019060D01*
X044179Y019179D02*
X041449Y019179D01*
X041449Y019234D02*
X040915Y019234D01*
X041449Y019234D01*
X041449Y019297D02*
X044179Y019297D01*
X044179Y019416D02*
X041409Y019416D01*
X041409Y019534D02*
X044179Y019534D01*
X044179Y019653D02*
X041409Y019653D01*
X041449Y019771D02*
X044179Y019771D01*
X044179Y019890D02*
X041449Y019890D01*
X041409Y020008D02*
X044179Y020008D01*
X044179Y020127D02*
X041409Y020127D01*
X041409Y020245D02*
X044179Y020245D01*
X044179Y020364D02*
X041449Y020364D01*
X041449Y020415D02*
X040915Y020415D01*
X041449Y020415D01*
X041449Y020482D02*
X044179Y020482D01*
X044179Y020601D02*
X041409Y020601D01*
X041409Y020719D02*
X044179Y020719D01*
X044179Y020838D02*
X041409Y020838D01*
X041449Y020956D02*
X044179Y020956D01*
X044179Y021075D02*
X041449Y021075D01*
X041449Y021006D02*
X040915Y021006D01*
X040915Y021006D01*
X040915Y021006D01*
X040381Y021006D01*
X040381Y021022D01*
X040052Y021022D01*
X040073Y021002D01*
X040173Y021002D01*
X040186Y020989D01*
X040381Y020989D01*
X040381Y021006D01*
X040915Y021006D01*
X041449Y021006D01*
X041409Y021193D02*
X044179Y021193D01*
X044179Y021312D02*
X041409Y021312D01*
X041389Y021683D02*
X041574Y021759D01*
X041716Y021901D01*
X041793Y022086D01*
X041793Y022287D01*
X041716Y022472D01*
X041574Y022614D01*
X041389Y022690D01*
X041189Y022690D01*
X041004Y022614D01*
X040862Y022472D01*
X040785Y022287D01*
X040785Y022086D01*
X040862Y021901D01*
X041004Y021759D01*
X041189Y021683D01*
X041389Y021683D01*
X041600Y021786D02*
X044179Y021786D01*
X044179Y021904D02*
X041717Y021904D01*
X041766Y022023D02*
X042906Y022023D01*
X042789Y022141D02*
X041793Y022141D01*
X041793Y022260D02*
X042740Y022260D01*
X042714Y022378D02*
X041755Y022378D01*
X041692Y022497D02*
X042714Y022497D01*
X042752Y022615D02*
X041571Y022615D01*
X041007Y022615D02*
X013315Y022615D01*
X013303Y022627D02*
X013138Y022627D01*
X013138Y022175D01*
X013590Y022175D01*
X013590Y022340D01*
X013303Y022627D01*
X013138Y022615D02*
X013062Y022615D01*
X013062Y022627D02*
X012897Y022627D01*
X012610Y022340D01*
X012610Y022175D01*
X013062Y022175D01*
X013062Y022099D01*
X013138Y022099D01*
X013138Y021647D01*
X013303Y021647D01*
X013590Y021934D01*
X013590Y022099D01*
X013138Y022099D01*
X013138Y022175D01*
X013062Y022175D01*
X013062Y022627D01*
X013062Y022497D02*
X013138Y022497D01*
X013138Y022378D02*
X013062Y022378D01*
X013062Y022260D02*
X013138Y022260D01*
X013138Y022141D02*
X013650Y022141D01*
X013650Y022023D02*
X013590Y022023D01*
X013560Y021904D02*
X013697Y021904D01*
X013815Y021786D02*
X013442Y021786D01*
X013323Y021667D02*
X013940Y021667D01*
X014017Y021549D02*
X008792Y021549D01*
X008792Y021667D02*
X012877Y021667D01*
X012897Y021647D02*
X013062Y021647D01*
X013062Y022099D01*
X012610Y022099D01*
X012610Y021934D01*
X012897Y021647D01*
X013062Y021667D02*
X013138Y021667D01*
X013138Y021786D02*
X013062Y021786D01*
X013062Y021904D02*
X013138Y021904D01*
X013138Y022023D02*
X013062Y022023D01*
X013062Y022141D02*
X012550Y022141D01*
X012550Y022023D02*
X012610Y022023D01*
X012550Y021951D02*
X012286Y021687D01*
X011914Y021687D01*
X011650Y021951D01*
X011650Y022323D01*
X011914Y022587D01*
X012286Y022587D01*
X012550Y022323D01*
X012550Y021951D01*
X012503Y021904D02*
X012640Y021904D01*
X012758Y021786D02*
X012385Y021786D01*
X011815Y021786D02*
X008792Y021786D01*
X008792Y021904D02*
X011697Y021904D01*
X011650Y022023D02*
X008792Y022023D01*
X008792Y022141D02*
X011650Y022141D01*
X011650Y022260D02*
X008792Y022260D01*
X008792Y022378D02*
X011705Y022378D01*
X011823Y022497D02*
X008792Y022497D01*
X008792Y022615D02*
X012885Y022615D01*
X012767Y022497D02*
X012377Y022497D01*
X012495Y022378D02*
X012648Y022378D01*
X012610Y022260D02*
X012550Y022260D01*
X013433Y022497D02*
X013823Y022497D01*
X013705Y022378D02*
X013552Y022378D01*
X013590Y022260D02*
X013650Y022260D01*
X014100Y022137D02*
X014120Y022117D01*
X014120Y021700D01*
X014820Y021000D01*
X016720Y021000D01*
X017020Y020700D01*
X017020Y018300D01*
X019820Y015500D01*
X025620Y015500D01*
X025820Y015300D01*
X025820Y014400D01*
X026420Y013800D01*
X027020Y013800D01*
X027520Y014300D01*
X027520Y015200D01*
X027820Y015500D01*
X033320Y015500D01*
X033720Y015100D01*
X033720Y014200D01*
X034120Y013800D01*
X034920Y013800D01*
X035320Y014200D01*
X035320Y015200D01*
X035620Y015500D01*
X038220Y015500D01*
X038759Y016040D01*
X038759Y016429D01*
X040069Y017738D01*
X040069Y018801D01*
X040305Y019037D01*
X040915Y019037D01*
X040915Y019234D02*
X040915Y019234D01*
X040915Y019234D01*
X040381Y019234D01*
X040381Y019251D01*
X040182Y019251D01*
X040052Y019120D01*
X040052Y019038D01*
X040230Y019217D01*
X040381Y019217D01*
X040381Y019234D01*
X040915Y019234D01*
X040915Y019431D02*
X040108Y019431D01*
X039872Y019194D01*
X039872Y017817D01*
X038553Y016498D01*
X038553Y016133D01*
X038120Y015700D01*
X019920Y015700D01*
X017220Y018400D01*
X017220Y020900D01*
X016820Y021300D01*
X015720Y021300D01*
X015120Y021900D01*
X015120Y022117D01*
X015100Y022137D01*
X015550Y022141D02*
X015650Y022141D01*
X015650Y022023D02*
X015550Y022023D01*
X015503Y021904D02*
X015697Y021904D01*
X015815Y021786D02*
X015489Y021786D01*
X015607Y021667D02*
X015998Y021667D01*
X016117Y021549D02*
X015726Y021549D01*
X015454Y021312D02*
X014763Y021312D01*
X014644Y021430D02*
X015335Y021430D01*
X015217Y021549D02*
X014526Y021549D01*
X014407Y021667D02*
X015098Y021667D01*
X014815Y021786D02*
X014385Y021786D01*
X014503Y021904D02*
X014697Y021904D01*
X014650Y022023D02*
X014550Y022023D01*
X014550Y022141D02*
X014650Y022141D01*
X014650Y022260D02*
X014550Y022260D01*
X014495Y022378D02*
X014705Y022378D01*
X014823Y022497D02*
X014377Y022497D01*
X015377Y022497D02*
X015823Y022497D01*
X015705Y022378D02*
X015495Y022378D01*
X015550Y022260D02*
X015650Y022260D01*
X016100Y022137D02*
X016120Y022117D01*
X016120Y021800D01*
X016420Y021500D01*
X017020Y021500D01*
X017420Y021100D01*
X017420Y018500D01*
X020020Y015900D01*
X038020Y015900D01*
X038346Y016226D01*
X038346Y016567D01*
X039675Y017895D01*
X039675Y019391D01*
X039911Y019628D01*
X040915Y019628D01*
X040192Y019179D02*
X040110Y019179D01*
X040073Y019060D02*
X040052Y019060D01*
X040345Y018823D02*
X040421Y018823D01*
X040421Y018705D02*
X040249Y018705D01*
X040249Y018586D02*
X040403Y018586D01*
X040381Y018468D02*
X040249Y018468D01*
X040249Y018349D02*
X040386Y018349D01*
X040381Y018446D02*
X040460Y018446D01*
X040460Y018446D01*
X040381Y018446D01*
X040381Y018231D02*
X040249Y018231D01*
X040249Y018112D02*
X040381Y018112D01*
X040381Y017994D02*
X040249Y017994D01*
X040249Y017875D02*
X040381Y017875D01*
X040460Y017856D02*
X040460Y017856D01*
X040386Y017757D02*
X040249Y017757D01*
X040223Y017638D02*
X040421Y017638D01*
X040452Y017520D02*
X040105Y017520D01*
X039478Y017974D02*
X039478Y019588D01*
X039872Y019982D01*
X039872Y020021D01*
X040915Y020021D01*
X040915Y020218D02*
X039793Y020218D01*
X039242Y019667D01*
X039242Y018013D01*
X037933Y016704D01*
X037933Y016429D01*
X037804Y016300D01*
X020220Y016300D01*
X017820Y018700D01*
X017820Y021400D01*
X018020Y021600D01*
X018020Y022057D01*
X018100Y022137D01*
X018550Y022141D02*
X018650Y022141D01*
X018650Y022023D02*
X018550Y022023D01*
X018503Y021904D02*
X018697Y021904D01*
X018815Y021786D02*
X018385Y021786D01*
X018200Y021667D02*
X018940Y021667D01*
X018940Y021549D02*
X018200Y021549D01*
X018104Y021430D02*
X019035Y021430D01*
X019154Y021312D02*
X018000Y021312D01*
X018000Y021193D02*
X019272Y021193D01*
X019391Y021075D02*
X018000Y021075D01*
X018000Y020956D02*
X019509Y020956D01*
X019620Y021100D02*
X019120Y021600D01*
X019120Y022117D01*
X019100Y022137D01*
X019550Y022141D02*
X020250Y022141D01*
X020250Y022023D02*
X019550Y022023D01*
X019503Y021904D02*
X020297Y021904D01*
X020415Y021786D02*
X019385Y021786D01*
X019307Y021667D02*
X020440Y021667D01*
X020440Y021549D02*
X019426Y021549D01*
X019544Y021430D02*
X020535Y021430D01*
X020654Y021312D02*
X019663Y021312D01*
X019620Y021100D02*
X033820Y021100D01*
X034670Y021950D01*
X038569Y021950D01*
X039920Y020600D01*
X040903Y020600D01*
X040915Y020612D01*
X040915Y020809D02*
X040098Y020809D01*
X040098Y020822D02*
X039998Y020822D01*
X038620Y022200D01*
X034620Y022200D01*
X033720Y021300D01*
X020920Y021300D01*
X020620Y021600D01*
X020620Y022057D01*
X020700Y022137D01*
X021150Y022141D02*
X021250Y022141D01*
X021250Y022023D02*
X021150Y022023D01*
X021103Y021904D02*
X021297Y021904D01*
X021415Y021786D02*
X020985Y021786D01*
X020807Y021667D02*
X021598Y021667D01*
X021717Y021549D02*
X020926Y021549D01*
X020950Y020838D02*
X020436Y020838D01*
X020141Y020589D02*
X021317Y020589D01*
X021306Y020600D01*
X021663Y020601D02*
X021777Y020601D01*
X021777Y020719D02*
X021663Y020719D01*
X021663Y020838D02*
X021777Y020838D01*
X021777Y020482D02*
X021663Y020482D01*
X021663Y020364D02*
X021777Y020364D01*
X021846Y020245D02*
X021593Y020245D01*
X021019Y020245D02*
X019641Y020245D01*
X019641Y020127D02*
X023639Y020127D01*
X023520Y020245D02*
X022420Y020245D01*
X022489Y020364D02*
X023402Y020364D01*
X023420Y020600D02*
X024620Y019400D01*
X024620Y019100D01*
X024918Y019060D02*
X027444Y019060D01*
X027444Y018942D02*
X024918Y018942D01*
X024869Y018823D02*
X027444Y018823D01*
X027444Y018705D02*
X023248Y018705D01*
X023248Y018698D02*
X023248Y018982D01*
X023139Y019244D01*
X022938Y019445D01*
X022676Y019554D01*
X022392Y019554D01*
X022130Y019445D01*
X021929Y019244D01*
X021821Y018982D01*
X021821Y018698D01*
X021929Y018436D01*
X022130Y018235D01*
X022392Y018127D01*
X022676Y018127D01*
X022938Y018235D01*
X023139Y018436D01*
X023248Y018698D01*
X023201Y018586D02*
X027444Y018586D01*
X027444Y018468D02*
X023152Y018468D01*
X023052Y018349D02*
X027444Y018349D01*
X027444Y018231D02*
X022926Y018231D01*
X022142Y018231D02*
X019641Y018231D01*
X019641Y018349D02*
X022016Y018349D01*
X021916Y018468D02*
X019641Y018468D01*
X019641Y018586D02*
X021867Y018586D01*
X021821Y018705D02*
X019641Y018705D01*
X019641Y018823D02*
X021821Y018823D01*
X021821Y018942D02*
X019641Y018942D01*
X019641Y019060D02*
X021853Y019060D01*
X021902Y019179D02*
X019641Y019179D01*
X019641Y019297D02*
X021982Y019297D01*
X022100Y019416D02*
X019641Y019416D01*
X019641Y019534D02*
X022344Y019534D01*
X022724Y019534D02*
X024231Y019534D01*
X024113Y019653D02*
X019641Y019653D01*
X019641Y019771D02*
X023994Y019771D01*
X023876Y019890D02*
X019641Y019890D01*
X019641Y020008D02*
X023757Y020008D01*
X024029Y020245D02*
X027444Y020245D01*
X027444Y020127D02*
X024148Y020127D01*
X024266Y020008D02*
X027444Y020008D01*
X027444Y019890D02*
X024385Y019890D01*
X024503Y019771D02*
X027444Y019771D01*
X027444Y019653D02*
X024622Y019653D01*
X024740Y019534D02*
X027444Y019534D01*
X027444Y019416D02*
X024800Y019416D01*
X024918Y019297D02*
X027444Y019297D01*
X027444Y019179D02*
X024918Y019179D01*
X024322Y019179D02*
X023166Y019179D01*
X023215Y019060D02*
X024322Y019060D01*
X024322Y018942D02*
X023248Y018942D01*
X023248Y018823D02*
X024371Y018823D01*
X024322Y019297D02*
X023086Y019297D01*
X022968Y019416D02*
X024350Y019416D01*
X023911Y020364D02*
X027349Y020364D01*
X027349Y020482D02*
X023792Y020482D01*
X023674Y020601D02*
X027349Y020601D01*
X027349Y020719D02*
X023555Y020719D01*
X023420Y020600D02*
X022133Y020600D01*
X022489Y020838D02*
X027349Y020838D01*
X027514Y021687D02*
X027886Y021687D01*
X028150Y021951D01*
X028150Y022323D01*
X027886Y022587D01*
X027514Y022587D01*
X027250Y022323D01*
X027250Y021951D01*
X027514Y021687D01*
X027415Y021786D02*
X026985Y021786D01*
X026886Y021687D02*
X027150Y021951D01*
X027150Y022323D01*
X026886Y022587D01*
X026514Y022587D01*
X026250Y022323D01*
X026250Y021951D01*
X026514Y021687D01*
X026886Y021687D01*
X027103Y021904D02*
X027297Y021904D01*
X027250Y022023D02*
X027150Y022023D01*
X027150Y022141D02*
X027250Y022141D01*
X027250Y022260D02*
X027150Y022260D01*
X027095Y022378D02*
X027305Y022378D01*
X027423Y022497D02*
X026977Y022497D01*
X026423Y022497D02*
X025977Y022497D01*
X025886Y022587D02*
X026150Y022323D01*
X026150Y021951D01*
X025886Y021687D01*
X025514Y021687D01*
X025250Y021951D01*
X025250Y022323D01*
X025514Y022587D01*
X025886Y022587D01*
X026095Y022378D02*
X026305Y022378D01*
X026250Y022260D02*
X026150Y022260D01*
X026150Y022141D02*
X026250Y022141D01*
X026250Y022023D02*
X026150Y022023D01*
X026103Y021904D02*
X026297Y021904D01*
X026415Y021786D02*
X025985Y021786D01*
X025415Y021786D02*
X024985Y021786D01*
X024886Y021687D02*
X025150Y021951D01*
X025150Y022323D01*
X024886Y022587D01*
X024514Y022587D01*
X024250Y022323D01*
X024250Y021951D01*
X024514Y021687D01*
X024886Y021687D01*
X025103Y021904D02*
X025297Y021904D01*
X025250Y022023D02*
X025150Y022023D01*
X025150Y022141D02*
X025250Y022141D01*
X025250Y022260D02*
X025150Y022260D01*
X025095Y022378D02*
X025305Y022378D01*
X025423Y022497D02*
X024977Y022497D01*
X024423Y022497D02*
X023977Y022497D01*
X023886Y022587D02*
X024150Y022323D01*
X024150Y021951D01*
X023886Y021687D01*
X023514Y021687D01*
X023250Y021951D01*
X023250Y022323D01*
X023514Y022587D01*
X023886Y022587D01*
X024095Y022378D02*
X024305Y022378D01*
X024250Y022260D02*
X024150Y022260D01*
X024150Y022141D02*
X024250Y022141D01*
X024250Y022023D02*
X024150Y022023D01*
X024103Y021904D02*
X024297Y021904D01*
X024415Y021786D02*
X023985Y021786D01*
X023415Y021786D02*
X022985Y021786D01*
X022886Y021687D02*
X023150Y021951D01*
X023150Y022323D01*
X022886Y022587D01*
X022514Y022587D01*
X022250Y022323D01*
X022250Y021951D01*
X022514Y021687D01*
X022886Y021687D01*
X023103Y021904D02*
X023297Y021904D01*
X023250Y022023D02*
X023150Y022023D01*
X023150Y022141D02*
X023250Y022141D01*
X023250Y022260D02*
X023150Y022260D01*
X023095Y022378D02*
X023305Y022378D01*
X023423Y022497D02*
X022977Y022497D01*
X022423Y022497D02*
X021977Y022497D01*
X022095Y022378D02*
X022305Y022378D01*
X022250Y022260D02*
X022150Y022260D01*
X022150Y022141D02*
X022250Y022141D01*
X022250Y022023D02*
X022150Y022023D01*
X022103Y021904D02*
X022297Y021904D01*
X022415Y021786D02*
X021989Y021786D01*
X021720Y021800D02*
X021720Y022117D01*
X021700Y022137D01*
X021720Y021800D02*
X022020Y021500D01*
X033620Y021500D01*
X034520Y022400D01*
X038720Y022400D01*
X039917Y021202D01*
X040915Y021202D01*
X040977Y021786D02*
X039589Y021786D01*
X039470Y021904D02*
X040861Y021904D01*
X040812Y022023D02*
X039352Y022023D01*
X039233Y022141D02*
X040785Y022141D01*
X040785Y022260D02*
X039115Y022260D01*
X038996Y022378D02*
X040823Y022378D01*
X040886Y022497D02*
X038878Y022497D01*
X038466Y021754D02*
X039220Y021000D01*
X039220Y020600D01*
X038533Y020600D01*
X038177Y020601D02*
X038063Y020601D01*
X038063Y020719D02*
X038177Y020719D01*
X038177Y020838D02*
X038063Y020838D01*
X038063Y020886D02*
X037992Y020956D01*
X038063Y020886D02*
X038063Y020314D01*
X037992Y020244D01*
X037420Y020244D01*
X037350Y020314D01*
X037350Y020420D01*
X036640Y020420D01*
X036640Y020321D01*
X036570Y020251D01*
X036120Y020251D01*
X036050Y020321D01*
X036050Y020841D01*
X036120Y020911D01*
X036570Y020911D01*
X036640Y020841D01*
X036640Y020780D01*
X037350Y020780D01*
X037350Y020886D01*
X037420Y020956D01*
X037350Y020838D02*
X036640Y020838D01*
X036364Y020600D02*
X036345Y020581D01*
X036364Y020600D02*
X037706Y020600D01*
X038063Y020482D02*
X038177Y020482D01*
X038177Y020364D02*
X038063Y020364D01*
X038177Y020314D02*
X038247Y020244D01*
X038819Y020244D01*
X038889Y020314D01*
X038889Y020420D01*
X039294Y020420D01*
X039400Y020525D01*
X039400Y020865D01*
X039740Y020525D01*
X039845Y020420D01*
X040381Y020420D01*
X040381Y020415D01*
X040915Y020415D01*
X040915Y020415D01*
X040915Y020415D01*
X040381Y020415D01*
X040381Y020398D01*
X039718Y020398D01*
X039167Y019847D01*
X039062Y019741D01*
X039062Y019346D01*
X038920Y019488D01*
X038657Y019597D01*
X038373Y019597D01*
X038111Y019488D01*
X037910Y019288D01*
X037802Y019025D01*
X037802Y018741D01*
X037910Y018479D01*
X038111Y018279D01*
X038373Y018170D01*
X038657Y018170D01*
X038920Y018279D01*
X039062Y018421D01*
X039062Y018088D01*
X037932Y016958D01*
X037928Y016982D01*
X037907Y017046D01*
X037877Y017105D01*
X037838Y017159D01*
X037791Y017206D01*
X037737Y017245D01*
X037678Y017275D01*
X037614Y017296D01*
X037549Y017306D01*
X037543Y017306D01*
X037543Y016911D01*
X037488Y016911D01*
X037488Y017306D01*
X037482Y017306D01*
X037416Y017296D01*
X037353Y017275D01*
X037294Y017245D01*
X037240Y017206D01*
X037193Y017159D01*
X037154Y017105D01*
X037124Y017046D01*
X037103Y016982D01*
X037093Y016917D01*
X037093Y016911D01*
X037488Y016911D01*
X037488Y016856D01*
X037093Y016856D01*
X037093Y016850D01*
X037103Y016784D01*
X037124Y016721D01*
X037154Y016662D01*
X037193Y016608D01*
X037240Y016561D01*
X037294Y016522D01*
X037353Y016492D01*
X037389Y016480D01*
X029786Y016480D01*
X029821Y016492D01*
X029881Y016522D01*
X029934Y016561D01*
X029982Y016608D01*
X030021Y016662D01*
X030051Y016721D01*
X030071Y016784D01*
X030082Y016850D01*
X030082Y016856D01*
X029687Y016856D01*
X029687Y016911D01*
X029631Y016911D01*
X029631Y017306D01*
X029519Y017283D02*
X028543Y017283D01*
X028920Y017164D02*
X029342Y017164D01*
X029267Y017046D02*
X029006Y017046D01*
X029042Y016927D02*
X029238Y016927D01*
X029243Y016809D02*
X029042Y016809D01*
X028993Y016690D02*
X029283Y016690D01*
X029373Y016572D02*
X028889Y016572D01*
X028365Y016572D02*
X021861Y016572D01*
X021930Y016690D02*
X028298Y016690D01*
X028276Y016809D02*
X021957Y016809D01*
X021948Y016927D02*
X028276Y016927D01*
X028214Y017046D02*
X021904Y017046D01*
X021808Y017164D02*
X028096Y017164D01*
X027977Y017283D02*
X020346Y017283D01*
X020228Y017401D02*
X027859Y017401D01*
X027740Y017520D02*
X020109Y017520D01*
X019991Y017638D02*
X027622Y017638D01*
X027503Y017757D02*
X019872Y017757D01*
X019754Y017875D02*
X027444Y017875D01*
X027444Y017994D02*
X019641Y017994D01*
X019641Y018112D02*
X027444Y018112D01*
X029631Y017164D02*
X029687Y017164D01*
X029687Y017046D02*
X029631Y017046D01*
X029631Y016927D02*
X029687Y016927D01*
X029976Y017164D02*
X035952Y017164D01*
X036070Y017046D02*
X030051Y017046D01*
X030080Y016927D02*
X036133Y016927D01*
X036133Y016809D02*
X030075Y016809D01*
X030035Y016690D02*
X036181Y016690D01*
X036286Y016572D02*
X029945Y016572D01*
X030947Y018231D02*
X032408Y018231D01*
X032408Y018349D02*
X031134Y018349D01*
X031252Y018468D02*
X032408Y018468D01*
X032408Y018586D02*
X031308Y018586D01*
X031357Y018705D02*
X032408Y018705D01*
X032408Y018823D02*
X031373Y018823D01*
X031373Y018942D02*
X032408Y018942D01*
X032408Y019060D02*
X031358Y019060D01*
X031309Y019179D02*
X032408Y019179D01*
X032408Y019297D02*
X031254Y019297D01*
X031136Y019416D02*
X032408Y019416D01*
X032408Y019534D02*
X030953Y019534D01*
X030989Y020364D02*
X032346Y020364D01*
X033875Y020601D02*
X035370Y020601D01*
X035370Y020719D02*
X033993Y020719D01*
X034112Y020838D02*
X035370Y020838D01*
X035960Y020838D02*
X036050Y020838D01*
X036050Y020719D02*
X035960Y020719D01*
X035960Y020601D02*
X036050Y020601D01*
X036050Y020482D02*
X035960Y020482D01*
X035960Y020364D02*
X036050Y020364D01*
X035865Y020245D02*
X037419Y020245D01*
X037350Y020364D02*
X036640Y020364D01*
X035865Y020127D02*
X039447Y020127D01*
X039565Y020245D02*
X038820Y020245D01*
X038889Y020364D02*
X039684Y020364D01*
X039783Y020482D02*
X039356Y020482D01*
X039400Y020601D02*
X039665Y020601D01*
X039546Y020719D02*
X039400Y020719D01*
X039400Y020838D02*
X039428Y020838D01*
X039944Y021430D02*
X044179Y021430D01*
X044179Y021549D02*
X039826Y021549D01*
X039707Y021667D02*
X044179Y021667D01*
X044179Y022023D02*
X043530Y022023D01*
X043647Y022141D02*
X044179Y022141D01*
X044179Y022260D02*
X043696Y022260D01*
X043722Y022378D02*
X044179Y022378D01*
X044179Y022497D02*
X043722Y022497D01*
X043684Y022615D02*
X044179Y022615D01*
X044179Y022734D02*
X043620Y022734D01*
X043499Y022852D02*
X044179Y022852D01*
X042938Y022852D02*
X008792Y022852D01*
X008792Y022734D02*
X042816Y022734D01*
X039328Y020008D02*
X035865Y020008D01*
X035865Y019890D02*
X039210Y019890D01*
X039091Y019771D02*
X035865Y019771D01*
X035865Y019653D02*
X039062Y019653D01*
X039062Y019534D02*
X038809Y019534D01*
X038992Y019416D02*
X039062Y019416D01*
X038222Y019534D02*
X035865Y019534D01*
X035865Y019416D02*
X038038Y019416D01*
X037920Y019297D02*
X035865Y019297D01*
X035865Y019179D02*
X037865Y019179D01*
X037816Y019060D02*
X035865Y019060D01*
X035865Y018942D02*
X037802Y018942D01*
X037802Y018823D02*
X035865Y018823D01*
X035865Y018705D02*
X037817Y018705D01*
X037866Y018586D02*
X035865Y018586D01*
X035865Y018468D02*
X037922Y018468D01*
X038041Y018349D02*
X035865Y018349D01*
X035865Y018231D02*
X038227Y018231D01*
X038804Y018231D02*
X039062Y018231D01*
X039062Y018349D02*
X038990Y018349D01*
X039062Y018112D02*
X035865Y018112D01*
X035865Y017994D02*
X038967Y017994D01*
X038849Y017875D02*
X035865Y017875D01*
X035925Y017757D02*
X038730Y017757D01*
X038612Y017638D02*
X036044Y017638D01*
X036162Y017520D02*
X038493Y017520D01*
X038375Y017401D02*
X036281Y017401D01*
X036399Y017283D02*
X037376Y017283D01*
X037488Y017283D02*
X037543Y017283D01*
X037655Y017283D02*
X038256Y017283D01*
X038138Y017164D02*
X037833Y017164D01*
X037907Y017046D02*
X038019Y017046D01*
X038139Y016635D02*
X038139Y016360D01*
X037880Y016100D01*
X020120Y016100D01*
X017620Y018600D01*
X017620Y021400D01*
X017120Y021900D01*
X017120Y022117D01*
X017100Y022137D01*
X017550Y022141D02*
X017650Y022141D01*
X017650Y022023D02*
X017550Y022023D01*
X017503Y021904D02*
X017697Y021904D01*
X017815Y021786D02*
X017489Y021786D01*
X017607Y021667D02*
X017832Y021667D01*
X017650Y022260D02*
X017550Y022260D01*
X017495Y022378D02*
X017705Y022378D01*
X017823Y022497D02*
X017377Y022497D01*
X016823Y022497D02*
X016377Y022497D01*
X016495Y022378D02*
X016705Y022378D01*
X016650Y022260D02*
X016550Y022260D01*
X016550Y022141D02*
X016650Y022141D01*
X016650Y022023D02*
X016550Y022023D01*
X016503Y021904D02*
X016697Y021904D01*
X016815Y021786D02*
X016389Y021786D01*
X015572Y021193D02*
X014881Y021193D01*
X014491Y021075D02*
X008792Y021075D01*
X008792Y021193D02*
X014372Y021193D01*
X014254Y021312D02*
X008792Y021312D01*
X008792Y021430D02*
X014135Y021430D01*
X013977Y020956D02*
X013863Y020956D01*
X013863Y020986D02*
X013792Y021056D01*
X013220Y021056D01*
X013150Y020986D01*
X013150Y020880D01*
X012514Y020880D01*
X012452Y020942D01*
X012003Y020942D01*
X011932Y020872D01*
X011932Y020352D01*
X012003Y020282D01*
X012452Y020282D01*
X012522Y020352D01*
X012522Y020520D01*
X013150Y020520D01*
X013150Y020414D01*
X013220Y020344D01*
X013792Y020344D01*
X013863Y020414D01*
X013863Y020986D01*
X013863Y020838D02*
X013977Y020838D01*
X013977Y020719D02*
X013863Y020719D01*
X013863Y020601D02*
X013977Y020601D01*
X013977Y020482D02*
X013863Y020482D01*
X013812Y020364D02*
X014027Y020364D01*
X014333Y020700D02*
X015610Y020700D01*
X015741Y020569D01*
X015846Y020719D02*
X016746Y020719D01*
X016840Y020601D02*
X015950Y020601D01*
X016069Y020482D02*
X016840Y020482D01*
X016840Y020364D02*
X016187Y020364D01*
X016320Y020245D02*
X016840Y020245D01*
X016840Y020127D02*
X016410Y020127D01*
X016479Y020008D02*
X016840Y020008D01*
X016840Y019890D02*
X016479Y019890D01*
X016479Y019771D02*
X016840Y019771D01*
X016840Y019653D02*
X016479Y019653D01*
X016479Y019534D02*
X016840Y019534D01*
X016840Y019416D02*
X016479Y019416D01*
X016479Y019297D02*
X016840Y019297D01*
X016840Y019179D02*
X016479Y019179D01*
X016479Y019060D02*
X016840Y019060D01*
X016840Y018942D02*
X016479Y018942D01*
X016479Y018823D02*
X016840Y018823D01*
X016840Y018705D02*
X016479Y018705D01*
X016479Y018586D02*
X016840Y018586D01*
X016840Y018468D02*
X016479Y018468D01*
X016479Y018349D02*
X016840Y018349D01*
X016840Y018231D02*
X016479Y018231D01*
X016479Y018112D02*
X016953Y018112D01*
X017072Y017994D02*
X016479Y017994D01*
X016479Y017875D02*
X017190Y017875D01*
X017309Y017757D02*
X016479Y017757D01*
X016479Y017638D02*
X017427Y017638D01*
X017546Y017520D02*
X016479Y017520D01*
X016479Y017401D02*
X017664Y017401D01*
X017783Y017283D02*
X016479Y017283D01*
X016479Y017164D02*
X017901Y017164D01*
X018020Y017046D02*
X016479Y017046D01*
X016479Y016927D02*
X018138Y016927D01*
X018257Y016809D02*
X016479Y016809D01*
X016479Y016690D02*
X018375Y016690D01*
X018494Y016572D02*
X016479Y016572D01*
X016479Y016453D02*
X018612Y016453D01*
X018731Y016335D02*
X016479Y016335D01*
X016479Y016216D02*
X018849Y016216D01*
X018968Y016098D02*
X016479Y016098D01*
X016479Y015979D02*
X019086Y015979D01*
X019205Y015861D02*
X016479Y015861D01*
X016479Y015742D02*
X019323Y015742D01*
X019442Y015624D02*
X016479Y015624D01*
X016479Y015505D02*
X018274Y015505D01*
X018392Y015554D02*
X018130Y015445D01*
X017929Y015244D01*
X017821Y014982D01*
X017821Y014698D01*
X017929Y014436D01*
X018130Y014235D01*
X018392Y014127D01*
X018676Y014127D01*
X018938Y014235D01*
X019139Y014436D01*
X019248Y014698D01*
X019248Y014982D01*
X019139Y015244D01*
X018938Y015445D01*
X018676Y015554D01*
X018392Y015554D01*
X018071Y015387D02*
X016479Y015387D01*
X016479Y015268D02*
X017953Y015268D01*
X017890Y015150D02*
X016479Y015150D01*
X016479Y015031D02*
X017841Y015031D01*
X017821Y014913D02*
X016479Y014913D01*
X016479Y014794D02*
X017821Y014794D01*
X017830Y014676D02*
X016479Y014676D01*
X016479Y014557D02*
X017879Y014557D01*
X017928Y014439D02*
X016479Y014439D01*
X016479Y014320D02*
X018045Y014320D01*
X018212Y014202D02*
X016479Y014202D01*
X016479Y014083D02*
X025882Y014083D01*
X025764Y014202D02*
X018856Y014202D01*
X019023Y014320D02*
X025645Y014320D01*
X025640Y014439D02*
X019140Y014439D01*
X019189Y014557D02*
X025640Y014557D01*
X025640Y014676D02*
X019238Y014676D01*
X019248Y014794D02*
X025640Y014794D01*
X025640Y014913D02*
X019248Y014913D01*
X019227Y015031D02*
X025640Y015031D01*
X025640Y015150D02*
X019178Y015150D01*
X019115Y015268D02*
X025597Y015268D01*
X026001Y013965D02*
X016479Y013965D01*
X016479Y013846D02*
X026119Y013846D01*
X026238Y013728D02*
X016479Y013728D01*
X016479Y013609D02*
X042576Y013609D01*
X042483Y013491D02*
X038718Y013491D01*
X038718Y013372D02*
X042441Y013372D01*
X042441Y013254D02*
X038718Y013254D01*
X038718Y013135D02*
X042482Y013135D01*
X042576Y013017D02*
X038662Y013017D01*
X038620Y012898D02*
X044179Y012898D01*
X044179Y012780D02*
X038620Y012780D01*
X038620Y012661D02*
X042653Y012661D01*
X042509Y012543D02*
X038620Y012543D01*
X038620Y012424D02*
X041677Y012424D01*
X041558Y012306D02*
X038620Y012306D01*
X038620Y012187D02*
X041440Y012187D01*
X041768Y011950D02*
X042687Y011950D01*
X042524Y012069D02*
X041887Y012069D01*
X043530Y011713D02*
X044179Y011713D01*
X044179Y011595D02*
X043697Y011595D01*
X043770Y011476D02*
X044179Y011476D01*
X044179Y011358D02*
X043799Y011358D01*
X043795Y011239D02*
X044179Y011239D01*
X044179Y011121D02*
X043756Y011121D01*
X043669Y011002D02*
X044179Y011002D01*
X044179Y010884D02*
X043411Y010884D01*
X044179Y010765D02*
X040249Y010765D01*
X040249Y010647D02*
X044179Y010647D01*
X044179Y010528D02*
X040249Y010528D01*
X040249Y010410D02*
X044179Y010410D01*
X044179Y010291D02*
X040249Y010291D01*
X040249Y010173D02*
X044179Y010173D01*
X044179Y010054D02*
X040249Y010054D01*
X040249Y009936D02*
X044179Y009936D01*
X044179Y009817D02*
X040249Y009817D01*
X040249Y009699D02*
X044179Y009699D01*
X044179Y009580D02*
X040249Y009580D01*
X040249Y009462D02*
X044179Y009462D01*
X044179Y009343D02*
X040249Y009343D01*
X040249Y009225D02*
X044179Y009225D01*
X044179Y009106D02*
X040249Y009106D01*
X040249Y008988D02*
X044179Y008988D01*
X044179Y008869D02*
X040249Y008869D01*
X040249Y008751D02*
X044179Y008751D01*
X044179Y008632D02*
X040249Y008632D01*
X040249Y008514D02*
X044179Y008514D01*
X044179Y008395D02*
X040249Y008395D01*
X040249Y008277D02*
X044179Y008277D01*
X044179Y008158D02*
X040249Y008158D01*
X040249Y008040D02*
X044179Y008040D01*
X044179Y007921D02*
X040249Y007921D01*
X040249Y007803D02*
X044179Y007803D01*
X044179Y007684D02*
X040249Y007684D01*
X040249Y007566D02*
X044179Y007566D01*
X044179Y007447D02*
X040249Y007447D01*
X040249Y007329D02*
X044179Y007329D01*
X044179Y007210D02*
X040249Y007210D01*
X040249Y007092D02*
X044179Y007092D01*
X044179Y006973D02*
X040249Y006973D01*
X040249Y006855D02*
X044179Y006855D01*
X044179Y006736D02*
X040249Y006736D01*
X040249Y006618D02*
X044179Y006618D01*
X044179Y006499D02*
X040249Y006499D01*
X040249Y006381D02*
X044179Y006381D01*
X044179Y006262D02*
X040249Y006262D01*
X040249Y006144D02*
X044179Y006144D01*
X044179Y006025D02*
X040249Y006025D01*
X040249Y005907D02*
X044179Y005907D01*
X044179Y005788D02*
X040249Y005788D01*
X040249Y005670D02*
X044179Y005670D01*
X044179Y005551D02*
X040249Y005551D01*
X040249Y005433D02*
X044179Y005433D01*
X044179Y005314D02*
X040249Y005314D01*
X040249Y005196D02*
X044179Y005196D01*
X044179Y005077D02*
X040239Y005077D01*
X040239Y004959D02*
X044179Y004959D01*
X044179Y004840D02*
X040239Y004840D01*
X040239Y004722D02*
X044179Y004722D01*
X044179Y004603D02*
X040249Y004603D01*
X040180Y004485D02*
X044179Y004485D01*
X044179Y004366D02*
X040062Y004366D01*
X039943Y004248D02*
X044179Y004248D01*
X044179Y004129D02*
X038989Y004129D01*
X038633Y004400D02*
X039841Y004400D01*
X040069Y004628D01*
X039899Y004722D02*
X038954Y004722D01*
X038989Y004603D02*
X039789Y004603D01*
X039899Y004840D02*
X035939Y004840D01*
X035939Y004775D02*
X035939Y007415D01*
X036473Y007949D01*
X036490Y007942D01*
X036642Y007942D01*
X036783Y008000D01*
X036891Y008108D01*
X036949Y008248D01*
X036949Y008401D01*
X036891Y008541D01*
X036783Y008649D01*
X036642Y008707D01*
X036490Y008707D01*
X036349Y008649D01*
X036241Y008541D01*
X036183Y008401D01*
X036183Y008248D01*
X036190Y008231D01*
X035539Y007581D01*
X035539Y004775D01*
X035515Y004775D01*
X035444Y004705D01*
X035444Y004186D01*
X035515Y004115D01*
X035964Y004115D01*
X036034Y004186D01*
X036034Y004705D01*
X035964Y004775D01*
X035939Y004775D01*
X036018Y004722D02*
X036141Y004722D01*
X036124Y004705D02*
X036195Y004775D01*
X036644Y004775D01*
X036714Y004705D01*
X036714Y004580D01*
X037450Y004580D01*
X037450Y004686D01*
X037520Y004756D01*
X038092Y004756D01*
X038163Y004686D01*
X038163Y004114D01*
X038092Y004044D01*
X037520Y004044D01*
X037450Y004114D01*
X037450Y004220D01*
X036714Y004220D01*
X036714Y004186D01*
X036644Y004115D01*
X036195Y004115D01*
X036124Y004186D01*
X036124Y004705D01*
X036124Y004603D02*
X036034Y004603D01*
X036034Y004485D02*
X036124Y004485D01*
X036124Y004366D02*
X036034Y004366D01*
X036034Y004248D02*
X036124Y004248D01*
X036181Y004129D02*
X035978Y004129D01*
X035501Y004129D02*
X032800Y004129D01*
X032800Y004011D02*
X044179Y004011D01*
X044179Y003892D02*
X032800Y003892D01*
X032976Y003774D02*
X044179Y003774D01*
X044179Y003655D02*
X034020Y003655D01*
X034020Y003537D02*
X044179Y003537D01*
X040069Y005218D02*
X040069Y011911D01*
X039889Y011713D02*
X038505Y011713D01*
X038335Y011713D02*
X032325Y011713D01*
X032325Y011595D02*
X039889Y011595D01*
X039889Y011476D02*
X032325Y011476D01*
X032325Y011358D02*
X039889Y011358D01*
X039889Y011239D02*
X032325Y011239D01*
X032325Y011121D02*
X039889Y011121D01*
X039889Y011002D02*
X038795Y011002D01*
X038708Y011038D02*
X038424Y011038D01*
X038162Y010929D01*
X037961Y010729D01*
X037852Y010466D01*
X037852Y010182D01*
X037961Y009920D01*
X038162Y009720D01*
X038424Y009611D01*
X038708Y009611D01*
X038970Y009720D01*
X039171Y009920D01*
X039279Y010182D01*
X039279Y010466D01*
X039171Y010729D01*
X038970Y010929D01*
X038708Y011038D01*
X039016Y010884D02*
X039889Y010884D01*
X039889Y010765D02*
X039134Y010765D01*
X039205Y010647D02*
X039889Y010647D01*
X039889Y010528D02*
X039254Y010528D01*
X039279Y010410D02*
X039889Y010410D01*
X039889Y010291D02*
X039279Y010291D01*
X039275Y010173D02*
X039889Y010173D01*
X039889Y010054D02*
X039226Y010054D01*
X039177Y009936D02*
X039889Y009936D01*
X039889Y009817D02*
X039068Y009817D01*
X038919Y009699D02*
X039889Y009699D01*
X039889Y009580D02*
X032325Y009580D01*
X032325Y009462D02*
X039889Y009462D01*
X039889Y009343D02*
X032325Y009343D01*
X032325Y009225D02*
X039889Y009225D01*
X039889Y009106D02*
X032325Y009106D01*
X032325Y008988D02*
X039889Y008988D01*
X039889Y008869D02*
X032325Y008869D01*
X032325Y008751D02*
X039889Y008751D01*
X039889Y008632D02*
X037856Y008632D01*
X037841Y008647D02*
X037788Y008686D01*
X037728Y008716D01*
X037665Y008737D01*
X037599Y008747D01*
X037594Y008747D01*
X037594Y008352D01*
X037989Y008352D01*
X037989Y008358D01*
X037978Y008423D01*
X037958Y008487D01*
X037928Y008546D01*
X037888Y008600D01*
X037841Y008647D01*
X037944Y008514D02*
X039889Y008514D01*
X039889Y008395D02*
X037983Y008395D01*
X037989Y008297D02*
X037594Y008297D01*
X037594Y008352D01*
X037538Y008352D01*
X037538Y008297D01*
X037143Y008297D01*
X037143Y008291D01*
X037154Y008225D01*
X037174Y008162D01*
X037204Y008103D01*
X037243Y008049D01*
X037291Y008002D01*
X037344Y007963D01*
X037404Y007933D01*
X037467Y007912D01*
X037533Y007902D01*
X037538Y007902D01*
X037538Y008297D01*
X037594Y008297D01*
X037594Y007902D01*
X037599Y007902D01*
X037665Y007912D01*
X037728Y007933D01*
X037788Y007963D01*
X037841Y008002D01*
X037888Y008049D01*
X037928Y008103D01*
X037958Y008162D01*
X037978Y008225D01*
X037989Y008291D01*
X037989Y008297D01*
X037986Y008277D02*
X039889Y008277D01*
X039889Y008158D02*
X037956Y008158D01*
X037879Y008040D02*
X039889Y008040D01*
X039889Y007921D02*
X037693Y007921D01*
X037594Y007921D02*
X037538Y007921D01*
X037439Y007921D02*
X036445Y007921D01*
X036327Y007803D02*
X039889Y007803D01*
X039889Y007684D02*
X036208Y007684D01*
X036090Y007566D02*
X039889Y007566D01*
X039889Y007447D02*
X035971Y007447D01*
X035939Y007329D02*
X039889Y007329D01*
X039889Y007210D02*
X035939Y007210D01*
X035939Y007092D02*
X039889Y007092D01*
X039889Y006973D02*
X035939Y006973D01*
X035939Y006855D02*
X039889Y006855D01*
X039889Y006736D02*
X035939Y006736D01*
X035939Y006618D02*
X039889Y006618D01*
X039889Y006499D02*
X035939Y006499D01*
X035939Y006381D02*
X039889Y006381D01*
X039889Y006262D02*
X035939Y006262D01*
X035939Y006144D02*
X039889Y006144D01*
X039889Y006025D02*
X035939Y006025D01*
X035939Y005907D02*
X039889Y005907D01*
X039889Y005788D02*
X035939Y005788D01*
X035939Y005670D02*
X039889Y005670D01*
X039889Y005551D02*
X035939Y005551D01*
X035939Y005433D02*
X039889Y005433D01*
X039889Y005314D02*
X035939Y005314D01*
X035939Y005196D02*
X039889Y005196D01*
X039899Y005077D02*
X035939Y005077D01*
X035939Y004959D02*
X039899Y004959D01*
X038312Y004722D02*
X038127Y004722D01*
X038163Y004603D02*
X038277Y004603D01*
X038277Y004485D02*
X038163Y004485D01*
X038163Y004366D02*
X038277Y004366D01*
X038277Y004248D02*
X038163Y004248D01*
X038163Y004129D02*
X038277Y004129D01*
X037806Y004400D02*
X036465Y004400D01*
X036419Y004445D01*
X036714Y004603D02*
X037450Y004603D01*
X037486Y004722D02*
X036698Y004722D01*
X036658Y004129D02*
X037450Y004129D01*
X035444Y004248D02*
X032800Y004248D01*
X032800Y004366D02*
X035444Y004366D01*
X035444Y004485D02*
X032800Y004485D01*
X032800Y004603D02*
X035444Y004603D01*
X035461Y004722D02*
X032800Y004722D01*
X032689Y004840D02*
X035539Y004840D01*
X035539Y004959D02*
X032571Y004959D01*
X032452Y005077D02*
X035539Y005077D01*
X035539Y005196D02*
X032334Y005196D01*
X032325Y005314D02*
X035539Y005314D01*
X035539Y005433D02*
X032325Y005433D01*
X032325Y005551D02*
X035539Y005551D01*
X035539Y005670D02*
X034849Y005670D01*
X034970Y005720D02*
X035171Y005920D01*
X035279Y006182D01*
X035279Y006466D01*
X035171Y006729D01*
X034970Y006929D01*
X034708Y007038D01*
X034424Y007038D01*
X034162Y006929D01*
X033961Y006729D01*
X033852Y006466D01*
X033852Y006182D01*
X033961Y005920D01*
X034162Y005720D01*
X034424Y005611D01*
X034708Y005611D01*
X034970Y005720D01*
X035039Y005788D02*
X035539Y005788D01*
X035539Y005907D02*
X035157Y005907D01*
X035214Y006025D02*
X035539Y006025D01*
X035539Y006144D02*
X035263Y006144D01*
X035279Y006262D02*
X035539Y006262D01*
X035539Y006381D02*
X035279Y006381D01*
X035266Y006499D02*
X035539Y006499D01*
X035539Y006618D02*
X035217Y006618D01*
X035163Y006736D02*
X035539Y006736D01*
X035539Y006855D02*
X035045Y006855D01*
X034865Y006973D02*
X035539Y006973D01*
X035539Y007092D02*
X032325Y007092D01*
X032325Y007210D02*
X035539Y007210D01*
X035539Y007329D02*
X032325Y007329D01*
X032325Y007447D02*
X035539Y007447D01*
X035539Y007566D02*
X032325Y007566D01*
X032325Y007684D02*
X035643Y007684D01*
X035761Y007803D02*
X032325Y007803D01*
X032325Y007921D02*
X035880Y007921D01*
X035998Y008040D02*
X032325Y008040D01*
X032325Y008158D02*
X036117Y008158D01*
X036183Y008277D02*
X032325Y008277D01*
X032325Y008395D02*
X036183Y008395D01*
X036230Y008514D02*
X032325Y008514D01*
X032325Y008632D02*
X036332Y008632D01*
X036800Y008632D02*
X037276Y008632D01*
X037291Y008647D02*
X037243Y008600D01*
X037204Y008546D01*
X037174Y008487D01*
X037154Y008423D01*
X037143Y008358D01*
X037143Y008352D01*
X037538Y008352D01*
X037538Y008747D01*
X037533Y008747D01*
X037467Y008737D01*
X037404Y008716D01*
X037344Y008686D01*
X037291Y008647D01*
X037188Y008514D02*
X036902Y008514D01*
X036949Y008395D02*
X037149Y008395D01*
X037146Y008277D02*
X036949Y008277D01*
X036911Y008158D02*
X037176Y008158D01*
X037253Y008040D02*
X036822Y008040D01*
X037538Y008040D02*
X037594Y008040D01*
X037594Y008158D02*
X037538Y008158D01*
X037538Y008277D02*
X037594Y008277D01*
X037594Y008395D02*
X037538Y008395D01*
X037538Y008514D02*
X037594Y008514D01*
X037594Y008632D02*
X037538Y008632D01*
X038213Y009699D02*
X032325Y009699D01*
X032325Y009817D02*
X038064Y009817D01*
X037955Y009936D02*
X032325Y009936D01*
X032325Y010054D02*
X037906Y010054D01*
X037857Y010173D02*
X032325Y010173D01*
X032325Y010291D02*
X037852Y010291D01*
X037852Y010410D02*
X032325Y010410D01*
X032325Y010528D02*
X037878Y010528D01*
X037927Y010647D02*
X032325Y010647D01*
X032325Y010765D02*
X037998Y010765D01*
X038116Y010884D02*
X032325Y010884D01*
X032325Y011002D02*
X038337Y011002D01*
X038220Y012187D02*
X016479Y012187D01*
X016479Y012306D02*
X038220Y012306D01*
X038220Y012424D02*
X016479Y012424D01*
X016479Y012543D02*
X038220Y012543D01*
X038220Y012661D02*
X016479Y012661D01*
X016479Y012780D02*
X038220Y012780D01*
X038220Y012898D02*
X016479Y012898D01*
X016479Y013017D02*
X038177Y013017D01*
X038122Y013135D02*
X016479Y013135D01*
X016479Y013254D02*
X038122Y013254D01*
X038122Y013372D02*
X016479Y013372D01*
X016479Y013491D02*
X038122Y013491D01*
X033938Y013728D02*
X027202Y013728D01*
X027320Y013846D02*
X033819Y013846D01*
X033701Y013965D02*
X027439Y013965D01*
X027557Y014083D02*
X033582Y014083D01*
X033540Y014202D02*
X027676Y014202D01*
X027700Y014320D02*
X033540Y014320D01*
X033540Y014439D02*
X027700Y014439D01*
X027700Y014557D02*
X033540Y014557D01*
X033540Y014676D02*
X027700Y014676D01*
X027700Y014794D02*
X033540Y014794D01*
X033540Y014913D02*
X027700Y014913D01*
X027700Y015031D02*
X033534Y015031D01*
X033416Y015150D02*
X027724Y015150D01*
X027842Y015268D02*
X033297Y015268D01*
X036745Y016572D02*
X037229Y016572D01*
X037139Y016690D02*
X036850Y016690D01*
X036898Y016809D02*
X037099Y016809D01*
X037094Y016927D02*
X036898Y016927D01*
X036863Y017046D02*
X037123Y017046D01*
X037198Y017164D02*
X036776Y017164D01*
X037488Y017164D02*
X037543Y017164D01*
X037543Y017046D02*
X037488Y017046D01*
X037488Y016927D02*
X037543Y016927D01*
X038139Y016635D02*
X039478Y017974D01*
X040915Y017994D02*
X040915Y017994D01*
X040915Y018031D02*
X040915Y018053D01*
X040915Y018053D01*
X040915Y018250D01*
X040915Y018250D01*
X040915Y018446D01*
X040915Y018446D01*
X040915Y018250D01*
X040915Y018250D01*
X040915Y018053D01*
X040915Y018053D01*
X040915Y017856D01*
X040915Y017856D01*
X040915Y018031D01*
X040915Y018112D02*
X040915Y018112D01*
X040915Y018231D02*
X040915Y018231D01*
X040915Y018349D02*
X040915Y018349D01*
X040915Y017875D02*
X040915Y017875D01*
X038246Y020245D02*
X037993Y020245D01*
X038177Y020314D02*
X038177Y020886D01*
X038247Y020956D01*
X034362Y022497D02*
X027977Y022497D01*
X028095Y022378D02*
X034243Y022378D01*
X034125Y022260D02*
X028150Y022260D01*
X028150Y022141D02*
X034006Y022141D01*
X033888Y022023D02*
X028150Y022023D01*
X028103Y021904D02*
X033769Y021904D01*
X033651Y021786D02*
X027985Y021786D01*
X021423Y022497D02*
X020977Y022497D01*
X021095Y022378D02*
X021305Y022378D01*
X021250Y022260D02*
X021150Y022260D01*
X020423Y022497D02*
X019377Y022497D01*
X019495Y022378D02*
X020305Y022378D01*
X020250Y022260D02*
X019550Y022260D01*
X018823Y022497D02*
X018377Y022497D01*
X018495Y022378D02*
X018705Y022378D01*
X018650Y022260D02*
X018550Y022260D01*
X018000Y020838D02*
X019166Y020838D01*
X019166Y020719D02*
X018000Y020719D01*
X018000Y020601D02*
X019166Y020601D01*
X019166Y020482D02*
X018000Y020482D01*
X018000Y020364D02*
X019166Y020364D01*
X019281Y020245D02*
X018000Y020245D01*
X018000Y020127D02*
X019281Y020127D01*
X019281Y020008D02*
X018000Y020008D01*
X018000Y019890D02*
X019281Y019890D01*
X019281Y019771D02*
X018000Y019771D01*
X018000Y019653D02*
X019281Y019653D01*
X019281Y019534D02*
X018000Y019534D01*
X018000Y019416D02*
X019281Y019416D01*
X019281Y019297D02*
X018000Y019297D01*
X018000Y019179D02*
X019281Y019179D01*
X019281Y019060D02*
X018000Y019060D01*
X018000Y018942D02*
X019281Y018942D01*
X019281Y018823D02*
X018000Y018823D01*
X018070Y018705D02*
X019281Y018705D01*
X019281Y018586D02*
X018188Y018586D01*
X018307Y018468D02*
X019281Y018468D01*
X019281Y018349D02*
X018425Y018349D01*
X018544Y018231D02*
X019281Y018231D01*
X019281Y018112D02*
X018662Y018112D01*
X018781Y017994D02*
X019281Y017994D01*
X019281Y017875D02*
X018899Y017875D01*
X019018Y017757D02*
X019363Y017757D01*
X019482Y017638D02*
X019136Y017638D01*
X019255Y017520D02*
X019600Y017520D01*
X019719Y017401D02*
X019373Y017401D01*
X019492Y017283D02*
X019837Y017283D01*
X019956Y017164D02*
X019610Y017164D01*
X019729Y017046D02*
X020074Y017046D01*
X020156Y016927D02*
X019847Y016927D01*
X019966Y016809D02*
X020151Y016809D01*
X020182Y016690D02*
X020084Y016690D01*
X020203Y016572D02*
X020261Y016572D01*
X020534Y016840D02*
X019461Y017913D01*
X019461Y020589D01*
X019756Y020601D02*
X019846Y020601D01*
X019846Y020719D02*
X019756Y020719D01*
X019756Y020838D02*
X019846Y020838D01*
X019846Y020482D02*
X019756Y020482D01*
X019756Y020364D02*
X019846Y020364D01*
X020436Y020364D02*
X020950Y020364D01*
X021435Y017253D02*
X021372Y017232D01*
X021312Y017202D01*
X021259Y017163D01*
X021212Y017116D01*
X021172Y017062D01*
X021142Y017003D01*
X021122Y016939D01*
X021111Y016874D01*
X021111Y016868D01*
X021506Y016868D01*
X021506Y017263D01*
X021501Y017263D01*
X021435Y017253D01*
X021506Y017164D02*
X021562Y017164D01*
X021562Y017046D02*
X021506Y017046D01*
X021506Y016927D02*
X021562Y016927D01*
X021260Y017164D02*
X020752Y017164D01*
X020863Y017046D02*
X021164Y017046D01*
X021120Y016927D02*
X020912Y016927D01*
X020917Y016809D02*
X021111Y016809D01*
X021138Y016690D02*
X020886Y016690D01*
X020807Y016572D02*
X021207Y016572D01*
X019679Y015387D02*
X018997Y015387D01*
X018794Y015505D02*
X019560Y015505D01*
X016119Y015505D02*
X010474Y015505D01*
X010469Y015507D02*
X010185Y015507D01*
X009923Y015399D01*
X009722Y015198D01*
X009613Y014936D01*
X009613Y014652D01*
X009722Y014390D01*
X009923Y014189D01*
X010185Y014080D01*
X010469Y014080D01*
X010731Y014189D01*
X010932Y014390D01*
X011040Y014652D01*
X011040Y014936D01*
X010932Y015198D01*
X010731Y015399D01*
X010469Y015507D01*
X010179Y015505D02*
X008792Y015505D01*
X008792Y015387D02*
X009910Y015387D01*
X009792Y015268D02*
X008792Y015268D01*
X008792Y015150D02*
X009702Y015150D01*
X009653Y015031D02*
X008792Y015031D01*
X008792Y014913D02*
X009613Y014913D01*
X009613Y014794D02*
X008792Y014794D01*
X008792Y014676D02*
X009613Y014676D01*
X009653Y014557D02*
X008792Y014557D01*
X008792Y014439D02*
X009702Y014439D01*
X009792Y014320D02*
X008792Y014320D01*
X008792Y014202D02*
X009910Y014202D01*
X010178Y014083D02*
X008792Y014083D01*
X008792Y013965D02*
X016119Y013965D01*
X016119Y014083D02*
X010475Y014083D01*
X010743Y014202D02*
X016119Y014202D01*
X016119Y014320D02*
X010862Y014320D01*
X010952Y014439D02*
X016119Y014439D01*
X016119Y014557D02*
X011001Y014557D01*
X011040Y014676D02*
X016119Y014676D01*
X016119Y014794D02*
X011040Y014794D01*
X011040Y014913D02*
X016119Y014913D01*
X016119Y015031D02*
X011001Y015031D01*
X010952Y015150D02*
X016119Y015150D01*
X016119Y015268D02*
X010862Y015268D01*
X010743Y015387D02*
X016119Y015387D01*
X016119Y015624D02*
X008792Y015624D01*
X008792Y015742D02*
X016119Y015742D01*
X016119Y015861D02*
X008792Y015861D01*
X008792Y015979D02*
X016119Y015979D01*
X016119Y016098D02*
X008792Y016098D01*
X008792Y016216D02*
X016119Y016216D01*
X016119Y016335D02*
X008792Y016335D01*
X008792Y016453D02*
X012149Y016453D01*
X012110Y016469D02*
X012251Y016411D01*
X012403Y016411D01*
X012544Y016469D01*
X012651Y016577D01*
X012710Y016718D01*
X012710Y016870D01*
X012651Y017011D01*
X012544Y017118D01*
X012403Y017177D01*
X012251Y017177D01*
X012234Y017170D01*
X011747Y017656D01*
X011747Y020282D01*
X011772Y020282D01*
X011842Y020352D01*
X011842Y020872D01*
X011772Y020942D01*
X011323Y020942D01*
X011252Y020872D01*
X011252Y020352D01*
X011323Y020282D01*
X011347Y020282D01*
X011347Y017490D01*
X011951Y016887D01*
X011944Y016870D01*
X011944Y016718D01*
X012002Y016577D01*
X012110Y016469D01*
X012008Y016572D02*
X008792Y016572D01*
X008792Y016690D02*
X011955Y016690D01*
X011944Y016809D02*
X008792Y016809D01*
X008792Y016927D02*
X011911Y016927D01*
X011792Y017046D02*
X008792Y017046D01*
X008792Y017164D02*
X011674Y017164D01*
X011555Y017283D02*
X008792Y017283D01*
X008792Y017401D02*
X011437Y017401D01*
X011347Y017520D02*
X008792Y017520D01*
X008792Y017638D02*
X011347Y017638D01*
X011347Y017757D02*
X008792Y017757D01*
X008792Y017875D02*
X011347Y017875D01*
X011347Y017994D02*
X008792Y017994D01*
X008792Y018112D02*
X011347Y018112D01*
X011347Y018231D02*
X008792Y018231D01*
X008792Y018349D02*
X011347Y018349D01*
X011347Y018468D02*
X008792Y018468D01*
X008792Y018586D02*
X011347Y018586D01*
X011347Y018705D02*
X008792Y018705D01*
X008792Y018823D02*
X011347Y018823D01*
X011347Y018942D02*
X008792Y018942D01*
X008792Y019060D02*
X011347Y019060D01*
X011347Y019179D02*
X008792Y019179D01*
X008792Y019297D02*
X011347Y019297D01*
X011347Y019416D02*
X008792Y019416D01*
X008792Y019534D02*
X011347Y019534D01*
X011347Y019653D02*
X008792Y019653D01*
X008792Y019771D02*
X011347Y019771D01*
X011347Y019890D02*
X008792Y019890D01*
X008792Y020008D02*
X011347Y020008D01*
X011347Y020127D02*
X008792Y020127D01*
X008792Y020245D02*
X011347Y020245D01*
X011252Y020364D02*
X008792Y020364D01*
X008792Y020482D02*
X011252Y020482D01*
X011252Y020601D02*
X008792Y020601D01*
X008792Y020719D02*
X011252Y020719D01*
X011252Y020838D02*
X008792Y020838D01*
X008792Y020956D02*
X013150Y020956D01*
X013506Y020700D02*
X012316Y020700D01*
X012227Y020612D01*
X011932Y020601D02*
X011842Y020601D01*
X011842Y020719D02*
X011932Y020719D01*
X011932Y020838D02*
X011842Y020838D01*
X011842Y020482D02*
X011932Y020482D01*
X011932Y020364D02*
X011842Y020364D01*
X011747Y020245D02*
X015825Y020245D01*
X015943Y020127D02*
X011747Y020127D01*
X011747Y020008D02*
X016050Y020008D01*
X016097Y019890D02*
X011747Y019890D01*
X011747Y019771D02*
X016119Y019771D01*
X016119Y019653D02*
X011747Y019653D01*
X011747Y019534D02*
X016119Y019534D01*
X016119Y019416D02*
X014690Y019416D01*
X014731Y019399D02*
X014469Y019507D01*
X014185Y019507D01*
X013923Y019399D01*
X013722Y019198D01*
X013613Y018936D01*
X013613Y018652D01*
X013722Y018390D01*
X013923Y018189D01*
X014185Y018080D01*
X014469Y018080D01*
X014731Y018189D01*
X014932Y018390D01*
X015040Y018652D01*
X015040Y018936D01*
X014932Y019198D01*
X014731Y019399D01*
X014833Y019297D02*
X016119Y019297D01*
X016119Y019179D02*
X014940Y019179D01*
X014989Y019060D02*
X016119Y019060D01*
X016119Y018942D02*
X015038Y018942D01*
X015040Y018823D02*
X016119Y018823D01*
X016119Y018705D02*
X015040Y018705D01*
X015013Y018586D02*
X016119Y018586D01*
X016119Y018468D02*
X014964Y018468D01*
X014891Y018349D02*
X016119Y018349D01*
X016119Y018231D02*
X014772Y018231D01*
X014545Y018112D02*
X016119Y018112D01*
X016119Y017994D02*
X011747Y017994D01*
X011747Y018112D02*
X014108Y018112D01*
X013881Y018231D02*
X011747Y018231D01*
X011747Y018349D02*
X013763Y018349D01*
X013690Y018468D02*
X011747Y018468D01*
X011747Y018586D02*
X013641Y018586D01*
X013613Y018705D02*
X011747Y018705D01*
X011747Y018823D02*
X013613Y018823D01*
X013616Y018942D02*
X011747Y018942D01*
X011747Y019060D02*
X013665Y019060D01*
X013714Y019179D02*
X011747Y019179D01*
X011747Y019297D02*
X013821Y019297D01*
X013963Y019416D02*
X011747Y019416D01*
X012522Y020364D02*
X013201Y020364D01*
X013150Y020482D02*
X012522Y020482D01*
X014639Y020364D02*
X015706Y020364D01*
X015574Y020482D02*
X014689Y020482D01*
X016230Y020080D02*
X016230Y020011D01*
X016299Y019943D01*
X016299Y011911D01*
X024124Y011911D01*
X024304Y011713D02*
X031965Y011713D01*
X031965Y011595D02*
X024304Y011595D01*
X024304Y011476D02*
X031965Y011476D01*
X031965Y011358D02*
X024304Y011358D01*
X024304Y011239D02*
X031965Y011239D01*
X031965Y011121D02*
X024304Y011121D01*
X024304Y011002D02*
X030441Y011002D01*
X030519Y011034D02*
X030257Y010926D01*
X030056Y010725D01*
X029947Y010463D01*
X029947Y010179D01*
X030056Y009917D01*
X030257Y009716D01*
X030519Y009607D01*
X030803Y009607D01*
X031065Y009716D01*
X031266Y009917D01*
X031374Y010179D01*
X031374Y010463D01*
X031266Y010725D01*
X031065Y010926D01*
X030803Y011034D01*
X030519Y011034D01*
X030214Y010884D02*
X024304Y010884D01*
X024304Y010765D02*
X030096Y010765D01*
X030023Y010647D02*
X024304Y010647D01*
X024304Y010528D02*
X029974Y010528D01*
X029947Y010410D02*
X024304Y010410D01*
X024304Y010291D02*
X029947Y010291D01*
X029950Y010173D02*
X024304Y010173D01*
X024304Y010054D02*
X029999Y010054D01*
X030048Y009936D02*
X024304Y009936D01*
X024304Y009817D02*
X030156Y009817D01*
X030299Y009699D02*
X024304Y009699D01*
X024304Y009580D02*
X031965Y009580D01*
X031965Y009462D02*
X024304Y009462D01*
X024304Y009343D02*
X031965Y009343D01*
X031965Y009225D02*
X024304Y009225D01*
X024304Y009106D02*
X031965Y009106D01*
X031965Y008988D02*
X024304Y008988D01*
X024304Y008869D02*
X031965Y008869D01*
X031965Y008751D02*
X024304Y008751D01*
X024304Y008632D02*
X028431Y008632D01*
X028444Y008645D02*
X028336Y008538D01*
X028278Y008397D01*
X028278Y008245D01*
X028285Y008228D01*
X027392Y007335D01*
X027392Y004768D01*
X027368Y004768D01*
X027297Y004698D01*
X027297Y004178D01*
X027368Y004108D01*
X027817Y004108D01*
X027887Y004178D01*
X027887Y004698D01*
X027817Y004768D01*
X027792Y004768D01*
X027792Y007170D01*
X028568Y007945D01*
X028585Y007938D01*
X028737Y007938D01*
X028878Y007996D01*
X028985Y008104D01*
X029044Y008245D01*
X029044Y008397D01*
X028985Y008538D01*
X028878Y008645D01*
X028737Y008704D01*
X028585Y008704D01*
X028444Y008645D01*
X028326Y008514D02*
X024304Y008514D01*
X024304Y008395D02*
X028278Y008395D01*
X028278Y008277D02*
X024304Y008277D01*
X024304Y008158D02*
X028215Y008158D01*
X028097Y008040D02*
X024304Y008040D01*
X024304Y007921D02*
X027978Y007921D01*
X027860Y007803D02*
X024304Y007803D01*
X024304Y007684D02*
X027741Y007684D01*
X027623Y007566D02*
X024304Y007566D01*
X024304Y007447D02*
X027504Y007447D01*
X027392Y007329D02*
X024304Y007329D01*
X024304Y007210D02*
X027392Y007210D01*
X027392Y007092D02*
X024304Y007092D01*
X024304Y006973D02*
X026371Y006973D01*
X026257Y006926D02*
X026056Y006725D01*
X025947Y006463D01*
X025947Y006179D01*
X026056Y005917D01*
X026257Y005716D01*
X026519Y005607D01*
X026803Y005607D01*
X027065Y005716D01*
X027266Y005917D01*
X027374Y006179D01*
X027374Y006463D01*
X027266Y006725D01*
X027065Y006926D01*
X026803Y007034D01*
X026519Y007034D01*
X026257Y006926D01*
X026185Y006855D02*
X024304Y006855D01*
X024304Y006736D02*
X026067Y006736D01*
X026011Y006618D02*
X024304Y006618D01*
X024304Y006499D02*
X025962Y006499D01*
X025947Y006381D02*
X024304Y006381D01*
X024304Y006262D02*
X025947Y006262D01*
X025962Y006144D02*
X024304Y006144D01*
X024304Y006025D02*
X026011Y006025D01*
X026066Y005907D02*
X024304Y005907D01*
X024304Y005788D02*
X026185Y005788D01*
X026369Y005670D02*
X024304Y005670D01*
X024304Y005551D02*
X027392Y005551D01*
X027392Y005433D02*
X024304Y005433D01*
X024304Y005314D02*
X027392Y005314D01*
X027392Y005196D02*
X024304Y005196D01*
X024304Y005077D02*
X027392Y005077D01*
X027392Y004959D02*
X024304Y004959D01*
X024304Y004840D02*
X027392Y004840D01*
X027321Y004722D02*
X024275Y004722D01*
X024157Y004603D02*
X027297Y004603D01*
X027297Y004485D02*
X024038Y004485D01*
X023920Y004366D02*
X027297Y004366D01*
X027297Y004248D02*
X023289Y004248D01*
X023289Y004722D02*
X023766Y004722D01*
X023885Y004840D02*
X023235Y004840D01*
X023514Y003587D02*
X023250Y003323D01*
X023250Y002951D01*
X023514Y002687D01*
X023886Y002687D01*
X024150Y002951D01*
X024150Y003323D01*
X023886Y003587D01*
X023514Y003587D01*
X023463Y003537D02*
X022937Y003537D01*
X023055Y003418D02*
X023345Y003418D01*
X023250Y003300D02*
X023150Y003300D01*
X023150Y003181D02*
X023250Y003181D01*
X023250Y003063D02*
X023150Y003063D01*
X023143Y002944D02*
X023257Y002944D01*
X023375Y002826D02*
X023025Y002826D01*
X022906Y002707D02*
X023494Y002707D01*
X023906Y002707D02*
X024494Y002707D01*
X024514Y002687D02*
X024886Y002687D01*
X025150Y002951D01*
X025150Y003323D01*
X024886Y003587D01*
X024514Y003587D01*
X024250Y003323D01*
X024250Y002951D01*
X024514Y002687D01*
X024375Y002826D02*
X024025Y002826D01*
X024143Y002944D02*
X024257Y002944D01*
X024250Y003063D02*
X024150Y003063D01*
X024150Y003181D02*
X024250Y003181D01*
X024250Y003300D02*
X024150Y003300D01*
X024055Y003418D02*
X024345Y003418D01*
X024463Y003537D02*
X023937Y003537D01*
X024937Y003537D02*
X025463Y003537D01*
X025514Y003587D02*
X025250Y003323D01*
X025250Y002951D01*
X025514Y002687D01*
X025886Y002687D01*
X026150Y002951D01*
X026150Y003323D01*
X025886Y003587D01*
X025514Y003587D01*
X025345Y003418D02*
X025055Y003418D01*
X025150Y003300D02*
X025250Y003300D01*
X025250Y003181D02*
X025150Y003181D01*
X025150Y003063D02*
X025250Y003063D01*
X025257Y002944D02*
X025143Y002944D01*
X025025Y002826D02*
X025375Y002826D01*
X025494Y002707D02*
X024906Y002707D01*
X025906Y002707D02*
X026494Y002707D01*
X026514Y002687D02*
X026886Y002687D01*
X027150Y002951D01*
X027150Y003323D01*
X026886Y003587D01*
X026514Y003587D01*
X026250Y003323D01*
X026250Y002951D01*
X026514Y002687D01*
X026375Y002826D02*
X026025Y002826D01*
X026143Y002944D02*
X026257Y002944D01*
X026250Y003063D02*
X026150Y003063D01*
X026150Y003181D02*
X026250Y003181D01*
X026250Y003300D02*
X026150Y003300D01*
X026055Y003418D02*
X026345Y003418D01*
X026463Y003537D02*
X025937Y003537D01*
X026937Y003537D02*
X027463Y003537D01*
X027345Y003418D02*
X027055Y003418D01*
X027150Y003300D02*
X027250Y003300D01*
X027250Y003181D02*
X027150Y003181D01*
X027150Y003063D02*
X027250Y003063D01*
X027257Y002944D02*
X027143Y002944D01*
X027025Y002826D02*
X027375Y002826D01*
X027494Y002707D02*
X026906Y002707D01*
X027937Y003537D02*
X032263Y003537D01*
X032263Y003655D02*
X008792Y003655D01*
X008792Y003537D02*
X015463Y003537D01*
X015514Y003587D02*
X015250Y003323D01*
X015250Y002951D01*
X015514Y002687D01*
X015886Y002687D01*
X016150Y002951D01*
X016150Y003323D01*
X015886Y003587D01*
X015514Y003587D01*
X015345Y003418D02*
X008792Y003418D01*
X008792Y003300D02*
X015250Y003300D01*
X015250Y003181D02*
X008792Y003181D01*
X008792Y003063D02*
X015250Y003063D01*
X015257Y002944D02*
X008792Y002944D01*
X008792Y002826D02*
X015375Y002826D01*
X015494Y002707D02*
X008792Y002707D01*
X008792Y003774D02*
X032263Y003774D01*
X032440Y003892D02*
X008792Y003892D01*
X008792Y004011D02*
X032440Y004011D01*
X032440Y004129D02*
X030789Y004129D01*
X030433Y004400D02*
X031416Y004400D01*
X032145Y005130D01*
X032620Y004655D01*
X032620Y003513D01*
X032976Y003537D02*
X033102Y003537D01*
X033220Y003655D02*
X032976Y003655D01*
X032976Y003418D02*
X032983Y003418D01*
X032310Y003181D02*
X028150Y003181D01*
X028150Y003300D02*
X032263Y003300D01*
X032263Y003418D02*
X028055Y003418D01*
X028048Y004108D02*
X028497Y004108D01*
X028567Y004178D01*
X028567Y004220D01*
X029250Y004220D01*
X029250Y004114D01*
X029320Y004044D01*
X029892Y004044D01*
X029963Y004114D01*
X029963Y004686D01*
X029892Y004756D01*
X029320Y004756D01*
X029250Y004686D01*
X029250Y004580D01*
X028567Y004580D01*
X028567Y004698D01*
X028497Y004768D01*
X028048Y004768D01*
X027977Y004698D01*
X027977Y004178D01*
X028048Y004108D01*
X028027Y004129D02*
X027838Y004129D01*
X027887Y004248D02*
X027977Y004248D01*
X027977Y004366D02*
X027887Y004366D01*
X027887Y004485D02*
X027977Y004485D01*
X027977Y004603D02*
X027887Y004603D01*
X027863Y004722D02*
X028001Y004722D01*
X027792Y004840D02*
X031601Y004840D01*
X031483Y004722D02*
X030754Y004722D01*
X030789Y004603D02*
X031364Y004603D01*
X031636Y004366D02*
X032440Y004366D01*
X032440Y004248D02*
X031518Y004248D01*
X031755Y004485D02*
X032440Y004485D01*
X032417Y004603D02*
X031873Y004603D01*
X031992Y004722D02*
X032299Y004722D01*
X032180Y004840D02*
X032110Y004840D01*
X032145Y005130D02*
X032145Y011911D01*
X031965Y011002D02*
X030881Y011002D01*
X031107Y010884D02*
X031965Y010884D01*
X031965Y010765D02*
X031226Y010765D01*
X031298Y010647D02*
X031965Y010647D01*
X031965Y010528D02*
X031347Y010528D01*
X031374Y010410D02*
X031965Y010410D01*
X031965Y010291D02*
X031374Y010291D01*
X031372Y010173D02*
X031965Y010173D01*
X031965Y010054D02*
X031323Y010054D01*
X031273Y009936D02*
X031965Y009936D01*
X031965Y009817D02*
X031166Y009817D01*
X031023Y009699D02*
X031965Y009699D01*
X031965Y008632D02*
X029948Y008632D01*
X029936Y008643D02*
X029882Y008682D01*
X029823Y008713D01*
X029760Y008733D01*
X029694Y008744D01*
X029688Y008744D01*
X029688Y008348D01*
X030084Y008348D01*
X030084Y008354D01*
X030073Y008420D01*
X030053Y008483D01*
X030022Y008542D01*
X029983Y008596D01*
X029936Y008643D01*
X030037Y008514D02*
X031965Y008514D01*
X031965Y008395D02*
X030077Y008395D01*
X030084Y008293D02*
X029688Y008293D01*
X029688Y007898D01*
X029694Y007898D01*
X029760Y007908D01*
X029823Y007929D01*
X029882Y007959D01*
X029936Y007998D01*
X029983Y008045D01*
X030022Y008099D01*
X030053Y008159D01*
X030073Y008222D01*
X030084Y008288D01*
X030084Y008293D01*
X030082Y008277D02*
X031965Y008277D01*
X031965Y008158D02*
X030052Y008158D01*
X029977Y008040D02*
X031965Y008040D01*
X031965Y007921D02*
X029798Y007921D01*
X029688Y007921D02*
X029633Y007921D01*
X029633Y007898D02*
X029633Y008293D01*
X029688Y008293D01*
X029688Y008348D01*
X029633Y008348D01*
X029633Y008293D01*
X029238Y008293D01*
X029238Y008288D01*
X029248Y008222D01*
X029269Y008159D01*
X029299Y008099D01*
X029338Y008045D01*
X029385Y007998D01*
X029439Y007959D01*
X029498Y007929D01*
X029562Y007908D01*
X029628Y007898D01*
X029633Y007898D01*
X029523Y007921D02*
X028544Y007921D01*
X028425Y007803D02*
X031965Y007803D01*
X031965Y007684D02*
X028307Y007684D01*
X028188Y007566D02*
X031965Y007566D01*
X031965Y007447D02*
X028070Y007447D01*
X027951Y007329D02*
X031965Y007329D01*
X031965Y007210D02*
X027833Y007210D01*
X027792Y007092D02*
X031965Y007092D01*
X031965Y006973D02*
X027792Y006973D01*
X027792Y006855D02*
X031965Y006855D01*
X031965Y006736D02*
X027792Y006736D01*
X027792Y006618D02*
X031965Y006618D01*
X031965Y006499D02*
X027792Y006499D01*
X027792Y006381D02*
X031965Y006381D01*
X031965Y006262D02*
X027792Y006262D01*
X027792Y006144D02*
X031965Y006144D01*
X031965Y006025D02*
X027792Y006025D01*
X027792Y005907D02*
X031965Y005907D01*
X031965Y005788D02*
X027792Y005788D01*
X027792Y005670D02*
X031965Y005670D01*
X031965Y005551D02*
X027792Y005551D01*
X027792Y005433D02*
X031965Y005433D01*
X031965Y005314D02*
X027792Y005314D01*
X027792Y005196D02*
X031957Y005196D01*
X031838Y005077D02*
X027792Y005077D01*
X027792Y004959D02*
X031720Y004959D01*
X032325Y005670D02*
X034283Y005670D01*
X034093Y005788D02*
X032325Y005788D01*
X032325Y005907D02*
X033975Y005907D01*
X033918Y006025D02*
X032325Y006025D01*
X032325Y006144D02*
X033869Y006144D01*
X033852Y006262D02*
X032325Y006262D01*
X032325Y006381D02*
X033852Y006381D01*
X033866Y006499D02*
X032325Y006499D01*
X032325Y006618D02*
X033915Y006618D01*
X033969Y006736D02*
X032325Y006736D01*
X032325Y006855D02*
X034087Y006855D01*
X034267Y006973D02*
X032325Y006973D01*
X029688Y008040D02*
X029633Y008040D01*
X029633Y008158D02*
X029688Y008158D01*
X029688Y008277D02*
X029633Y008277D01*
X029633Y008348D02*
X029238Y008348D01*
X029238Y008354D01*
X029248Y008420D01*
X029269Y008483D01*
X029299Y008542D01*
X029338Y008596D01*
X029385Y008643D01*
X029439Y008682D01*
X029498Y008713D01*
X029562Y008733D01*
X029628Y008744D01*
X029633Y008744D01*
X029633Y008348D01*
X029633Y008395D02*
X029688Y008395D01*
X029688Y008514D02*
X029633Y008514D01*
X029633Y008632D02*
X029688Y008632D01*
X029374Y008632D02*
X028891Y008632D01*
X028995Y008514D02*
X029284Y008514D01*
X029244Y008395D02*
X029044Y008395D01*
X029044Y008277D02*
X029240Y008277D01*
X029269Y008158D02*
X029008Y008158D01*
X028921Y008040D02*
X029344Y008040D01*
X027392Y006973D02*
X026951Y006973D01*
X027136Y006855D02*
X027392Y006855D01*
X027392Y006736D02*
X027255Y006736D01*
X027310Y006618D02*
X027392Y006618D01*
X027392Y006499D02*
X027359Y006499D01*
X027374Y006381D02*
X027392Y006381D01*
X027392Y006262D02*
X027374Y006262D01*
X027360Y006144D02*
X027392Y006144D01*
X027392Y006025D02*
X027311Y006025D01*
X027255Y005907D02*
X027392Y005907D01*
X027392Y005788D02*
X027137Y005788D01*
X026953Y005670D02*
X027392Y005670D01*
X028543Y004722D02*
X029286Y004722D01*
X029250Y004603D02*
X028567Y004603D01*
X028310Y004400D02*
X028272Y004438D01*
X028310Y004400D02*
X029606Y004400D01*
X029963Y004366D02*
X030077Y004366D01*
X030077Y004248D02*
X029963Y004248D01*
X029963Y004129D02*
X030077Y004129D01*
X030077Y004485D02*
X029963Y004485D01*
X029963Y004603D02*
X030077Y004603D01*
X030112Y004722D02*
X029927Y004722D01*
X029250Y004129D02*
X028518Y004129D01*
X027347Y004129D02*
X014989Y004129D01*
X014633Y004400D02*
X015628Y004400D01*
X016363Y005134D01*
X016299Y005198D02*
X016299Y011911D01*
X016119Y011950D02*
X008792Y011950D01*
X008792Y011832D02*
X016119Y011832D01*
X016119Y011713D02*
X008792Y011713D01*
X008792Y011595D02*
X016119Y011595D01*
X016119Y011476D02*
X008792Y011476D01*
X008792Y011358D02*
X016119Y011358D01*
X016119Y011239D02*
X008792Y011239D01*
X008792Y011121D02*
X016119Y011121D01*
X016119Y011002D02*
X014643Y011002D01*
X014566Y011034D02*
X014282Y011034D01*
X014019Y010925D01*
X013819Y010725D01*
X013710Y010462D01*
X013710Y010179D01*
X013819Y009916D01*
X014019Y009716D01*
X014282Y009607D01*
X014566Y009607D01*
X014828Y009716D01*
X015029Y009916D01*
X015137Y010179D01*
X015137Y010462D01*
X015029Y010725D01*
X014828Y010925D01*
X014566Y011034D01*
X014870Y010884D02*
X016119Y010884D01*
X016119Y010765D02*
X014988Y010765D01*
X015061Y010647D02*
X016119Y010647D01*
X016119Y010528D02*
X015110Y010528D01*
X015137Y010410D02*
X016119Y010410D01*
X016119Y010291D02*
X015137Y010291D01*
X015135Y010173D02*
X016119Y010173D01*
X016119Y010054D02*
X015086Y010054D01*
X015036Y009936D02*
X016119Y009936D01*
X016119Y009817D02*
X014929Y009817D01*
X014787Y009699D02*
X016119Y009699D01*
X016119Y009580D02*
X008792Y009580D01*
X008792Y009462D02*
X016119Y009462D01*
X016119Y009343D02*
X008792Y009343D01*
X008792Y009225D02*
X016119Y009225D01*
X016119Y009106D02*
X008792Y009106D01*
X008792Y008988D02*
X016119Y008988D01*
X016119Y008869D02*
X008792Y008869D01*
X008792Y008751D02*
X016119Y008751D01*
X016119Y008632D02*
X013710Y008632D01*
X013699Y008643D02*
X013645Y008682D01*
X013586Y008712D01*
X013523Y008733D01*
X013457Y008743D01*
X013451Y008743D01*
X013451Y008348D01*
X013396Y008348D01*
X013396Y008293D01*
X013001Y008293D01*
X013001Y008287D01*
X013011Y008221D01*
X013032Y008158D01*
X012771Y008158D01*
X012748Y008104D02*
X012806Y008244D01*
X012806Y008397D01*
X012748Y008537D01*
X012640Y008645D01*
X012500Y008703D01*
X012347Y008703D01*
X012207Y008645D01*
X012099Y008537D01*
X012041Y008397D01*
X012041Y008244D01*
X012048Y008227D01*
X011375Y007554D01*
X011375Y004788D01*
X011350Y004788D01*
X011280Y004718D01*
X011280Y004198D01*
X011350Y004128D01*
X011800Y004128D01*
X011870Y004198D01*
X011870Y004718D01*
X011800Y004788D01*
X011775Y004788D01*
X011775Y007389D01*
X012331Y007945D01*
X012347Y007938D01*
X012500Y007938D01*
X012640Y007996D01*
X012748Y008104D01*
X012684Y008040D02*
X013107Y008040D01*
X013101Y008045D02*
X013148Y007998D01*
X013202Y007959D01*
X013261Y007929D01*
X013325Y007908D01*
X013390Y007898D01*
X013396Y007898D01*
X013396Y008293D01*
X013451Y008293D01*
X013451Y007898D01*
X013457Y007898D01*
X013523Y007908D01*
X013586Y007929D01*
X013645Y007959D01*
X013699Y007998D01*
X013746Y008045D01*
X013785Y008099D01*
X013815Y008158D01*
X016119Y008158D01*
X016119Y008040D02*
X013741Y008040D01*
X013815Y008158D02*
X013836Y008221D01*
X013846Y008287D01*
X013846Y008293D01*
X013451Y008293D01*
X013451Y008348D01*
X013846Y008348D01*
X013846Y008354D01*
X013836Y008419D01*
X013815Y008483D01*
X013785Y008542D01*
X013746Y008596D01*
X013699Y008643D01*
X013800Y008514D02*
X016119Y008514D01*
X016119Y008395D02*
X013840Y008395D01*
X013845Y008277D02*
X016119Y008277D01*
X016479Y008751D02*
X021601Y008751D01*
X021684Y008751D02*
X021739Y008751D01*
X021821Y008751D02*
X023944Y008751D01*
X023944Y008869D02*
X016479Y008869D01*
X016479Y008988D02*
X023944Y008988D01*
X023944Y009106D02*
X016479Y009106D01*
X016479Y009225D02*
X023944Y009225D01*
X023944Y009343D02*
X016479Y009343D01*
X016479Y009462D02*
X023944Y009462D01*
X023944Y009580D02*
X016479Y009580D01*
X016479Y009699D02*
X022400Y009699D01*
X022307Y009737D02*
X022569Y009628D01*
X022853Y009628D01*
X023116Y009737D01*
X023316Y009938D01*
X023425Y010200D01*
X023425Y010484D01*
X023316Y010746D01*
X023116Y010947D01*
X022853Y011055D01*
X022569Y011055D01*
X022307Y010947D01*
X022107Y010746D01*
X021998Y010484D01*
X021998Y010200D01*
X022107Y009938D01*
X022307Y009737D01*
X022227Y009817D02*
X016479Y009817D01*
X016479Y009936D02*
X022109Y009936D01*
X022058Y010054D02*
X016479Y010054D01*
X016479Y010173D02*
X022009Y010173D01*
X021998Y010291D02*
X016479Y010291D01*
X016479Y010410D02*
X021998Y010410D01*
X022016Y010528D02*
X016479Y010528D01*
X016479Y010647D02*
X022065Y010647D01*
X022126Y010765D02*
X016479Y010765D01*
X016479Y010884D02*
X022244Y010884D01*
X022441Y011002D02*
X016479Y011002D01*
X016479Y011121D02*
X023944Y011121D01*
X023944Y011239D02*
X016479Y011239D01*
X016479Y011358D02*
X023944Y011358D01*
X023944Y011476D02*
X016479Y011476D01*
X016479Y011595D02*
X023944Y011595D01*
X023944Y011713D02*
X016479Y011713D01*
X016119Y012069D02*
X008792Y012069D01*
X008792Y012187D02*
X016119Y012187D01*
X016119Y012306D02*
X008792Y012306D01*
X008792Y012424D02*
X016119Y012424D01*
X016119Y012543D02*
X008792Y012543D01*
X008792Y012661D02*
X016119Y012661D01*
X016119Y012780D02*
X008792Y012780D01*
X008792Y012898D02*
X016119Y012898D01*
X016119Y013017D02*
X008792Y013017D01*
X008792Y013135D02*
X016119Y013135D01*
X016119Y013254D02*
X008792Y013254D01*
X008792Y013372D02*
X016119Y013372D01*
X016119Y013491D02*
X008792Y013491D01*
X008792Y013609D02*
X016119Y013609D01*
X016119Y013728D02*
X008792Y013728D01*
X008792Y013846D02*
X016119Y013846D01*
X016119Y016453D02*
X013577Y016453D01*
X013602Y016471D02*
X013649Y016518D01*
X013688Y016572D01*
X013719Y016632D01*
X013739Y016695D01*
X013750Y016761D01*
X013750Y016766D01*
X013354Y016766D01*
X013354Y016371D01*
X013360Y016371D01*
X013426Y016381D01*
X013489Y016402D01*
X013548Y016432D01*
X013602Y016471D01*
X013688Y016572D02*
X016119Y016572D01*
X016119Y016690D02*
X013738Y016690D01*
X013750Y016821D02*
X013354Y016821D01*
X013354Y016766D01*
X013299Y016766D01*
X013299Y016371D01*
X013293Y016371D01*
X013228Y016381D01*
X013164Y016402D01*
X013105Y016432D01*
X013051Y016471D01*
X013004Y016518D01*
X012965Y016572D01*
X012935Y016632D01*
X012914Y016695D01*
X012904Y016761D01*
X012904Y016766D01*
X013299Y016766D01*
X013299Y016821D01*
X012904Y016821D01*
X012904Y016827D01*
X012914Y016893D01*
X012935Y016956D01*
X012965Y017015D01*
X013004Y017069D01*
X013051Y017116D01*
X013105Y017155D01*
X013164Y017186D01*
X013228Y017206D01*
X013293Y017217D01*
X013299Y017217D01*
X013299Y016821D01*
X013354Y016821D01*
X013354Y017217D01*
X013360Y017217D01*
X013426Y017206D01*
X013489Y017186D01*
X013548Y017155D01*
X013602Y017116D01*
X013649Y017069D01*
X013688Y017015D01*
X013719Y016956D01*
X013739Y016893D01*
X013750Y016827D01*
X013750Y016821D01*
X013728Y016927D02*
X016119Y016927D01*
X016119Y016809D02*
X013354Y016809D01*
X013299Y016809D02*
X012710Y016809D01*
X012698Y016690D02*
X012916Y016690D01*
X012966Y016572D02*
X012646Y016572D01*
X012504Y016453D02*
X013077Y016453D01*
X013299Y016453D02*
X013354Y016453D01*
X013354Y016572D02*
X013299Y016572D01*
X013299Y016690D02*
X013354Y016690D01*
X013354Y016927D02*
X013299Y016927D01*
X013299Y017046D02*
X013354Y017046D01*
X013354Y017164D02*
X013299Y017164D01*
X013122Y017164D02*
X012433Y017164D01*
X012616Y017046D02*
X012987Y017046D01*
X012925Y016927D02*
X012686Y016927D01*
X013532Y017164D02*
X016119Y017164D01*
X016119Y017046D02*
X013667Y017046D01*
X012121Y017283D02*
X016119Y017283D01*
X016119Y017401D02*
X012002Y017401D01*
X011884Y017520D02*
X016119Y017520D01*
X016119Y017638D02*
X011765Y017638D01*
X011747Y017757D02*
X016119Y017757D01*
X016119Y017875D02*
X011747Y017875D01*
X014205Y011002D02*
X008792Y011002D01*
X008792Y010884D02*
X013978Y010884D01*
X013859Y010765D02*
X008792Y010765D01*
X008792Y010647D02*
X013786Y010647D01*
X013737Y010528D02*
X008792Y010528D01*
X008792Y010410D02*
X013710Y010410D01*
X013710Y010291D02*
X008792Y010291D01*
X008792Y010173D02*
X013713Y010173D01*
X013762Y010054D02*
X008792Y010054D01*
X008792Y009936D02*
X013811Y009936D01*
X013918Y009817D02*
X008792Y009817D01*
X008792Y009699D02*
X014061Y009699D01*
X013396Y008743D02*
X013390Y008743D01*
X013325Y008733D01*
X013261Y008712D01*
X013202Y008682D01*
X013148Y008643D01*
X013101Y008596D01*
X013062Y008542D01*
X013032Y008483D01*
X013011Y008419D01*
X013001Y008354D01*
X013001Y008348D01*
X013396Y008348D01*
X013396Y008743D01*
X013396Y008632D02*
X013451Y008632D01*
X013451Y008514D02*
X013396Y008514D01*
X013396Y008395D02*
X013451Y008395D01*
X013451Y008277D02*
X013396Y008277D01*
X013396Y008158D02*
X013451Y008158D01*
X013451Y008040D02*
X013396Y008040D01*
X013396Y007921D02*
X013451Y007921D01*
X013562Y007921D02*
X016119Y007921D01*
X016119Y007803D02*
X012189Y007803D01*
X012307Y007921D02*
X013285Y007921D01*
X013101Y008045D02*
X013062Y008099D01*
X013032Y008158D01*
X013003Y008277D02*
X012806Y008277D01*
X012806Y008395D02*
X013007Y008395D01*
X013047Y008514D02*
X012758Y008514D01*
X012653Y008632D02*
X013137Y008632D01*
X012194Y008632D02*
X008792Y008632D01*
X008792Y008514D02*
X012089Y008514D01*
X012041Y008395D02*
X008792Y008395D01*
X008792Y008277D02*
X012041Y008277D01*
X011978Y008158D02*
X008792Y008158D01*
X008792Y008040D02*
X011860Y008040D01*
X011741Y007921D02*
X008792Y007921D01*
X008792Y007803D02*
X011623Y007803D01*
X011504Y007684D02*
X008792Y007684D01*
X008792Y007566D02*
X011386Y007566D01*
X011375Y007447D02*
X008792Y007447D01*
X008792Y007329D02*
X011375Y007329D01*
X011375Y007210D02*
X008792Y007210D01*
X008792Y007092D02*
X011375Y007092D01*
X011375Y006973D02*
X010713Y006973D01*
X010828Y006925D02*
X010566Y007034D01*
X010282Y007034D01*
X010019Y006925D01*
X009819Y006725D01*
X009710Y006462D01*
X009710Y006179D01*
X009819Y005916D01*
X010019Y005716D01*
X010282Y005607D01*
X010566Y005607D01*
X010828Y005716D01*
X011029Y005916D01*
X011137Y006179D01*
X011137Y006462D01*
X011029Y006725D01*
X010828Y006925D01*
X010899Y006855D02*
X011375Y006855D01*
X011375Y006736D02*
X011017Y006736D01*
X011073Y006618D02*
X011375Y006618D01*
X011375Y006499D02*
X011122Y006499D01*
X011137Y006381D02*
X011375Y006381D01*
X011375Y006262D02*
X011137Y006262D01*
X011123Y006144D02*
X011375Y006144D01*
X011375Y006025D02*
X011074Y006025D01*
X011019Y005907D02*
X011375Y005907D01*
X011375Y005788D02*
X010900Y005788D01*
X010717Y005670D02*
X011375Y005670D01*
X011375Y005551D02*
X008792Y005551D01*
X008792Y005433D02*
X011375Y005433D01*
X011375Y005314D02*
X008792Y005314D01*
X008792Y005196D02*
X011375Y005196D01*
X011375Y005077D02*
X008792Y005077D01*
X008792Y004959D02*
X011375Y004959D01*
X011375Y004840D02*
X008792Y004840D01*
X008792Y004722D02*
X011284Y004722D01*
X011280Y004603D02*
X008792Y004603D01*
X008792Y004485D02*
X011280Y004485D01*
X011280Y004366D02*
X008792Y004366D01*
X008792Y004248D02*
X011280Y004248D01*
X011349Y004129D02*
X008792Y004129D01*
X008792Y005670D02*
X010131Y005670D01*
X009947Y005788D02*
X008792Y005788D01*
X008792Y005907D02*
X009829Y005907D01*
X009774Y006025D02*
X008792Y006025D01*
X008792Y006144D02*
X009725Y006144D01*
X009710Y006262D02*
X008792Y006262D01*
X008792Y006381D02*
X009710Y006381D01*
X009725Y006499D02*
X008792Y006499D01*
X008792Y006618D02*
X009774Y006618D01*
X009830Y006736D02*
X008792Y006736D01*
X008792Y006855D02*
X009949Y006855D01*
X010135Y006973D02*
X008792Y006973D01*
X011775Y006973D02*
X016119Y006973D01*
X016119Y006855D02*
X011775Y006855D01*
X011775Y006736D02*
X016119Y006736D01*
X016119Y006618D02*
X011775Y006618D01*
X011775Y006499D02*
X016119Y006499D01*
X016119Y006381D02*
X011775Y006381D01*
X011775Y006262D02*
X016119Y006262D01*
X016119Y006144D02*
X011775Y006144D01*
X011775Y006025D02*
X016119Y006025D01*
X016119Y005907D02*
X011775Y005907D01*
X011775Y005788D02*
X016119Y005788D01*
X016119Y005670D02*
X011775Y005670D01*
X011775Y005551D02*
X016119Y005551D01*
X016119Y005433D02*
X011775Y005433D01*
X011775Y005314D02*
X016119Y005314D01*
X016099Y005196D02*
X011775Y005196D01*
X011775Y005077D02*
X016051Y005077D01*
X015932Y004959D02*
X011775Y004959D01*
X011775Y004840D02*
X015814Y004840D01*
X015695Y004722D02*
X014954Y004722D01*
X014989Y004603D02*
X015577Y004603D01*
X015937Y003537D02*
X016463Y003537D01*
X016345Y003418D02*
X016055Y003418D01*
X016150Y003300D02*
X016250Y003300D01*
X016250Y003181D02*
X016150Y003181D01*
X016150Y003063D02*
X016250Y003063D01*
X016257Y002944D02*
X016143Y002944D01*
X016025Y002826D02*
X016375Y002826D01*
X016494Y002707D02*
X015906Y002707D01*
X016906Y002707D02*
X017494Y002707D01*
X014277Y004129D02*
X014163Y004129D01*
X014163Y004114D02*
X014163Y004686D01*
X014092Y004756D01*
X013520Y004756D01*
X013450Y004686D01*
X013450Y004580D01*
X012550Y004580D01*
X012550Y004718D01*
X012480Y004788D01*
X012030Y004788D01*
X011960Y004718D01*
X011960Y004198D01*
X012030Y004128D01*
X012480Y004128D01*
X012550Y004198D01*
X012550Y004220D01*
X013450Y004220D01*
X013450Y004114D01*
X013520Y004044D01*
X014092Y004044D01*
X014163Y004114D01*
X014163Y004248D02*
X014277Y004248D01*
X014277Y004366D02*
X014163Y004366D01*
X014163Y004485D02*
X014277Y004485D01*
X014277Y004603D02*
X014163Y004603D01*
X014127Y004722D02*
X014312Y004722D01*
X013806Y004400D02*
X012313Y004400D01*
X012255Y004458D01*
X012269Y004444D01*
X011960Y004485D02*
X011870Y004485D01*
X011870Y004603D02*
X011960Y004603D01*
X011964Y004722D02*
X011866Y004722D01*
X011870Y004366D02*
X011960Y004366D01*
X011960Y004248D02*
X011870Y004248D01*
X011801Y004129D02*
X012029Y004129D01*
X012481Y004129D02*
X013450Y004129D01*
X013450Y004603D02*
X012550Y004603D01*
X012546Y004722D02*
X013486Y004722D01*
X016479Y005670D02*
X018470Y005670D01*
X018256Y005788D02*
X016479Y005788D01*
X016479Y005907D02*
X018138Y005907D01*
X018070Y006025D02*
X016479Y006025D01*
X016479Y006144D02*
X018021Y006144D01*
X017998Y006262D02*
X016479Y006262D01*
X016479Y006381D02*
X017998Y006381D01*
X018004Y006499D02*
X016479Y006499D01*
X016479Y006618D02*
X018053Y006618D01*
X018102Y006736D02*
X016479Y006736D01*
X016479Y006855D02*
X018215Y006855D01*
X018371Y006973D02*
X016479Y006973D01*
X016119Y007092D02*
X011775Y007092D01*
X011775Y007210D02*
X016119Y007210D01*
X016119Y007329D02*
X011775Y007329D01*
X011833Y007447D02*
X016119Y007447D01*
X016119Y007566D02*
X011952Y007566D01*
X012070Y007684D02*
X016119Y007684D01*
X021684Y008040D02*
X021739Y008040D01*
X021739Y008158D02*
X021684Y008158D01*
X021684Y008277D02*
X021739Y008277D01*
X021739Y008395D02*
X021684Y008395D01*
X021684Y008514D02*
X021739Y008514D01*
X021739Y008632D02*
X021684Y008632D01*
X022019Y008632D02*
X023944Y008632D01*
X023944Y008514D02*
X022098Y008514D01*
X022131Y008395D02*
X023944Y008395D01*
X023944Y008277D02*
X022129Y008277D01*
X022092Y008158D02*
X023944Y008158D01*
X023944Y008040D02*
X022007Y008040D01*
X023023Y009699D02*
X023944Y009699D01*
X023944Y009817D02*
X023196Y009817D01*
X023314Y009936D02*
X023944Y009936D01*
X023944Y010054D02*
X023365Y010054D01*
X023414Y010173D02*
X023944Y010173D01*
X023944Y010291D02*
X023425Y010291D01*
X023425Y010410D02*
X023944Y010410D01*
X023944Y010528D02*
X023407Y010528D01*
X023357Y010647D02*
X023944Y010647D01*
X023944Y010765D02*
X023297Y010765D01*
X023179Y010884D02*
X023944Y010884D01*
X023944Y011002D02*
X022982Y011002D01*
X033690Y002774D02*
X033690Y002570D01*
D12*
X036566Y008324D03*
X037566Y008324D03*
X029661Y008321D03*
X028661Y008321D03*
X021711Y008342D03*
X020711Y008342D03*
X013424Y008320D03*
X012424Y008320D03*
X012327Y016794D03*
X013327Y016794D03*
X020534Y016840D03*
X021534Y016840D03*
X028659Y016883D03*
X029659Y016883D03*
X036515Y016883D03*
X037515Y016883D03*
D13*
X038515Y018883D03*
X034515Y014883D03*
X030659Y018883D03*
X026659Y014883D03*
X022534Y018840D03*
X018534Y014840D03*
X014327Y018794D03*
X010327Y014794D03*
X014424Y010320D03*
X018711Y006342D03*
X022711Y010342D03*
X026661Y006321D03*
X030661Y010321D03*
X034566Y006324D03*
X038566Y010324D03*
X010424Y006320D03*
D14*
X040915Y017659D03*
X040915Y017856D03*
X040915Y018053D03*
X040915Y018250D03*
X040915Y018446D03*
X040915Y018643D03*
X040915Y018840D03*
X040915Y019037D03*
X040915Y019234D03*
X040915Y019431D03*
X040915Y019628D03*
X040915Y019824D03*
X040915Y020021D03*
X040915Y020218D03*
X040915Y020415D03*
X040915Y020612D03*
X040915Y020809D03*
X040915Y021006D03*
X040915Y021202D03*
D15*
X041289Y022187D03*
X043218Y022423D03*
X043218Y016242D03*
X041289Y016478D03*
D16*
X036345Y020581D03*
X035665Y020581D03*
X028324Y020581D03*
X027644Y020581D03*
X020141Y020589D03*
X019461Y020589D03*
X012227Y020612D03*
X011547Y020612D03*
X011575Y004458D03*
X012255Y004458D03*
X019850Y004554D03*
X020530Y004554D03*
X027592Y004438D03*
X028272Y004438D03*
X035739Y004445D03*
X036419Y004445D03*
D17*
X033690Y003454D03*
X033690Y002774D03*
D18*
X027700Y003137D03*
X026700Y003137D03*
X025700Y003137D03*
X024700Y003137D03*
X023700Y003137D03*
X022700Y003137D03*
X020700Y003137D03*
X019700Y003137D03*
X018700Y003137D03*
X017700Y003137D03*
X016700Y003137D03*
X015700Y003137D03*
X016100Y022137D03*
X015100Y022137D03*
X014100Y022137D03*
X013100Y022137D03*
X012100Y022137D03*
X017100Y022137D03*
X018100Y022137D03*
X019100Y022137D03*
X020700Y022137D03*
X021700Y022137D03*
X022700Y022137D03*
X023700Y022137D03*
X024700Y022137D03*
X025700Y022137D03*
X026700Y022137D03*
X027700Y022137D03*
D19*
X042831Y013313D02*
X043371Y013313D01*
X043371Y012313D02*
X042831Y012313D01*
X042831Y011313D02*
X043371Y011313D01*
D20*
X038633Y004400D03*
X037806Y004400D03*
X032620Y003513D03*
X032620Y002687D03*
X030433Y004400D03*
X029606Y004400D03*
X022933Y004500D03*
X022106Y004500D03*
X014633Y004400D03*
X013806Y004400D03*
X021306Y020600D03*
X022133Y020600D03*
X029806Y020600D03*
X030633Y020600D03*
X037706Y020600D03*
X038533Y020600D03*
X014333Y020700D03*
X013506Y020700D03*
D21*
X011547Y020612D02*
X011547Y017573D01*
X012327Y016794D01*
X012424Y008320D02*
X011575Y007472D01*
X011575Y004458D01*
X016299Y005198D02*
X016363Y005134D01*
X019850Y004554D02*
X019850Y007480D01*
X020711Y008342D01*
X027592Y007252D02*
X027592Y004438D01*
X027592Y007252D02*
X028661Y008321D01*
X035739Y007498D02*
X035739Y004445D01*
X035739Y007498D02*
X036566Y008324D01*
X038420Y011911D02*
X038420Y013300D01*
X041053Y011911D02*
X041446Y011911D01*
X041840Y012305D01*
X043093Y012305D01*
X043101Y012313D01*
X036515Y016883D02*
X035665Y017734D01*
X035665Y020581D01*
X028659Y016883D02*
X028498Y016722D01*
X028659Y016883D02*
X027644Y017898D01*
X027644Y020581D01*
D22*
X028324Y020581D02*
X028365Y020622D01*
X016230Y020080D02*
X015741Y020569D01*
X012270Y020569D02*
X012227Y020612D01*
X020530Y004554D02*
X020623Y004460D01*
X028272Y004438D02*
X028275Y004435D01*
X036419Y004445D02*
X036428Y004437D01*
X040069Y004628D02*
X040069Y005218D01*
D23*
X038420Y013300D03*
X032588Y017898D03*
X024620Y019100D03*
M02*
