G75*
%MOIN*%
%OFA0B0*%
%FSLAX24Y24*%
%IPPOS*%
%LPD*%
%AMOC8*
5,1,8,0,0,1.08239X$1,22.5*
%
%ADD10C,0.0000*%
%ADD11C,0.0120*%
%ADD12R,0.0520X0.0070*%
%ADD13R,0.0350X0.0420*%
%ADD14R,0.0420X0.0350*%
%ADD15R,0.0472X0.0472*%
D10*
X005620Y000100D02*
X005620Y031596D01*
X044990Y031596D01*
X044990Y000100D01*
X005620Y000100D01*
D11*
X008572Y002069D02*
X008572Y023131D01*
X044399Y023131D01*
X044399Y002069D01*
X008572Y002069D01*
D12*
X040859Y017657D03*
X040859Y017857D03*
X040859Y018057D03*
X040859Y018247D03*
X040859Y018447D03*
X040869Y018647D03*
X040859Y018837D03*
X040849Y019037D03*
X040869Y019237D03*
X040869Y019437D03*
X040859Y019627D03*
X040869Y019827D03*
X040869Y020017D03*
X040859Y020217D03*
X040859Y020417D03*
X040859Y020607D03*
X040859Y020807D03*
X040859Y021007D03*
X040869Y021207D03*
D13*
X036345Y020581D03*
X035665Y020581D03*
X028324Y020581D03*
X027644Y020581D03*
X020141Y020589D03*
X019461Y020589D03*
X012227Y020612D03*
X011547Y020612D03*
X011575Y004458D03*
X012255Y004458D03*
X019850Y004554D03*
X020530Y004554D03*
X027592Y004438D03*
X028272Y004438D03*
X035739Y004445D03*
X036419Y004445D03*
D14*
X033690Y003454D03*
X033690Y002774D03*
D15*
X032620Y002687D03*
X032620Y003513D03*
X030433Y004400D03*
X029606Y004400D03*
X022933Y004500D03*
X022106Y004500D03*
X014633Y004400D03*
X013806Y004400D03*
X021306Y020600D03*
X022133Y020600D03*
X029806Y020600D03*
X030633Y020600D03*
X037706Y020600D03*
X038533Y020600D03*
X038633Y004400D03*
X037806Y004400D03*
X014333Y020700D03*
X013506Y020700D03*
M02*
