G75*
%MOIN*%
%OFA0B0*%
%FSLAX24Y24*%
%IPPOS*%
%LPD*%
%AMOC8*
5,1,8,0,0,1.08239X$1,22.5*
%
%ADD10C,0.0000*%
%ADD11C,0.0120*%
%ADD12C,0.0566*%
%ADD13C,0.1227*%
%ADD14C,0.0808*%
%ADD15OC8,0.0700*%
%ADD16C,0.0580*%
D10*
X005620Y000100D02*
X005620Y031596D01*
X044990Y031596D01*
X044990Y000100D01*
X005620Y000100D01*
D11*
X008572Y002069D02*
X008572Y023131D01*
X044399Y023131D01*
X044399Y002069D01*
X008572Y002069D01*
D12*
X012424Y008320D03*
X013424Y008320D03*
X020711Y008342D03*
X021711Y008342D03*
X028661Y008321D03*
X029661Y008321D03*
X036566Y008324D03*
X037566Y008324D03*
X037515Y016883D03*
X036515Y016883D03*
X029659Y016883D03*
X028659Y016883D03*
X021534Y016840D03*
X020534Y016840D03*
X013327Y016794D03*
X012327Y016794D03*
D13*
X010327Y014794D03*
X014327Y018794D03*
X018534Y014840D03*
X022534Y018840D03*
X026659Y014883D03*
X030659Y018883D03*
X034515Y014883D03*
X038515Y018883D03*
X038566Y010324D03*
X034566Y006324D03*
X030661Y010321D03*
X026661Y006321D03*
X022711Y010342D03*
X018711Y006342D03*
X014424Y010320D03*
X010424Y006320D03*
D14*
X041289Y016478D03*
X043218Y016242D03*
X041289Y022187D03*
X043218Y022423D03*
D15*
X027700Y022137D03*
X026700Y022137D03*
X025700Y022137D03*
X024700Y022137D03*
X023700Y022137D03*
X022700Y022137D03*
X021700Y022137D03*
X020700Y022137D03*
X019100Y022137D03*
X018100Y022137D03*
X017100Y022137D03*
X016100Y022137D03*
X015100Y022137D03*
X014100Y022137D03*
X013100Y022137D03*
X012100Y022137D03*
X015700Y003137D03*
X016700Y003137D03*
X017700Y003137D03*
X018700Y003137D03*
X019700Y003137D03*
X020700Y003137D03*
X022700Y003137D03*
X023700Y003137D03*
X024700Y003137D03*
X025700Y003137D03*
X026700Y003137D03*
X027700Y003137D03*
D16*
X042831Y011313D02*
X043371Y011313D01*
X043371Y012313D02*
X042831Y012313D01*
X042831Y013313D02*
X043371Y013313D01*
M02*
