G75*
%MOIN*%
%OFA0B0*%
%FSLAX24Y24*%
%IPPOS*%
%LPD*%
%AMOC8*
5,1,8,0,0,1.08239X$1,22.5*
%
%ADD10C,0.0000*%
%ADD11C,0.0120*%
%ADD12C,0.0566*%
%ADD13C,0.1227*%
%ADD14R,0.0788X0.0158*%
%ADD15C,0.0808*%
%ADD16R,0.0390X0.0460*%
%ADD17R,0.0460X0.0390*%
%ADD18OC8,0.0700*%
%ADD19C,0.0580*%
%ADD20R,0.0512X0.0512*%
D10*
X005620Y000100D02*
X005620Y031596D01*
X044990Y031596D01*
X044990Y000100D01*
X005620Y000100D01*
D11*
X008572Y002069D02*
X008572Y023131D01*
X044399Y023131D01*
X044399Y002069D01*
X008572Y002069D01*
D12*
X012424Y008320D03*
X013424Y008320D03*
X020711Y008342D03*
X021711Y008342D03*
X028661Y008321D03*
X029661Y008321D03*
X036566Y008324D03*
X037566Y008324D03*
X037515Y016883D03*
X036515Y016883D03*
X029659Y016883D03*
X028659Y016883D03*
X021534Y016840D03*
X020534Y016840D03*
X013327Y016794D03*
X012327Y016794D03*
D13*
X010327Y014794D03*
X014327Y018794D03*
X018534Y014840D03*
X022534Y018840D03*
X026659Y014883D03*
X030659Y018883D03*
X034515Y014883D03*
X038515Y018883D03*
X038566Y010324D03*
X034566Y006324D03*
X030661Y010321D03*
X026661Y006321D03*
X022711Y010342D03*
X018711Y006342D03*
X014424Y010320D03*
X010424Y006320D03*
D14*
X040915Y017659D03*
X040915Y017856D03*
X040915Y018053D03*
X040915Y018250D03*
X040915Y018446D03*
X040915Y018643D03*
X040915Y018840D03*
X040915Y019037D03*
X040915Y019234D03*
X040915Y019431D03*
X040915Y019628D03*
X040915Y019824D03*
X040915Y020021D03*
X040915Y020218D03*
X040915Y020415D03*
X040915Y020612D03*
X040915Y020809D03*
X040915Y021006D03*
X040915Y021202D03*
D15*
X041289Y022187D03*
X043218Y022423D03*
X043218Y016242D03*
X041289Y016478D03*
D16*
X036345Y020581D03*
X035665Y020581D03*
X028324Y020581D03*
X027644Y020581D03*
X020141Y020589D03*
X019461Y020589D03*
X012227Y020612D03*
X011547Y020612D03*
X011575Y004458D03*
X012255Y004458D03*
X019850Y004554D03*
X020530Y004554D03*
X027592Y004438D03*
X028272Y004438D03*
X035739Y004445D03*
X036419Y004445D03*
D17*
X033690Y003454D03*
X033690Y002774D03*
D18*
X027700Y003137D03*
X026700Y003137D03*
X025700Y003137D03*
X024700Y003137D03*
X023700Y003137D03*
X022700Y003137D03*
X020700Y003137D03*
X019700Y003137D03*
X018700Y003137D03*
X017700Y003137D03*
X016700Y003137D03*
X015700Y003137D03*
X016100Y022137D03*
X015100Y022137D03*
X014100Y022137D03*
X013100Y022137D03*
X012100Y022137D03*
X017100Y022137D03*
X018100Y022137D03*
X019100Y022137D03*
X020700Y022137D03*
X021700Y022137D03*
X022700Y022137D03*
X023700Y022137D03*
X024700Y022137D03*
X025700Y022137D03*
X026700Y022137D03*
X027700Y022137D03*
D19*
X042831Y013313D02*
X043371Y013313D01*
X043371Y012313D02*
X042831Y012313D01*
X042831Y011313D02*
X043371Y011313D01*
D20*
X038633Y004400D03*
X037806Y004400D03*
X032620Y003513D03*
X032620Y002687D03*
X030433Y004400D03*
X029606Y004400D03*
X022933Y004500D03*
X022106Y004500D03*
X014633Y004400D03*
X013806Y004400D03*
X021306Y020600D03*
X022133Y020600D03*
X029806Y020600D03*
X030633Y020600D03*
X037706Y020600D03*
X038533Y020600D03*
X014333Y020700D03*
X013506Y020700D03*
M02*
